<?xml version="1.0" standalone="no"?>

<!DOCTYPE svg PUBLIC "-//W3C//DTD SVG 20010904//EN"

 "http://www.w3.org/TR/2001/REC-SVG-20010904/DTD/svg10.dtd">

<svg version="1.0" xmlns="http://www.w3.org/2000/svg"

 width="113.385827" height="85.039370" viewBox="0 0 113.385827 85.039370"

 preserveAspectRatio="xMidYMid meet">

<metadata>

Created by potrace 1.15, written by Peter Selinger 2001-2017

</metadata>

<g transform="translate(0.000000,85.039370) scale(0.004374,-0.004374)"

fill="#000000" stroke="none">

<path d="M0 9720 l0 -9720 12960 0 12960 0 0 9720 0 9720 -12960 0 -12960 0 0

-9720z m11385 5306 c39 -3 111 -8 160 -12 50 -4 154 -8 232 -8 77 -1 139 -4

136 -8 -8 -14 15 -8 30 6 8 9 18 11 23 6 5 -5 28 -5 54 1 70 16 662 4 722 -15

82 -26 88 -31 75 -67 -14 -37 -50 -65 -69 -52 -7 4 -29 9 -48 9 -19 1 -65 2

-102 4 -38 1 -70 6 -74 11 -3 5 -13 5 -25 -1 -11 -6 -24 -8 -30 -4 -6 3 -69 6

-140 6 -76 -1 -131 3 -135 9 -3 6 -10 6 -17 1 -7 -5 -34 -8 -62 -6 -156 9

-335 12 -335 6 0 -4 24 -14 53 -22 40 -12 52 -20 52 -35 0 -17 -9 -21 -65 -26

-90 -9 -173 0 -166 17 6 17 -16 18 -31 3 -11 -11 -40 -11 -518 7 -155 6 -818

6 -892 0 -34 -2 -67 -8 -74 -11 -6 -4 -16 -2 -22 4 -13 13 -71 15 -95 2 -9 -5

-91 -12 -182 -16 -91 -4 -177 -9 -192 -10 -16 -1 -55 -3 -87 -4 -40 -1 -65 -6

-76 -17 -11 -12 -26 -15 -51 -11 -18 3 -34 2 -34 -2 0 -5 -22 -11 -49 -15 -27

-3 -64 -14 -82 -23 -19 -9 -45 -18 -58 -19 -22 -3 -54 -28 -136 -109 -66 -66

-311 -333 -361 -395 -16 -19 -38 -44 -49 -56 -42 -44 -75 -84 -69 -84 3 0 -1

-6 -8 -14 -8 -7 -30 -33 -49 -56 -78 -98 -111 -136 -134 -162 -14 -15 -25 -30

-25 -33 0 -4 -20 -32 -43 -63 -122 -159 -398 -543 -432 -600 -6 -9 -53 -82

-106 -162 -144 -217 -169 -257 -169 -268 0 -6 -6 -17 -13 -24 -8 -7 -26 -35

-40 -61 -15 -25 -48 -84 -74 -129 -51 -90 -161 -311 -183 -368 -18 -47 -29

-58 -40 -40 -9 15 -14 3 -24 -64 -6 -34 -11 -40 -26 -31 -6 4 -8 16 -5 27 5

14 1 21 -14 25 -16 4 -21 13 -21 41 0 43 29 112 47 112 7 0 12 3 12 8 -4 24 3

41 21 47 11 3 19 9 19 13 -4 24 3 42 16 42 9 0 15 9 15 24 0 13 7 29 15 36 8

6 13 17 12 23 -1 6 9 16 21 23 15 7 19 13 11 16 -9 3 -6 11 9 26 12 12 22 30

22 41 0 10 7 24 15 31 8 7 15 21 15 31 0 11 5 19 11 19 5 0 15 14 20 30 6 17

17 30 24 30 8 0 11 7 8 19 -2 10 3 25 11 34 9 8 16 19 16 23 0 15 82 144 92

144 5 0 7 4 3 10 -3 5 2 17 12 27 10 10 24 32 31 48 16 35 64 109 75 113 4 2

7 10 7 18 0 8 9 22 20 31 11 10 20 25 20 35 0 10 4 18 9 18 5 0 14 14 20 30 5

17 15 30 20 30 6 0 11 6 11 12 0 21 124 197 134 190 5 -3 7 2 3 10 -3 9 3 24

14 34 10 9 19 23 19 30 0 7 6 17 13 21 7 4 18 20 24 36 7 15 17 27 23 27 5 0

10 6 10 14 0 8 3 16 8 18 4 2 29 36 56 76 26 39 53 72 59 72 6 0 7 3 4 6 -9 9

12 46 23 39 4 -3 13 9 19 26 6 17 15 28 20 25 5 -3 12 5 15 19 4 14 11 25 16

25 6 0 10 6 10 13 0 6 18 32 40 56 22 24 40 48 40 53 0 5 7 11 15 14 8 4 15

11 15 18 0 12 39 63 80 106 14 15 27 31 29 36 7 19 59 72 65 67 3 -4 6 1 6 10

0 9 9 21 20 27 11 6 20 16 20 22 0 6 9 20 20 32 87 89 170 185 170 197 0 4 9

11 20 14 11 3 20 11 20 16 0 9 3 13 65 83 36 40 44 70 23 80 -7 4 -3 4 10 2

20 -4 22 0 22 36 0 31 4 41 19 45 11 3 24 18 30 34 5 16 14 29 20 29 5 0 22

11 37 25 15 14 32 25 38 25 6 0 4 -5 -4 -10 -11 -7 -11 -10 -2 -10 25 0 52 21

52 39 0 28 71 39 105 17 13 -9 31 -16 40 -16 8 0 15 -5 15 -11 0 -8 22 -10 73

-6 210 17 323 28 335 32 7 3 54 7 105 11 50 3 99 8 107 10 8 3 55 8 105 11 49

3 92 8 95 10 6 5 1108 -5 1215 -11z m1928 -168 c12 -7 35 -11 50 -9 21 2 30

-2 34 -18 4 -17 8 -18 30 -8 22 10 28 8 42 -10 12 -14 22 -18 32 -12 10 5 26

2 43 -7 16 -7 41 -14 56 -14 15 0 33 -6 39 -14 7 -8 22 -11 38 -8 18 3 30 -1

39 -13 9 -12 20 -16 38 -11 18 4 29 1 39 -15 8 -11 23 -20 34 -19 37 4 53 0

53 -15 0 -8 5 -15 10 -15 6 0 10 5 10 11 0 7 11 9 33 4 17 -4 48 -6 69 -6 20

0 41 -6 48 -14 7 -8 28 -15 47 -15 21 0 36 -6 40 -16 4 -11 13 -13 33 -9 18 4

33 1 43 -10 10 -10 26 -14 44 -11 17 4 34 -1 46 -11 11 -11 31 -16 52 -15 18

2 36 -1 40 -7 3 -6 19 -11 36 -11 16 0 37 -4 47 -9 17 -9 73 -25 124 -36 15

-3 30 -14 33 -26 5 -15 10 -17 20 -9 16 13 62 3 68 -15 3 -7 15 -11 30 -8 13

3 39 -3 57 -12 17 -9 38 -14 46 -11 8 3 23 -3 34 -14 12 -12 33 -20 54 -20 25

0 35 -5 39 -20 3 -11 10 -20 17 -20 6 0 8 4 5 10 -7 12 43 -6 63 -22 7 -6 25

-13 39 -14 14 -2 33 -10 42 -18 10 -9 29 -16 43 -16 14 0 33 -9 43 -20 10 -12

25 -18 33 -15 22 8 61 -5 67 -23 3 -11 17 -17 39 -18 21 0 32 4 29 9 -3 6 -1

7 6 3 6 -4 9 -11 6 -16 -8 -13 6 -41 19 -37 6 2 11 9 11 15 0 7 5 13 10 14 6

0 15 7 20 15 8 11 15 9 37 -12 15 -14 36 -25 48 -25 11 0 20 -4 20 -10 0 -5

15 -10 34 -10 19 0 38 -5 42 -11 3 -6 19 -9 35 -5 24 5 29 2 29 -14 0 -24 25

-27 34 -4 3 8 11 12 17 9 8 -5 8 -10 0 -18 -18 -18 -13 -27 17 -27 15 0 48 -7

74 -15 31 -9 50 -10 54 -4 4 7 10 7 18 0 21 -18 142 -19 131 -1 -3 6 1 10 9

10 10 0 13 -6 10 -17 -5 -15 -4 -16 5 -3 9 12 13 12 19 2 6 -9 15 -10 33 -3

14 6 17 10 8 10 -8 1 -30 12 -49 26 -33 24 -33 25 -9 25 13 0 34 -6 45 -14 35

-25 168 -92 194 -99 19 -5 26 -13 28 -34 1 -27 1 -27 -14 -8 -8 11 -23 19 -32

17 -10 -1 -44 13 -76 33 -32 19 -62 35 -67 35 -17 0 -9 -36 9 -38 40 -4 54 -9

61 -21 5 -7 12 -12 16 -11 14 4 66 -53 61 -66 -3 -8 0 -13 7 -11 14 2 21 -36

13 -69 -4 -16 -11 -22 -19 -18 -7 4 -3 -3 8 -15 16 -18 17 -25 7 -41 -17 -27

-15 -34 3 -16 9 8 17 33 19 54 4 46 12 62 32 62 8 0 14 5 14 12 0 9 3 9 11 1

16 -16 -12 -116 -57 -204 -19 -36 -34 -74 -34 -82 0 -9 -9 -21 -20 -27 -11 -6

-20 -14 -20 -19 0 -10 48 -2 55 10 3 4 12 6 20 2 14 -5 19 6 16 35 -1 6 2 12

6 13 25 2 100 8 108 8 6 1 28 -1 50 -4 22 -3 59 -8 81 -11 40 -5 41 -6 31 -28

-8 -16 -26 -28 -57 -36 -26 -7 -55 -19 -66 -27 -16 -12 -17 -15 -4 -23 8 -5

27 -10 42 -10 15 0 30 -4 33 -10 3 -5 19 -10 35 -10 17 0 34 -8 42 -18 8 -12

26 -19 48 -20 22 0 41 -8 52 -21 9 -12 27 -21 40 -21 14 0 35 -11 48 -25 13

-14 30 -23 38 -20 8 3 26 -8 42 -25 15 -16 38 -30 49 -30 12 0 29 -9 38 -20

10 -11 25 -20 34 -20 10 0 26 -11 37 -25 12 -15 30 -25 46 -25 15 0 31 -8 38

-20 7 -11 23 -20 35 -20 13 0 28 -9 35 -20 7 -11 19 -20 26 -20 8 0 0 11 -16

25 -17 14 -37 25 -46 25 -18 0 -22 16 -5 22 9 3 9 10 0 26 -9 17 -18 21 -33

16 -18 -5 -20 -3 -14 19 5 20 0 30 -22 46 l-27 21 40 -16 c22 -9 52 -25 67

-35 34 -24 63 -24 98 1 28 20 29 20 35 1 3 -10 28 -42 56 -71 59 -61 67 -80

67 -143 -1 -49 -6 -53 -60 -48 -10 1 -18 -3 -18 -8 0 -6 7 -11 16 -11 20 0 43

-28 44 -52 0 -9 11 -29 25 -42 21 -21 24 -30 15 -46 -8 -15 -7 -21 8 -29 16

-8 21 -6 31 15 6 14 11 31 11 37 0 7 14 21 30 30 17 10 30 23 30 28 0 6 5 7

10 4 6 -3 10 -2 10 2 0 5 6 17 13 28 13 16 14 15 9 -13 -6 -45 11 -41 68 18

56 57 71 64 39 18 -43 -62 -122 -153 -131 -151 -4 2 -8 -7 -8 -20 0 -12 -13

-32 -30 -46 -18 -14 -30 -33 -30 -47 0 -12 -4 -26 -10 -29 -14 -9 -13 -48 2

-63 9 -9 9 -12 0 -12 -7 0 -12 -6 -12 -14 0 -8 -5 -27 -12 -43 -6 -15 -13 -44

-14 -63 -2 -19 -11 -40 -20 -47 -25 -18 -74 -17 -74 2 0 8 -4 15 -10 15 -13 0

-13 -6 1 -31 5 -11 14 -17 19 -14 4 3 7 -19 7 -49 -1 -30 1 -52 6 -49 4 2 7

-7 7 -21 0 -14 -6 -26 -12 -27 -10 0 -10 -2 0 -6 6 -2 12 -12 11 -21 0 -11 -2

-13 -6 -4 -7 19 -33 -5 -33 -31 0 -27 -31 -139 -41 -151 -5 -6 -9 -19 -9 -31

0 -12 -5 -26 -11 -32 -5 -5 -13 -36 -16 -67 -3 -31 -10 -56 -14 -56 -5 0 -9

-10 -9 -22 0 -13 -7 -48 -15 -78 -21 -76 -45 -199 -45 -231 0 -15 -6 -32 -13

-38 -8 -6 -26 -41 -41 -78 -15 -38 -31 -75 -36 -84 -44 -84 -71 -188 -76 -294

-2 -33 -10 -87 -18 -120 -33 -134 -37 -150 -45 -160 -4 -5 -16 -48 -26 -95 -9

-47 -21 -89 -25 -95 -4 -5 -10 -28 -14 -50 -12 -71 -15 -76 -36 -65 -27 14

-28 14 -50 -31 -12 -22 -37 -54 -56 -71 -26 -23 -39 -47 -55 -102 -125 -422

-322 -1011 -452 -1351 -195 -512 -362 -936 -464 -1180 -145 -346 -134 -321

-207 -477 -20 -42 -36 -78 -36 -81 0 -4 -43 -97 -147 -317 -85 -180 -167 -345

-189 -381 -13 -20 -65 -119 -117 -220 -52 -101 -120 -221 -151 -267 -31 -46

-56 -90 -56 -98 0 -8 -15 -28 -32 -45 -18 -16 -40 -36 -49 -44 -9 -8 -24 -15

-33 -15 -12 0 -16 -5 -12 -15 3 -8 0 -15 -7 -15 -7 0 1 -12 17 -26 l29 -26

-17 -36 c-28 -58 -120 -200 -134 -206 -9 -4 -8 3 3 24 30 58 16 74 -127 144

-32 16 -58 32 -58 37 0 5 -4 9 -9 9 -5 0 -27 18 -49 40 -26 26 -49 40 -66 40

-14 0 -26 6 -26 13 0 7 -16 21 -36 32 -26 14 -34 24 -30 38 4 15 0 18 -14 14

-13 -3 -17 0 -13 9 3 8 0 21 -7 29 -11 13 -8 15 19 15 17 0 31 -4 31 -10 0 -5

7 -7 15 -4 8 4 37 -1 64 -10 59 -19 161 -32 161 -20 0 5 -7 17 -14 27 -10 13

-15 15 -19 5 -2 -7 -8 -10 -12 -6 -5 4 -1 27 8 50 13 31 14 44 5 49 -8 5 -7

12 5 24 10 9 17 20 17 25 0 17 -12 40 -19 35 -4 -2 -8 10 -8 28 0 18 -4 42 -8

55 -6 18 -4 24 11 28 23 7 74 77 74 102 0 36 24 72 48 72 16 0 23 5 21 18 -3

35 2 42 29 42 24 1 25 2 10 14 -21 15 -23 28 -5 25 26 -3 35 2 40 21 4 16 11

20 31 16 14 -3 25 -2 25 2 -3 22 2 42 10 38 5 -4 7 3 4 15 -5 16 -1 20 13 19

33 -4 44 0 44 14 0 8 14 25 32 37 17 13 26 25 20 27 -18 6 26 62 48 62 13 0

20 8 22 28 2 16 12 31 24 36 11 5 36 31 55 57 19 27 39 48 45 49 7 0 15 16 18

35 4 21 13 35 21 35 8 0 15 5 15 10 0 6 7 10 15 10 8 0 15 6 15 13 0 8 9 22

19 31 11 10 22 28 25 42 4 13 13 24 21 24 13 0 22 16 30 59 2 12 18 35 35 52

25 25 28 34 19 46 -10 11 -10 13 1 11 8 -2 16 6 18 17 2 11 13 28 23 38 10 10

19 30 19 45 0 15 7 35 15 45 7 11 17 37 20 59 4 21 13 42 21 45 8 3 14 9 14

15 0 5 10 30 22 56 12 26 21 53 19 61 -1 7 1 20 5 30 11 23 11 35 1 42 -5 4 5

11 23 17 29 10 31 14 25 42 -4 19 -3 30 4 30 6 0 11 9 11 19 0 11 9 35 20 54

11 19 18 42 14 51 -3 9 -2 16 4 16 11 0 22 22 28 60 4 24 24 70 34 80 17 17

31 61 25 79 -4 15 -1 23 10 27 9 4 14 13 11 20 -3 8 3 29 14 46 10 18 20 54

22 80 2 25 10 53 17 62 8 9 10 16 5 16 -5 0 -1 5 9 11 9 5 17 20 17 32 0 12 9

39 20 60 23 43 25 57 7 57 -8 0 -14 6 -14 14 0 7 7 13 16 12 12 -1 16 8 16 37

0 29 4 37 18 37 10 0 17 8 17 20 0 11 -5 20 -11 20 -7 0 1 10 15 21 18 14 26

28 23 40 -3 10 -1 19 5 21 5 2 11 22 12 46 1 23 5 45 9 48 4 4 7 21 7 37 0 22

4 28 15 23 12 -4 15 3 15 36 0 23 9 54 20 73 18 29 18 33 4 31 -9 0 -19 5 -21

12 -3 7 5 12 22 12 15 0 25 5 23 13 -1 6 2 30 7 52 4 22 8 44 7 48 -1 4 3 18

10 30 16 28 20 67 7 67 -17 0 -9 18 11 23 13 3 18 10 14 21 -4 9 -1 16 6 16 8

0 11 9 7 25 -3 18 1 29 14 36 14 7 18 16 13 34 -5 19 -2 25 10 25 9 0 16 8 16

20 0 27 -3 36 -12 33 -5 -2 -8 2 -8 7 0 6 4 10 10 10 5 0 12 11 16 25 3 14 10

25 16 25 5 0 6 9 3 20 -4 12 -1 27 5 35 6 8 9 19 5 25 -3 5 1 13 9 16 10 4 15

16 14 34 -1 15 4 35 11 43 7 9 11 29 9 44 -2 21 1 27 12 26 16 -3 40 75 40

128 0 34 19 89 31 89 5 0 9 8 9 19 0 10 6 24 14 30 8 7 20 35 26 64 7 29 22

71 32 94 11 23 17 46 14 51 -3 5 3 17 14 27 23 20 26 45 8 46 -8 0 -7 3 2 6

35 14 52 47 28 55 -9 3 -8 11 4 30 9 14 14 35 11 47 -4 15 -1 21 10 21 9 0 19

4 22 10 8 13 17 68 18 103 0 16 5 27 13 27 8 0 14 6 14 14 0 7 7 27 15 42 8

16 15 36 15 45 0 8 11 38 24 65 13 27 30 70 37 94 7 25 17 51 22 58 6 8 5 17

-3 27 -10 12 -9 16 4 21 10 4 14 13 11 24 -3 10 1 24 9 32 8 9 12 25 9 41 -4

21 0 29 18 36 13 5 18 10 10 10 -11 1 -11 4 0 18 11 13 11 17 1 21 -10 3 -10

7 -1 18 6 8 8 14 4 14 -5 0 0 9 10 20 10 11 15 20 10 20 -4 0 -2 7 5 15 7 8

10 21 7 29 -3 8 -1 16 4 18 6 2 13 24 16 48 3 25 10 48 14 51 5 3 10 24 11 47

1 23 5 42 9 42 4 0 10 16 13 35 4 19 11 35 16 35 6 0 10 5 10 11 0 5 -4 7 -10

4 -5 -3 -10 1 -10 9 0 9 6 15 12 13 7 -1 14 8 16 21 2 15 -2 22 -12 22 -9 0

-16 5 -16 10 0 6 9 10 21 10 15 0 19 5 15 15 -3 8 -1 15 4 15 5 0 7 6 4 14 -3

8 0 25 7 38 7 13 12 33 10 46 -1 13 5 34 13 47 9 13 16 36 16 50 0 15 5 35 10

45 8 15 6 21 -7 29 -16 9 -16 10 5 11 12 0 22 5 22 10 0 6 -7 10 -15 10 -8 0

-15 7 -15 16 0 8 5 12 10 9 6 -4 10 8 10 29 0 23 5 36 13 36 7 0 14 14 15 32

2 18 8 36 15 41 9 7 9 10 -1 14 -6 2 -9 10 -5 16 10 17 11 59 1 87 -5 13 -6

22 -2 18 16 -17 32 20 24 55 -4 19 -4 39 1 44 5 5 10 27 11 48 2 22 7 43 12

47 5 3 1 14 -8 24 -17 17 -17 18 -1 30 16 12 16 15 -5 43 -12 17 -16 31 -10

31 11 0 7 70 -5 91 -10 15 -13 109 -4 109 5 0 6 7 2 16 -5 13 -2 15 13 10 14

-4 30 4 57 30 32 31 41 35 69 29 49 -10 198 -84 198 -98 0 -7 14 -25 30 -41

17 -16 30 -36 30 -43 0 -8 5 -11 10 -8 6 4 10 -5 10 -19 0 -14 5 -26 10 -26 6

0 10 -10 10 -22 0 -21 1 -21 17 -5 16 16 16 18 -5 33 -25 17 -28 43 -9 63 10

11 8 13 -8 9 -16 -4 -20 1 -22 24 -1 18 -14 41 -33 58 -18 17 -28 34 -24 43 4

11 -2 16 -22 19 -18 2 -34 12 -42 28 l-13 25 4 -27 c6 -42 -10 -58 -32 -31

-10 12 -22 19 -26 15 -3 -4 -12 0 -19 10 -6 9 -38 32 -70 51 -32 19 -53 38

-47 42 6 3 11 1 11 -6 0 -8 4 -8 16 2 10 8 18 9 22 2 4 -5 19 -13 35 -17 15

-3 27 -11 27 -16 0 -5 7 -7 16 -3 17 6 1 17 -84 57 -18 8 -35 22 -38 31 -3 8

-17 15 -31 15 -16 0 -29 10 -41 30 -13 23 -24 30 -49 30 -23 0 -33 6 -38 20

-4 12 -15 20 -27 20 -25 0 -58 27 -58 48 0 10 -4 12 -12 4 -18 -14 -59 4 -65

29 -5 16 -12 20 -32 16 -14 -3 -39 2 -56 11 -16 9 -35 15 -41 14 -6 -1 -24 4

-39 12 -16 8 -33 12 -38 9 -4 -3 -19 5 -32 17 -13 12 -29 19 -35 15 -6 -4 -22

0 -35 9 -14 9 -39 15 -56 14 -20 -2 -34 3 -40 14 -7 13 -18 16 -40 11 -21 -4

-35 0 -49 12 -19 17 -21 17 -40 0 -28 -26 -25 -41 13 -56 53 -21 95 -58 107

-95 15 -45 7 -55 -45 -50 -42 3 -115 39 -115 57 0 5 -16 15 -35 23 -24 10 -35

21 -35 36 0 11 -7 23 -15 26 -8 4 -15 12 -15 20 0 8 -6 14 -13 14 -7 0 -23 17

-35 39 -12 21 -29 44 -37 51 -8 7 -15 19 -15 27 0 8 -7 21 -15 30 -8 8 -12 19

-9 24 3 6 -4 13 -15 16 -17 4 -19 9 -10 19 12 15 5 26 -51 81 -21 21 -42 32

-53 29 -9 -2 -15 0 -11 5 3 5 -6 13 -20 19 -14 5 -26 14 -26 19 0 12 -57 41

-80 41 -9 0 -31 11 -50 25 -18 14 -50 28 -69 31 -20 3 -55 15 -78 26 -23 10

-58 22 -77 25 -20 3 -39 10 -42 14 -3 5 -16 9 -28 9 -13 0 -29 6 -35 14 -6 8

-33 17 -59 21 -47 7 -162 40 -194 56 -10 5 -19 5 -23 -1 -4 -6 -13 -6 -23 -1

-37 19 -77 34 -86 32 -4 -1 -13 2 -20 7 -6 5 -37 13 -69 17 -40 4 -55 10 -50

18 5 9 3 9 -8 0 -11 -9 -23 -7 -53 8 -22 10 -47 19 -57 19 -9 0 -37 9 -61 20

-25 11 -68 25 -97 31 -29 6 -65 17 -79 25 -15 8 -34 14 -43 14 -9 0 -30 7 -48

16 -17 9 -42 17 -54 19 -12 2 -38 9 -57 15 -19 6 -48 15 -65 20 -16 5 -55 16

-85 25 -30 9 -71 20 -90 25 -19 5 -46 11 -60 15 -14 4 -52 11 -85 16 -33 5

-73 15 -90 23 -16 8 -66 19 -110 26 -73 11 -106 22 -202 67 -17 8 -36 12 -41

9 -6 -3 -13 2 -17 12 -3 11 -14 23 -25 28 -18 9 -18 10 0 31 16 21 27 23 112

24 92 0 274 -15 323 -27 17 -4 25 -2 25 7 0 11 3 11 10 -1 7 -11 10 -11 10 -2

0 7 5 10 10 7 6 -4 8 -11 5 -16 -4 -5 -3 -9 2 -10 4 0 15 -2 23 -5 8 -2 53

-13 100 -25 160 -40 335 -92 390 -117 30 -13 106 -39 170 -58 363 -106 362

-106 405 -138 55 -42 91 -55 202 -70 61 -9 123 -20 137 -26 40 -15 48 -12 34

10 -8 12 -24 20 -39 20 -14 0 -38 9 -53 21 -14 11 -30 17 -36 14 -17 -10 -49

5 -55 26 -5 15 -10 17 -20 9 -15 -12 -65 3 -65 20 0 5 -15 10 -33 10 -21 0

-41 8 -52 20 -10 11 -28 20 -41 20 -13 0 -32 9 -43 21 -12 13 -21 17 -26 10

-10 -18 -39 -13 -53 10 -9 13 -19 18 -32 14 -24 -8 -60 11 -60 30 0 17 -16 20

-25 5 -10 -16 -41 -11 -59 9 -15 16 -22 18 -37 8 -15 -9 -23 -7 -43 12 -14 13

-31 21 -38 19 -7 -3 -24 -1 -38 5 -14 5 -34 12 -45 13 -11 2 -29 8 -40 13 -23

11 -63 20 -118 28 -21 3 -43 14 -51 25 -9 12 -16 16 -21 9 -10 -17 -37 -13

-62 10 -17 17 -25 19 -36 10 -11 -9 -20 -6 -41 10 -17 13 -33 18 -46 14 -12

-4 -31 0 -44 9 -13 8 -33 12 -45 9 -12 -3 -29 1 -39 9 -9 8 -33 15 -52 17 -19

1 -36 6 -38 11 -2 6 -19 10 -38 10 -22 0 -37 6 -40 15 -5 11 -15 14 -38 9 -23

-4 -36 -1 -45 10 -8 10 -22 14 -35 10 -14 -3 -28 1 -35 10 -8 9 -28 16 -46 16

-18 0 -38 6 -44 14 -6 7 -22 11 -36 8 -14 -2 -32 2 -41 9 -9 8 -28 12 -41 11

-13 -2 -31 2 -40 9 -8 8 -28 12 -43 11 -33 -4 -62 21 -53 46 15 43 37 51 76

30z m4477 -2100 c27 0 125 -31 135 -42 6 -6 19 -11 30 -11 11 1 27 -3 35 -7 8

-4 27 -12 42 -17 20 -8 25 -15 21 -30 -6 -23 -19 -27 -26 -8 -2 6 -8 0 -12

-15 -11 -42 -21 -33 -17 15 2 31 1 38 -7 27 -6 -8 -11 -23 -11 -32 0 -9 -5

-20 -11 -24 -6 -3 -10 1 -9 12 5 40 -2 48 -16 19 -10 -21 -14 -24 -13 -10 3

51 -3 60 -17 25 -13 -31 -14 -32 -10 -7 4 32 -22 52 -60 44 -19 -3 -24 0 -24

15 0 14 -5 18 -15 14 -8 -3 -15 -2 -15 3 0 13 -58 19 -70 7 -7 -7 -10 -3 -10

12 0 18 4 20 33 16 17 -3 39 -5 47 -6z m-10977 -709 c31 -7 57 -15 57 -18 0

-14 64 -11 86 4 l24 15 0 -61 c0 -56 20 -118 43 -127 4 -2 7 -8 7 -14 0 -22

-72 1 -104 34 -18 18 -54 41 -82 51 -117 44 -153 77 -119 111 20 19 17 19 88

5z m-579 -3146 c6 -21 2 -73 -8 -125 -6 -27 -5 -38 3 -38 7 0 11 6 10 13 -4

23 13 127 22 127 17 0 18 -20 3 -141 -47 -398 -57 -655 -29 -759 17 -62 18

-80 7 -80 -11 0 -69 101 -78 134 -4 16 -15 31 -25 33 -25 7 -26 15 -24 123 5

221 15 333 45 535 5 33 12 85 15 115 4 30 11 60 17 67 15 18 36 16 42 -4z

m-94 -878 c3 -16 15 -48 25 -70 13 -26 20 -65 21 -114 2 -55 6 -78 18 -87 24

-17 20 -22 -21 -30 -21 -4 -46 -11 -55 -16 -25 -12 -118 19 -111 38 3 8 11 14

19 14 8 0 14 9 14 20 0 11 4 20 10 20 5 0 9 48 9 119 -1 66 2 124 6 131 4 6

19 10 33 8 21 -2 28 -10 32 -33z"/>

</g>

</svg>

