<?xml version="1.0" standalone="no"?>

<!DOCTYPE svg PUBLIC "-//W3C//DTD SVG 20010904//EN"

 "http://www.w3.org/TR/2001/REC-SVG-20010904/DTD/svg10.dtd">

<svg version="1.0" xmlns="http://www.w3.org/2000/svg"

 width="113.385827" height="204.870831" viewBox="0 0 113.385827 204.870831"

 preserveAspectRatio="xMidYMid meet">

<metadata>

Created by potrace 1.15, written by Peter Selinger 2001-2017

</metadata>

<g transform="translate(0.000696,204.866471) scale(0.009085,-0.009085)"

fill="#000000" stroke="none">

<path d="M9202 22543 c-7 -3 -25 -16 -39 -29 -14 -13 -38 -24 -52 -24 -14 0

-32 -4 -40 -9 -8 -5 -27 -5 -45 0 -20 6 -60 4 -116 -5 -48 -8 -130 -12 -190

-10 -57 1 -109 -1 -115 -5 -19 -15 -63 -21 -67 -9 -4 10 -37 -2 -119 -42 -9

-5 -33 -5 -54 0 -23 5 -62 4 -97 -2 -43 -7 -66 -7 -81 1 -34 17 -152 23 -203

10 -37 -10 -58 -9 -117 5 -55 13 -79 15 -100 7 -16 -6 -79 -11 -141 -11 -61 0

-116 -4 -122 -9 -5 -6 -30 -12 -56 -15 -35 -5 -51 -2 -63 10 -14 15 -18 15

-49 0 -23 -11 -61 -16 -115 -16 -47 0 -81 -4 -81 -10 0 -5 5 -10 11 -10 8 0 8

-5 -1 -15 -16 -19 -7 -19 30 0 21 11 36 12 54 5 14 -5 26 -12 26 -14 0 -17

-175 -37 -197 -23 -6 4 -13 -3 -16 -14 -4 -16 -11 -20 -27 -16 -24 6 -120 -19

-120 -32 0 -5 -22 -11 -50 -13 -32 -3 -61 -14 -84 -31 -29 -23 -41 -26 -79

-21 -29 4 -47 2 -52 -5 -5 -8 1 -10 20 -5 21 5 27 4 23 -7 -3 -8 -26 -17 -54

-21 -80 -12 -158 -31 -168 -40 -6 -4 -17 -8 -24 -8 -8 0 -39 -16 -68 -35 -29

-19 -61 -35 -71 -35 -10 0 -40 -12 -68 -25 -27 -14 -58 -25 -68 -25 -31 0 -77

-30 -87 -56 -6 -14 -15 -22 -21 -18 -13 7 -70 -21 -109 -55 -29 -25 -30 -51

-2 -51 14 0 14 -2 -1 -17 -13 -14 -20 -15 -25 -6 -6 9 -12 7 -25 -7 -9 -11

-17 -24 -17 -29 0 -5 -7 -14 -15 -21 -9 -8 -13 -21 -10 -34 5 -15 4 -17 -3 -7

-6 8 -16 11 -23 7 -38 -19 -58 -33 -54 -38 3 -2 -11 -20 -30 -38 -19 -18 -38

-30 -42 -26 -4 4 -1 11 7 16 12 8 9 10 -11 10 -15 0 -37 -12 -54 -30 -19 -20

-24 -30 -14 -30 8 0 19 3 25 8 5 4 -2 -3 -16 -15 -14 -13 -31 -23 -38 -23 -7

0 -34 -22 -61 -49 -35 -35 -45 -51 -35 -55 8 -3 14 -12 14 -21 0 -20 -30 -32

-40 -15 -10 15 -21 -1 -25 -36 -2 -18 2 -24 11 -20 24 9 27 -15 5 -45 -12 -16

-19 -34 -16 -39 3 -5 0 -20 -7 -32 -19 -36 -38 -91 -38 -115 0 -13 -6 -23 -14

-23 -11 0 -13 -13 -11 -57 2 -32 -1 -63 -7 -70 -8 -10 -6 -13 6 -13 20 0 21

-19 1 -26 -8 -4 -15 -14 -15 -23 0 -9 -5 -22 -11 -28 -6 -6 -11 -35 -11 -63 0

-36 -5 -53 -15 -57 -19 -8 -55 -38 -121 -100 -30 -29 -58 -53 -63 -53 -5 0 -9

-9 -9 -21 0 -16 -4 -19 -20 -14 -29 9 -50 -37 -26 -60 21 -22 21 -25 -13 -72

-27 -38 -30 -53 -10 -53 4 0 9 8 12 18 4 16 4 16 12 0 4 -10 4 -26 0 -35 -4

-10 -7 -46 -7 -81 0 -51 -3 -64 -19 -73 -13 -6 -19 -19 -17 -37 2 -29 -31

-100 -56 -121 -9 -8 -16 -21 -16 -30 0 -9 -16 -34 -36 -56 -19 -22 -42 -53

-50 -70 -8 -16 -25 -45 -39 -64 -28 -38 -33 -60 -10 -41 9 8 15 9 15 2 0 -6

-4 -14 -10 -17 -5 -3 -10 -14 -10 -23 0 -10 -9 -34 -20 -55 -20 -36 -16 -49 8

-25 9 9 12 9 12 -3 0 -8 -5 -20 -10 -25 -6 -6 -15 -39 -21 -75 -7 -35 -15 -69

-20 -75 -5 -6 -11 -31 -13 -55 -3 -25 -14 -66 -25 -93 -12 -26 -21 -57 -21

-69 0 -26 -20 -121 -62 -297 -17 -69 -31 -143 -33 -165 -5 -66 -26 -205 -34

-228 -5 -12 -6 -27 -4 -34 2 -6 -2 -24 -10 -40 -9 -17 -13 -47 -10 -78 2 -27

4 -66 4 -85 0 -31 1 -32 9 -12 5 12 12 22 14 22 10 0 -6 -64 -31 -128 -14 -35

-22 -66 -18 -70 3 -4 11 1 16 11 17 30 32 20 25 -18 -4 -20 -9 -72 -11 -117

-3 -44 -10 -96 -17 -115 -10 -28 -10 -36 1 -42 13 -8 23 -73 23 -144 0 -37 1

-38 19 -21 18 16 19 16 19 -2 0 -27 -16 -48 -29 -40 -7 5 -11 -2 -11 -19 0

-23 3 -25 23 -19 12 3 27 11 34 16 8 6 7 -10 -4 -54 -8 -35 -15 -78 -15 -96 0

-35 12 -56 19 -34 3 6 9 10 13 7 5 -3 7 -11 5 -18 -12 -30 -11 -127 0 -127 8

0 13 -21 13 -62 0 -124 3 -148 15 -148 7 0 13 -10 13 -22 1 -13 7 -42 13 -66

6 -24 14 -67 16 -95 3 -29 8 -73 11 -100 l6 -47 -33 2 c-44 4 -45 -21 -3 -83

18 -25 35 -61 39 -80 7 -32 35 -84 35 -65 0 25 47 -38 77 -102 42 -89 65 -207

64 -327 0 -49 6 -126 15 -169 10 -49 14 -98 10 -130 -6 -48 -17 -213 -20 -301

-1 -32 2 -39 16 -37 22 3 38 -66 18 -78 -7 -4 -9 -13 -5 -20 6 -9 9 -9 16 1 4

7 10 11 14 8 3 -3 -4 -16 -15 -29 -24 -27 -26 -38 -5 -20 9 7 18 10 22 7 8 -9

21 -86 28 -160 3 -33 11 -73 19 -90 8 -18 17 -51 21 -74 8 -48 31 -75 46 -52

5 8 9 19 9 25 0 7 8 11 18 10 12 -1 16 5 14 22 -3 18 1 22 14 20 14 -2 20 6

25 37 10 53 1 85 -25 95 -17 7 -18 9 -3 9 19 1 22 19 6 41 -8 11 -12 12 -16 3

-6 -16 -23 -17 -23 -2 0 6 7 17 15 25 17 17 20 54 5 54 -5 0 -10 -6 -10 -14 0

-8 -9 -24 -20 -37 l-20 -24 3 26 c1 15 9 34 17 44 12 14 10 19 -16 40 -16 14

-24 24 -18 25 13 0 16 110 3 110 -13 0 -11 44 3 58 12 12 29 122 18 122 -3 0

-11 -5 -18 -12 -14 -14 -15 -4 -3 39 5 17 6 34 3 38 -4 4 -8 23 -9 43 -1 20

-4 55 -7 77 -20 169 -23 282 -12 510 4 77 8 169 10 205 1 36 6 71 10 78 4 7 3

19 -3 26 -8 10 -8 21 -1 42 6 15 12 44 14 63 8 80 19 147 27 163 6 10 5 19 -1

23 -6 4 -7 11 -4 17 7 11 12 50 19 153 8 107 22 221 28 232 4 6 3 13 -2 15 -6

2 -6 28 0 68 6 36 10 78 10 93 0 16 15 60 34 99 19 38 34 72 33 76 -1 4 6 24

15 46 9 21 17 42 17 47 0 5 5 9 10 9 6 0 10 10 10 23 l0 22 -19 -24 -19 -25 5

30 c3 16 16 43 29 61 24 32 32 59 14 48 -12 -7 -2 22 17 50 20 30 16 37 -12

19 -27 -17 -35 -5 -10 16 18 15 10 31 -10 23 -21 -8 -18 14 7 56 13 20 23 40

24 46 0 5 2 19 3 30 2 18 3 18 9 3 9 -22 27 -11 37 22 7 23 7 24 -10 10 -17

-14 -18 -13 -12 8 5 22 4 23 -12 8 -24 -22 -38 -20 -19 2 8 9 27 42 41 73 14

31 33 62 42 69 8 7 15 20 15 29 0 9 9 30 20 48 10 18 15 35 10 38 -13 8 -1 36

32 70 29 30 22 49 -9 23 -27 -22 0 22 32 52 15 14 32 34 37 45 11 19 10 19

-17 1 -31 -20 -27 -11 19 46 32 41 29 63 -4 33 -24 -22 -26 -9 -4 23 8 12 12

22 7 22 -4 0 15 23 42 50 59 60 43 67 -20 9 -25 -23 -48 -39 -51 -36 -7 7 55

70 85 86 11 7 21 16 21 21 0 5 -16 1 -36 -11 l-36 -20 22 36 c12 19 17 35 11

35 -6 0 -11 7 -11 15 0 8 4 15 10 15 5 0 7 6 5 13 -5 13 30 56 61 73 10 6 20

22 22 35 4 24 3 24 -12 4 -15 -20 -15 -20 -10 1 7 26 -11 40 -31 24 -20 -16

-28 5 -9 24 8 9 24 16 34 16 10 0 28 9 41 21 21 18 21 20 4 13 -33 -11 -58

-10 -63 5 -2 8 0 11 5 8 6 -4 15 5 21 18 7 15 17 22 25 19 9 -3 23 9 38 33 16

27 24 33 26 21 9 -38 102 55 94 94 0 5 15 6 34 3 40 -5 100 17 108 40 4 8 12

15 18 15 8 0 6 -7 -4 -18 -10 -10 -17 -24 -17 -30 0 -6 -9 -13 -19 -17 -18 -5

-18 -8 -4 -35 8 -17 16 -30 18 -30 2 0 9 18 15 40 9 34 18 44 62 66 39 20 53

23 59 13 5 -9 10 -5 14 14 9 33 35 37 29 5 l-5 -23 12 23 c12 22 33 29 43 13

3 -5 22 -12 42 -15 19 -4 41 -9 48 -12 17 -7 29 25 16 41 -6 7 -8 20 -4 29 7

19 50 22 57 4 6 -17 55 36 73 77 9 22 20 31 38 33 27 2 38 -22 14 -31 -7 -2

-10 -8 -5 -12 4 -5 13 -1 20 7 6 9 22 19 35 23 17 5 22 2 22 -13 0 -23 -33

-55 -52 -50 -7 1 -14 0 -15 -5 -8 -21 0 -27 33 -27 28 0 35 3 31 15 -4 8 5 22

21 35 15 11 34 25 42 32 89 78 130 97 130 59 0 -28 17 -35 25 -11 8 26 21 25

29 -2 4 -17 -2 -29 -22 -46 -21 -18 -22 -22 -7 -17 11 4 26 8 33 8 8 0 18 11

23 25 6 15 15 22 24 18 23 -8 46 4 41 23 -3 9 -2 22 3 29 11 18 87 34 131 28

54 -9 105 6 105 29 0 17 7 20 44 21 l45 2 -25 -19 -24 -19 25 0 c14 0 41 4 60

10 19 5 38 6 43 1 10 -10 -45 -31 -83 -31 -14 0 -35 -7 -46 -16 -18 -14 -17

-15 21 -10 22 3 58 9 79 13 31 5 37 3 31 -7 -5 -9 -4 -11 4 -6 6 4 29 9 50 11

21 2 60 13 86 25 26 12 54 19 62 16 9 -4 22 -1 30 5 7 7 16 9 20 5 3 -3 13 0

22 8 22 18 61 30 61 17 0 -5 -13 -19 -30 -31 -16 -11 -39 -35 -51 -52 l-22

-30 23 12 c21 11 22 11 17 -10 -4 -14 -2 -19 3 -14 5 5 11 20 13 32 4 24 90

112 110 112 6 0 -8 -19 -31 -42 -50 -49 -55 -71 -9 -35 58 44 125 78 132 67 5

-8 12 -7 23 2 14 12 15 9 9 -19 -8 -38 -4 -40 30 -13 14 11 31 20 38 20 7 0

15 7 19 15 3 8 10 15 16 15 5 0 10 -7 10 -15 0 -8 -4 -15 -9 -15 -5 0 -24 -14

-42 -31 -89 -83 -189 -146 -189 -120 0 6 -16 -1 -36 -14 -20 -14 -40 -23 -44

-20 -5 3 -31 -11 -60 -30 -29 -19 -58 -35 -66 -35 -7 0 -34 -7 -60 -16 -25 -8

-67 -19 -93 -24 -25 -5 -77 -16 -115 -25 -78 -17 -256 -34 -398 -36 -51 -1

-104 -5 -118 -9 -47 -13 87 -23 214 -16 238 15 258 17 361 51 39 13 99 29 135

36 36 6 70 15 75 19 6 4 28 13 50 20 21 7 60 24 86 36 26 13 54 24 62 24 8 0

26 9 40 20 14 11 32 20 40 20 9 0 19 5 22 10 3 6 15 10 25 10 11 0 29 13 41

29 12 17 34 35 48 41 15 6 35 22 45 35 18 24 44 36 31 15 -10 -16 7 -12 27 7

10 9 35 22 54 29 32 11 34 11 29 -7 -10 -29 12 -22 27 9 7 15 20 27 28 27 23

0 24 -41 1 -64 l-21 -21 25 0 c14 0 25 4 25 9 0 5 12 13 28 18 49 18 101 34

123 38 13 3 27 9 33 15 5 5 17 10 25 10 11 0 10 -4 -4 -20 -10 -11 -16 -22

-13 -25 2 -3 17 8 31 25 15 16 37 31 50 32 12 1 31 2 42 2 14 1 23 13 31 41 6

23 18 41 27 43 10 2 17 10 17 18 0 8 5 12 10 9 6 -3 10 -15 10 -26 0 -27 24

-19 28 9 2 12 12 22 25 24 15 2 21 9 19 21 -2 9 2 17 8 17 5 0 10 -5 10 -11 0

-7 21 -9 58 -6 32 3 77 2 100 -3 32 -5 42 -4 47 8 4 10 9 11 18 4 6 -5 33 -8

60 -6 26 2 47 1 47 -4 0 -9 87 -9 96 1 24 23 74 -18 74 -60 1 -27 1 -27 15 -9

8 11 12 29 9 42 -3 12 0 25 6 29 9 5 10 1 5 -14 -3 -12 -2 -21 4 -21 5 0 11

-8 14 -17 4 -17 4 -17 10 0 4 9 9 24 12 32 2 8 9 15 16 15 7 0 9 -13 4 -40

-12 -73 29 -39 55 45 14 46 30 66 37 48 6 -18 23 -16 46 5 15 12 21 14 24 5 3

-7 11 -13 19 -13 12 0 12 -4 -1 -30 -17 -33 -18 -40 -7 -40 5 0 15 12 23 28

28 57 56 83 50 50 -3 -18 31 -6 36 12 3 11 9 20 14 20 15 0 10 -16 -11 -35

-11 -10 -20 -25 -20 -34 0 -10 17 3 41 32 22 26 48 47 57 47 9 0 26 7 36 15

11 8 32 15 46 15 14 0 31 5 36 10 7 7 19 8 37 1 23 -9 27 -8 27 8 0 21 45 41

89 41 25 -1 25 -1 7 -15 -11 -8 -17 -18 -13 -22 4 -3 15 1 26 11 10 9 35 17

55 18 20 1 36 5 36 10 0 4 11 8 25 8 25 0 34 -14 15 -23 -6 -3 -5 -4 2 -3 7 1

17 12 23 24 5 12 17 22 25 21 8 -1 26 3 40 8 19 8 30 7 45 -3 24 -17 35 -18

35 -3 0 7 8 17 17 24 15 11 22 9 46 -11 22 -18 33 -22 42 -14 9 8 19 3 39 -20

25 -31 51 -34 39 -5 -3 10 1 15 11 15 9 0 19 7 22 15 8 21 24 19 22 -2 -5 -61

28 -72 82 -27 17 15 32 25 34 23 2 -2 9 -15 16 -28 l12 -23 27 26 c32 31 61

26 61 -10 0 -17 6 -24 20 -24 11 0 20 -5 20 -11 0 -5 10 -9 22 -7 12 2 23 -3

26 -11 3 -10 0 -12 -12 -8 -19 8 -21 -4 -3 -21 6 -7 12 -18 12 -25 0 -7 8 -12

17 -12 9 0 23 -8 30 -17 14 -20 78 -36 78 -21 0 6 -10 15 -22 21 l-23 11 22 0

c23 1 53 -41 53 -74 0 -8 5 -15 10 -15 6 0 10 14 10 30 0 32 19 41 26 12 5

-17 46 -42 70 -42 6 0 15 -7 18 -16 4 -12 2 -15 -9 -10 -20 7 -19 -4 5 -34 11

-14 20 -19 20 -12 0 6 4 12 9 12 5 0 9 -16 9 -36 0 -44 27 -78 42 -54 8 13 10

12 10 -2 0 -10 9 -27 21 -39 23 -23 18 -39 -6 -19 -18 15 -20 1 -3 -34 8 -19

14 -23 24 -15 9 7 20 5 40 -8 l28 -18 -29 -5 -30 -5 22 -20 c16 -14 19 -21 11

-27 -16 -9 29 -59 47 -52 7 3 16 1 20 -5 3 -6 1 -11 -4 -11 -6 0 -11 -7 -11

-15 0 -8 -5 -15 -12 -15 -7 0 -5 -5 4 -12 9 -7 33 -33 53 -57 29 -35 36 -51

31 -72 -4 -20 0 -31 17 -43 22 -16 22 -16 -5 -10 -36 8 -37 -11 -3 -38 14 -11

25 -26 25 -34 0 -8 5 -14 10 -14 6 0 10 -5 10 -11 0 -5 -4 -7 -10 -4 -16 10

-12 -11 5 -25 11 -9 12 -16 4 -26 -8 -9 -5 -15 11 -24 17 -9 20 -18 16 -36 -4

-15 -1 -33 9 -47 19 -27 20 -43 1 -28 -11 9 -15 7 -19 -11 -6 -23 16 -68 33

-68 6 0 10 -7 10 -16 0 -8 18 -33 40 -55 39 -38 52 -69 29 -69 -6 0 -16 14

-22 30 -16 42 -29 37 -21 -7 8 -48 14 -58 24 -42 22 35 72 -72 51 -109 -9 -14

-11 -11 -11 18 0 19 -7 43 -14 53 -18 23 -49 12 -41 -14 8 -23 -3 -24 -27 -2

-10 9 -18 11 -18 5 0 -13 39 -52 52 -52 5 0 6 -5 3 -11 -5 -7 -13 -5 -24 5

-26 23 -30 20 -21 -16 13 -56 30 -90 60 -125 30 -33 38 -53 22 -53 -4 0 -14 6

-21 13 -12 10 -13 8 -7 -8 4 -11 9 -28 11 -39 3 -10 9 -23 14 -30 10 -12 11

-16 11 -47 0 -11 5 -17 10 -14 7 4 7 13 0 26 -7 12 -7 19 -1 19 15 0 28 -30

35 -75 3 -22 3 -32 0 -22 -6 17 -34 24 -34 8 0 -21 51 -70 67 -64 14 5 15 1

10 -26 -5 -23 -2 -37 8 -48 8 -8 15 -25 15 -38 0 -13 4 -25 9 -27 5 -1 11 -27

14 -56 3 -29 9 -58 15 -65 6 -6 12 -25 14 -42 1 -16 8 -29 13 -28 6 1 11 -11

12 -25 2 -32 21 -187 27 -222 18 -105 24 -132 33 -141 6 -6 8 -32 5 -58 -2

-28 0 -51 6 -55 6 -3 8 -21 5 -40 -3 -22 0 -38 10 -47 13 -12 12 -15 -2 -27

-14 -11 -13 -12 7 -7 16 5 22 2 22 -9 0 -8 -5 -18 -10 -21 -6 -4 -9 -14 -6

-23 9 -28 18 -94 20 -137 1 -22 5 -47 8 -55 4 -8 9 -49 13 -90 3 -41 10 -89

15 -105 12 -38 40 -211 46 -289 3 -33 9 -66 13 -75 13 -25 20 -780 9 -985 -4

-82 -3 -124 5 -137 9 -14 9 -21 -1 -31 -20 -20 -14 -138 8 -138 8 0 35 57 35

75 1 6 7 21 14 33 7 13 10 26 7 29 -3 4 -1 12 4 19 8 8 7 26 0 56 -9 36 -9 69

-1 108 1 3 8 -4 16 -14 11 -15 15 -16 15 -5 0 8 -5 20 -11 26 -9 9 -7 23 6 55

27 67 28 245 2 323 -18 51 -20 85 -20 230 0 161 6 319 19 535 6 91 8 97 40

130 23 25 34 47 36 72 2 20 5 35 8 33 3 -1 15 1 26 5 16 6 20 15 17 33 -3 14

2 30 11 39 9 9 18 32 20 52 6 44 -11 47 -58 11 -18 -14 -36 -25 -40 -25 -4 0

-4 28 0 63 3 34 7 76 8 94 0 17 4 34 8 38 4 4 5 19 3 34 -2 14 -6 54 -9 89 -6

60 -5 63 14 57 19 -6 29 8 13 18 -9 5 -8 270 1 352 3 28 6 80 7 117 2 41 7 65

13 61 6 -4 6 1 1 13 -4 10 -10 45 -13 76 -3 44 -1 61 12 73 16 16 13 70 -5 90

-14 14 -11 22 11 28 30 8 26 72 -11 180 -28 81 -30 92 -15 102 12 9 13 19 7

41 -4 16 -7 49 -6 74 1 25 -5 60 -12 78 -11 26 -11 37 -3 48 9 10 8 25 -4 61

-9 26 -13 61 -11 76 5 25 -3 65 -36 187 -5 19 -11 57 -12 83 -3 42 -1 48 14

44 16 -4 16 -2 0 32 -9 20 -28 54 -42 76 -45 70 -79 139 -79 162 0 12 -4 25

-10 28 -5 3 -7 19 -3 36 5 25 2 31 -16 36 -11 3 -21 12 -21 20 0 8 5 11 10 8

6 -3 10 -1 10 4 0 6 -4 11 -8 11 -4 0 -13 15 -20 34 -7 18 -21 41 -32 51 -11

10 -20 24 -20 30 0 7 -6 18 -13 24 -8 6 -20 28 -27 50 -9 27 -17 38 -27 34

-11 -4 -13 0 -8 19 5 17 2 27 -8 31 -9 3 -15 19 -15 40 0 19 -4 46 -8 58 -4

13 -7 32 -5 42 2 15 -2 17 -17 13 -12 -4 -24 -2 -28 6 -4 6 -2 14 4 16 20 6

14 39 -13 70 -14 17 -25 34 -25 39 0 5 -10 19 -22 30 -115 105 -228 254 -228

301 0 8 -9 16 -20 19 -15 4 -18 9 -10 18 6 7 8 25 4 39 -7 28 -24 36 -24 11 0

-22 -18 -18 -31 6 -8 15 -10 69 -6 171 2 81 1 151 -4 154 -12 7 -11 91 1 99

16 10 11 25 -6 18 -14 -5 -15 2 -9 61 6 56 5 65 -8 61 -21 -9 -27 14 -29 128

l-2 102 -10 -57 c-6 -31 -14 -59 -17 -63 -10 -10 -26 45 -37 129 -7 52 -16 84

-26 92 -19 14 -21 31 -3 37 9 3 9 9 1 28 -7 13 -19 40 -28 59 -13 28 -16 31

-16 13 0 -13 -6 -23 -12 -23 -17 0 -38 47 -38 85 0 17 -8 41 -17 55 -9 13 -18

37 -20 54 -5 43 -54 89 -87 80 -27 -6 -36 -24 -13 -24 7 0 23 -9 34 -19 12

-11 24 -17 28 -13 4 4 5 2 4 -3 -2 -6 5 -23 15 -38 23 -34 15 -45 -17 -25 -42

28 -118 112 -113 125 3 7 -4 17 -14 23 -27 15 -25 29 3 22 20 -5 21 -4 8 11

-17 22 -30 21 -47 0 -13 -17 -16 -16 -44 15 -16 17 -34 32 -39 32 -6 0 -32 13

-58 28 -83 49 -226 118 -283 137 -30 10 -64 21 -75 26 -11 4 -40 11 -65 15

-62 9 -130 40 -167 77 -30 28 -49 27 -21 -1 9 -9 8 -12 -5 -12 -9 0 -41 25

-72 55 -30 30 -61 55 -69 55 -8 0 -44 18 -80 41 -40 25 -80 42 -105 44 -23 2

-55 10 -71 18 -19 10 -63 16 -122 16 -51 1 -137 3 -191 4 -55 1 -101 -1 -103

-5 -3 -4 -16 -3 -30 2 -14 6 -26 10 -27 9 -1 0 -8 -3 -15 -6z"/>

<path d="M10464 17969 c-2 -4 10 -10 28 -14 18 -3 44 -10 58 -15 14 -5 36 -11

50 -14 14 -3 36 -14 49 -24 23 -19 23 -19 3 -24 -12 -4 -20 -1 -19 4 4 18

-153 54 -223 51 -71 -2 -169 -17 -164 -24 3 -5 11 -9 18 -9 19 0 89 -30 84

-36 -4 -4 -85 14 -150 32 -10 3 -18 1 -18 -4 0 -5 9 -12 20 -15 12 -3 20 -14

20 -26 0 -12 6 -21 14 -21 15 0 31 -18 24 -26 -3 -2 -18 2 -34 10 -39 19 -104

29 -104 17 0 -5 15 -13 33 -17 29 -6 30 -7 10 -15 -12 -4 -49 -2 -88 6 -65 14

-110 10 -69 -6 13 -5 4 -8 -28 -8 -34 -1 -48 -5 -48 -15 0 -9 7 -12 21 -9 16

4 20 2 17 -8 -4 -10 -19 -13 -52 -12 -50 3 -56 -2 -28 -23 16 -12 15 -13 -6

-14 -15 0 -21 -4 -16 -12 4 -6 3 -8 -4 -4 -6 3 -18 -1 -26 -10 -9 -8 -28 -15

-44 -14 -44 3 -52 1 -52 -15 0 -18 -20 -19 -55 -3 -31 14 -46 3 -20 -16 11 -8

14 -15 8 -19 -6 -4 -16 0 -23 8 -14 17 -40 20 -40 5 0 -5 -9 -10 -20 -10 -11

0 -20 -4 -20 -9 0 -5 -18 -12 -41 -16 -30 -5 -38 -10 -30 -18 20 -20 12 -27

-29 -27 -41 0 -49 -7 -29 -27 7 -7 -10 -9 -60 -5 -67 4 -70 4 -64 -17 4 -17 1

-21 -16 -21 -12 0 -19 -4 -16 -10 4 -6 -5 -10 -20 -10 -14 0 -43 -9 -65 -20

-22 -11 -48 -20 -60 -20 -22 0 -27 -16 -7 -23 20 -7 0 -19 -35 -21 -23 -1 -34

-7 -36 -20 -3 -15 0 -17 14 -11 40 16 77 24 85 19 15 -9 10 -24 -7 -24 -8 0

-22 -7 -30 -15 -9 -8 -25 -15 -36 -15 -11 0 -27 -8 -34 -17 -21 -28 -16 -35

15 -19 16 9 32 12 35 8 4 -4 12 1 17 11 6 9 19 17 31 17 11 0 26 7 32 15 9 13

17 14 45 4 20 -7 36 -8 40 -2 9 13 80 45 92 41 6 -2 -12 -15 -40 -28 -28 -14

-51 -31 -51 -37 0 -17 27 -17 37 0 8 13 56 37 73 37 18 0 10 -17 -12 -28 -18

-8 -19 -11 -6 -11 9 -1 21 -9 27 -18 7 -14 12 -15 24 -5 27 23 75 31 113 20

24 -6 33 -13 25 -18 -10 -5 -9 -9 2 -13 8 -3 19 -1 24 4 7 7 23 7 44 2 33 -9

33 -10 -51 -37 -47 -16 -103 -37 -125 -46 -22 -10 -49 -21 -60 -24 -36 -10

-107 -91 -107 -121 0 -19 -7 -29 -19 -32 -20 -6 -27 -23 -9 -23 6 0 10 -9 10

-21 0 -11 -4 -18 -9 -14 -5 3 -12 1 -15 -4 -4 -5 -2 -12 3 -15 13 -8 2 -75

-17 -104 -11 -18 -12 -26 -3 -35 9 -9 6 -15 -10 -28 l-22 -17 21 -11 c23 -12

61 0 94 29 39 35 50 42 55 36 4 -3 -1 -14 -10 -24 -23 -25 -21 -35 3 -22 27

14 37 7 50 -38 13 -48 13 -52 -5 -52 -8 0 -15 4 -15 9 0 17 -42 19 -59 3 -10

-9 -25 -21 -35 -27 -14 -9 -15 -14 -4 -42 8 -20 19 -33 30 -33 10 0 18 -4 18

-10 0 -5 7 -7 15 -4 8 4 17 -1 21 -10 4 -11 13 -14 25 -11 11 4 19 2 19 -3 0

-4 14 -24 30 -42 17 -18 30 -40 30 -47 0 -17 27 -17 33 0 3 6 8 -2 12 -19 7

-30 10 -32 47 -30 28 1 46 9 58 24 23 28 40 28 40 2 0 -20 1 -20 28 -3 40 25

62 50 62 70 0 13 3 14 12 5 9 -9 9 -15 0 -24 -18 -18 -14 -35 9 -41 18 -5 20

-2 15 18 -3 13 -2 27 4 30 5 3 10 1 10 -5 0 -24 25 -2 30 25 3 16 11 30 19 33

10 3 12 0 8 -12 -7 -18 8 -22 19 -5 9 15 24 -9 24 -38 0 -31 16 -29 24 2 11

42 31 30 27 -15 -1 -9 9 -4 24 13 22 25 28 27 42 15 15 -12 16 -10 10 14 -4

15 -3 30 3 33 6 3 7 -1 4 -10 -5 -12 -2 -16 10 -13 10 2 22 -7 29 -22 16 -32

47 -39 47 -11 0 12 6 21 15 21 8 0 15 6 15 14 0 7 10 13 23 12 16 -1 23 -8 25

-28 2 -17 9 -28 19 -28 11 0 14 8 11 30 -5 31 4 39 21 18 6 -7 22 -26 37 -43

l27 -30 -6 26 c-5 18 -2 31 8 39 8 7 15 18 15 25 0 16 79 3 95 -17 12 -15 76

-50 81 -45 2 2 -10 22 -26 44 l-30 41 25 -3 c14 -1 31 -9 38 -17 14 -18 67

-33 67 -19 0 5 -7 11 -15 15 -8 3 -15 12 -15 20 0 8 -8 19 -17 25 -10 5 -15

12 -11 16 8 9 59 -25 53 -35 -2 -4 4 -15 15 -25 19 -17 21 -17 40 6 18 20 24

21 41 11 11 -7 23 -10 28 -8 4 3 25 -9 46 -26 47 -39 35 -13 -26 58 -22 25

-37 49 -34 52 3 3 11 -1 18 -9 12 -16 62 -49 72 -49 3 0 1 9 -5 21 -10 17 -9

20 7 19 10 -1 29 -2 43 -1 22 1 23 3 9 16 -19 20 -214 24 -248 6 -12 -7 -29

-10 -36 -7 -24 9 -138 -15 -173 -36 -44 -27 -202 -35 -332 -17 -52 7 -113 13

-135 14 -120 3 -199 18 -234 43 -55 40 -91 87 -98 127 -5 31 -1 41 25 68 17

18 31 36 30 42 -1 10 7 15 68 43 l42 19 4 -46 c9 -90 70 -177 159 -226 70 -39

170 -42 236 -7 95 50 156 134 169 235 4 28 13 51 21 54 19 7 203 -87 203 -104

0 -12 13 -17 33 -14 4 0 7 -6 7 -14 0 -8 9 -19 20 -25 11 -6 20 -18 20 -28 0

-14 2 -15 10 -2 6 10 12 12 20 4 7 -7 -4 -19 -40 -38 -36 -19 -50 -33 -46 -43

3 -8 6 -17 6 -19 0 -12 82 39 95 60 19 28 70 30 90 3 7 -9 22 -17 34 -17 12 0

43 -11 69 -24 33 -17 53 -22 63 -15 11 7 11 9 -3 9 -10 0 -18 5 -18 10 0 6 8

10 18 10 10 0 21 3 25 6 9 10 -26 45 -60 59 -18 8 -33 19 -33 24 0 6 -7 11

-14 11 -8 0 -27 11 -42 25 -15 14 -33 24 -39 21 -6 -2 -17 5 -23 15 -7 11 -35

29 -62 41 -32 14 -49 27 -46 35 5 13 -3 16 -39 14 -11 0 -14 2 -7 5 25 11 11

22 -40 28 -29 4 -61 15 -71 24 -23 21 -84 42 -122 42 -20 0 -42 11 -63 30

l-32 29 -19 -21 c-22 -23 -50 -16 -31 8 7 7 10 19 7 26 -4 8 -8 5 -12 -9 -7

-22 -11 -23 -86 -19 -43 3 -84 8 -90 12 -6 3 -22 1 -35 -6 -19 -11 -26 -11

-39 0 -10 8 -15 9 -15 1 0 -6 -16 -11 -35 -11 -19 0 -35 -4 -35 -10 0 -5 7 -7

15 -4 8 4 15 3 15 0 0 -11 -73 -36 -107 -36 -23 0 -46 -9 -64 -25 -16 -13 -36

-22 -43 -19 -8 3 -17 1 -21 -5 -3 -6 -16 -11 -28 -11 -13 0 -31 -6 -42 -14

-60 -41 -89 -20 -54 39 12 20 19 44 16 55 -3 11 -2 19 2 18 19 -2 31 3 31 15

1 15 84 77 103 77 8 0 21 9 28 21 8 11 25 22 39 23 14 2 45 9 70 14 25 6 71

16 102 22 32 6 61 16 64 22 8 12 -243 5 -285 -8 -17 -5 -22 -4 -17 5 4 7 -2

14 -15 20 -21 7 -18 10 26 24 28 9 73 19 100 23 41 6 46 9 25 14 -24 7 -24 7

14 23 47 21 57 21 31 1 -19 -15 -19 -15 10 -8 17 4 37 13 45 20 14 12 36 19

150 46 36 9 41 12 25 18 -19 7 -19 7 3 19 15 8 27 9 35 3 8 -7 26 -6 52 3 22

7 66 16 97 20 37 4 61 12 67 22 13 23 174 53 185 34 12 -18 54 -13 52 6 -1 14

11 19 58 25 55 7 89 2 59 -9 -30 -11 -9 -23 39 -23 36 0 58 -5 72 -19 12 -10

33 -21 47 -25 21 -5 26 -2 25 12 0 9 -5 20 -11 24 -6 5 -4 8 6 8 8 0 19 -4 25

-9 15 -14 64 -23 64 -11 0 5 -8 10 -19 10 -32 0 -71 39 -71 71 0 19 5 29 15

29 8 0 15 -6 15 -14 0 -17 26 -29 60 -29 14 0 31 -8 38 -18 16 -23 32 -25 32

-4 0 22 21 18 27 -5 3 -10 14 -22 24 -25 11 -4 33 -18 49 -32 l31 -25 -4 23

c-3 13 -23 44 -46 69 -37 40 -46 59 -38 75 1 3 -36 29 -83 59 -47 30 -93 61

-102 70 -10 9 -27 16 -38 16 -11 0 -28 8 -38 18 -25 23 -50 39 -88 57 -17 7

-37 21 -44 30 -7 9 -27 23 -44 32 -36 19 -165 43 -172 32z"/>

<path d="M6358 17767 c-31 -18 -65 -40 -75 -48 -25 -20 -90 -49 -112 -49 -9 0

-28 -12 -42 -26 -24 -26 -92 -65 -139 -79 -22 -7 -23 -6 -11 9 11 14 11 16 -2

16 -14 0 -45 -29 -39 -37 8 -12 -4 -30 -50 -74 -56 -54 -64 -59 -48 -30 16 30

12 36 -10 16 -11 -10 -20 -23 -20 -29 0 -6 -14 -28 -31 -49 -18 -22 -25 -37

-17 -37 7 0 19 9 26 20 7 12 17 18 23 14 7 -4 3 -14 -10 -28 -22 -23 -30 -49

-9 -28 14 14 28 16 28 3 0 -5 -12 -14 -27 -20 -16 -5 -41 -22 -58 -36 -29 -26

-29 -26 -5 -20 14 4 44 17 68 28 23 11 45 17 48 14 9 -9 89 20 89 32 0 7 17

22 38 34 31 17 40 19 46 8 7 -10 21 -12 56 -7 30 5 51 3 60 -4 10 -9 23 -9 47

-1 66 21 179 26 378 16 107 -6 150 -12 298 -42 79 -17 106 -32 60 -34 -22 -1

-22 -1 2 -8 28 -9 43 -4 35 10 -4 5 8 9 26 9 26 0 29 -3 20 -14 -12 -15 2 -18

129 -32 30 -3 70 -12 87 -20 34 -15 176 -16 166 -1 -9 15 28 19 45 5 29 -26

77 -37 118 -28 26 6 58 4 98 -5 33 -8 63 -12 68 -9 17 11 7 24 -19 25 -27 0

-27 1 7 13 29 10 39 10 57 -1 19 -11 27 -11 45 -1 39 23 68 62 64 86 -3 21 -1

23 22 17 23 -6 24 -4 12 10 -18 22 -64 45 -90 45 -11 0 -20 5 -20 10 0 6 5 10

11 10 5 0 7 5 4 10 -4 7 -14 6 -28 -1 -16 -9 -22 -9 -25 0 -2 6 -17 11 -33 11

-18 0 -28 4 -24 10 8 13 -11 13 -34 0 -19 -9 -71 7 -71 23 0 4 -6 7 -12 7 -7

0 -26 7 -42 15 -16 9 -36 13 -43 11 -12 -5 -32 7 -68 41 -7 7 -32 15 -55 19

-29 5 -40 11 -36 20 4 10 -4 14 -30 14 -19 0 -33 4 -30 9 9 14 -14 18 -63 10

-42 -7 -48 -5 -68 18 -21 26 -21 26 -62 9 -51 -20 -70 -21 -53 -4 21 21 13 27

-25 21 -36 -5 -37 -5 -18 10 25 19 21 23 -33 31 -24 3 -47 8 -52 11 -4 3 -21

0 -36 -5 -32 -13 -42 -6 -23 16 12 15 11 16 -20 9 -23 -5 -36 -3 -41 5 -6 10

-17 10 -51 1 -24 -7 -52 -12 -62 -12 -10 0 -29 -4 -42 -9 -16 -6 -25 -5 -28 3

-3 9 -9 9 -26 0 -11 -7 -25 -13 -31 -13 -21 0 -9 16 32 43 32 20 37 27 21 27

-11 0 -31 -8 -44 -19 -13 -10 -35 -22 -48 -26 l-24 -7 21 27 c24 30 22 46 -2

26 -8 -7 -19 -10 -25 -7 -5 3 -11 1 -13 -6 -4 -11 -78 -23 -78 -12 0 2 15 13

33 24 54 34 6 22 -55 -13z"/>

<path d="M10560 17211 c0 -5 28 -23 63 -41 34 -19 91 -53 127 -77 36 -24 73

-43 83 -43 10 0 15 -4 12 -10 -3 -6 1 -7 9 -4 23 9 20 16 -18 46 -61 48 -276

149 -276 129z"/>

<path d="M7421 17163 c-8 -14 -23 -17 -98 -15 -48 2 -101 -1 -118 -6 l-30 -9

40 -7 c88 -15 206 -72 188 -90 -4 -3 3 -16 14 -29 15 -16 19 -31 16 -54 -6

-36 -12 -40 -82 -49 -43 -5 -50 -4 -60 14 -8 16 -19 19 -56 17 -40 -3 -45 -1

-45 17 0 20 -1 20 -18 5 -14 -13 -25 -14 -62 -5 -53 12 -290 17 -297 5 -2 -4

-13 -5 -24 -2 -13 4 -19 2 -19 -8 0 -10 -16 -17 -46 -22 -25 -3 -48 -13 -51

-21 -3 -9 -13 -12 -23 -9 -10 3 -21 1 -25 -5 -4 -6 -15 -8 -26 -5 -11 4 -19 2

-19 -4 0 -6 -9 -11 -19 -11 -11 0 -22 -4 -25 -9 -3 -5 -17 -8 -30 -8 -13 0

-42 -15 -64 -32 -21 -18 -50 -33 -64 -35 -14 -1 -38 -14 -54 -29 -16 -15 -33

-27 -37 -27 -10 0 -81 -52 -85 -62 -2 -5 -18 -8 -35 -8 -32 -1 -77 -29 -77

-48 0 -5 -9 -12 -20 -15 -21 -5 -28 -27 -8 -27 7 0 5 -7 -5 -18 -15 -16 -14

-18 13 -30 16 -7 32 -21 35 -30 4 -13 17 -18 51 -20 26 -1 49 -4 52 -7 3 -2

-6 -14 -19 -26 l-24 -21 23 5 c17 4 22 1 22 -14 0 -17 3 -18 21 -8 20 10 21 9

16 -10 -6 -26 -9 -26 52 5 59 29 108 30 53 0 -19 -9 -31 -20 -28 -23 3 -3 17

2 31 11 38 25 48 12 40 -53 l-6 -56 25 49 c28 54 45 76 56 76 4 0 -1 -17 -11

-37 -21 -41 -25 -73 -9 -73 6 0 10 4 10 10 0 5 15 16 34 24 18 8 37 19 40 25

13 21 26 11 20 -15 l-7 -26 41 21 c22 11 43 25 47 31 8 12 45 13 45 1 0 -5 -5

-11 -11 -13 -8 -3 -6 -9 4 -18 41 -38 43 -38 56 -18 16 25 7 35 -15 17 -16

-13 -16 -12 -6 8 16 28 15 33 -3 33 -8 0 -15 5 -15 10 0 13 36 13 59 0 14 -7

30 -4 59 10 51 25 50 25 48 -2 -1 -15 -7 -23 -18 -22 -11 1 -18 -10 -23 -35

-3 -20 -9 -47 -12 -61 -5 -21 2 -17 46 28 28 28 56 52 61 52 4 0 10 8 12 18 3

13 8 8 21 -17 9 -19 17 -40 17 -46 0 -11 29 -30 35 -23 9 10 -10 68 -21 68 -8

0 -14 5 -14 10 0 19 18 10 46 -22 15 -18 33 -32 40 -30 8 2 15 -14 19 -42 7

-42 9 -45 27 -35 11 6 32 9 47 6 15 -3 33 -2 41 3 16 10 39 -15 40 -42 0 -10

4 -18 9 -18 13 0 75 33 83 44 4 6 12 5 20 -2 11 -9 17 -9 26 0 9 9 15 8 24 -5

10 -12 17 -14 28 -6 11 8 12 12 2 16 -18 7 -4 23 22 23 25 0 76 39 76 58 0 7

5 12 11 12 6 0 31 16 55 36 34 28 44 43 44 66 0 22 4 28 18 26 13 -2 16 3 15

22 -2 19 6 31 32 48 18 13 39 21 44 17 19 -11 51 14 47 38 -3 12 -5 28 -5 35

-1 6 -10 12 -21 12 -11 0 -20 6 -20 14 0 9 -7 12 -20 9 -11 -3 -20 -9 -20 -14

0 -5 -3 -8 -7 -7 -5 1 -25 -7 -45 -17 -48 -23 -56 -15 -29 28 11 19 21 46 21

60 l0 25 37 -19 c20 -10 41 -23 47 -29 11 -11 46 -14 46 -3 0 3 -7 14 -16 24

-14 16 -13 17 23 15 21 -1 44 -5 51 -10 15 -9 16 7 2 34 -5 11 -14 29 -20 40

-15 30 -12 58 8 69 11 7 12 10 3 11 -9 0 -11 8 -7 23 3 14 -2 35 -14 55 -11

18 -20 41 -20 52 0 12 -12 26 -31 35 -19 10 -29 22 -25 30 3 8 1 17 -4 20 -4

3 -10 0 -12 -6 -5 -15 -48 10 -48 28 0 7 -8 13 -18 13 -10 0 -22 3 -26 7 -16

16 -120 42 -132 32 -12 -10 -44 -2 -44 10 0 4 5 12 12 19 9 9 9 12 0 12 -6 0

-15 -8 -21 -17z m-97 -354 c23 -18 49 -63 69 -122 10 -28 -37 -113 -74 -131

-17 -9 -35 -13 -40 -10 -4 2 -17 -4 -29 -16 -11 -11 -27 -20 -35 -20 -8 0 -23

-4 -33 -9 -9 -6 -58 -19 -109 -31 -56 -13 -98 -29 -109 -41 -19 -21 -44 -25

-44 -8 0 7 -28 10 -85 7 -62 -4 -105 0 -158 14 -39 10 -96 17 -124 16 -29 -1

-56 1 -59 5 -4 4 -24 -7 -45 -24 -22 -17 -39 -26 -39 -20 0 6 9 16 20 23 11 7

20 16 20 20 0 10 -67 38 -91 38 -11 0 -19 5 -19 11 0 7 9 9 21 6 15 -4 19 -2

15 9 -4 11 1 13 25 9 46 -8 57 5 24 31 -28 22 -28 23 -12 56 19 41 51 71 97

93 19 9 60 29 90 45 l55 28 43 -88 c47 -97 81 -132 173 -175 110 -51 220 -26

308 70 58 63 88 137 91 223 0 18 24 15 54 -9z"/>

<path d="M6480 17084 c-81 -24 -206 -80 -280 -125 -111 -68 -136 -93 -124

-122 5 -15 50 -12 60 4 3 5 12 9 20 9 9 0 50 28 92 62 110 89 167 121 284 158

57 17 108 34 113 35 6 2 -10 4 -35 4 -25 0 -83 -11 -130 -25z"/>

<path d="M12351 16848 c-8 -23 4 -66 22 -79 5 -3 7 -12 6 -20 -6 -30 12 -70

36 -79 14 -5 25 -18 25 -28 0 -22 22 -72 33 -72 13 0 7 87 -8 125 -9 20 -13

45 -10 55 3 11 -1 31 -11 45 -9 14 -14 25 -11 25 3 0 -4 11 -17 25 -29 31 -54

32 -65 3z"/>

<path d="M4491 16531 c-7 -12 -9 -26 -6 -32 4 -5 1 -17 -6 -25 -18 -22 -19

-151 -1 -194 8 -19 16 -57 19 -85 2 -27 8 -53 13 -58 6 -4 8 -4 5 -1 -2 4 2

19 10 35 10 18 13 42 9 72 -5 37 -3 48 15 66 11 11 21 28 21 36 0 8 7 15 15

15 9 0 12 6 8 16 -3 9 -1 19 6 23 12 8 -37 91 -79 135 -18 18 -18 18 -29 -3z"/>

<path d="M12080 15440 c0 -8 -4 -21 -9 -29 -8 -12 -12 -12 -25 -2 -30 25 -16

-2 19 -36 34 -33 39 -58 10 -46 -9 3 -15 -1 -15 -10 0 -9 -16 -25 -35 -37 -36

-23 -65 -56 -65 -76 0 -11 39 -12 132 -5 21 1 138 118 138 137 0 8 -4 14 -10

14 -5 0 -8 15 -5 35 3 26 0 35 -10 35 -9 0 -12 -6 -8 -16 5 -13 2 -15 -15 -9

-30 9 -65 -3 -58 -21 8 -21 -4 -17 -25 8 -13 14 -16 25 -10 32 6 7 6 17 1 26

-9 13 -10 13 -10 0z"/>

<path d="M9005 14695 c-53 -20 -85 -37 -85 -45 0 -4 12 -13 28 -21 54 -27 112

-70 112 -84 0 -7 5 -15 11 -17 20 -7 0 -68 -22 -68 -10 0 -19 -7 -19 -15 0 -8

5 -15 10 -15 6 0 10 -4 10 -10 0 -5 -7 -10 -15 -10 -8 0 -15 4 -15 8 0 8 -53

42 -66 42 -4 0 -3 -5 4 -12 17 -17 15 -38 -4 -38 -11 0 -14 -6 -9 -21 6 -18 4

-19 -12 -10 -11 5 -25 17 -33 25 -18 22 -33 20 -27 -4 6 -24 -2 -25 -29 -5

-10 8 -23 15 -28 15 -11 0 3 -53 17 -62 6 -4 8 -10 4 -14 -3 -4 -12 -2 -19 3

-7 6 -26 13 -41 17 -26 6 -27 5 -17 -14 6 -11 8 -24 5 -29 -3 -5 8 -24 25 -42

16 -18 27 -35 23 -38 -3 -3 -8 0 -10 7 -3 6 -17 12 -32 12 -15 0 -32 5 -38 11

-16 16 -36 -25 -31 -62 4 -29 -5 -39 -17 -19 -9 15 -27 1 -21 -16 3 -8 0 -14

-6 -14 -6 0 -22 -12 -35 -26 -18 -19 -21 -29 -13 -39 7 -8 9 -35 5 -67 -4 -45

-3 -49 6 -25 14 34 20 34 41 -3 18 -32 10 -30 145 -34 18 -1 33 2 33 6 0 4 11

3 25 -2 23 -9 25 -8 19 14 -8 35 14 42 37 12 24 -30 39 -33 39 -8 0 9 7 25 15

35 13 18 14 17 17 -5 2 -13 11 -24 21 -26 15 -3 18 1 12 20 -5 19 -4 20 5 6

15 -24 30 -23 30 1 0 19 17 38 25 29 3 -2 1 -19 -4 -36 -14 -48 7 -51 27 -3

20 49 29 52 30 10 1 -42 6 -45 32 -19 18 18 20 24 9 31 -7 4 -10 11 -6 15 3 4

13 1 22 -6 16 -14 20 -40 6 -40 -5 0 -12 -8 -15 -17 -6 -15 -5 -15 13 1 11 10

23 27 27 38 5 18 7 18 20 -6 7 -15 10 -34 7 -44 -6 -15 -5 -15 10 -3 14 11 18

11 23 -4 10 -26 24 2 24 48 0 43 14 42 23 0 10 -45 23 -59 40 -44 19 15 35 -5

18 -22 -6 -6 -11 -16 -11 -21 0 -6 7 -2 16 9 11 15 17 17 22 8 5 -7 8 28 7 77

0 56 -5 94 -12 101 -10 10 -12 4 -9 -29 2 -23 2 -42 0 -42 -2 0 -10 14 -19 30

-11 22 -13 35 -6 49 7 12 6 22 -1 29 -19 19 -26 14 -20 -15 l5 -28 -30 28 -30

27 5 -30 c4 -29 3 -30 -23 -20 -23 9 -30 7 -40 -7 -8 -10 -17 -14 -22 -10 -4

5 1 15 12 23 22 16 43 78 37 108 -4 18 -5 18 -18 -5 l-14 -24 0 30 c0 17 -1

46 -3 65 -2 33 0 35 31 38 20 2 32 9 32 18 0 17 -22 18 -38 2 -6 -6 -13 -10

-14 -7 -27 42 -33 67 -24 91 8 22 14 26 33 22 13 -4 23 -2 23 4 0 5 15 19 33

31 26 17 28 21 11 21 -28 0 -76 52 -68 73 8 22 -28 67 -78 95 -52 30 -121 36

-173 17z"/>

<path d="M7913 14663 c-12 -2 -35 -16 -51 -31 -26 -24 -29 -35 -30 -84 l0 -56

63 -27 c35 -15 68 -24 74 -21 16 10 13 -5 -5 -25 -13 -14 -14 -23 -3 -57 9

-32 9 -46 -2 -71 -15 -34 -30 -42 -22 -12 5 19 -25 39 -36 23 -3 -5 -14 -11

-23 -15 -11 -4 -18 -17 -18 -34 -1 -18 -10 -34 -25 -46 -24 -17 -25 -17 -25 3

0 11 9 29 20 40 26 26 25 34 -1 20 -28 -16 -36 -4 -14 20 22 24 14 36 -13 19

-12 -7 -17 -19 -15 -30 3 -10 3 -29 -1 -41 -6 -25 -90 -120 -98 -112 -10 9 34

84 49 84 16 0 14 33 -2 34 -9 1 -29 -32 -40 -68 -4 -14 -8 -16 -19 -7 -11 9

-15 7 -19 -11 -4 -14 -19 -28 -37 -35 -16 -6 -33 -20 -36 -30 -11 -34 -33 -68

-51 -78 -10 -5 -35 -25 -56 -42 -20 -18 -42 -33 -48 -33 -13 0 21 48 56 81 14

13 30 32 36 42 10 17 9 17 -19 3 -16 -8 -37 -27 -46 -41 -9 -14 -22 -24 -29

-23 -7 2 -23 -8 -35 -20 -25 -25 -43 -23 -22 3 19 23 -11 20 -43 -6 -15 -11

-34 -22 -44 -24 -10 -2 -27 -7 -38 -11 -16 -6 -18 -5 -9 7 17 21 73 169 64

169 -8 0 -22 -33 -36 -80 -7 -26 -120 -150 -136 -150 -5 0 8 21 29 47 28 34

32 43 16 35 -12 -7 -34 -17 -50 -22 l-28 -10 27 22 c15 13 38 31 53 41 14 11

25 21 22 23 -6 7 -102 -43 -117 -61 -13 -16 -62 -45 -76 -45 -3 0 1 11 10 25

27 42 0 28 -44 -22 -57 -65 -90 -133 -90 -186 0 -24 -3 -48 -7 -53 -5 -6 6 5

23 23 17 18 34 33 37 33 3 0 -5 -23 -18 -52 -13 -29 -22 -54 -20 -56 2 -2 21

10 42 27 21 17 43 31 50 31 7 0 13 6 14 13 1 14 99 104 99 91 0 -5 -13 -24

-29 -42 -31 -33 -24 -57 8 -28 10 9 29 19 42 21 13 3 32 14 44 26 l20 21 -32

-16 c-40 -20 -43 -10 -6 21 31 27 74 33 53 8 -17 -20 -5 -32 15 -15 9 7 13 21

10 31 -3 9 -1 20 5 24 5 3 10 1 10 -4 0 -18 21 -12 42 12 20 23 15 4 -7 -23

-7 -8 -15 -24 -19 -34 -6 -17 -4 -17 11 -5 10 7 30 24 46 38 30 28 35 22 11

-14 -22 -34 0 -32 29 2 39 46 59 65 64 60 9 -10 -8 -47 -23 -47 -13 0 -15 -5

-13 -27 1 -14 54 -12 73 3 20 14 20 14 0 28 -19 14 -19 15 0 33 18 17 18 17 6

-7 -10 -19 -4 -16 28 15 22 22 48 47 57 56 34 32 55 59 55 71 0 6 -9 3 -20 -7

-28 -25 -37 -11 -14 21 11 15 24 35 30 46 6 10 22 30 34 44 32 33 50 15 21

-22 -23 -29 -27 -44 -11 -44 6 0 16 12 22 28 9 22 12 24 16 8 2 -11 -8 -31

-25 -50 -38 -40 -65 -84 -61 -98 2 -6 23 15 46 46 24 31 47 56 53 56 6 0 8 9

4 20 -4 12 -2 20 5 20 7 0 10 8 7 20 -7 27 9 35 22 11 15 -27 14 -41 -3 -41

-12 0 -26 -47 -26 -94 0 -18 2 -18 27 5 23 21 25 22 18 4 -4 -11 -10 -33 -12

-50 -5 -29 -4 -29 15 8 12 21 18 45 16 52 -10 25 16 26 27 1 7 -14 20 -28 30

-31 10 -3 22 -18 27 -33 11 -30 10 -31 37 61 17 58 34 75 36 35 l0 -23 10 24

9 23 20 -25 c11 -14 20 -40 20 -58 0 -40 17 -28 22 15 4 37 28 48 28 12 0 -33

20 -44 37 -20 7 10 19 26 26 34 7 8 23 29 36 45 l24 30 -5 -50 c-3 -27 -2 -61

2 -75 6 -20 8 -21 9 -5 1 28 32 105 42 105 9 0 13 -22 10 -49 -2 -7 4 -11 11

-9 7 3 18 -2 25 -11 11 -14 12 -13 13 9 0 14 7 36 15 50 14 24 14 24 15 -22 0

-27 5 -48 10 -48 6 0 10 9 10 20 0 12 17 37 37 58 20 20 34 29 30 20 -8 -23

13 -35 25 -14 5 9 13 16 19 16 5 0 -1 -18 -13 -39 -28 -48 -18 -62 22 -32 34

25 39 20 10 -9 -27 -27 -26 -45 2 -26 28 20 33 20 52 1 14 -14 17 -13 30 8 9

12 17 47 20 76 3 45 1 54 -14 58 -13 4 -17 14 -16 41 1 30 -2 36 -16 34 -13

-2 -18 4 -18 23 0 14 -4 25 -10 25 -5 0 -10 6 -10 14 0 25 -22 30 -38 10 -13

-18 -14 -18 -7 4 5 16 2 22 -9 22 -9 0 -16 5 -16 12 0 6 -8 4 -19 -6 -11 -10

-17 -24 -15 -31 3 -7 1 -16 -4 -19 -20 -12 -21 38 -2 57 25 23 26 41 1 34 -14

-3 -17 0 -14 13 7 26 -33 37 -56 16 -28 -26 -34 -18 -11 14 12 17 18 30 13 30

-5 0 -23 -13 -41 -30 -40 -36 -44 -37 -36 -5 8 33 -5 32 -32 -2 l-23 -28 1 25

c1 14 6 31 11 38 9 11 -17 17 -70 15 -7 -1 -13 5 -13 12 0 7 6 16 13 19 6 3

-1 3 -16 -1 -28 -5 -28 -5 -22 38 9 59 24 89 48 89 36 0 11 25 -62 63 -72 36

-83 39 -128 30z"/>

<path d="M9966 13992 c9 -5 44 -101 44 -119 0 -13 -23 14 -34 40 -7 18 -24 41

-36 52 l-23 20 7 -20 c4 -11 9 -24 10 -30 3 -21 20 -37 98 -100 90 -73 126

-87 55 -22 -27 25 -47 52 -47 64 0 11 -10 32 -21 47 -36 46 -13 41 45 -10 33

-28 60 -61 67 -81 12 -38 28 -51 39 -32 7 10 11 10 24 0 8 -7 24 -10 36 -6 13

4 22 1 26 -9 3 -9 12 -16 20 -16 15 0 19 16 7 22 -5 2 -26 23 -48 48 -22 25

-48 46 -57 46 -18 1 -33 11 -97 69 l-34 30 28 -37 c26 -36 22 -55 -6 -22 -16

19 -94 74 -106 74 -4 0 -3 -4 3 -8z"/>

<path d="M9690 13981 c0 -5 15 -19 34 -30 21 -14 36 -32 39 -50 4 -19 17 -34

37 -44 37 -19 38 -12 3 25 -18 19 -22 28 -12 28 8 0 21 -6 28 -12 10 -11 11

-9 5 6 -14 36 12 8 31 -33 23 -53 47 -64 30 -14 -16 46 -51 88 -94 114 l-34

20 17 -25 c20 -32 10 -34 -21 -4 -24 23 -63 34 -63 19z"/>

<path d="M9625 13552 c-12 -10 -34 -17 -55 -16 -19 1 -43 -5 -52 -13 -10 -9

-24 -13 -32 -10 -7 3 -24 -5 -37 -19 -12 -13 -28 -24 -35 -24 -7 0 -16 -5 -20

-12 -5 -8 11 -9 63 -5 53 5 74 3 89 -8 25 -19 32 -19 30 3 -1 21 43 28 75 12

15 -9 24 -9 32 -1 17 17 25 13 29 -11 2 -15 11 -24 26 -26 17 -3 23 -9 19 -21

-6 -25 11 -51 28 -45 8 4 15 1 15 -5 0 -19 15 -12 25 12 6 12 20 23 33 25 14

2 22 9 19 16 -7 18 44 63 66 58 9 -2 17 -11 17 -20 0 -13 4 -11 20 6 12 12 27

22 35 22 9 0 15 10 15 25 0 18 -5 25 -19 25 -10 0 -22 7 -25 15 -8 22 -162 20

-170 -2 -5 -11 -10 -12 -28 -1 -13 6 -27 13 -33 13 -5 1 -22 5 -38 9 -17 5

-32 4 -41 -3 -11 -10 -16 -9 -23 4 -8 14 -11 13 -28 -3z"/>

<path d="M7216 13551 c-4 -6 -4 -11 1 -11 4 -1 -5 -8 -22 -17 -24 -14 -26 -18

-12 -21 10 -2 16 -11 15 -20 -2 -10 5 -18 17 -20 11 -2 26 -11 33 -20 10 -13

16 -14 32 -4 21 13 33 2 24 -22 -5 -12 -2 -15 10 -10 10 4 18 -1 24 -15 7 -21

98 -85 137 -97 11 -4 25 -14 31 -23 10 -13 15 -13 27 -2 9 7 21 10 26 7 14 -9

32 29 24 50 -4 10 0 20 10 25 8 5 19 23 22 40 l7 32 56 -6 c30 -3 64 -1 74 4

13 7 23 7 32 0 15 -12 56 -3 56 13 0 6 -9 17 -20 24 -12 7 -18 17 -15 22 4 6

-10 10 -32 10 -27 0 -43 6 -53 20 -16 22 -50 27 -50 8 -1 -7 -8 0 -16 16 -12

21 -18 25 -24 16 -7 -11 -11 -11 -24 -1 -12 10 -23 11 -43 3 -16 -6 -47 -14

-70 -17 -23 -4 -44 -13 -47 -20 -3 -10 -22 -12 -68 -10 -35 2 -77 4 -93 4 -22

1 -35 8 -46 27 -10 17 -19 22 -23 15z"/>

<path d="M9260 13458 c-19 -5 -53 -14 -75 -19 -22 -6 -56 -12 -75 -14 -86 -8

-197 -27 -217 -37 -12 -6 -67 -11 -123 -12 -57 -1 -101 -5 -103 -11 -2 -9 111

-27 124 -19 3 2 42 6 85 10 43 3 84 10 89 14 10 8 63 16 148 25 26 2 56 9 67

15 11 6 48 13 81 16 66 6 116 21 106 31 -11 10 -70 11 -107 1z"/>

<path d="M11330 12340 c2 -30 2 -57 1 -60 -2 -6 -6 -108 -16 -375 -14 -371

-28 -445 -124 -658 -17 -38 -42 -107 -57 -154 -27 -89 -35 -100 -160 -233 -34

-36 -85 -94 -114 -128 -29 -35 -96 -107 -149 -160 -94 -95 -136 -141 -216

-237 -22 -27 -47 -55 -56 -64 -46 -44 -68 -61 -78 -61 -6 0 -11 -8 -11 -18 0

-11 -11 -24 -25 -30 -14 -6 -25 -16 -25 -21 0 -6 -20 -24 -45 -41 -27 -19 -45

-39 -45 -50 0 -11 -6 -20 -13 -20 -15 0 -137 -116 -137 -131 0 -6 -5 -7 -10

-4 -11 7 -40 -18 -40 -34 0 -6 7 -8 15 -5 8 4 15 1 15 -5 0 -7 -8 -14 -17 -18

-10 -3 -37 -24 -60 -46 -31 -30 -40 -46 -38 -66 2 -14 -3 -35 -11 -45 -14 -20

-14 -20 -29 0 -8 10 -15 14 -15 7 0 -6 -3 -19 -7 -29 -4 -12 -3 -15 5 -10 22

14 12 -8 -14 -31 -21 -18 -24 -26 -15 -37 12 -14 2 -27 -31 -39 -32 -11 -19

-27 22 -27 45 0 54 -16 14 -26 -21 -5 -24 -11 -20 -30 4 -14 2 -32 -3 -42 -10

-19 13 -50 24 -32 10 17 25 11 25 -10 0 -24 15 -27 24 -4 3 8 11 12 17 9 7 -5

7 -11 1 -17 -6 -6 -8 -16 -6 -23 3 -8 -12 -19 -39 -30 -25 -9 -50 -27 -57 -41

-15 -27 -4 -48 11 -21 14 24 24 21 37 -8 6 -14 19 -25 27 -25 14 0 14 -4 -2

-30 -10 -17 -28 -38 -41 -46 -21 -14 -22 -42 -1 -29 13 9 11 -9 -3 -23 -9 -9

-9 -12 0 -12 18 0 14 -18 -8 -40 -11 -11 -17 -20 -14 -20 3 0 -2 -8 -12 -17

-17 -17 -17 -18 4 -21 30 -5 28 -20 -5 -33 -19 -7 -23 -13 -15 -21 8 -8 15 -8

27 2 33 27 15 -17 -22 -56 -35 -36 -30 -40 9 -6 10 8 25 12 34 8 15 -6 14 -10

-9 -34 -15 -15 -30 -42 -33 -60 -4 -18 -10 -32 -14 -32 -11 0 -54 -69 -48 -76

3 -2 20 9 39 26 35 31 49 37 49 21 0 -5 7 -12 16 -15 12 -4 14 -1 9 14 -8 25

31 84 51 76 15 -6 41 29 69 92 10 23 24 42 32 42 7 0 13 10 13 24 0 13 7 29

15 36 8 7 15 21 15 32 0 11 5 18 12 16 15 -5 53 31 62 60 4 12 18 30 32 38 13

9 24 23 24 31 0 7 25 38 55 68 36 36 53 60 49 70 -4 10 7 29 30 52 20 20 36

42 36 48 0 7 9 20 20 30 17 15 33 39 96 146 6 11 18 27 27 37 10 10 17 23 17

29 0 6 4 13 8 15 9 3 113 138 152 196 14 21 37 53 52 72 14 19 40 75 57 124

31 88 51 132 129 281 22 44 49 109 58 144 9 36 19 72 24 80 39 83 53 118 75

193 28 93 62 163 95 193 11 10 20 23 20 30 0 6 20 56 45 111 25 54 45 105 45

112 0 7 20 65 44 130 42 110 90 266 121 392 15 62 39 306 31 319 -3 4 -10 41

-16 82 -13 87 -38 211 -51 255 -8 26 -15 32 -35 30 -24 -1 -25 -4 -24 -56z"/>

<path d="M5825 11460 c-8 -14 -9 -21 -20 -148 -3 -40 -10 -83 -15 -96 -10 -27

8 -144 34 -225 52 -163 53 -166 37 -156 -6 3 -8 -9 -5 -30 2 -19 6 -51 8 -70

3 -21 20 -53 44 -82 49 -60 116 -174 137 -233 8 -24 31 -71 49 -105 19 -33 51

-94 72 -135 21 -41 62 -111 91 -155 147 -219 162 -239 274 -368 19 -23 49 -60

65 -81 40 -55 66 -81 87 -89 9 -3 17 -15 17 -26 0 -10 11 -26 24 -35 14 -8 54

-58 90 -110 37 -52 80 -108 96 -126 17 -18 30 -34 30 -37 0 -8 64 -88 78 -96

6 -4 12 -13 12 -20 0 -7 12 -23 25 -36 29 -27 85 -139 85 -170 0 -12 6 -21 15

-21 8 0 15 -9 15 -20 0 -12 10 -31 23 -43 23 -24 27 -31 27 -47 0 -5 6 -10 14

-10 7 0 25 -9 39 -20 14 -11 31 -20 39 -20 7 0 19 -9 26 -20 7 -11 18 -20 26

-20 7 0 29 -13 47 -30 19 -16 43 -33 54 -36 11 -4 48 -29 82 -55 35 -27 69

-49 77 -49 9 0 20 -8 25 -18 5 -10 46 -47 90 -81 45 -35 81 -67 81 -71 0 -4

17 -19 38 -33 20 -13 60 -48 89 -76 28 -28 54 -51 58 -51 4 0 18 -10 30 -22

13 -13 42 -39 65 -58 23 -19 53 -52 66 -72 20 -31 107 -123 156 -164 43 -38

81 -87 110 -144 7 -14 25 -42 40 -63 15 -21 32 -55 39 -75 6 -20 27 -63 45

-95 19 -32 34 -63 34 -70 1 -21 30 26 30 47 0 12 9 35 20 51 11 17 20 42 20

56 0 14 16 58 36 98 19 39 33 77 31 84 -2 7 0 20 5 30 5 10 11 37 13 60 10 96

32 158 90 243 14 20 25 44 25 54 0 9 9 25 20 35 11 10 20 26 20 37 0 10 5 18

10 18 16 0 12 40 -5 46 -8 4 -15 12 -15 19 0 8 -7 21 -15 29 -14 14 -14 18 1

43 11 17 12 23 4 16 -8 -7 -25 -13 -38 -13 -19 0 -22 4 -17 21 5 14 0 27 -14

40 -12 11 -21 28 -21 38 0 11 -7 22 -16 25 -10 4 -13 13 -9 25 4 14 -1 20 -25

24 -27 6 -30 9 -24 34 4 16 11 31 16 34 6 3 0 9 -11 12 -13 3 -24 -1 -30 -10

-7 -13 -11 -11 -22 12 -8 16 -20 31 -28 33 -9 3 -11 0 -5 -9 7 -12 5 -12 -9 0

-19 15 -23 26 -5 15 7 -4 8 -3 4 5 -4 6 -16 9 -26 6 -10 -3 -21 -1 -25 5 -4 6

-12 7 -23 1 -10 -6 -23 -5 -35 3 -15 8 -21 8 -24 -1 -3 -8 -13 -4 -30 13 -19

19 -32 24 -54 20 -24 -4 -29 -1 -25 12 4 13 -5 22 -37 35 -23 9 -51 17 -61 17

-11 0 -28 8 -38 17 -13 11 -22 13 -29 6 -11 -11 -51 0 -96 25 -12 7 -32 12

-46 12 -13 0 -34 11 -47 25 -13 14 -29 25 -35 25 -7 0 -28 16 -48 35 -39 38

-53 44 -43 19 4 -11 -2 -10 -25 6 -16 12 -42 23 -57 24 -15 0 -32 8 -39 17 -7

9 -28 19 -48 22 -24 4 -48 19 -76 48 -22 23 -43 39 -46 35 -3 -3 0 -12 7 -21

9 -11 9 -15 1 -15 -21 0 -90 39 -99 57 -8 14 -13 15 -24 5 -12 -10 -17 -7 -26

13 -7 15 -8 25 -2 25 6 0 10 7 10 16 0 11 -6 14 -20 9 -15 -5 -20 -2 -20 10 0

12 5 15 16 11 8 -3 2 8 -14 24 -17 17 -35 30 -41 30 -6 0 -11 4 -11 8 0 12

-128 112 -144 112 -7 0 -18 10 -25 23 -7 14 -29 28 -57 36 -24 7 -45 17 -45

22 -1 5 -2 13 -3 19 0 5 -21 24 -46 42 -25 18 -46 36 -48 40 -2 5 -10 8 -18 8

-8 0 -19 11 -25 23 -6 13 -24 31 -40 41 -16 9 -29 21 -29 25 0 5 -18 20 -40

35 -22 14 -40 32 -40 40 0 7 -17 26 -37 42 -41 31 -143 135 -143 146 0 3 -30

29 -67 56 -81 60 -173 160 -221 240 -32 54 -137 215 -222 344 -21 31 -42 67

-45 80 -4 13 -29 64 -56 113 -27 50 -55 108 -62 130 -8 22 -28 69 -45 105 -28

59 -71 252 -69 315 0 11 -3 62 -6 113 -6 96 -18 135 -32 112z"/>

<path d="M10410 9075 c0 -8 -5 -14 -11 -12 -6 1 -14 -4 -16 -10 -3 -7 0 -13 6

-13 19 0 -6 -76 -57 -179 -17 -35 -150 -176 -211 -225 -30 -24 -33 -30 -23

-47 8 -13 9 -19 1 -19 -5 0 -9 -8 -8 -17 2 -10 -2 -27 -8 -38 -5 -11 -13 -40

-16 -64 -3 -24 -9 -47 -14 -50 -24 -17 -98 -117 -95 -128 2 -7 -3 -20 -10 -28

-29 -32 -37 -43 -33 -47 5 -4 -50 -208 -65 -243 -18 -44 -19 -55 -5 -55 8 0

15 7 15 15 0 9 6 12 17 8 10 -4 14 -2 10 4 -4 6 5 19 18 29 14 10 25 27 25 37

0 10 5 15 10 12 6 -3 10 1 10 11 0 9 18 35 40 58 53 55 122 148 162 219 18 32

47 77 64 100 17 23 29 48 26 55 -2 7 4 22 13 32 9 10 14 23 11 28 -3 5 1 15 9

22 8 7 19 29 25 50 11 42 55 91 74 84 8 -3 27 13 45 34 32 41 39 62 20 62 -5

0 -8 4 -4 10 3 5 11 7 18 4 18 -7 60 54 54 78 -5 16 3 89 16 151 2 10 -91 87

-105 87 -5 0 -8 -7 -8 -15z"/>

<path d="M6726 8695 c-58 -59 -65 -71 -71 -118 -4 -29 -14 -67 -21 -86 -14

-32 -13 -38 17 -96 26 -52 77 -124 154 -218 8 -9 15 -22 15 -27 0 -6 4 -10 8

-10 5 0 14 -10 20 -22 10 -22 11 -21 11 10 1 49 19 38 26 -15 5 -30 18 -62 35

-84 16 -20 35 -51 43 -70 8 -19 24 -44 36 -56 11 -12 21 -27 21 -32 0 -6 14

-8 33 -5 30 5 31 5 13 -10 -19 -15 -19 -16 10 -17 16 0 23 -3 17 -6 -18 -7

-16 -23 3 -23 8 0 12 -5 9 -10 -4 -6 10 -25 29 -42 20 -17 36 -36 36 -41 0

-13 60 -67 75 -67 7 0 15 -5 17 -10 2 -7 21 -4 51 7 49 18 65 38 22 27 -21 -5

-24 -3 -18 12 5 14 3 16 -10 11 -9 -4 -24 -10 -34 -14 -11 -4 -14 -3 -9 5 4 7

14 12 23 12 11 0 14 6 9 25 -5 18 -2 25 8 25 8 0 17 -6 19 -12 3 -7 6 -2 6 11

1 19 -3 22 -20 18 -15 -4 -19 -2 -15 9 4 9 -2 14 -15 14 -21 0 -20 1 2 21 l24

20 -30 -6 c-16 -4 -32 -10 -35 -14 -8 -13 -50 -23 -50 -13 0 5 18 15 41 22 47

16 55 25 39 45 -9 11 -9 15 -1 15 18 0 13 33 -11 67 -13 18 -50 52 -84 76

-107 78 -192 215 -165 265 11 22 5 72 -9 72 -15 0 -70 61 -90 99 -11 22 -24

43 -30 46 -6 4 -8 15 -5 26 4 12 2 19 -6 19 -10 0 -10 3 -1 12 14 14 16 68 2

68 -5 0 -10 14 -10 30 0 17 -5 30 -10 30 -6 0 -10 6 -9 13 3 26 -14 57 -32 57

-11 0 -48 -29 -83 -65z"/>

<path d="M73 2597 c-36 -11 -44 -27 -13 -27 13 0 18 -5 14 -15 -4 -9 0 -15 10

-15 9 0 16 6 17 13 0 6 5 1 10 -12 5 -13 8 -24 7 -25 -2 -1 -17 -9 -34 -18

-17 -10 -34 -15 -37 -11 -10 10 -34 -16 -39 -42 -3 -13 -1 -22 4 -19 4 3 11

-2 14 -10 3 -9 14 -16 24 -16 22 0 34 -26 15 -34 -9 -3 -12 -12 -8 -23 6 -16

5 -16 -10 -4 -14 11 -20 11 -32 1 -16 -13 -21 -65 -6 -55 5 3 12 1 16 -5 3 -5

-1 -10 -10 -10 -14 0 -15 -76 -14 -792 1 -799 2 -815 39 -1103 6 -44 15 -102

21 -130 6 -27 14 -93 18 -145 l6 -95 167 -3 167 -2 -14 47 c-8 27 -15 60 -15

76 0 15 -4 27 -10 27 -5 0 -7 7 -4 15 4 8 1 22 -6 30 -7 8 -9 22 -6 31 4 9 2

22 -3 28 -12 15 -31 126 -24 143 3 7 1 13 -5 13 -5 0 -12 12 -15 27 -3 16 -7

37 -10 48 -3 11 -8 52 -11 90 -8 86 -16 127 -27 141 -31 39 -93 544 -90 744 0

69 3 276 5 460 2 203 0 342 -6 353 -6 12 -6 23 1 31 6 7 7 16 3 20 -4 4 -7 22

-8 39 -2 60 -4 67 -18 67 -8 0 -17 -8 -19 -17 -4 -14 -5 -12 -6 5 -1 17 4 22

25 22 21 0 25 3 19 18 -4 9 -9 25 -12 34 -3 9 -11 14 -19 11 -17 -6 -18 9 -2

25 10 10 10 15 -2 22 -12 8 -13 11 -1 19 9 6 10 11 2 15 -6 4 -11 3 -11 -3 0

-5 -9 -9 -20 -8 -22 1 -27 13 -7 20 27 9 0 13 -30 4z"/>

<path d="M11280 2188 c0 -8 6 -23 14 -33 18 -24 10 -45 -17 -45 -18 0 -16 -5

16 -35 41 -38 48 -65 18 -65 -11 0 -23 -4 -26 -10 -3 -6 4 -10 16 -10 33 0

118 -85 176 -178 54 -84 73 -132 55 -132 -5 0 -17 -11 -26 -24 -15 -24 -15

-25 30 -48 25 -12 54 -34 65 -49 l19 -26 -50 -102 c-28 -55 -50 -105 -50 -111

0 -19 29 -10 41 13 17 33 79 107 90 107 15 0 10 -22 -7 -35 -9 -6 -15 -17 -13

-24 6 -16 145 117 154 147 3 12 12 22 20 22 7 0 13 10 13 23 0 12 4 35 8 50 6

24 4 28 -12 26 -20 -3 -94 29 -106 45 -3 5 -4 15 -1 21 2 7 -3 19 -12 28 -8 9

-17 28 -19 44 -4 42 -26 103 -37 103 -5 0 -9 9 -9 20 0 11 -6 23 -12 25 -7 3

-14 20 -15 38 -2 17 -9 37 -18 43 -8 6 -15 19 -15 28 0 9 -7 19 -16 23 -8 3

-20 16 -25 29 -4 13 -17 24 -27 24 -10 0 -41 16 -68 35 -27 19 -55 35 -61 35

-15 0 -17 -16 -3 -25 6 -3 10 -10 10 -16 0 -18 -26 -9 -63 22 -23 19 -37 25

-37 17z"/>

<path d="M11992 2090 c-21 -38 -42 -52 -42 -30 0 6 -4 10 -10 10 -5 0 -10 -9

-10 -21 0 -13 -8 -23 -20 -26 -12 -3 -29 -25 -42 -52 -11 -25 -23 -48 -27 -51

-4 -3 -15 -24 -25 -47 -10 -23 -27 -50 -37 -59 -41 -37 -13 -79 46 -68 27 5

39 2 48 -9 11 -15 14 -15 37 2 20 16 22 22 11 35 -11 13 -7 21 28 55 23 22 41

45 41 51 0 5 9 19 20 30 11 11 20 33 20 49 0 16 6 31 14 34 8 3 13 21 13 46 0

22 -6 46 -13 52 -8 6 -14 18 -14 25 0 25 -15 15 -38 -26z"/>

<path d="M732 530 c-25 -23 -26 -29 -12 -64 5 -14 12 -44 15 -68 9 -70 23

-122 34 -126 6 -2 11 -14 11 -27 0 -13 5 -27 10 -30 6 -3 10 -15 10 -26 0 -10

5 -19 10 -19 6 0 8 -12 6 -27 -3 -15 -3 -38 1 -52 6 -23 7 -23 19 -6 11 14 11

22 2 32 -9 11 -8 21 5 42 9 16 14 31 11 34 -3 3 -3 11 1 18 4 6 9 43 11 81 2

39 8 76 14 83 6 8 10 22 9 32 -1 10 1 26 5 35 11 25 -22 66 -72 89 -55 24 -63

24 -90 -1z"/>

</g>

</svg>

