<?xml version="1.0" standalone="no"?>

<!DOCTYPE svg PUBLIC "-//W3C//DTD SVG 20010904//EN"

 "http://www.w3.org/TR/2001/REC-SVG-20010904/DTD/svg10.dtd">

<svg version="1.0" xmlns="http://www.w3.org/2000/svg"

 width="113.385827" height="85.039370" viewBox="0 0 113.385827 85.039370"

 preserveAspectRatio="xMidYMid meet">

<metadata>

Created by potrace 1.15, written by Peter Selinger 2001-2017

</metadata>

<g transform="translate(0.000000,85.039370) scale(0.004374,-0.004374)"

fill="#000000" stroke="none">

<path d="M0 9720 l0 -9720 12960 0 12960 0 0 9720 0 9720 -12960 0 -12960 0 0

-9720z m15430 -1362 c6 -16 9 -18 9 -7 1 23 58 33 78 14 8 -8 18 -15 22 -15 5

0 7 -10 6 -22 -1 -15 -1 -16 2 -4 3 13 11 17 29 13 13 -2 24 1 25 7 0 6 4 1 9

-11 5 -13 14 -23 20 -23 5 0 10 -7 10 -16 0 -9 9 -18 20 -21 11 -3 20 -14 20

-24 0 -10 6 -22 13 -26 7 -4 19 -23 26 -40 7 -18 17 -31 21 -28 4 3 10 -2 14

-10 10 -27 -18 -16 -53 20 -19 20 -39 34 -45 32 -17 -6 -18 -27 -1 -33 9 -4

57 -45 106 -93 50 -47 96 -88 102 -90 5 -2 22 -14 36 -26 24 -21 130 -106 194

-155 49 -38 25 -75 -30 -46 -15 8 -43 28 -61 45 -53 49 -52 36 1 -15 49 -47

58 -70 32 -80 -10 -4 -15 -20 -15 -49 0 -50 -16 -69 -26 -30 -3 14 -12 25 -20

25 -8 0 -14 5 -14 10 0 6 -6 10 -12 10 -7 0 -24 17 -38 38 -32 49 -70 82 -94

82 -14 0 -16 3 -7 14 14 16 -8 39 -30 31 -8 -3 -37 16 -65 43 -60 56 -83 75

-121 99 -15 10 -34 26 -41 35 -7 10 -22 18 -32 18 -10 0 -22 5 -25 10 -3 6

-15 10 -27 10 -14 0 -18 5 -14 15 4 12 -5 15 -52 16 -127 4 -367 -3 -372 -10

-3 -4 -27 -8 -55 -9 -43 -1 -111 -6 -380 -28 -27 -2 -66 -6 -85 -9 -34 -5

-233 -17 -257 -15 -7 0 -23 1 -35 1 -13 1 -72 -2 -133 -5 -314 -21 -385 -23

-558 -20 -123 3 -186 0 -182 -6 3 -6 -3 -10 -14 -10 -12 0 -21 5 -21 11 0 8

-4 8 -12 2 -7 -6 -25 -8 -40 -6 -16 2 -28 -1 -28 -7 0 -6 -5 -8 -12 -4 -15 9

-231 5 -238 -5 -3 -4 -21 -7 -40 -8 -19 -1 -55 -7 -80 -13 -68 -18 -140 -24

-140 -11 0 6 7 8 15 5 8 -4 15 -1 15 6 0 6 4 8 10 5 5 -3 7 0 4 8 -5 15 -40

12 -50 -4 -3 -5 -14 -9 -25 -9 -11 0 -17 -5 -14 -10 4 -6 -5 -10 -22 -9 -15 1

-61 -1 -100 -5 -62 -6 -73 -5 -73 9 0 8 -7 15 -15 15 -8 0 -15 7 -15 15 0 8 7

15 15 15 8 0 15 -3 15 -7 0 -5 11 -8 25 -8 30 0 33 11 5 20 -26 8 -50 55 -50

97 0 33 32 98 48 98 19 0 20 -14 6 -42 -13 -25 -14 -38 -5 -75 15 -58 46 -91

91 -94 51 -3 72 0 66 10 -11 17 21 38 79 51 67 15 234 20 242 7 2 -4 10 -4 16

1 7 5 46 10 87 11 41 2 107 5 145 7 39 2 105 6 148 8 43 2 81 6 84 10 3 3 13

1 23 -4 10 -5 21 -6 25 -2 3 4 25 8 48 9 146 7 229 13 236 18 5 3 50 7 99 9

50 2 95 7 100 10 6 3 28 4 51 2 24 -2 41 0 41 6 0 6 6 8 13 5 8 -3 47 -1 88 3

41 5 110 11 154 15 44 4 98 9 120 11 22 2 63 6 92 8 29 3 56 6 60 9 4 2 26 3

48 2 22 -1 45 1 50 4 6 3 39 7 75 8 75 2 180 12 189 17 3 2 42 5 86 7 44 1 88

6 97 11 10 5 19 4 24 -3 4 -7 9 -8 13 -1 3 5 42 13 86 17 152 13 178 23 52 20

-118 -3 -151 5 -100 23 16 6 22 11 16 11 -7 1 -13 5 -13 10 0 5 8 8 18 7 12

-1 17 6 16 22 0 12 4 21 10 19 6 -3 10 -10 9 -16 -6 -23 15 -10 21 14 7 27 32

25 39 -3 3 -12 5 -11 6 5 1 31 17 37 26 10 8 -21 8 -21 12 6 5 33 20 35 33 5z

m-6117 -224 c-3 -8 -9 -14 -14 -14 -23 0 -6 -20 19 -21 21 -2 18 -3 -13 -9

-36 -6 -33 -7 30 -10 143 -6 172 -8 270 -14 55 -3 172 -8 260 -12 88 -3 164

-10 169 -14 5 -5 6 -16 2 -25 -5 -15 -25 -16 -193 -11 -104 3 -249 9 -323 12

-74 4 -132 4 -129 0 3 -3 62 -9 130 -11 303 -13 505 -27 513 -35 17 -17 -6

-29 -47 -25 -66 7 -399 17 -541 17 -96 0 -131 -4 -137 -14 -11 -17 -35 6 -44

44 -7 27 -7 27 57 31 l63 3 -66 2 c-88 3 -97 14 -63 78 14 27 28 53 31 57 8

13 32 -13 26 -29z m6887 -521 c16 -9 36 -34 46 -55 12 -27 23 -38 39 -38 12 0

32 -10 46 -22 13 -12 37 -33 53 -47 l29 -26 -19 30 c-10 17 -23 33 -28 36 -5

4 -5 12 -1 19 17 28 72 -7 213 -137 32 -29 63 -53 70 -53 7 0 10 -4 7 -10 -3

-6 4 -10 16 -10 12 0 20 -3 17 -6 -4 -3 17 -28 45 -55 36 -35 53 -45 59 -37 6

10 8 9 8 -2 0 -8 15 -26 32 -40 18 -14 39 -33 47 -42 9 -10 19 -18 23 -18 4 0

23 -15 42 -32 85 -81 97 -90 112 -84 11 4 15 2 11 -6 -6 -16 14 -36 30 -31 7

3 9 -4 6 -18 -4 -15 -3 -20 5 -15 7 4 12 14 12 22 0 8 5 14 10 14 6 0 10 6 10

14 0 8 5 18 12 22 8 5 9 -2 5 -24 -5 -25 -3 -32 9 -32 8 0 17 -6 20 -14 4 -10

15 -12 37 -9 l32 5 -20 -23 c-11 -12 -15 -19 -8 -16 6 4 18 1 26 -8 13 -13 16

-13 21 1 3 8 2 12 -4 9 -6 -3 -10 -1 -10 4 0 16 12 13 40 -10 l25 -20 -24 6

c-17 5 -22 4 -19 -6 3 -8 19 -14 38 -14 19 0 35 -6 38 -14 3 -9 -1 -11 -17 -6

-12 4 -21 2 -21 -4 0 -6 5 -11 11 -11 5 0 7 -4 4 -10 -3 -6 1 -7 9 -4 9 3 16

10 16 15 0 5 6 9 13 9 21 0 67 -24 67 -35 0 -6 16 -17 35 -24 19 -7 35 -17 35

-22 0 -6 4 -8 9 -4 5 3 16 -4 24 -15 8 -12 18 -20 23 -19 23 4 34 -3 34 -22 0

-16 5 -20 20 -16 13 3 24 -1 30 -14 6 -10 17 -19 26 -19 8 0 17 -7 20 -15 4

-8 14 -15 25 -15 10 0 22 -7 27 -16 5 -9 13 -15 18 -14 5 2 14 -7 21 -20 10

-21 11 -21 16 -4 4 17 6 17 12 -3 4 -13 14 -23 21 -23 8 0 13 -3 13 -7 -3 -21

2 -33 16 -33 16 0 38 -34 28 -44 -3 -3 0 -14 9 -23 8 -10 14 -23 14 -29 -2

-22 -41 -84 -54 -84 -8 0 -35 17 -61 38 -25 21 -53 42 -61 45 -8 4 -27 15 -41

25 -15 9 -41 26 -58 37 -17 10 -31 23 -31 28 0 4 -4 6 -9 3 -5 -3 -11 1 -15 9

-3 8 -13 15 -23 15 -10 0 -24 9 -31 20 -7 11 -17 20 -23 20 -6 0 -24 9 -40 21

-16 11 -36 18 -44 15 -9 -3 -15 0 -15 8 0 8 -26 33 -57 57 -32 24 -73 56 -91

71 -18 16 -37 26 -43 23 -5 -4 -9 0 -10 7 0 7 -14 24 -32 38 -20 15 -26 18

-17 6 8 -10 15 -24 16 -30 3 -21 52 -68 63 -61 6 3 9 0 6 -7 -3 -8 7 -18 23

-25 15 -7 39 -31 52 -53 17 -27 30 -38 42 -34 20 6 34 -14 19 -29 -6 -6 -11

-7 -11 -1 0 5 -16 9 -35 10 -20 0 -41 6 -48 13 -6 7 -7 12 -2 11 6 -2 18 -2

28 -1 15 1 16 5 7 21 -12 22 -35 28 -27 7 4 -10 -9 -14 -48 -16 -45 -2 -56 1

-65 19 -8 15 -17 19 -35 14 -15 -4 -25 -2 -25 4 0 6 -9 13 -20 17 -11 3 -33

19 -49 36 -16 16 -34 29 -40 29 -6 0 -11 7 -11 15 0 8 -8 15 -17 15 -10 0 -25

5 -33 10 -13 9 -13 12 3 21 24 14 21 29 -7 29 -14 0 -45 16 -70 35 -26 19 -50

35 -54 35 -10 0 -42 38 -42 50 0 6 -5 10 -11 10 -6 0 -35 25 -64 55 -29 30

-56 55 -59 55 -3 0 -28 23 -55 50 -28 28 -53 50 -56 50 -10 0 -95 89 -95 100

0 5 -7 10 -15 10 -8 0 -15 4 -15 9 0 8 -63 71 -159 158 -20 18 -47 43 -61 57

-14 13 -42 35 -62 49 -35 23 -36 25 -23 51 12 23 52 65 63 66 2 0 17 -8 32

-17z m2025 -1539 c14 -9 23 -19 21 -23 -2 -3 8 -7 22 -8 l27 -1 -24 19 c-19

16 -20 20 -7 25 8 3 22 -1 31 -9 15 -16 21 -48 8 -46 -21 3 -34 -2 -28 -11 4

-6 11 -8 16 -4 5 3 8 1 7 -4 -2 -6 1 -10 5 -11 13 -1 37 -29 37 -44 0 -8 15

-22 33 -31 17 -8 28 -16 22 -16 -5 0 4 -13 20 -28 17 -15 47 -47 68 -70 21

-23 42 -42 47 -42 6 0 10 -9 10 -20 0 -11 7 -20 15 -20 7 0 18 -7 23 -16 5

-10 12 -12 15 -7 4 6 -2 21 -13 33 -11 13 -20 29 -20 36 0 7 -9 18 -21 24 -12

7 -18 18 -15 26 3 8 2 12 -3 9 -5 -3 -22 7 -38 21 -15 15 -22 24 -15 20 7 -4

12 -1 12 8 0 22 17 20 30 -4 6 -11 16 -19 23 -17 7 1 12 -8 11 -20 0 -12 3

-20 7 -17 4 2 22 -11 40 -28 18 -18 36 -34 41 -34 4 -1 15 -2 23 -3 12 -1 14

-8 9 -28 -6 -25 -5 -26 8 -15 20 16 38 12 59 -10 9 -10 23 -18 32 -18 8 0 17

-10 21 -22 5 -22 6 -22 19 -4 16 21 47 16 47 -7 0 -8 25 -33 55 -56 30 -23 55

-46 55 -51 0 -6 6 -10 14 -10 7 0 19 -7 26 -15 7 -9 20 -15 29 -13 24 4 44

-12 33 -25 -7 -8 0 -22 20 -41 26 -25 29 -26 24 -9 -5 14 -2 23 9 27 14 5 15

1 10 -25 -6 -28 -5 -30 14 -24 12 4 27 1 35 -7 34 -32 57 -48 71 -48 8 0 15

-4 15 -9 0 -5 13 -16 29 -24 27 -13 30 -13 34 4 7 26 27 24 27 -2 0 -14 5 -19

14 -16 13 5 46 -25 46 -43 0 -6 3 -10 8 -10 4 0 27 -19 52 -43 25 -23 66 -55

90 -72 25 -16 51 -36 58 -43 8 -7 28 -20 45 -28 16 -9 39 -25 50 -35 12 -10

27 -19 34 -19 7 0 13 -11 13 -25 0 -19 5 -25 22 -25 22 0 110 -54 153 -93 11

-10 41 -32 67 -49 26 -17 50 -39 53 -50 4 -10 10 -18 14 -18 7 0 36 -24 111

-93 20 -17 56 -50 80 -72 25 -23 53 -52 62 -67 9 -14 30 -28 46 -31 31 -6 48

-32 34 -51 -5 -6 -14 -30 -21 -53 -6 -23 -18 -49 -27 -57 -12 -13 -12 -19 -2

-36 8 -12 19 -18 30 -14 15 4 18 -1 18 -25 0 -27 3 -30 28 -27 15 2 21 1 15

-1 -14 -5 -18 -23 -5 -23 5 0 24 -14 43 -31 25 -22 29 -30 15 -27 -10 1 -21

-3 -23 -10 -3 -7 1 -10 10 -6 8 3 17 -2 21 -13 6 -15 8 -15 16 -3 6 9 10 10

10 4 0 -7 22 -20 49 -30 45 -16 48 -19 33 -31 -12 -10 -13 -16 -5 -19 7 -3 22

-21 33 -40 12 -19 26 -32 31 -28 5 3 19 2 31 -2 19 -6 19 -7 5 -16 -26 -14

-20 -29 9 -22 34 9 47 -12 28 -41 -14 -22 -10 -55 7 -55 5 0 9 8 9 18 0 13 6

11 25 -12 15 -18 25 -24 26 -15 0 8 7 1 14 -16 7 -16 19 -30 26 -30 7 0 14 -6

17 -12 2 -7 -3 -13 -12 -13 -22 0 -20 -13 4 -28 11 -7 20 -24 21 -40 1 -20 2

-22 6 -7 3 11 9 24 13 29 5 5 6 -1 3 -13 -5 -21 3 -26 37 -21 12 1 13 -1 3

-11 -20 -21 -15 -39 10 -36 18 2 22 -2 19 -22 -1 -14 7 -34 20 -48 12 -12 18

-26 15 -30 -4 -3 -3 -11 2 -17 14 -19 20 -57 11 -75 -4 -9 -13 -29 -19 -45

-10 -23 -14 -26 -26 -16 -12 10 -15 9 -15 -8 0 -12 5 -24 10 -27 7 -4 7 -12 0

-25 -15 -29 -13 -45 4 -31 21 17 30 -4 10 -23 -8 -9 -19 -14 -24 -11 -9 6 -23

-25 -15 -33 3 -3 18 6 33 20 37 34 81 62 88 55 4 -3 -10 -23 -30 -44 -20 -21

-36 -41 -36 -45 0 -5 -7 -8 -15 -8 -8 0 -15 -5 -15 -11 0 -7 -24 -35 -53 -63

-29 -28 -65 -67 -80 -87 -20 -25 -35 -35 -47 -32 -15 4 -18 1 -13 -16 4 -17

-1 -23 -26 -32 -22 -8 -30 -16 -27 -26 4 -8 -13 -33 -42 -61 -26 -26 -78 -82

-116 -124 -40 -45 -76 -78 -87 -78 -14 0 -19 -7 -19 -30 0 -25 -4 -30 -25 -30

-14 0 -25 5 -25 11 0 5 -5 7 -11 3 -8 -4 -8 -9 0 -17 20 -20 26 -11 -120 -168

-154 -166 -279 -284 -297 -282 -11 2 -12 0 -4 -3 9 -4 -17 -37 -78 -97 -73

-72 -94 -87 -102 -76 -8 11 -9 10 -4 -3 3 -10 1 -18 -4 -18 -5 0 -12 -9 -15

-20 -3 -11 -12 -20 -20 -20 -7 0 -26 -14 -42 -30 -15 -16 -33 -30 -39 -30 -7

0 -44 -32 -83 -72 -62 -62 -76 -83 -73 -109 1 -9 -100 -61 -106 -54 -4 3 0 10

8 15 8 5 11 12 7 16 -4 5 -20 -4 -35 -19 -14 -15 -21 -27 -14 -27 8 0 6 -8 -7

-21 -13 -14 -26 -19 -40 -14 -12 3 -21 2 -21 -3 0 -6 5 -12 11 -14 13 -4 1

-38 -15 -38 -6 -1 -31 -18 -56 -40 -33 -29 -47 -36 -57 -28 -14 11 -14 10 -16

-37 -2 -30 -2 -30 -54 -27 -41 3 -59 -1 -82 -17 -16 -12 -36 -21 -45 -21 -8 0

-20 -9 -26 -21 -7 -11 -14 -18 -17 -15 -5 5 -102 -63 -135 -97 -17 -16 -17

-17 0 -17 10 0 24 9 32 20 8 11 22 20 31 20 9 0 23 7 30 16 17 21 109 65 120

58 16 -9 9 -24 -10 -24 -11 0 -27 -3 -36 -6 -13 -6 -14 -9 -3 -16 9 -6 8 -8

-7 -6 -12 2 -32 -7 -45 -20 -13 -12 -28 -22 -32 -22 -10 0 -71 -42 -76 -51 -1

-3 -14 -4 -27 -1 -21 4 -24 1 -19 -13 6 -14 3 -16 -16 -10 -16 5 -21 4 -18 -6

5 -15 -21 -49 -39 -49 -6 0 -19 -7 -28 -16 -9 -9 -18 -14 -21 -11 -3 3 -19 -7

-36 -21 -17 -15 -35 -26 -40 -24 -6 1 -18 -7 -28 -18 -10 -11 -22 -20 -26 -18

-5 1 -25 -12 -44 -30 -23 -21 -43 -31 -60 -30 -19 2 -26 -2 -28 -19 -3 -21

-53 -50 -70 -40 -4 3 -28 -12 -51 -33 -24 -22 -47 -37 -53 -34 -5 3 -16 0 -25

-7 -16 -14 -47 -33 -73 -45 -8 -4 -33 -19 -55 -33 -67 -42 -135 -72 -147 -65

-7 5 -9 1 -5 -9 5 -12 1 -17 -13 -17 -11 0 -20 -4 -20 -10 0 -15 -16 -12 -34

5 -23 23 -42 19 -130 -29 -108 -59 -372 -189 -416 -205 -19 -8 -75 -33 -125

-56 -242 -115 -255 -118 -535 -109 -118 3 -224 8 -235 10 -11 3 -49 6 -85 9

-128 8 -190 17 -190 27 0 6 15 8 33 6 29 -3 33 -1 29 14 -3 14 2 18 22 18 14

0 26 -4 26 -9 0 -5 9 -7 21 -4 14 4 19 11 16 25 -5 17 -2 18 25 13 28 -7 30

-5 25 14 -6 26 5 27 29 4 17 -17 17 -17 11 -1 -7 20 12 36 22 19 10 -15 41 -3

41 15 0 8 7 14 15 14 8 0 15 5 15 11 0 6 9 8 23 4 17 -5 18 -4 7 4 -8 5 -12

13 -8 16 3 3 13 -2 22 -11 16 -15 18 -15 35 2 9 11 20 27 24 38 7 17 9 17 31

2 23 -15 25 -15 28 7 3 25 88 73 99 55 3 -5 18 5 33 24 25 32 26 32 32 11 7

-27 26 -29 48 -7 9 8 32 18 51 21 19 3 32 10 29 15 -4 6 0 15 7 20 11 7 11 11

2 15 -27 10 -12 24 18 18 20 -5 29 -4 25 3 -3 5 1 13 10 16 23 9 36 7 29 -4

-8 -13 11 -13 36 0 10 6 19 20 19 32 0 17 3 18 15 8 19 -16 65 -4 65 16 0 13

7 15 29 11 26 -5 28 -4 23 16 -5 19 -3 20 11 9 9 -8 25 -11 37 -7 18 6 19 9 8

22 -11 14 -10 15 10 9 14 -5 22 -3 22 4 0 21 29 42 50 35 14 -5 20 -2 20 9 0

17 14 20 67 17 26 -2 32 1 27 12 -4 12 0 14 17 10 16 -4 20 -3 15 6 -11 17 11

39 47 47 18 3 35 11 39 17 4 6 10 8 14 4 12 -11 -17 -37 -43 -37 -13 0 -22 -4

-18 -9 3 -6 23 -9 45 -8 22 1 35 4 29 8 -7 4 -5 9 5 12 15 6 38 47 40 71 1 14

23 18 31 6 5 -8 11 -6 19 6 7 9 23 18 35 19 11 1 28 10 37 21 15 19 15 18 9

-3 -7 -26 14 -42 27 -19 5 9 18 16 28 16 20 0 29 19 10 21 -5 1 -15 2 -22 3

-6 0 -13 7 -15 14 -6 16 24 16 31 0 5 -11 7 -11 12 0 3 6 14 12 25 12 11 0 19

7 19 16 0 12 6 15 24 10 14 -3 28 -2 31 4 3 5 1 10 -4 10 -6 0 -11 5 -11 11 0

8 11 9 31 5 26 -5 30 -4 20 8 -8 9 -8 16 -2 20 5 4 12 2 16 -4 4 -6 11 -8 16

-5 5 4 9 1 9 -4 0 -6 7 -11 15 -11 8 0 15 7 15 15 0 9 11 20 25 25 14 5 25 16

25 25 0 8 6 15 13 15 6 0 18 4 26 9 12 8 12 12 2 25 -19 22 -5 38 20 23 18

-10 23 -8 43 16 12 15 30 27 39 27 10 0 29 12 42 27 20 23 24 25 25 11 0 -26

19 -22 30 7 6 16 17 25 31 25 12 0 23 8 26 20 5 18 7 19 35 4 25 -13 32 -14

39 -2 6 9 2 15 -12 18 -29 7 -23 26 6 22 18 -3 25 1 25 13 0 11 5 15 15 11 8

-3 15 -1 15 4 0 6 -5 10 -11 10 -5 0 -7 5 -4 10 3 6 17 7 31 4 14 -4 24 -2 24

5 0 6 11 11 24 11 18 0 27 8 35 30 6 19 17 30 28 30 25 0 43 19 36 37 -5 12

-1 14 15 8 13 -4 22 -2 22 4 0 6 8 11 18 11 10 0 31 12 48 28 17 15 38 26 49

23 17 -3 17 -1 6 12 -16 20 -5 40 20 34 12 -3 19 0 19 9 0 8 6 14 14 14 8 0

16 7 20 15 3 8 15 15 27 15 15 0 19 5 15 15 -7 18 10 20 18 3 4 -7 4 -3 2 9

-2 13 -1 23 3 23 5 0 22 12 39 28 49 43 61 52 72 52 5 0 10 7 10 16 0 8 4 13

8 10 5 -3 21 2 36 10 16 7 37 14 47 14 11 0 19 5 19 10 0 6 -4 10 -9 10 -5 0

-4 11 2 25 7 14 17 25 24 25 6 0 18 9 27 21 10 15 20 19 35 14 16 -5 24 0 33

19 6 14 19 26 30 26 10 0 18 5 18 10 0 6 -5 10 -11 10 -23 0 -1 25 26 30 21 4

31 12 35 30 3 14 12 25 20 26 27 2 50 16 50 30 0 17 26 46 55 62 14 8 15 11 5

12 -10 0 -7 5 8 16 12 8 21 23 20 32 -2 12 3 16 19 14 17 -2 22 3 25 25 2 16

8 27 16 26 6 -2 21 5 31 15 11 9 27 23 35 30 9 7 16 26 16 42 0 21 6 31 22 36

30 9 67 44 47 44 -8 0 -20 -5 -27 -12 -9 -9 -12 -9 -12 0 0 7 14 15 30 19 24

4 28 8 19 19 -9 11 -6 14 17 15 16 0 23 3 17 6 -18 7 -16 23 2 23 8 0 15 7 15

16 0 11 6 14 20 9 22 -7 33 12 39 67 1 4 8 5 17 1 13 -5 15 -2 10 15 -5 15 -2

22 14 27 17 5 19 10 9 21 -6 8 -18 14 -25 14 -8 0 -11 6 -7 17 4 11 8 12 11 5

2 -7 12 -12 23 -12 18 0 19 5 13 49 -5 41 -3 49 12 55 14 5 15 9 6 15 -10 6

-8 13 7 32 l20 24 -6 -25 -6 -25 22 22 c26 27 26 32 4 49 -10 7 -13 14 -6 14

6 0 15 -4 18 -10 11 -17 25 -11 25 10 0 11 -7 23 -15 26 -21 8 -11 20 38 43

23 11 52 29 65 40 23 20 30 43 11 38 -6 -1 -14 4 -16 12 -4 9 0 11 16 6 23 -7

70 28 71 53 0 7 4 11 9 8 11 -7 23 22 15 35 -3 5 -13 9 -22 9 -11 0 -13 3 -6

8 17 11 13 40 -5 35 -10 -2 -21 6 -28 22 -13 30 0 34 35 10 18 -13 21 -14 16

-1 -3 8 -19 21 -35 29 -24 11 -27 16 -15 20 20 8 21 37 1 37 -9 0 -15 9 -15

21 0 16 -4 19 -17 15 -9 -4 -19 -3 -22 1 -3 5 -19 17 -34 27 -24 15 -28 22

-22 44 4 15 3 24 -1 20 -4 -4 -13 -3 -20 3 -8 6 -20 9 -28 6 -7 -3 -19 0 -25

6 -8 8 -14 8 -23 -1 -9 -9 -9 -12 0 -12 7 0 12 -11 12 -25 0 -14 5 -25 12 -25

6 0 2 -9 -10 -20 -12 -12 -22 -25 -22 -30 0 -6 -8 -10 -19 -10 -10 0 -24 -6

-30 -14 -9 -10 -21 -12 -48 -5 -23 5 -42 4 -49 -2 -8 -7 -14 -6 -19 1 -4 6

-15 8 -25 5 -12 -4 -27 2 -41 16 -21 21 -21 23 -4 35 17 12 16 14 -8 25 -15 7

-30 21 -33 33 -8 25 -29 47 -38 39 -3 -4 -6 -1 -6 5 0 5 6 13 13 15 9 4 8 8

-3 16 -12 8 -12 11 -1 11 11 0 11 3 0 16 -7 8 -14 32 -15 52 -2 20 -5 64 -7

97 -3 35 -10 61 -17 63 -10 4 -10 6 0 12 18 11 20 98 2 105 -7 3 -10 10 -6 17

12 19 14 61 4 73 -5 6 -5 17 0 25 9 15 -2 44 -27 68 -7 7 -13 26 -13 42 0 20

-6 31 -20 35 -11 3 -20 13 -20 21 0 8 -6 14 -12 13 -33 -4 -41 1 -28 16 8 10

9 15 2 15 -13 0 -72 56 -72 68 0 9 -47 36 -65 37 -15 0 -34 28 -27 39 3 5 -2

7 -10 4 -16 -7 -102 65 -91 76 3 3 -8 6 -25 6 -21 0 -37 8 -50 25 -11 14 -27

25 -35 25 -10 0 -13 7 -10 21 5 18 3 20 -16 14 -15 -5 -21 -2 -21 10 0 9 -6

15 -12 14 -27 -3 -38 2 -38 16 0 8 -7 15 -15 15 -8 0 -15 5 -15 10 0 6 -7 10

-15 10 -9 0 -18 7 -21 15 -4 8 -13 15 -21 15 -9 0 -13 6 -10 14 6 15 -15 39

-29 34 -5 -1 -33 21 -62 49 -29 29 -56 53 -60 54 -4 1 -17 18 -29 38 -12 20

-23 30 -23 24 0 -18 -20 -16 -20 1 0 8 -7 16 -15 20 -8 3 -15 12 -15 21 0 8

-7 15 -16 15 -17 0 -91 69 -87 81 1 4 -9 10 -22 13 -16 4 -25 14 -25 25 0 10

-11 26 -24 35 -14 8 -27 25 -31 36 -4 11 -10 18 -15 15 -5 -3 -11 4 -15 15 -5

14 -12 19 -25 15 -13 -4 -19 1 -24 20 -4 14 -11 23 -17 20 -11 -7 -41 25 -64

67 -9 15 -29 35 -45 43 -16 9 -29 21 -27 28 1 6 -3 11 -10 10 -6 -2 -29 20

-50 47 -21 27 -46 52 -55 55 -9 3 -18 16 -20 28 -2 14 -10 21 -21 21 -20 -2

-23 12 -4 19 9 4 9 7 -1 18 -7 8 -18 14 -25 14 -7 0 -11 12 -9 28 2 19 -2 27

-14 27 -9 0 -18 9 -21 20 -3 11 -9 20 -14 20 -5 0 -9 7 -9 15 0 8 5 15 10 15

6 0 10 10 10 22 0 12 3 18 6 15 4 -3 16 0 27 8 21 14 44 13 102 -7 71 -24 78

-28 190 -95 80 -47 90 -51 90 -34 0 5 3 13 8 17 14 15 7 29 -22 42 -17 7 -31

20 -33 27 -2 10 -8 12 -17 5 -12 -7 -13 -11 -1 -25 7 -8 18 -14 24 -12 18 6

47 -25 35 -39 -8 -9 -15 -7 -32 9 -45 44 -51 56 -37 72 11 13 9 19 -8 35 -12

11 -25 20 -29 20 -5 0 -17 14 -26 30 -10 17 -25 30 -33 30 -8 0 -14 6 -14 14

0 7 -11 21 -24 30 -14 8 -27 25 -31 36 -3 11 -15 20 -25 20 -24 0 -37 44 -20

65 16 19 45 19 75 -1z m2800 -3051 c39 -15 84 -35 115 -52 8 -4 33 -17 55 -27

26 -13 39 -26 38 -38 -1 -13 4 -16 18 -13 13 4 19 0 19 -11 0 -26 -16 -45 -30

-37 -7 4 -10 1 -8 -11 2 -10 -6 -22 -18 -29 -12 -6 -29 -16 -37 -23 -12 -10

-16 -9 -21 4 -4 9 -12 14 -21 10 -8 -3 -22 -9 -30 -12 -8 -3 -15 -1 -15 5 0

17 58 71 76 71 24 0 -1 28 -29 32 -14 2 -23 11 -25 26 -2 14 -10 22 -23 22

-11 0 -32 11 -47 25 -32 29 -47 31 -61 8 -10 -17 -11 -16 -15 20 -1 6 -10 12

-21 13 -48 2 -55 5 -55 19 0 19 80 18 135 -2z"/>

</g>

</svg>

