<?xml version="1.0" standalone="no"?>

<!DOCTYPE svg PUBLIC "-//W3C//DTD SVG 20010904//EN"

 "http://www.w3.org/TR/2001/REC-SVG-20010904/DTD/svg10.dtd">

<svg version="1.0" xmlns="http://www.w3.org/2000/svg"

 width="113.385827" height="85.039370" viewBox="0 0 113.385827 85.039370"

 preserveAspectRatio="xMidYMid meet">

<metadata>

Created by potrace 1.15, written by Peter Selinger 2001-2017

</metadata>

<g transform="translate(0.000000,85.039370) scale(0.004374,-0.004374)"

fill="#000000" stroke="none">

<path d="M0 9720 l0 -9720 12960 0 12960 0 0 9720 0 9720 -12960 0 -12960 0 0

-9720z m9226 874 c12 -18 23 -24 38 -20 52 14 90 -22 60 -55 -20 -23 -43 -24

-69 -5 -21 15 -63 6 -77 -16 -5 -9 -10 -9 -20 0 -9 7 -27 8 -48 3 -47 -10 -70

-3 -70 20 0 15 7 19 33 19 21 0 28 3 19 9 -24 15 -10 46 23 49 17 2 34 8 40

13 18 18 54 9 71 -17z m334 -9 c0 -12 4 -13 19 -4 22 14 55 4 48 -14 -5 -14

40 -17 62 -3 9 6 12 5 8 -1 -9 -14 7 -26 66 -49 27 -10 59 -30 72 -42 16 -16

30 -22 44 -17 10 3 22 1 26 -5 3 -6 10 -8 15 -5 5 3 11 1 14 -4 4 -5 24 -12

46 -16 22 -4 42 -11 46 -16 3 -5 14 -9 24 -9 10 0 67 -23 127 -52 59 -29 119

-53 132 -55 13 -1 31 -8 40 -16 20 -17 77 -43 114 -52 15 -4 27 -11 27 -16 0

-5 4 -9 9 -9 5 0 26 -7 47 -16 22 -9 50 -18 64 -19 14 -2 51 -14 84 -29 32

-14 69 -26 81 -26 13 0 25 -3 27 -8 2 -4 35 -18 73 -31 89 -30 208 -85 262

-123 23 -15 46 -28 50 -27 4 1 15 -1 23 -4 8 -3 26 -7 39 -9 14 -2 26 -9 27

-16 1 -7 0 -8 -3 -2 -6 13 -40 13 -45 0 -2 -7 -19 -3 -43 9 -22 11 -83 29

-135 40 -191 42 -210 48 -228 64 -10 9 -30 17 -43 17 -13 0 -41 9 -62 20 -21

11 -50 19 -65 18 -16 -1 -44 8 -64 20 -19 12 -46 22 -58 22 -12 0 -37 9 -54

19 -34 22 -51 17 -51 -14 0 -24 -46 -33 -63 -12 -9 10 -7 18 8 34 18 20 18 22

1 37 -24 22 -52 20 -58 -4 -4 -13 -14 -20 -29 -20 -26 0 -46 31 -25 38 9 3 9

7 0 18 -15 19 -58 18 -65 -1 -4 -8 -17 -15 -31 -15 -21 0 -24 4 -20 21 4 15

-1 28 -16 40 -25 21 -69 27 -49 7 15 -15 -3 -38 -30 -38 -26 0 -35 30 -14 45

15 11 13 14 -14 25 -16 7 -30 16 -30 20 0 4 -11 11 -24 14 -13 3 -26 15 -29

26 -5 18 -56 48 -81 48 -5 0 -13 7 -18 16 -6 10 -23 16 -46 16 -46 1 -128 28

-169 58 -17 12 -37 22 -45 22 -7 0 -23 7 -34 15 -12 8 -24 12 -27 9 -4 -5 -2

70 2 94 2 10 41 -22 41 -33z m-523 -245 c19 -23 16 -37 -20 -93 -18 -29 -51

-83 -72 -121 -22 -38 -49 -85 -61 -105 -12 -20 -45 -76 -74 -126 -29 -49 -57

-93 -64 -97 -6 -4 -7 -8 -2 -8 4 0 0 -12 -10 -27 -10 -16 -35 -62 -57 -103

-77 -147 -116 -215 -126 -218 -6 -2 -11 -10 -11 -18 0 -8 -4 -14 -10 -14 -5 0

-10 -8 -10 -17 -1 -10 -20 -56 -43 -103 -31 -62 -47 -85 -60 -84 -11 1 -17 -4

-16 -15 4 -41 -1 -48 -31 -43 -17 2 -37 -1 -45 -8 -9 -7 -18 -10 -22 -6 -3 3

-2 6 3 6 5 0 10 16 10 37 1 23 9 42 21 52 11 9 23 31 27 49 3 18 16 43 29 55

13 12 27 34 30 48 4 14 17 37 30 51 13 14 23 35 22 47 -1 11 11 35 26 53 16

18 28 40 29 49 0 9 11 28 25 43 14 15 25 35 25 46 0 10 11 27 25 38 14 11 26

32 27 47 2 16 12 34 25 42 15 10 23 25 23 43 0 18 8 33 25 44 14 9 24 20 23

24 -4 13 13 52 22 52 5 0 14 17 20 39 6 25 17 41 30 44 13 3 20 14 20 29 0 12

9 34 20 48 11 14 20 31 20 38 0 6 5 12 10 12 6 0 16 12 22 28 7 15 18 34 26

44 7 9 15 23 16 32 3 22 64 86 79 83 6 -1 17 -9 24 -17z m7779 -544 c-14 -22

-14 -24 4 -29 28 -7 27 -47 0 -47 -11 0 -23 6 -26 14 -7 17 -30 11 -38 -10 -4

-9 3 -18 19 -24 29 -11 31 -22 10 -40 -12 -10 -20 -9 -40 4 -20 13 -25 14 -25

2 0 -7 9 -16 20 -19 31 -8 27 -47 -5 -47 -16 0 -25 6 -25 15 0 21 -9 19 -32

-7 l-20 -23 29 -5 c20 -4 28 -11 28 -25 0 -29 -45 -34 -52 -6 -7 26 -12 26

-29 4 -19 -25 -17 -30 12 -37 32 -8 29 -40 -4 -44 -17 -3 -25 2 -29 17 -5 19

-12 15 -65 -41 -33 -35 -73 -81 -89 -103 -41 -54 -74 -56 -166 -12 -33 15 -20

23 43 26 71 3 84 9 161 82 34 33 66 59 73 59 6 0 9 4 5 9 -3 5 -1 13 5 16 9 6

41 49 75 104 6 9 20 26 33 38 12 12 22 27 22 32 0 6 9 16 20 23 11 7 20 18 20

24 0 17 74 98 78 85 2 -6 -3 -22 -12 -35z m-6707 -1877 c82 -26 86 -28 66 -43

-17 -12 -17 -14 6 -29 13 -10 29 -17 36 -17 16 0 17 22 1 38 -17 17 9 16 82

-5 55 -15 60 -19 58 -42 -1 -15 2 -33 7 -40 6 -11 4 -13 -11 -7 -10 4 -42 14

-71 21 -28 7 -61 18 -72 24 -11 6 -30 11 -43 12 -13 0 -48 8 -78 18 -50 16

-55 21 -58 50 -3 26 0 31 19 31 12 0 39 -5 58 -11z m632 -180 c123 -34 229

-68 236 -76 7 -9 41 -18 90 -24 43 -5 89 -13 103 -18 52 -19 845 -196 1190

-265 325 -65 392 -77 860 -156 63 -11 126 -22 140 -25 14 -3 48 -8 75 -11 28

-3 70 -10 95 -15 25 -6 70 -13 100 -16 45 -4 58 -9 66 -28 9 -18 8 -22 -5 -19

-9 2 -101 15 -206 29 -341 46 -390 54 -890 140 -371 64 -1119 218 -1140 235

-5 4 -73 21 -150 39 -193 42 -245 56 -258 70 -9 10 -6 11 13 7 14 -3 36 -8 50

-10 14 -3 53 -14 86 -24 63 -20 111 -15 57 6 -78 30 -150 44 -200 38 -33 -4

-54 -2 -59 5 -5 8 -9 7 -14 -1 -10 -16 -62 -6 -307 61 -120 32 -122 33 -116

59 5 28 -8 44 -42 53 -11 2 -15 5 -9 6 6 0 112 -26 235 -60z m475 -459 c8 0

14 -6 14 -14 0 -9 10 -13 25 -12 14 0 25 4 25 9 0 4 9 7 21 7 11 0 17 5 14 10

-11 17 10 11 33 -10 11 -11 24 -16 27 -10 3 5 19 3 39 -5 25 -11 36 -11 45 -2

9 9 14 9 21 -2 6 -11 12 -12 22 -4 9 8 16 7 25 -2 6 -7 9 -16 6 -19 -4 -3 8

-6 25 -6 18 0 32 5 32 11 0 6 8 2 18 -9 18 -22 81 -35 102 -22 18 11 70 -9 70

-26 0 -16 36 -19 45 -4 8 14 34 -11 28 -27 -3 -8 3 -13 13 -14 14 -1 12 -3 -6

-8 -25 -7 -42 -51 -20 -51 7 0 21 -10 32 -22 11 -13 17 -17 13 -10 -9 18 13

15 43 -7 34 -23 85 -34 78 -16 -3 8 2 11 14 8 16 -4 17 -8 7 -24 -6 -10 -22

-19 -34 -19 -13 0 -23 -5 -23 -11 0 -6 9 -9 20 -6 31 8 50 -14 60 -73 5 -30

14 -75 20 -100 5 -25 16 -73 24 -107 l14 -63 -24 0 c-14 0 -79 9 -147 19 -67

11 -148 23 -179 26 l-56 7 9 -38 c15 -65 21 -141 10 -125 -5 8 -29 17 -52 20

-37 5 -48 13 -85 61 -23 30 -59 88 -79 128 -20 39 -41 70 -46 66 -5 -3 -9 3

-9 12 0 29 -10 10 -25 -51 -9 -32 -33 -86 -55 -119 -22 -33 -41 -65 -43 -71

-2 -5 -30 -9 -62 -9 -38 1 -64 -3 -73 -12 -18 -18 -42 -18 -70 2 -12 8 -36 16

-52 16 -16 1 -28 4 -25 7 3 5 -118 57 -155 66 -12 3 -49 18 -115 45 -38 16

-88 32 -110 36 -46 8 -76 31 -55 44 9 6 8 10 -6 18 -14 8 -16 14 -7 22 8 9 6

17 -8 31 -22 22 -26 23 -32 7 -2 -7 -2 -2 0 12 3 14 10 28 16 32 9 6 9 8 0 8

-6 0 -18 -7 -27 -15 -8 -8 -19 -15 -25 -15 -6 0 -8 7 -5 15 4 9 0 16 -7 16 -8

1 -1 4 15 8 31 6 48 30 20 27 -9 0 -20 9 -25 21 -7 19 -4 24 16 29 14 3 25 10

25 15 0 12 -17 11 -25 -1 -3 -5 -12 -7 -20 -4 -8 4 -12 10 -9 15 5 9 -22 14

-61 11 -15 -2 -17 0 -6 7 15 10 7 31 -12 31 -30 0 -87 22 -81 31 3 6 15 9 25

6 10 -3 39 6 64 19 25 14 45 20 45 13 0 -6 6 -9 13 -6 6 2 25 0 41 -4 32 -9

56 -1 36 11 -9 6 -6 10 9 15 11 3 21 13 21 21 0 17 -27 30 -38 19 -4 -4 -1

-10 6 -12 6 -3 10 -9 6 -14 -7 -12 -34 15 -34 34 0 9 -5 17 -11 19 -7 2 20 4

60 4 39 0 71 -4 71 -8 0 -4 10 -8 23 -8 12 0 40 -2 62 -5 36 -5 38 -4 23 8

-27 21 -21 32 7 13 31 -21 41 -20 24 0 -12 15 -11 16 9 10 16 -5 24 -3 28 8 7

18 52 21 102 7 17 -5 32 -6 32 -1 0 4 -9 10 -21 13 -12 3 -18 10 -14 17 5 8

11 8 21 -1 11 -9 14 -8 15 7 1 17 2 17 6 2 5 -22 33 -24 33 -3 0 8 7 15 15 15

8 0 15 5 15 10 0 6 5 10 10 10 6 0 10 -7 10 -16 0 -10 7 -14 18 -12 9 2 16 9

15 16 -2 8 5 8 27 1 23 -8 34 -7 52 5 13 10 24 12 26 6 2 -5 10 -10 18 -10z"/>

</g>

</svg>

