<?xml version="1.0" standalone="no"?>

<!DOCTYPE svg PUBLIC "-//W3C//DTD SVG 20010904//EN"

 "http://www.w3.org/TR/2001/REC-SVG-20010904/DTD/svg10.dtd">

<svg version="1.0" xmlns="http://www.w3.org/2000/svg"

 width="113.385827" height="119.827632" viewBox="0 0 113.385827 119.827632"

 preserveAspectRatio="xMidYMid meet">

<metadata>

Created by potrace 1.15, written by Peter Selinger 2001-2017

</metadata>

<g transform="translate(0.000000,119.827632) scale(0.010383,-0.010383)"

fill="#000000" stroke="none">

<path d="M0 10450 c0 -1083 0 -1090 20 -1090 11 0 20 -4 20 -10 0 -5 -9 -10

-20 -10 -17 0 -20 -7 -20 -51 l0 -52 43 7 42 6 -29 -15 c-15 -8 -35 -15 -42

-15 -12 0 -14 -42 -14 -236 l0 -236 48 6 c26 4 65 8 87 11 106 10 184 17 226

19 26 2 51 6 55 9 5 3 56 8 114 11 138 8 181 15 198 32 15 16 44 18 57 5 12

-11 105 8 105 21 0 4 19 8 43 8 23 0 59 4 79 9 23 5 40 5 46 -1 7 -7 18 -5 32

5 12 9 28 13 35 10 8 -2 22 0 32 5 12 7 25 7 37 0 12 -7 21 -7 29 1 6 6 25 11

42 11 17 0 35 4 40 9 6 5 20 12 33 16 18 5 22 2 22 -14 0 -11 -4 -22 -9 -25

-13 -9 -34 -250 -27 -308 11 -79 49 -183 100 -274 44 -79 54 -109 39 -116 -5

-1 -17 -16 -29 -33 -111 -161 -162 -238 -224 -340 -82 -135 -210 -384 -210

-408 0 -9 -4 -18 -9 -21 -4 -3 -20 -49 -35 -103 -15 -54 -32 -112 -37 -129 -5

-17 -9 -38 -9 -48 0 -9 -4 -25 -10 -35 -9 -17 -13 -17 -57 -4 -270 80 -369

135 -444 246 -36 52 -43 34 -13 -30 51 -107 182 -194 374 -249 52 -14 101 -28

109 -30 8 -3 11 -11 6 -22 -22 -58 -45 -216 -45 -311 1 -124 12 -182 46 -233

22 -34 67 -59 80 -45 3 3 -2 27 -12 54 -26 74 -31 271 -9 370 23 104 39 133

72 133 44 0 104 -23 129 -49 45 -48 115 -188 141 -283 l16 -58 -29 -31 c-27

-28 -147 -119 -157 -119 -3 0 -47 -20 -98 -44 -112 -52 -196 -71 -287 -63

-152 13 -255 87 -306 220 -10 26 -22 47 -28 47 -16 0 -3 -85 22 -153 63 -167

284 -400 490 -515 91 -50 265 -102 345 -102 27 0 45 -5 45 -11 0 -7 -20 -42

-44 -79 -89 -135 -216 -216 -388 -247 -24 -5 -41 -24 -20 -23 125 5 295 59

384 122 9 7 20 9 23 6 4 -4 11 -46 15 -95 10 -103 19 -136 62 -222 33 -65 72

-103 126 -122 39 -13 39 -22 6 -71 -67 -97 -223 -160 -308 -124 -50 21 -115

90 -156 166 -45 84 -53 55 -10 -34 104 -210 263 -275 610 -248 80 6 146 10

147 9 1 -1 -30 -50 -68 -107 -85 -127 -142 -174 -259 -210 -87 -27 -108 -51

-37 -44 47 5 125 20 206 40 30 8 57 12 59 9 2 -2 0 -48 -6 -102 -6 -54 -14

-213 -17 -353 -5 -221 -13 -401 -19 -407 -1 -2 -163 15 -406 42 -80 8 -183 20

-230 25 -47 5 -148 16 -225 25 -77 9 -194 20 -260 25 -199 15 -357 29 -417 36

l-58 6 0 -1457 c0 -1377 1 -1459 18 -1471 9 -7 37 -14 62 -14 26 0 50 -4 55

-9 6 -5 28 -11 50 -15 35 -6 38 -5 23 7 -10 8 -18 19 -18 25 0 17 19 25 33 14

7 -5 59 -12 116 -15 114 -6 128 -14 105 -58 -8 -16 -14 -35 -14 -43 0 -8 -3

-16 -8 -18 -10 -4 -42 -67 -42 -83 0 -8 -5 -17 -12 -21 -8 -5 -9 2 -5 25 4 20

3 30 -3 26 -6 -3 -10 1 -10 9 0 9 -3 15 -7 14 -5 -1 -25 6 -47 15 -21 9 -48

17 -59 17 -11 0 -28 6 -36 14 -13 11 -160 46 -195 46 -14 0 -1 -63 14 -70 8

-4 55 -15 105 -24 51 -10 95 -24 101 -32 10 -12 13 -12 17 -2 4 9 11 6 24 -10

10 -13 22 -20 26 -16 4 4 18 8 32 9 31 1 39 -28 20 -80 -13 -38 -15 -40 -52

-38 -109 7 -241 7 -265 0 -21 -5 -28 -14 -28 -33 0 -14 4 -23 9 -19 5 3 12 1

15 -4 4 -5 -2 -12 -11 -14 -14 -4 -13 -5 4 -6 31 -2 39 -21 9 -21 -32 0 -33

-13 -3 -28 l22 -11 -22 0 -23 -1 0 -215 0 -215 5460 0 5460 0 0 1906 0 1906

-34 62 c-159 292 -488 783 -668 1000 -135 163 -225 206 -461 222 -125 8 -112

-5 -147 144 -65 282 -188 493 -326 561 -40 19 -68 25 -149 27 -126 4 -230 -17

-420 -88 -194 -72 -316 -86 -394 -45 -52 27 -197 153 -187 162 3 3 29 -6 58

-20 97 -46 158 -61 248 -61 72 1 96 5 150 29 36 16 85 42 110 59 59 39 150

125 150 142 0 7 6 15 13 17 8 4 8 6 0 6 -6 1 -20 -9 -30 -22 -57 -73 -197

-142 -320 -157 -105 -14 -172 -7 -277 28 -70 23 -77 27 -60 39 10 7 26 13 36

13 38 0 143 70 203 134 17 18 39 37 50 44 30 16 15 23 -72 33 -150 18 -286 66

-388 136 -54 38 -48 39 55 9 84 -24 169 -34 355 -41 l170 -7 70 37 c87 47 191

119 198 140 5 11 -4 9 -31 -8 -20 -13 -66 -31 -102 -40 -74 -20 -244 -27 -259

-12 -6 6 -17 78 -26 160 -26 254 -51 358 -115 490 -21 44 -36 82 -34 84 2 2

22 -1 43 -8 133 -39 350 -311 351 -438 0 -18 4 -33 10 -33 5 0 17 15 27 33 26

48 23 193 -6 269 -28 72 -97 149 -161 179 -27 13 -50 27 -50 31 0 4 15 14 33

21 261 111 434 261 551 480 26 48 44 87 42 87 -3 0 -32 -26 -63 -59 -163 -165

-381 -241 -614 -213 -51 6 -117 18 -145 27 -47 14 -52 19 -72 68 -33 81 -71

251 -82 372 -44 451 -98 640 -248 853 -41 58 -69 82 -56 47 11 -29 -35 -17

-50 13 -8 16 -22 34 -30 41 -9 8 -16 22 -16 32 0 10 -7 22 -16 27 -13 7 -14

13 -5 29 9 17 6 25 -16 48 -15 15 -29 22 -31 17 -6 -18 -46 1 -82 37 -19 20

-52 45 -72 55 -21 10 -59 37 -86 60 -60 51 -82 67 -157 114 -33 20 -69 43 -80

50 -11 6 -31 18 -45 24 -14 7 -27 15 -30 18 -3 4 -20 12 -39 20 -26 11 -36 11

-39 2 -7 -22 -24 -12 -18 11 4 19 0 25 -25 34 -30 11 -31 11 -25 -10 31 -103

86 -341 88 -377 2 -35 -1 -45 -14 -48 -18 -4 -48 26 -146 148 -121 149 -249

270 -288 270 -29 0 -25 -12 32 -100 58 -90 154 -276 154 -298 0 -10 5 -23 12

-30 19 -19 0 -27 -20 -9 -22 22 -113 96 -282 232 -74 59 -141 116 -148 127

-27 37 -32 17 -7 -24 64 -103 99 -212 111 -347 6 -64 5 -69 -17 -85 -24 -17

-24 -17 -84 51 -32 37 -98 107 -146 156 -97 97 -119 105 -160 60 -38 -44 -46

-63 -65 -166 -10 -53 -22 -97 -26 -97 -4 0 -24 30 -43 68 -64 122 -133 239

-187 316 -16 21 -28 42 -28 46 0 4 17 11 37 15 73 13 373 172 373 196 0 23

-232 228 -299 266 -35 19 -52 43 -31 43 7 0 26 6 43 14 71 30 89 36 110 36 28

0 166 -44 220 -70 50 -25 47 -25 47 5 0 16 6 25 15 25 20 0 20 48 -1 72 -16

16 -15 18 7 27 18 6 25 5 27 -6 5 -21 27 -9 27 14 0 12 3 25 8 29 13 14 7 29

-15 39 -17 8 -22 18 -21 40 1 16 -3 33 -10 37 -16 11 24 5 41 -6 7 -4 16 -5

19 -2 3 3 -2 8 -11 12 -9 4 -16 17 -15 33 l0 26 16 -22 c8 -13 20 -23 25 -23

12 0 0 40 -18 57 -7 8 -11 20 -8 28 3 8 -4 20 -15 27 -12 7 -21 17 -21 21 0

10 58 -1 74 -14 14 -11 96 -76 116 -92 9 -7 33 -25 55 -41 22 -17 43 -35 47

-40 5 -7 8 -5 8 5 0 9 -11 22 -25 29 -14 7 -25 18 -25 24 -1 23 -242 184 -331

221 -65 27 -89 42 -89 54 0 4 39 12 88 19 189 27 233 35 412 69 228 43 380 73

530 106 120 26 249 52 435 86 433 80 730 138 870 170 178 42 473 106 580 127

39 7 113 23 165 34 52 12 120 25 150 30 30 5 75 14 100 19 25 5 108 22 185 36

77 14 187 37 245 50 151 34 238 52 473 95 l207 38 60 55 c76 70 143 97 245 97

l75 0 0 30 0 29 -117 3 c-114 3 -118 4 -121 26 l-3 22 -447 -3 -447 -3 -110

-27 c-60 -15 -132 -31 -160 -37 -27 -5 -86 -19 -130 -29 -148 -36 -349 -83

-455 -106 -95 -20 -226 -50 -470 -106 -47 -10 -123 -28 -170 -38 -125 -29

-260 -61 -300 -71 -19 -5 -98 -23 -175 -41 -77 -17 -198 -45 -270 -64 -71 -18

-191 -47 -265 -65 -74 -17 -252 -61 -395 -97 -143 -36 -332 -83 -420 -104 -88

-21 -191 -47 -230 -58 -38 -10 -122 -31 -185 -46 -132 -31 -475 -117 -699

-176 -85 -22 -164 -39 -175 -37 -19 3 -21 10 -22 88 0 47 -4 137 -8 201 -7

100 -6 117 8 128 9 8 103 35 209 62 105 26 316 80 467 119 390 101 545 140

620 156 92 21 110 25 350 87 118 30 235 58 260 62 25 3 79 15 120 25 41 11

118 29 170 40 102 23 127 29 265 61 50 11 110 25 135 29 25 5 70 18 100 29

l55 20 -125 1 c-111 0 -139 -4 -255 -35 -71 -19 -168 -44 -215 -55 -146 -36

-272 -68 -345 -89 -122 -33 -257 -68 -355 -91 -52 -12 -115 -28 -140 -35 -25

-8 -92 -25 -150 -39 -58 -13 -177 -43 -265 -66 -88 -22 -171 -43 -184 -46 -13

-3 -74 -19 -135 -36 -61 -16 -190 -50 -286 -75 -96 -24 -200 -51 -230 -59 -83

-21 -83 -21 -76 34 3 26 8 106 11 177 3 72 10 176 16 233 6 56 8 109 6 117 -3

7 3 23 14 36 10 12 19 24 19 26 0 1 -88 3 -196 3 l-197 0 6 -372 c5 -354 6

-377 28 -442 12 -38 33 -80 45 -94 22 -25 31 -34 85 -86 16 -16 28 -35 25 -42

-4 -9 2 -13 16 -11 15 1 23 -4 26 -18 3 -21 19 -61 33 -85 16 -28 30 -63 25

-67 -8 -9 -43 20 -67 57 -49 75 -212 247 -324 341 -22 19 -51 44 -65 56 -40

36 -92 57 -137 56 -28 -1 -95 -24 -195 -67 -84 -36 -163 -66 -176 -66 -12 0

-48 -9 -80 -19 -31 -11 -88 -26 -127 -35 -71 -17 -107 -26 -180 -45 -22 -5

-74 -18 -115 -27 -41 -9 -86 -23 -100 -30 -14 -7 -38 -15 -54 -19 -18 -4 -25

-10 -19 -16 18 -18 482 92 602 143 24 10 46 16 48 14 18 -17 -287 -194 -337

-195 -19 0 -80 -5 -135 -11 -162 -16 -447 -32 -482 -27 -49 8 -183 -28 -274

-73 -45 -23 -84 -39 -87 -36 -15 16 91 89 182 127 21 8 43 23 48 33 5 9 10 79

11 156 1 76 5 142 9 146 4 3 5 19 1 34 -3 15 0 36 5 47 10 16 11 16 21 -9 6

-16 17 -28 26 -28 8 0 15 -7 15 -15 0 -20 46 -20 54 1 3 9 6 24 6 34 0 9 6 23

14 30 23 18 8 38 -35 45 -49 8 -50 21 -1 28 24 4 45 17 62 36 17 21 27 27 32

18 15 -23 8 -37 -17 -37 -21 0 -25 -5 -25 -30 0 -25 4 -30 24 -30 17 0 26 -7

30 -25 5 -21 10 -24 25 -15 10 5 24 22 30 37 20 48 38 76 43 63 2 -8 12 -10

25 -6 15 5 19 13 16 26 -3 11 2 31 11 45 l16 25 -45 0 c-34 0 -45 4 -45 16 0

26 26 44 63 44 50 0 67 9 67 35 0 29 14 39 46 31 19 -5 24 -13 24 -39 0 -17 5

-39 10 -47 9 -13 11 -13 20 0 5 8 10 21 10 28 0 6 6 12 14 12 9 0 12 7 9 19

-3 12 2 20 16 24 15 3 21 13 21 31 0 19 5 26 19 26 11 0 22 -6 24 -12 4 -10 8

-10 15 0 6 9 8 -4 4 -37 -5 -58 3 -63 37 -20 19 24 22 38 18 72 -2 23 -8 50

-12 60 -4 10 -3 17 4 17 6 0 11 -11 11 -25 0 -18 4 -23 15 -19 8 4 27 -1 41

-10 24 -17 64 -14 64 4 0 12 -36 31 -44 23 -3 -3 -6 3 -6 15 0 12 6 22 14 22

17 0 26 22 26 65 0 46 14 51 40 15 27 -38 41 -38 64 1 17 29 19 29 36 14 22

-20 40 -12 40 15 0 20 -34 45 -50 35 -5 -3 -14 11 -21 30 l-13 35 -64 0 -64 0

4 -40 c3 -38 -5 -53 -15 -27 -4 9 -8 8 -16 -3 -5 -8 -11 -12 -13 -10 -16 26

-28 52 -28 65 0 13 -209 15 -1885 15 l-1885 0 0 -1090z m4636 299 c105 -80

246 -230 316 -334 112 -169 237 -426 224 -460 -5 -15 -36 -10 -36 6 0 5 -8 17

-18 27 -11 11 -43 54 -72 98 -147 220 -268 350 -355 381 -54 20 -120 23 -169

8 -96 -29 -265 -127 -432 -251 -43 -33 -98 -71 -122 -86 -23 -16 -45 -35 -48

-43 -7 -18 -31 -20 -36 -4 -3 9 -9 9 -24 1 -16 -8 -24 -8 -33 1 -8 8 -14 9

-19 1 -11 -17 -42 -25 -42 -11 0 7 -9 13 -20 14 -25 2 -69 34 -70 51 0 14 -12

16 -25 2 -7 -6 -9 12 -7 48 4 56 33 113 69 135 7 4 18 17 24 29 l12 21 -36

-21 c-39 -22 -73 -31 -75 -19 -6 25 3 35 48 51 28 10 57 15 65 12 16 -6 93 41

300 180 112 76 288 169 383 202 75 27 126 17 198 -39z m-1926 -179 c5 -52 12

-126 14 -163 l5 -68 -44 -46 c-25 -25 -45 -49 -45 -53 0 -4 -7 -10 -15 -14 -8

-3 -15 -12 -15 -21 0 -24 -29 -49 -87 -79 -29 -14 -53 -30 -53 -35 0 -9 -50

-34 -56 -28 -2 2 11 18 28 35 18 17 38 37 45 45 7 8 18 17 25 20 8 2 9 8 4 13

-5 5 -11 4 -13 -3 -3 -7 -11 -13 -19 -13 -8 0 -14 -4 -14 -10 0 -5 -11 -10

-25 -10 -13 0 -33 -10 -45 -22 -14 -16 -31 -22 -57 -21 -23 1 -41 -5 -49 -14

-8 -12 -13 -13 -18 -5 -9 15 -62 16 -71 2 -3 -5 -15 -10 -26 -10 -10 0 -19 -6

-19 -14 0 -11 -9 -13 -34 -9 -20 3 -54 -1 -82 -11 -26 -9 -64 -16 -83 -16 -20

0 -48 -6 -62 -14 -37 -19 -153 -44 -235 -50 -89 -7 -97 0 -79 69 8 28 14 44

14 38 1 -21 35 -15 75 12 20 14 38 25 40 25 10 0 66 59 66 69 0 6 -9 11 -20

11 -11 0 -20 6 -20 14 0 20 30 29 36 11 4 -10 15 -12 37 -8 36 7 57 25 57 47

0 9 6 16 14 16 8 0 16 7 20 15 3 8 12 12 20 9 22 -9 76 24 76 46 0 13 7 20 20

20 20 0 20 0 0 -20 -22 -22 -17 -50 9 -50 10 0 30 14 46 30 19 20 39 30 59 31

30 1 30 1 6 8 -15 4 -26 15 -28 27 -4 25 37 76 44 57 3 -7 18 -13 32 -13 33 0

104 73 77 78 -21 5 -16 46 7 50 12 2 19 -5 24 -22 7 -29 20 -32 48 -11 11 8

27 15 37 15 9 0 19 7 23 15 4 11 13 14 31 9 18 -4 27 -2 31 10 3 9 10 14 14

11 15 -9 40 7 40 25 0 10 -10 22 -22 26 -19 6 -20 7 -4 16 10 5 29 6 44 2 51

-13 64 -11 73 13 9 23 20 29 33 16 3 -4 15 -8 26 -10 17 -2 20 3 22 45 l1 47

3 -45 c2 -25 8 -88 14 -140z m-530 -644 c0 -2 -37 -32 -82 -67 -73 -55 -186

-152 -253 -214 -12 -11 -48 -45 -81 -75 l-59 -55 -130 -18 c-71 -10 -150 -22

-175 -27 -25 -6 -62 -12 -82 -14 -21 -2 -62 -10 -92 -17 -41 -9 -62 -9 -87 0

-38 13 -47 8 -29 -15 12 -14 10 -15 -20 -12 -23 2 -34 9 -36 21 -3 21 43 67

67 67 9 0 33 7 52 15 20 8 43 15 52 15 24 0 17 -20 -7 -21 -21 -1 -21 -2 -3

-6 11 -3 24 -9 30 -14 5 -5 23 -8 40 -8 16 1 22 3 13 6 -10 2 -18 8 -18 11 0

10 97 32 145 33 22 0 33 3 25 6 -8 3 -19 12 -23 19 -11 18 -41 18 -57 -1 -18

-21 -79 -37 -99 -24 -13 8 -12 9 4 5 19 -5 20 -2 17 34 -4 44 -2 46 28 28 25

-16 54 -1 58 31 2 11 8 21 13 21 5 0 9 5 9 11 0 5 -10 9 -22 7 -16 -2 -26 4

-33 20 -11 25 -45 30 -45 7 0 -9 10 -20 23 -25 20 -8 20 -9 -8 -9 -20 -1 -36

6 -45 19 -15 21 -50 28 -50 10 0 -6 -26 -10 -57 -10 -40 1 -53 3 -42 10 30 18

330 75 353 67 6 -2 16 2 21 9 6 7 39 18 75 24 36 6 90 15 120 20 30 5 87 19

125 30 67 19 150 40 181 44 7 1 17 5 20 9 12 12 24 8 24 -8 0 -8 9 -15 21 -15

15 0 19 5 14 19 -5 15 -1 18 21 13 18 -3 30 0 36 12 8 13 48 24 48 12z m166

-93 c0 -16 4 -29 9 -30 6 -2 10 5 11 15 3 44 3 45 18 32 13 -10 10 -20 -16

-68 -17 -31 -43 -79 -57 -107 -40 -77 -60 -94 -124 -105 -31 -6 -83 -15 -114

-21 -85 -16 -109 -18 -124 -9 -10 6 -5 13 19 27 18 10 32 21 32 26 0 12 -53 7

-79 -7 -14 -8 -32 -11 -40 -8 -10 4 -13 0 -9 -15 4 -17 1 -19 -20 -15 -17 3

-23 1 -18 -7 4 -6 14 -11 22 -11 9 0 14 -6 12 -12 -7 -21 -43 -16 -40 5 2 9

-3 17 -10 17 -18 0 59 68 99 86 18 9 33 22 33 30 0 10 9 12 33 7 31 -6 32 -6

15 14 -22 24 -23 33 -2 33 10 0 14 -6 10 -15 -3 -8 -1 -15 5 -15 10 0 19 17

23 45 2 14 30 37 89 72 11 6 24 17 29 25 7 10 8 8 4 -5 -3 -11 -2 -16 4 -12 5

3 18 1 27 -4 16 -9 16 -10 -4 -11 -16 0 -23 -6 -23 -20 0 -18 2 -19 22 -8 81

49 102 57 113 48 14 -11 40 12 28 24 -6 5 12 25 23 26 1 0 1 -12 0 -27z

m-1506 -447 c23 -13 22 -14 -35 -20 -33 -4 -68 -11 -77 -16 -10 -6 -31 -10

-47 -10 -17 0 -32 -4 -35 -9 -3 -4 -37 -11 -76 -14 -60 -5 -76 -3 -105 15 -19

11 -35 24 -35 29 0 5 -12 9 -27 9 -21 1 -24 3 -13 9 17 11 72 3 65 -9 -3 -5 7

-12 23 -17 32 -12 202 -4 202 8 0 5 -10 10 -22 10 -18 1 -19 2 -5 6 10 3 23 0

30 -5 14 -11 26 -9 82 12 49 18 45 18 75 2z m926 -342 c44 -9 83 -20 89 -25

15 -14 45 -10 45 6 0 9 6 12 15 9 18 -7 20 -38 3 -56 -7 -8 -24 -34 -37 -58

-24 -45 -105 -193 -132 -240 -8 -14 -17 -27 -20 -30 -3 -3 -8 -12 -12 -20 -4

-8 -13 -24 -19 -35 -7 -11 -29 -45 -50 -77 -20 -31 -39 -67 -43 -79 -6 -17 -9

-19 -16 -8 -6 10 -9 8 -9 -8 0 -28 -8 -29 -27 -5 -11 12 -10 9 1 -10 18 -31

20 -38 8 -38 -5 0 -15 11 -22 25 -7 13 -16 22 -20 20 -14 -9 -30 83 -30 167 0

110 16 258 30 272 5 5 10 20 10 33 0 27 34 94 60 118 19 17 80 53 91 54 4 1

42 -6 85 -15z m2667 -329 c11 -7 36 -17 58 -20 21 -4 41 -11 45 -16 9 -15 71

-10 85 7 10 12 24 14 58 10 25 -2 74 -7 109 -9 34 -3 68 -9 75 -14 47 -36 216

-41 294 -8 21 9 58 23 83 30 l45 14 -24 -19 c-13 -11 -31 -20 -41 -20 -9 0

-25 -10 -36 -21 -19 -21 -19 -22 1 -16 11 3 107 7 213 9 176 3 194 1 203 -14

6 -10 21 -18 35 -18 13 0 32 -4 42 -9 9 -5 37 -14 62 -21 103 -27 209 -64 269

-94 61 -30 66 -35 106 -111 56 -109 94 -220 155 -455 24 -92 53 -271 52 -320

0 -30 6 -102 14 -160 8 -58 14 -141 12 -184 l-3 -79 -100 4 c-295 12 -572 -14

-811 -74 -171 -44 -254 -83 -254 -120 0 -16 52 -47 82 -48 21 -1 72 6 218 31

253 44 401 63 595 80 72 6 158 13 193 16 73 7 73 9 36 -91 -81 -217 -93 -253

-99 -287 -3 -21 -13 -42 -22 -46 -12 -7 -15 -18 -10 -44 3 -19 2 -39 -1 -44

-4 -6 -34 -16 -67 -23 -108 -22 -307 -82 -369 -110 -68 -31 -136 -95 -192

-183 -35 -54 -30 -77 9 -40 41 38 259 134 352 156 17 4 38 9 49 13 16 5 18 1

12 -28 -28 -133 -30 -169 -13 -186 15 -16 18 -15 39 4 13 11 33 26 46 32 12 6

22 18 22 26 0 17 -26 20 -35 5 -15 -24 -22 3 -8 30 16 34 17 34 42 19 15 -10

23 -7 50 21 30 32 30 34 14 52 -29 32 -6 52 61 56 50 3 56 1 56 -17 0 -11 6

-26 13 -33 23 -24 45 -64 49 -89 l3 -24 21 23 c16 17 32 22 75 23 56 2 179

-29 179 -44 0 -5 9 -16 19 -25 28 -25 35 -104 12 -133 -16 -20 -27 -23 -90

-22 -78 1 -96 -12 -28 -20 69 -9 111 -19 124 -29 7 -6 23 -8 35 -4 19 4 27 19

42 78 10 40 23 104 28 143 5 38 12 73 16 77 4 4 30 -4 57 -17 28 -13 56 -25

62 -25 7 0 41 -13 75 -29 35 -16 71 -31 80 -34 16 -6 16 -9 2 -44 -21 -53 -44

-94 -66 -120 -14 -14 -18 -28 -13 -43 5 -16 -10 -50 -64 -138 -67 -111 -134

-189 -229 -265 -19 -15 -30 -27 -27 -27 20 0 139 81 205 139 89 79 79 68 208

224 95 116 131 145 155 130 22 -13 -30 -394 -69 -509 -52 -152 -132 -269 -242

-354 -24 -18 -41 -34 -38 -37 14 -15 196 86 253 140 18 17 35 28 39 25 12 -12

-58 -136 -107 -191 -57 -64 -178 -147 -261 -179 -55 -22 -78 -40 -40 -33 88

18 179 41 240 62 41 13 78 23 83 21 27 -9 -152 -206 -235 -258 -30 -19 -55

-38 -56 -42 0 -12 118 41 207 93 61 36 113 78 172 138 75 77 83 83 78 56 -14

-73 -29 -130 -72 -280 -26 -88 -49 -171 -52 -185 -4 -24 -3 -24 26 8 34 35 70

62 197 147 44 30 99 71 120 92 22 21 63 59 91 85 85 77 135 147 131 180 -6 35

9 37 18 2 36 -141 -117 -400 -336 -569 -70 -54 -123 -80 -179 -89 -37 -6 -48

-3 -66 14 -20 19 -24 19 -38 6 -8 -8 -24 -48 -36 -88 -86 -291 -162 -465 -257

-588 -100 -131 -336 -403 -589 -681 -448 -492 -712 -697 -869 -676 -53 8 -151

50 -251 109 -207 122 -428 257 -490 298 -38 26 -119 78 -180 115 -264 163

-410 266 -585 414 -225 190 -347 329 -479 541 -81 131 -88 144 -158 305 -56

129 -106 219 -150 273 -19 24 -33 46 -30 49 3 3 28 0 54 -5 82 -19 170 -24

253 -17 92 8 108 25 24 25 -127 0 -259 54 -345 141 -72 72 -179 252 -179 300

0 4 23 -4 51 -17 67 -32 130 -54 209 -70 76 -16 160 -18 160 -4 0 6 -7 10 -15

10 -30 0 -127 43 -187 82 -90 59 -234 181 -219 186 7 2 20 -2 29 -10 46 -38

404 -149 442 -136 6 2 -15 14 -47 28 -307 126 -399 216 -493 480 -16 47 -30

101 -30 120 0 19 -7 48 -15 64 -24 46 -20 65 15 64 16 -1 36 5 45 12 22 18 18

3 -6 -21 -22 -22 -21 -42 4 -47 9 -2 22 9 32 27 8 17 23 31 33 31 24 0 134

-98 215 -191 31 -36 39 -16 11 27 -23 33 -6 70 35 79 16 3 35 13 42 21 6 8 21

14 33 14 12 0 46 11 74 25 29 14 62 25 74 25 13 1 34 7 48 15 58 33 -51 6

-244 -61 -38 -13 -72 -24 -76 -24 -4 0 -21 22 -39 49 -24 38 -33 65 -38 113

-5 63 -5 63 33 101 74 73 431 272 475 265 18 -3 18 -5 4 -32 -37 -70 -1 -170

80 -226 24 -17 48 -30 53 -30 5 0 9 27 8 59 -1 46 -4 57 -13 49 -14 -11 -26 8

-21 33 2 8 -7 15 -19 17 -13 2 -23 7 -23 11 0 11 29 47 31 39 9 -42 22 -60 40

-55 10 3 20 0 22 -6 3 -11 18 3 65 62 l26 34 -36 -7 c-28 -5 -37 -3 -42 10

-10 27 -7 61 9 74 18 15 35 5 35 -21 0 -14 7 -19 28 -19 15 0 33 5 39 11 17

17 57 6 68 -19 5 -12 18 -25 27 -28 9 -3 20 -14 23 -25 9 -28 22 -24 67 21 23

22 48 40 56 40 9 0 23 7 33 16 25 23 58 9 75 -33 12 -29 18 -33 29 -23 12 10

18 8 32 -8 13 -15 43 -26 102 -37 104 -19 114 -19 74 1 -18 9 -59 42 -92 74

-33 32 -81 75 -106 95 -71 59 -63 69 48 61 50 -4 102 -10 115 -13 12 -3 22 -1

22 5 0 24 -292 82 -414 82 -60 0 -266 -26 -356 -45 -20 -4 -29 1 -45 27 -11

18 -26 53 -34 78 -7 25 -19 61 -26 80 -31 82 -91 393 -79 411 20 32 279 95

452 109 114 10 132 7 132 -21 0 -11 7 -19 18 -20 12 0 10 -3 -8 -11 l-25 -10

25 -9 c15 -6 20 -13 13 -17 -14 -9 5 -27 27 -27 8 0 16 -10 18 -23 3 -18 6

-21 17 -12 8 6 11 19 8 28 -3 9 5 1 17 -18 12 -19 32 -46 45 -60 12 -14 26

-36 30 -49 4 -14 18 -36 32 -50 13 -14 34 -42 46 -61 12 -19 29 -42 39 -52 10

-10 18 -22 18 -28 0 -5 6 -10 14 -10 8 0 16 -7 20 -15 3 -8 11 -15 18 -15 7 0

40 -27 72 -60 60 -61 66 -76 18 -41 -52 37 -103 61 -127 61 -14 0 -25 4 -25 8

0 15 -118 42 -177 41 l-58 -2 55 -8 c141 -21 135 -19 220 -59 59 -28 181 -98

211 -121 20 -16 40 -29 43 -29 3 0 31 -16 62 -36 70 -45 162 -86 182 -82 10 2

5 8 -14 18 -190 96 -424 329 -541 540 -11 19 -48 84 -81 143 -34 60 -62 115

-62 123 0 11 22 14 113 14 61 0 141 -5 176 -10 35 -6 66 -8 69 -5 10 10 -53

78 -90 97 -44 23 -150 46 -248 54 -47 4 -79 12 -87 21 -9 11 -16 12 -32 3 -12

-6 -26 -8 -31 -5 -20 12 -37 110 -82 465 -20 164 -17 653 5 755 20 89 25 98

61 98 14 0 31 6 37 13 6 8 15 14 20 14 4 0 34 18 65 40 41 28 68 40 93 40 20

0 52 4 72 9 24 5 50 3 81 -7 50 -15 80 -12 113 12 17 13 18 18 8 35 -21 35

-13 41 20 16z m-883 -624 c-15 -29 -12 -41 9 -41 21 0 30 -27 61 -190 18 -96

131 -473 182 -608 15 -39 3 -52 -51 -52 -66 0 -360 -61 -386 -80 -5 -4 -23

-10 -39 -14 l-29 -7 7 128 c6 115 14 207 32 371 3 28 10 52 16 52 5 0 7 4 3 9

-3 5 -1 12 5 16 5 3 8 16 6 28 -1 12 -1 16 1 10 3 -7 11 -13 19 -13 8 0 14

-10 14 -22 0 -38 18 0 25 54 4 26 11 48 17 48 5 0 8 8 6 18 -2 9 5 26 15 37

10 11 17 29 15 40 -1 11 6 32 16 47 20 31 38 98 26 98 -19 0 -18 31 1 49 12

11 18 24 14 30 -3 6 1 11 10 11 12 0 14 -4 5 -19z m-2211 -811 c6 -30 16 -67

22 -83 15 -37 -2 -55 -89 -95 -61 -28 -237 -70 -248 -59 -3 3 6 31 19 63 13

33 34 91 47 129 39 125 71 212 109 297 12 26 21 51 21 55 0 4 21 44 48 90 l47

83 6 -213 c4 -116 12 -237 18 -267z m5236 250 c3 -11 10 -20 15 -20 11 0 18

-22 30 -92 5 -29 16 -84 24 -122 17 -73 23 -133 16 -139 -6 -5 -185 10 -219

18 -16 4 -21 11 -18 23 3 9 20 64 37 122 16 58 36 123 42 145 23 77 59 109 73

65z m-3406 -375 c6 -42 14 -87 17 -100 5 -21 -2 -28 -73 -64 -44 -21 -85 -46

-92 -55 -8 -9 -20 -16 -27 -16 -8 0 -14 -4 -14 -10 0 -5 -5 -10 -10 -10 -6 0

-4 13 5 30 8 16 15 39 15 52 0 18 2 20 10 8 13 -21 22 -7 24 38 1 23 17 65 42

108 21 38 43 78 47 88 4 11 13 26 19 34 16 18 23 -3 37 -103z m3371 -109 c47

-7 97 -18 113 -25 l27 -11 0 -117 c0 -65 -7 -158 -16 -208 -9 -49 -18 -107

-21 -129 l-5 -38 -42 6 c-178 27 -279 37 -324 33 -39 -4 -55 -2 -58 8 -7 18

97 325 151 443 28 60 30 61 175 38z m441 -136 c28 -41 49 -97 89 -235 29 -99

58 -200 66 -224 8 -25 12 -47 9 -50 -6 -5 -70 10 -253 59 -62 16 -122 30 -133

30 -25 0 -26 -6 26 135 20 55 40 111 44 125 5 14 20 51 35 83 14 32 26 59 26

61 0 19 34 77 43 74 7 -3 28 -29 48 -58z m-3741 -16 c0 -16 29 -113 55 -184

62 -166 80 -214 110 -271 18 -37 30 -72 26 -78 -5 -7 -34 -18 -67 -26 -129

-31 -321 -103 -418 -158 -27 -15 -54 -27 -60 -27 -16 0 -19 164 -6 270 19 150

41 274 53 299 14 29 105 92 211 148 92 48 96 49 96 27z m-537 -587 c9 -30 17

-61 17 -70 0 -8 7 -28 15 -44 31 -60 47 -103 42 -115 -2 -7 -22 -19 -43 -27

-22 -7 -53 -24 -71 -37 -38 -29 -50 -30 -48 -5 2 26 23 51 44 51 9 0 25 7 35

15 19 14 17 15 -20 15 -52 0 -59 8 -32 37 19 20 22 36 24 126 3 116 2 107 12

107 5 0 16 -24 25 -53z m-1174 -549 c0 -13 -6 -75 -13 -138 -14 -124 -7 -230

20 -282 22 -43 18 -85 -11 -104 -74 -48 -155 85 -155 256 0 109 21 168 85 234

58 61 75 68 74 34z m6596 -228 c28 -5 74 -14 104 -19 29 -6 74 -11 100 -11

l46 -1 -44 -21 c-37 -17 -48 -18 -64 -8 -13 7 -22 8 -26 2 -3 -6 -17 -12 -31

-13 -16 -3 -25 -10 -24 -21 2 -23 -42 -32 -117 -23 l-59 7 0 52 c0 57 14 80

45 71 11 -3 43 -10 70 -15z m-309 -333 c8 3 14 1 14 -5 0 -6 3 -18 7 -28 4

-12 3 -15 -5 -10 -7 4 -12 3 -12 -3 0 -5 6 -11 13 -14 9 -3 9 -7 -2 -21 -12

-14 -11 -19 3 -34 9 -10 13 -22 9 -25 -5 -6 31 -11 73 -10 6 0 9 -10 6 -23 -2

-14 0 -24 7 -24 6 0 11 -4 11 -10 0 -13 -33 0 -43 17 -4 7 -15 13 -23 13 -9 0

-24 10 -35 23 -12 14 -18 17 -19 8 0 -8 7 -19 15 -25 14 -10 14 -14 1 -31 -15

-20 -15 -20 -21 0 -4 11 -15 43 -25 70 -27 75 -33 115 -15 108 11 -3 15 2 16

18 0 13 3 19 5 12 3 -7 12 -9 20 -6z m-5617 -259 c1 -13 5 -108 9 -213 l7

-189 19 29 c10 15 22 40 25 53 7 26 35 51 46 41 3 -3 6 -53 7 -110 1 -138 -22

-245 -81 -362 -37 -74 -56 -100 -98 -132 -28 -22 -52 -43 -52 -48 -3 -23 150

69 212 128 45 42 111 142 127 191 6 19 15 34 19 34 11 0 82 -61 155 -132 l59

-58 -7 -77 c-14 -167 -75 -282 -186 -353 -28 -18 -50 -34 -50 -35 0 -7 63 15

108 37 53 25 146 113 184 173 14 23 36 66 48 95 13 30 27 59 31 64 8 9 100

-48 107 -66 2 -5 29 -26 61 -47 31 -21 63 -46 70 -54 18 -23 60 -260 61 -344

0 -58 3 -73 15 -73 38 0 5 -35 -105 -108 -95 -62 -158 -95 -175 -88 -9 3 -14

58 -20 214 -8 222 -4 257 37 315 11 16 17 31 13 35 -4 4 -10 2 -12 -5 -2 -6

-21 -33 -41 -60 l-36 -47 2 -136 c3 -146 -19 -380 -44 -470 -29 -104 -88 -220

-194 -385 -21 -33 -76 -121 -121 -195 -145 -238 -139 -232 -344 -317 -192 -80

-250 -103 -255 -103 -3 0 -4 87 -3 192 2 106 5 443 7 748 6 792 37 1455 70

1519 13 24 14 23 75 -67 78 -116 118 -162 142 -162 28 0 23 21 -15 79 -46 68

-78 153 -84 223 -4 55 -2 61 41 130 80 128 162 195 166 136z m-389 -360 c0

-12 -4 -83 -10 -158 -17 -236 -30 -705 -40 -1360 -5 -349 -12 -705 -16 -791

l-7 -156 -31 -19 c-31 -19 -93 -44 -109 -44 -5 0 -6 12 -3 28 11 57 18 275 36

1126 6 257 12 472 15 476 3 4 9 141 15 303 13 385 26 536 49 560 16 17 77 53

94 56 4 0 7 -9 7 -21z m763 -175 c45 -25 111 -65 147 -89 36 -23 121 -75 190

-114 240 -137 264 -171 191 -262 -8 -10 -20 -18 -27 -18 -21 0 -205 134 -390

283 -198 159 -222 181 -227 207 -11 54 11 53 116 -7z"/>

<path d="M4896 5128 c3 -57 13 -159 21 -228 8 -69 17 -151 20 -182 9 -94 24

-55 18 45 -13 209 -43 455 -56 463 -5 2 -6 -42 -3 -98z"/>

<path d="M5475 4090 c108 -9 196 -29 202 -46 2 -5 -17 -25 -42 -44 -51 -38

-59 -55 -17 -37 184 84 205 110 100 121 -34 3 -125 8 -202 10 -131 4 -134 3

-41 -4z"/>

<path d="M4785 4045 c-44 -12 -106 -28 -137 -35 -61 -12 -71 -19 -62 -43 12

-32 207 -102 311 -112 38 -4 42 -3 17 4 -46 12 -224 101 -224 111 0 5 13 16

29 24 28 15 154 59 196 69 11 3 5 5 -15 5 -19 1 -71 -10 -115 -23z"/>

<path d="M6700 11533 c0 -18 41 -73 61 -84 37 -20 169 0 314 47 28 9 55 20 60

25 6 4 26 9 45 12 19 2 -81 5 -222 5 -142 1 -258 -1 -258 -5z"/>

<path d="M10445 11049 c-28 -8 -306 -69 -655 -143 -85 -19 -198 -41 -250 -50

-52 -10 -133 -26 -180 -37 -216 -49 -487 -107 -580 -124 -19 -3 -105 -22 -190

-40 -85 -19 -240 -52 -345 -75 -104 -22 -208 -44 -230 -50 -22 -5 -114 -23

-205 -40 -91 -17 -277 -54 -415 -82 -137 -28 -272 -55 -300 -60 -27 -5 -59

-13 -70 -18 -11 -5 -29 -10 -39 -12 -11 -2 -21 -9 -23 -15 -7 -19 118 -13 133

6 7 9 23 12 43 9 18 -3 53 1 79 8 26 7 70 20 99 27 28 8 54 12 57 10 3 -3 13

0 21 7 11 9 37 11 96 7 51 -4 78 -3 74 3 -10 16 19 22 49 10 21 -7 27 -15 23

-29 -3 -15 2 -20 25 -25 16 -3 38 -1 49 5 11 5 60 12 110 14 50 2 96 9 104 15

7 6 43 12 78 14 36 1 71 7 79 13 15 13 125 16 133 3 6 -9 -48 -30 -76 -30 -27

0 -23 -13 8 -27 22 -11 31 -10 48 1 15 10 26 11 39 4 12 -7 26 -7 43 1 13 6

34 11 46 11 12 0 63 7 112 15 169 29 260 44 360 60 55 9 125 21 155 27 30 5

67 12 81 13 42 4 229 34 279 44 73 15 157 30 295 51 72 11 171 27 220 35 50 8

193 31 319 50 126 20 279 44 340 55 61 10 153 24 204 31 l93 12 -50 18 c-61

21 -96 45 -144 98 -43 48 -62 83 -78 144 -12 49 -15 51 -64 36z"/>

<path d="M6840 10288 c-19 -5 -55 -13 -80 -17 -25 -4 -54 -12 -65 -18 -11 -6

-41 -14 -67 -17 -26 -4 -50 -11 -53 -16 -7 -12 112 -1 137 11 9 5 42 9 73 9

42 0 57 4 62 16 4 12 14 14 38 10 21 -4 36 -2 44 7 22 27 -20 34 -89 15z"/>

<path d="M6615 10025 c22 -19 51 -40 65 -47 83 -43 275 -157 330 -196 141

-101 337 -285 399 -375 8 -12 20 -27 26 -33 5 -7 18 -22 27 -35 68 -93 126

-163 137 -167 13 -4 -12 37 -44 75 -26 31 -32 40 -36 50 -12 33 -185 236 -268

315 -150 143 -298 246 -516 362 -49 27 -101 57 -114 67 -42 33 -47 20 -6 -16z"/>

<path d="M7648 9106 c-25 -19 -24 -40 0 -25 15 9 36 6 105 -15 205 -64 307

-159 417 -386 48 -98 79 -219 81 -313 1 -43 3 -47 8 -22 12 52 1 236 -19 306

-36 130 -130 275 -217 335 -53 37 -172 87 -260 109 -32 7 -67 16 -78 19 -11 3

-28 0 -37 -8z"/>

<path d="M10692 5389 c-232 -39 -361 -293 -257 -505 69 -141 195 -204 408

-204 l77 0 0 157 0 157 -33 -32 c-18 -18 -40 -32 -48 -32 -16 0 -159 140 -159

156 0 6 9 19 20 29 20 18 22 18 80 -40 l60 -59 40 39 40 39 0 153 0 153 -87

-1 c-49 -1 -112 -5 -141 -10z"/>

</g>

</svg>

