<?xml version="1.0" standalone="no"?>

<!DOCTYPE svg PUBLIC "-//W3C//DTD SVG 20010904//EN"

 "http://www.w3.org/TR/2001/REC-SVG-20010904/DTD/svg10.dtd">

<svg version="1.0" xmlns="http://www.w3.org/2000/svg"

 width="113.385827" height="112.398379" viewBox="0 0 113.385827 112.398379"

 preserveAspectRatio="xMidYMid meet">

<metadata>

Created by potrace 1.15, written by Peter Selinger 2001-2017

</metadata>

<g transform="translate(-6.911334,119.763569) scale(0.021178,-0.021178)"

fill="#000000" stroke="none">

<path d="M2780 5649 c-454 -40 -882 -187 -1255 -433 -579 -381 -986 -964

-1136 -1629 -48 -211 -63 -349 -63 -582 0 -362 53 -645 181 -970 132 -334 307

-605 563 -869 451 -464 999 -732 1650 -806 219 -25 562 -10 803 35 300 56 631

186 901 353 259 160 546 422 726 663 283 378 475 854 515 1281 4 34 8 69 11

76 6 20 5 419 -1 472 -33 263 -83 484 -149 665 -59 159 -186 409 -284 555

-432 648 -1116 1073 -1892 1175 -144 19 -432 26 -570 14z m435 -64 c399 -27

827 -168 1178 -387 228 -142 524 -407 679 -609 281 -364 453 -770 523 -1234

23 -147 28 -465 10 -620 -56 -502 -240 -950 -552 -1345 -93 -118 -319 -340

-438 -431 -402 -306 -842 -483 -1340 -538 -116 -13 -403 -13 -525 -1 -238 24

-487 83 -697 165 -619 242 -1112 695 -1404 1290 -421 860 -325 1894 248 2662

293 393 688 696 1136 872 386 151 752 206 1182 176z"/>

</g>

</svg>

