<?xml version="1.0" standalone="no"?>

<!DOCTYPE svg PUBLIC "-//W3C//DTD SVG 20010904//EN"

 "http://www.w3.org/TR/2001/REC-SVG-20010904/DTD/svg10.dtd">

<svg version="1.0" xmlns="http://www.w3.org/2000/svg"

 width="113.385827" height="201.815481" viewBox="0 0 113.385827 201.815481"

 preserveAspectRatio="xMidYMid meet">

<metadata>

Created by potrace 1.15, written by Peter Selinger 2001-2017

</metadata>

<g transform="translate(0.000000,201.877371) scale(0.013050,-0.013050)"

fill="#000000" stroke="none">

<path d="M6609 15449 c17 -14 21 -23 13 -31 -7 -7 -14 -4 -24 11 -7 11 -20 21

-28 21 -11 0 -12 -2 -2 -8 9 -6 6 -14 -12 -31 -22 -21 -29 -22 -93 -15 -70 8

-93 7 -105 -4 -4 -4 26 -8 66 -9 76 -1 136 -23 177 -64 11 -11 24 -17 29 -14

6 4 10 2 10 -4 0 -5 -4 -13 -10 -16 -5 -3 -10 -16 -11 -28 l0 -22 -9 23 c-13

31 -37 28 -43 -5 -3 -16 -3 -31 0 -35 6 -12 41 -10 48 2 4 6 11 7 17 4 6 -4 6

-9 1 -13 -5 -3 -14 -22 -19 -41 -6 -20 -19 -39 -32 -45 -12 -5 -22 -16 -22

-24 0 -11 4 -11 18 2 10 10 26 17 35 17 9 0 17 7 17 15 0 24 20 18 48 -15 25

-28 51 -39 53 -22 1 12 6 33 23 97 21 78 21 85 -11 156 -23 49 -33 61 -56 66

-18 4 -26 10 -23 19 3 9 -2 14 -14 14 -10 0 -22 5 -25 10 -3 6 -14 10 -23 10

-14 -1 -12 -5 7 -21z"/>

<path d="M6172 15410 c-12 -11 -22 -25 -22 -30 0 -6 -6 -10 -13 -10 -7 0 -18

-9 -25 -20 -7 -11 -21 -20 -31 -20 -11 0 -23 -9 -26 -20 -8 -26 -25 -26 -25 1

0 12 -4 17 -11 13 -6 -4 -8 -17 -4 -33 3 -14 12 -55 19 -91 9 -52 15 -64 29

-62 9 2 17 -3 17 -9 0 -7 6 -5 13 5 13 17 14 18 20 2 4 -10 12 -14 19 -10 7 4

10 4 6 -1 -11 -11 11 -35 31 -35 9 0 28 -7 44 -15 l27 -14 -30 44 c-39 56 -39

81 -2 80 23 0 27 4 30 33 3 25 -1 32 -14 32 -9 0 -23 -8 -30 -17 -12 -16 -13

-14 -7 17 3 19 9 37 13 40 3 3 16 12 28 21 18 13 21 20 13 40 -10 24 -10 24

-10 2 -1 -27 -21 -31 -21 -5 0 10 -6 24 -12 30 -17 17 10 36 29 20 10 -8 13

-6 13 6 0 9 -4 16 -9 16 -5 0 -16 2 -23 5 -8 3 -24 -4 -36 -15z"/>

<path d="M4260 13125 c-30 -13 -55 -29 -55 -36 0 -6 -13 -13 -30 -13 -16 -1

-41 -6 -55 -10 -22 -8 -23 -7 -11 8 11 13 11 16 0 16 -13 0 -35 -12 -94 -54

-19 -14 -29 -16 -34 -8 -8 13 -53 3 -89 -19 -17 -11 -24 -11 -34 -1 -9 9 -6

18 17 42 16 16 26 30 23 30 -11 0 -63 -30 -53 -30 20 -1 -20 -20 -41 -20 -12

0 -41 -16 -65 -35 -24 -19 -48 -35 -54 -35 -5 0 -23 -11 -39 -25 -16 -14 -34

-25 -40 -24 -6 0 -6 3 2 6 6 2 12 10 12 16 1 16 36 57 49 57 5 0 21 5 35 12

24 10 24 12 8 24 -25 19 -73 18 -66 -1 4 -9 0 -15 -10 -15 -10 0 -13 6 -10 15

9 22 -5 18 -28 -7 -12 -15 -21 -19 -24 -11 -6 12 -52 -29 -69 -62 -13 -24 -44

-32 -56 -13 -8 10 -11 10 -19 -4 -6 -9 -16 -15 -23 -12 -8 2 -24 -6 -38 -18

-43 -39 -83 -62 -87 -50 -5 17 -22 15 -22 -3 0 -8 7 -15 15 -15 9 0 15 -9 15

-21 0 -15 -4 -19 -16 -15 -9 3 -18 6 -20 6 -2 0 -4 10 -5 23 l0 22 -16 -22

c-9 -13 -26 -23 -39 -23 -13 0 -24 -6 -24 -13 0 -7 -9 -18 -20 -25 -18 -11

-20 -10 -21 10 -2 35 2 53 12 56 15 6 10 22 -6 22 -8 0 -14 -3 -13 -7 4 -14

-14 -58 -31 -77 -17 -20 -126 -76 -148 -76 -23 0 -14 17 17 30 17 7 34 18 38

25 4 6 16 17 27 23 19 11 19 11 -2 12 -13 0 -23 -4 -23 -9 0 -5 -19 -12 -42

-16 -47 -8 -97 -46 -135 -102 -13 -19 -23 -36 -23 -38 0 -9 -37 -42 -54 -48

-11 -5 -16 -13 -12 -23 7 -18 -7 -47 -35 -75 -11 -11 -17 -24 -14 -29 10 -16

-5 -50 -21 -50 -17 0 -18 12 -3 27 7 7 9 19 5 28 -8 22 -54 12 -74 -16 -7 -10

-18 -19 -24 -19 -6 0 -2 10 10 23 12 13 22 29 22 36 0 9 8 11 25 7 18 -5 24

-3 23 6 -2 7 4 14 12 14 8 1 21 2 28 3 6 0 12 8 12 16 0 8 5 15 12 15 6 0 9 3

5 6 -6 6 -70 -26 -75 -38 -2 -5 -12 -3 -23 2 -19 11 -20 10 -23 -10 -1 -11

-25 -30 -38 -30 -3 0 1 23 10 50 9 28 19 50 24 50 4 0 8 6 8 14 0 8 29 32 64

54 58 37 82 64 77 86 -1 4 4 14 10 22 13 15 2 19 -19 6 -8 -5 -10 -16 -6 -27

5 -13 4 -16 -5 -11 -8 6 -11 2 -9 -10 2 -14 -4 -20 -22 -21 -21 -2 -22 -1 -6

5 18 8 18 9 2 15 -28 11 -34 8 -29 -13 4 -15 0 -20 -13 -20 -11 0 -32 -7 -48

-15 -38 -20 -44 -13 -10 14 15 11 21 21 15 21 -15 0 -151 -108 -151 -119 0 -5

-18 -16 -40 -25 -23 -9 -43 -23 -46 -31 -4 -8 -11 -15 -18 -15 -25 -1 -109

-149 -111 -195 -2 -38 -37 -144 -42 -128 -3 9 -10 10 -22 4 -15 -8 -17 -6 -13

18 2 16 -1 32 -7 35 -11 7 -17 -50 -13 -119 1 -16 -1 -37 -5 -45 -9 -23 -11

-80 -2 -80 4 0 7 -21 7 -47 -1 -27 2 -58 6 -70 5 -14 4 -23 -2 -23 -26 0 -50

152 -34 215 8 30 7 54 -2 95 l-13 55 -12 -55 c-19 -90 -20 -147 -4 -217 12

-52 13 -74 4 -103 -6 -21 -11 -53 -11 -71 l0 -34 -20 33 c-11 17 -22 32 -25

32 -2 0 -2 -21 2 -47 5 -41 4 -46 -11 -40 -10 4 -24 7 -32 7 -8 0 -14 5 -14

10 0 6 7 10 15 10 19 0 19 5 1 38 -20 37 -29 64 -31 87 -1 11 -3 36 -4 55 -2

34 -3 34 -12 10 -6 -14 -8 -56 -5 -94 4 -46 2 -72 -5 -77 -8 -5 -8 -12 0 -27

6 -11 11 -29 11 -39 0 -10 7 -31 15 -47 19 -37 19 -76 -1 -90 -16 -12 -9 -51

7 -40 5 3 9 -4 9 -16 0 -11 12 -32 26 -47 14 -14 23 -28 19 -31 -3 -3 -11 0

-17 6 -7 7 -18 12 -26 12 -10 0 -9 -7 5 -30 9 -16 21 -30 25 -30 16 0 7 -30

-12 -40 -24 -13 -26 -30 -5 -30 8 0 15 5 15 10 0 6 6 10 13 10 22 0 48 -77 37

-106 -6 -15 -6 -24 0 -24 6 0 10 -4 10 -10 0 -5 -11 -10 -25 -10 -14 0 -25 5

-25 10 0 9 -25 -1 -54 -23 -30 -21 -86 -55 -130 -77 -51 -26 -54 -31 -81 -124

-13 -45 -14 -60 -5 -66 9 -5 9 -9 1 -14 -27 -17 6 -110 54 -152 14 -12 25 -29

25 -39 0 -12 5 -15 16 -11 9 4 2 -7 -15 -23 -17 -16 -31 -35 -32 -43 -4 -76

-27 -176 -49 -218 -31 -58 -61 -180 -49 -201 5 -11 15 -19 21 -19 7 0 7 -4 0

-12 -6 -8 -9 -56 -6 -123 3 -100 -2 -148 -26 -243 -6 -23 -4 -34 5 -40 9 -4

15 -35 18 -85 3 -44 10 -84 16 -90 6 -6 11 -27 11 -47 0 -20 4 -40 9 -45 5 -6

12 -59 15 -119 4 -59 9 -112 11 -116 3 -5 5 -78 6 -164 0 -85 4 -158 9 -161

12 -7 18 44 31 270 13 226 26 302 57 323 21 14 22 13 22 -11 0 -13 -7 -30 -15

-37 -22 -18 -18 -30 9 -30 14 0 33 11 44 25 23 29 32 32 32 10 0 -22 17 -18

23 6 4 14 10 18 18 13 9 -5 10 -2 6 9 -5 12 -1 17 12 17 26 0 81 53 81 78 0

32 35 104 66 138 33 35 59 84 44 84 -5 0 -18 -12 -27 -27 -20 -30 -53 -62 -66

-63 -14 0 -37 -28 -37 -44 0 -9 -5 -16 -11 -16 -11 0 -5 28 16 73 8 15 9 27 4

27 -15 0 -10 27 11 62 11 18 20 45 20 60 0 14 6 29 13 31 7 4 3 8 -11 12 -14

5 -25 19 -30 39 -8 26 -13 31 -37 29 -44 -3 -55 -10 -55 -35 1 -21 2 -22 14

-5 7 9 26 17 41 17 27 0 28 0 10 -20 -11 -13 -31 -20 -52 -20 -33 0 -34 1 -28

30 5 22 3 30 -8 30 -19 0 -39 88 -25 114 6 11 10 55 10 98 0 63 6 96 33 174

18 53 40 103 48 112 7 10 24 35 37 57 13 22 45 68 72 102 26 35 48 69 48 77 0

8 8 21 18 28 10 7 23 20 28 30 22 40 217 227 263 252 9 5 20 15 24 23 4 7 16

13 26 13 10 0 26 9 37 21 21 24 65 49 97 55 11 2 23 7 26 12 3 5 21 14 40 20

18 7 39 19 45 27 10 14 15 14 46 -2 23 -11 61 -18 109 -19 40 -1 76 -6 80 -10

3 -5 24 -10 46 -10 22 -1 59 -6 83 -12 24 -6 44 -6 48 -1 9 15 36 10 50 -8 11

-15 13 -15 14 -3 0 10 7 7 23 -11 29 -34 67 -43 96 -23 17 13 25 13 37 3 11

-9 18 -9 32 4 16 15 19 15 30 -3 9 -15 20 -18 58 -14 26 2 50 7 55 9 4 3 24

-6 45 -20 20 -14 41 -25 45 -25 5 0 9 -7 9 -15 0 -20 21 -19 66 2 32 16 37 16

47 2 7 -9 19 -18 27 -22 9 -3 10 -6 3 -6 -20 -1 -15 -31 5 -33 9 0 22 -2 29

-2 6 -1 15 -5 19 -9 4 -4 25 -7 46 -7 21 0 38 -4 38 -10 0 -18 83 -51 112 -44

18 3 28 1 28 -6 0 -6 5 -8 11 -5 5 4 19 -1 29 -10 10 -9 23 -14 29 -11 5 4 30

2 54 -4 25 -5 67 -12 93 -15 26 -2 51 -10 55 -16 4 -7 18 -9 39 -4 21 5 35 3

40 -4 4 -7 31 -14 61 -16 30 -3 76 -7 102 -11 35 -4 53 -2 65 9 25 21 232 32

232 11 0 -16 49 -20 51 -4 1 6 3 15 4 20 1 6 3 15 4 20 0 6 11 10 24 11 21 0

21 1 2 9 l-20 9 20 0 c15 1 17 3 7 10 -11 7 -10 9 3 14 9 4 13 3 10 -3 -3 -6

2 -10 12 -11 16 0 16 -1 -2 -8 -16 -6 -13 -9 15 -14 19 -3 44 -8 55 -12 16 -6

17 -5 5 4 -12 9 -6 11 25 7 40 -5 40 -5 -8 10 -56 18 -59 27 -5 15 20 -5 102

-17 182 -27 80 -10 146 -22 146 -26 0 -4 15 -9 33 -9 17 -1 24 -3 15 -6 -10

-2 -18 -9 -18 -14 0 -6 8 -9 18 -7 9 2 16 -2 15 -9 -2 -6 6 -15 17 -18 11 -4

20 -10 20 -15 0 -4 7 -11 16 -14 13 -5 15 -2 11 14 -3 11 -1 22 3 25 5 3 10

-2 12 -11 2 -14 16 -18 63 -19 84 -3 85 -4 83 -17 -4 -17 42 -11 63 9 10 8 18

10 20 4 3 -6 17 -7 41 -2 40 9 77 -6 64 -27 -7 -11 23 -47 32 -37 3 3 0 11 -6

17 -18 18 -14 26 13 24 26 -1 32 -15 15 -32 -7 -7 -1 -9 20 -6 21 3 30 0 30

-10 0 -7 9 -21 20 -31 19 -16 21 -16 27 0 4 9 1 19 -5 21 -7 2 -12 12 -12 22

0 10 -7 20 -15 24 -8 3 -15 12 -15 21 0 11 5 10 23 -7 12 -13 21 -27 19 -32

-2 -5 6 -6 17 -3 12 3 18 0 15 -7 -2 -6 5 -21 16 -33 11 -12 20 -27 20 -32 0

-5 9 -17 21 -25 13 -9 18 -19 14 -27 -5 -7 -2 -17 7 -23 9 -6 17 -19 19 -29 2

-10 7 -17 11 -15 24 10 66 -99 72 -184 3 -33 9 -65 14 -71 5 -7 8 -30 7 -52

-1 -22 0 -44 4 -50 11 -20 12 -57 1 -70 -8 -9 -8 -20 -2 -32 7 -13 6 -24 -4

-38 -15 -21 -10 -50 14 -77 14 -16 13 -18 -1 -18 -10 0 -17 -4 -17 -10 0 -5 5

-10 10 -10 6 0 10 -8 10 -18 0 -11 9 -27 19 -36 20 -19 34 -66 19 -66 -5 0 -6

-19 -3 -42 3 -24 2 -69 -3 -100 -6 -36 -5 -59 1 -61 5 -1 10 -23 11 -48 3 -56

12 -72 37 -64 11 4 27 1 36 -7 14 -12 13 -14 -12 -18 -35 -6 -38 -21 -7 -35

14 -6 22 -19 23 -35 2 -69 24 -160 40 -171 9 -5 14 -39 16 -111 2 -57 8 -128

14 -158 6 -30 11 -77 11 -105 0 -27 3 -54 8 -60 5 -6 9 -24 9 -40 -1 -17 9

-84 21 -150 41 -235 61 -653 31 -688 -7 -10 -22 -170 -22 -243 0 -11 -8 -30

-18 -41 -20 -21 -25 -103 -7 -100 5 1 11 -4 13 -12 4 -9 0 -11 -15 -7 -17 6

-19 2 -17 -36 1 -24 0 -60 -3 -81 -4 -30 -7 -35 -18 -26 -11 9 -14 7 -14 -10

0 -11 5 -21 11 -21 6 0 9 -8 7 -17 -5 -28 -29 -21 -47 12 -9 17 -24 41 -34 55

-17 24 -17 24 -17 2 0 -12 9 -31 20 -42 11 -11 20 -23 20 -26 0 -3 7 -13 16

-22 11 -10 13 -17 5 -20 -15 -5 -14 -18 5 -37 25 -24 9 -30 -17 -6 -22 20 -39

27 -39 16 0 -3 16 -28 36 -55 20 -28 33 -54 30 -58 -4 -3 -11 0 -17 8 -8 13

-10 13 -19 0 -5 -8 -8 -22 -5 -30 2 -8 7 -28 10 -45 6 -28 5 -28 -17 9 -24 41

-48 58 -48 34 0 -7 9 -24 19 -37 10 -14 17 -31 14 -38 -8 -19 -21 -16 -28 8

-7 20 -7 20 -22 2 -8 -10 -12 -13 -9 -7 3 6 -4 20 -14 32 -11 12 -20 26 -20

32 0 6 -5 8 -10 5 -6 -4 -3 -17 10 -34 10 -16 16 -31 13 -35 -4 -3 0 -12 9

-19 17 -13 30 -67 17 -67 -15 0 -10 -33 8 -53 18 -19 27 -77 13 -77 -9 0 -20

25 -20 48 0 16 -57 72 -72 72 -14 0 -8 -12 16 -35 14 -13 28 -40 32 -61 3 -22

11 -45 17 -52 5 -7 7 -16 3 -19 -4 -4 -11 -1 -16 7 -5 8 -12 12 -15 8 -4 -3 1

-18 11 -33 17 -25 17 -29 0 -78 -10 -29 -20 -59 -22 -67 -5 -13 -6 -13 -14 0

-7 10 -10 11 -10 3 0 -8 -15 -13 -40 -13 -40 0 -48 -7 -31 -26 5 -5 5 -35 0

-72 -6 -40 -5 -70 1 -81 17 -32 -3 -32 -22 0 -38 63 -121 140 -135 125 -9 -8

36 -64 57 -71 11 -4 20 -11 20 -16 0 -14 -40 -11 -46 5 -6 16 -58 16 -75 -1

-8 -8 -9 -20 -1 -42 8 -21 8 -31 1 -31 -6 0 1 -14 15 -31 14 -17 26 -35 26

-40 0 -5 11 -9 25 -9 24 0 65 -44 52 -56 -3 -3 -10 4 -17 15 -12 24 -46 30

-36 6 20 -49 20 -51 -1 -29 -11 11 -28 37 -38 58 -10 21 -28 41 -40 46 -12 5

-37 24 -55 44 -24 25 -37 33 -45 25 -7 -7 -6 -12 3 -18 7 -4 10 -15 6 -24 -5

-13 0 -17 20 -17 34 0 76 -27 70 -45 -3 -8 5 -19 18 -26 28 -15 39 -30 33 -46

-2 -7 0 -15 5 -18 6 -4 10 -16 10 -28 -1 -20 -3 -20 -28 9 -24 29 -29 30 -41

16 -13 -13 -11 -18 16 -41 16 -14 33 -38 37 -53 8 -35 -1 -37 -14 -3 -12 33

-44 35 -35 3 l7 -23 -17 23 c-9 12 -13 28 -10 35 4 6 0 4 -8 -6 -13 -16 -15

-16 -28 0 -11 13 -11 17 -1 20 6 3 12 9 12 15 0 6 -7 8 -15 4 -9 -3 -21 4 -31

19 -21 32 -44 33 -36 3 3 -13 11 -27 19 -31 7 -4 13 -15 13 -22 0 -8 4 -15 8

-15 10 0 35 -51 28 -57 -3 -3 -19 5 -36 17 -17 12 -33 20 -35 18 -7 -7 85

-118 98 -118 8 0 8 -3 -2 -9 -8 -5 -24 -3 -40 5 -14 8 -32 14 -38 14 -23 0

-13 -15 19 -31 17 -8 33 -20 35 -26 6 -17 -39 -23 -61 -7 -26 18 -36 18 -36

-1 0 -9 11 -21 25 -27 26 -12 58 -52 48 -61 -3 -3 -18 -3 -34 0 l-28 5 6 -63

5 -64 -24 25 c-29 29 -66 60 -73 60 -11 0 -4 -29 11 -40 21 -18 54 -89 44 -95

-5 -3 -11 3 -14 12 -6 18 -67 66 -74 58 -2 -2 7 -20 21 -40 23 -34 24 -39 13

-82 -7 -26 -17 -48 -24 -51 -7 -2 -12 1 -12 6 0 13 -50 65 -56 59 -3 -3 4 -15

15 -26 15 -15 21 -34 21 -66 0 -25 -4 -45 -10 -45 -5 0 -10 5 -10 12 0 6 -2 9

-5 6 -8 -7 26 -78 37 -78 4 0 8 -10 8 -22 0 -17 -3 -19 -12 -10 -19 19 -38 14

-38 -9 0 -20 -3 -19 -39 12 -22 19 -40 42 -40 52 -1 20 -17 23 -23 5 -3 -7 10

-26 29 -42 25 -22 33 -38 33 -63 0 -18 -4 -33 -9 -33 -5 0 -7 -9 -4 -20 6 -23

-12 -27 -21 -5 -3 8 -26 25 -51 37 -25 12 -45 26 -45 30 0 4 -8 8 -18 8 -10 0

-25 9 -35 20 -15 18 -15 20 -1 20 11 0 14 5 10 16 -3 9 -6 27 -6 40 0 17 -6

24 -19 24 -29 0 -35 68 -8 97 13 14 18 31 15 47 -7 34 -3 33 33 -9 29 -33 49

-44 49 -27 0 4 -16 25 -36 47 -37 42 -59 83 -48 94 3 3 11 -2 18 -12 15 -20

38 -23 35 -4 -3 27 2 47 12 47 6 0 9 -9 6 -19 -4 -15 -1 -18 12 -13 15 6 15 4

0 -18 -16 -23 -15 -27 2 -61 10 -20 27 -39 38 -42 23 -6 19 11 -11 56 -18 25

-16 31 5 28 12 -2 8 19 -10 49 -16 28 -16 29 30 80 26 29 47 58 47 65 0 7 3

20 6 29 3 9 2 16 -4 16 -6 0 -15 -13 -20 -28 -11 -31 -68 -102 -83 -102 -5 0

-16 11 -24 24 -14 20 -14 29 -4 47 10 20 9 25 -10 37 -11 8 -21 23 -21 34 0

10 -4 17 -9 14 -5 -3 -11 4 -15 17 -9 36 -7 44 7 18 6 -13 23 -28 36 -33 24

-8 24 -8 8 10 -9 10 -17 29 -18 43 0 22 -1 23 -9 4 -7 -17 -9 -17 -9 -2 -1 9

-5 17 -9 17 -5 0 -7 13 -4 29 3 22 -3 37 -27 62 -38 39 -40 58 -6 35 15 -10

34 -14 45 -11 28 9 25 25 -4 25 -34 0 -56 10 -56 25 0 8 8 11 20 8 26 -7 26

13 0 27 -10 6 -17 16 -14 24 8 21 -38 69 -58 61 -9 -4 -14 -13 -11 -21 3 -8 0

-14 -6 -14 -6 0 -11 9 -11 20 0 12 -7 20 -17 20 -16 1 -16 2 1 15 18 14 18 15

2 21 -18 7 -18 32 0 77 5 15 3 17 -19 12 -23 -6 -25 -4 -29 37 -2 24 -1 45 4

46 4 2 8 8 8 13 0 12 -27 12 -32 -1 -1 -5 -9 -6 -15 -2 -10 7 -10 14 0 35 6

15 17 27 24 27 17 0 -16 62 -36 67 -18 5 -25 39 -10 48 5 4 9 15 9 26 0 14 -7

19 -25 19 -16 0 -25 6 -25 15 0 19 -19 19 -26 0 -4 -8 -14 -15 -23 -15 -14 1

-14 2 2 14 19 15 23 51 7 61 -8 5 -8 11 0 20 16 19 2 43 -31 50 -34 8 -46 23

-25 31 21 8 21 34 1 34 -22 0 0 41 26 47 23 6 25 23 3 23 -8 0 -26 13 -40 29

-13 16 -35 32 -49 35 -31 8 -32 22 -3 32 20 6 20 8 5 19 -9 7 -17 22 -17 33 0

11 -4 24 -10 27 -5 3 -10 -1 -10 -9 0 -14 -37 -33 -46 -23 -6 6 16 48 31 60 6

5 -2 7 -17 4 -18 -3 -25 0 -21 9 2 6 0 15 -6 19 -6 3 -11 15 -11 27 0 15 -5

19 -20 15 -16 -4 -20 0 -20 19 0 16 -9 28 -29 38 -33 18 -48 56 -26 69 8 4 15

15 15 22 0 8 5 15 10 15 6 0 10 5 10 10 0 6 -8 10 -17 10 -9 0 -25 8 -35 17

-18 16 -21 16 -54 -2 l-36 -19 -19 24 c-10 14 -19 35 -19 48 0 28 -25 29 -40

2 -12 -22 -32 -28 -24 -6 3 8 -3 15 -14 18 -11 3 -21 18 -25 36 -6 28 -51 85

-60 76 -10 -11 28 -148 62 -219 20 -44 58 -125 85 -181 92 -197 100 -301 29

-379 -30 -33 -37 -36 -56 -27 -12 7 -44 14 -72 17 -27 2 -57 6 -65 7 -8 1 -46

-12 -83 -30 -38 -18 -75 -32 -83 -32 -8 0 -51 -29 -95 -65 -43 -35 -90 -67

-104 -71 -27 -7 -55 10 -55 32 0 7 -13 22 -30 34 -25 18 -28 25 -19 41 5 11 7

29 4 40 -6 16 -12 19 -36 14 -25 -6 -29 -4 -29 15 0 11 7 23 16 27 11 4 5 10

-21 19 -21 7 -44 10 -51 7 -8 -3 -14 0 -14 6 0 6 -6 11 -14 11 -8 0 -18 9 -21

20 -5 16 -12 19 -28 15 -19 -5 -20 -5 -4 5 21 14 22 36 1 48 -15 8 -14 11 5

24 19 13 19 16 5 34 -11 13 -17 15 -20 7 -3 -8 -23 -13 -46 -13 -36 0 -39 2

-34 23 3 12 3 16 0 10 -9 -21 -27 -15 -21 6 5 22 -44 74 -81 85 -12 4 -30 18

-41 32 -13 17 -21 20 -24 12 -3 -8 -6 -6 -6 5 -1 9 -5 17 -10 17 -16 0 -23

-20 -12 -34 13 -16 4 -26 -23 -26 -34 0 -65 -27 -59 -50 5 -19 3 -21 -39 -24

-8 -1 -12 8 -10 22 3 19 0 23 -19 20 -17 -2 -26 -16 -40 -58 -10 -30 -19 -56

-19 -56 -1 -8 -87 -34 -110 -34 -25 0 -30 4 -30 25 0 34 37 149 64 200 11 22

40 66 63 97 57 75 83 129 128 267 21 63 48 125 59 136 12 12 20 27 18 34 -8

23 33 143 55 165 13 11 23 29 23 39 0 10 7 25 15 33 8 9 15 26 15 40 0 13 4

24 8 24 12 0 8 51 -7 85 -29 68 -11 289 35 420 50 143 65 171 137 248 22 23

25 32 15 39 -8 6 -1 8 22 6 33 -3 35 -1 35 27 0 16 5 30 12 30 6 0 15 3 19 8

4 4 16 7 27 7 13 0 17 5 13 15 -3 9 0 15 7 15 7 0 22 7 33 15 18 15 18 15 1

29 -11 8 -24 13 -30 10 -13 -4 -47 56 -47 81 0 8 -4 15 -10 15 -5 0 -10 12 -9

28 0 15 3 21 6 14 4 -9 8 -10 18 -2 8 7 15 7 19 1 4 -6 19 -5 42 2 l35 11 -23

19 -23 18 39 -6 c29 -5 37 -3 34 7 -3 8 -20 13 -43 13 -31 0 -39 4 -47 25 -7

18 -5 27 6 36 23 16 20 24 -10 24 -23 0 -25 3 -20 25 4 17 2 25 -6 26 -7 0 -3

4 10 10 24 9 22 29 -2 29 -8 0 -16 9 -19 20 -3 11 0 20 5 20 6 0 4 8 -5 18

-10 10 -17 23 -17 29 0 16 -29 24 -65 17 -19 -3 -35 -1 -39 5 -11 17 -46 14

-40 -4 4 -10 0 -15 -14 -15 -11 0 -25 -7 -32 -15 -14 -17 -50 -20 -50 -4 0 6

-18 9 -45 8 -24 -2 -47 0 -51 4 -12 11 -25 8 -23 -5 3 -27 -2 -36 -22 -41 -12

-3 -18 -10 -14 -17 5 -8 11 -8 21 1 8 6 17 9 20 6 10 -10 -5 -39 -16 -32 -5 3

-10 1 -10 -4 0 -6 -7 -11 -15 -11 -8 0 -15 -4 -15 -9 0 -5 -7 -12 -16 -15 -15

-6 -15 -4 0 18 20 32 20 46 0 46 -17 0 -44 23 -44 38 0 5 -10 7 -23 5 -14 -3

-29 2 -36 11 -8 9 -21 16 -30 16 -10 0 -33 11 -52 25 -24 19 -41 24 -59 20

-24 -6 -24 -6 -5 15 10 11 25 18 32 16 17 -7 16 5 -3 32 -8 12 -20 19 -27 15

-7 -4 -4 -9 9 -14 18 -6 18 -7 2 -14 -28 -11 -48 2 -48 32 0 19 -3 24 -9 15

-6 -10 -10 -10 -21 2 -7 9 -17 13 -22 10 -5 -3 -12 3 -15 15 -3 12 -9 21 -14

21 -5 0 -9 8 -9 18 -1 27 -31 59 -72 76 -21 8 -38 20 -38 25 0 6 -9 11 -20 11

-11 0 -20 -5 -20 -11 0 -5 -4 -8 -9 -4 -5 3 -12 1 -16 -5 -3 -5 -15 -10 -26

-10 -10 0 -19 -7 -19 -15 0 -8 -4 -15 -10 -15 -15 0 -12 -27 3 -33 19 -7 21

-111 2 -127 -10 -9 -15 -9 -15 -1 0 6 -5 11 -12 11 -9 0 -9 -3 0 -12 24 -24

12 -33 -43 -31 -30 1 -55 -3 -55 -7 0 -5 -8 -14 -18 -19 -19 -10 -98 4 -116

20 -28 25 -79 -8 -56 -36 10 -12 10 -15 -3 -15 -9 0 -19 5 -22 10 -7 12 -95

14 -95 2 0 -4 -16 -12 -35 -18 -28 -9 -35 -8 -35 2 0 8 -7 14 -15 14 -8 0 -15

-5 -15 -10 0 -6 -10 -14 -23 -19 -12 -5 -46 -28 -75 -51 -29 -23 -68 -46 -85

-53 -18 -6 -38 -15 -44 -21 -7 -6 -32 -27 -56 -46 -24 -19 -64 -61 -88 -92

-70 -90 -74 -83 -30 59 12 42 -3 52 -23 16 -8 -15 -15 -24 -16 -20 0 11 -32

-22 -59 -61 -21 -30 -22 -37 -12 -79 10 -40 10 -47 -6 -60 -10 -8 -12 -12 -5

-8 29 15 35 -83 7 -130 -6 -11 -11 -30 -10 -43 1 -12 -1 -25 -6 -28 -16 -10 3

-33 33 -39 l30 -7 -38 -24 c-37 -22 -38 -24 -16 -30 22 -6 26 -31 4 -27 -7 2

-9 -16 -7 -48 3 -40 1 -50 -10 -46 -10 4 -12 -2 -8 -26 3 -22 0 -35 -13 -44

-10 -7 -12 -13 -6 -13 13 0 12 -70 -2 -100 -10 -24 -25 -176 -30 -309 -5 -136

1 -165 48 -213 14 -15 26 -32 26 -38 0 -5 5 -10 10 -10 6 0 10 8 10 18 1 26

59 -47 60 -74 0 -19 7 -23 47 -26 38 -3 47 0 51 14 5 22 42 24 42 3 0 -9 12

-20 26 -25 14 -6 28 -19 31 -30 3 -11 14 -20 24 -20 29 0 22 -27 -8 -35 l-28

-7 30 -13 30 -13 -28 -1 c-20 -1 -27 -6 -25 -17 4 -24 -48 -28 -64 -5 -17 24

-81 39 -72 18 8 -22 -25 -29 -60 -12 -28 15 -32 14 -43 -1 -7 -10 -10 -27 -7

-39 7 -27 -19 -55 -44 -48 -12 3 -22 -2 -26 -12 -9 -25 2 -37 25 -25 15 8 19

7 19 -4 0 -8 6 -16 13 -19 7 -3 0 -9 -16 -16 -15 -6 -30 -18 -33 -26 -4 -8

-14 -15 -24 -15 -10 0 -28 -11 -41 -25 -13 -13 -27 -25 -30 -25 -3 0 -12 71

-19 158 -15 185 -9 423 17 730 15 170 16 212 6 212 -7 0 -13 -9 -13 -21 0 -11

-7 -27 -16 -36 -8 -9 -12 -23 -9 -31 3 -9 8 -37 11 -62 5 -44 5 -44 -10 -19

-8 14 -27 34 -41 43 l-25 16 -2 -187 c-5 -303 -3 -333 20 -423 33 -133 42

-186 42 -255 0 -64 -6 -80 -27 -67 -16 11 -27 72 -13 72 9 0 9 4 2 13 -5 6

-12 32 -15 57 -3 25 -9 61 -14 80 l-9 35 -7 -32 c-7 -37 -36 -45 -44 -13 -5

20 -7 20 -24 4 -15 -13 -19 -31 -19 -81 0 -41 4 -63 12 -63 6 0 19 -7 29 -15

13 -13 15 -24 9 -53 -5 -20 -11 -100 -14 -177 -3 -77 -7 -154 -9 -171 -6 -50

-28 -96 -43 -90 -16 6 -16 7 -19 -63 -1 -29 -6 -56 -11 -60 -16 -11 -34 -60

-34 -92 0 -18 -4 -28 -10 -24 -6 4 -10 -10 -10 -36 0 -23 -3 -39 -7 -35 -5 4

-8 101 -8 216 0 115 -3 212 -8 216 -22 22 -37 -38 -62 -246 -9 -69 -31 -193

-51 -277 -19 -83 -41 -211 -49 -285 -7 -73 -18 -162 -24 -198 -5 -36 -12 -99

-16 -140 -11 -135 -35 -322 -71 -535 -20 -115 -39 -237 -44 -270 -4 -33 -11

-71 -14 -85 -3 -14 -17 -128 -32 -255 -14 -126 -32 -261 -41 -300 -8 -38 -16

-79 -19 -90 -21 -103 -4 -97 -494 -180 -151 -25 -302 -51 -335 -56 -33 -5 -75

-11 -92 -14 l-33 -6 0 -324 0 -325 43 -1 c156 -3 226 8 212 32 -4 5 2 12 12

15 43 13 87 37 121 64 83 66 187 73 342 23 41 -13 108 -26 150 -29 41 -4 96

-12 121 -19 53 -15 158 -7 183 14 21 18 70 46 126 73 38 19 64 22 170 24 69 1

153 6 187 12 49 8 74 7 120 -4 32 -9 68 -18 80 -21 35 -8 215 29 364 76 66 21

97 40 192 119 42 35 119 82 134 82 2 0 3 -7 3 -15 0 -8 -7 -15 -15 -15 -11 0

-15 -11 -15 -38 0 -26 -7 -45 -20 -57 -11 -10 -20 -23 -20 -28 0 -8 -52 -78

-85 -113 -11 -11 -38 -47 -80 -104 -14 -19 -25 -40 -25 -47 0 -7 -4 -13 -9

-13 -5 0 -13 -9 -16 -20 -3 -11 -13 -26 -20 -34 -8 -8 -19 -44 -25 -80 -6 -37

-19 -85 -30 -109 -25 -56 -32 -77 -35 -108 -1 -14 -17 -57 -34 -95 -44 -94

-45 -95 -85 -214 -20 -58 -38 -123 -41 -144 -2 -22 -9 -54 -16 -73 -6 -18 -12

-48 -13 -66 -5 -54 -27 -181 -36 -202 -5 -11 -11 -29 -13 -40 -2 -11 -8 -19

-13 -18 -5 1 -21 -7 -34 -18 -22 -18 -22 -19 -3 -10 37 18 40 12 8 -17 -17

-15 -26 -24 -20 -21 5 3 19 9 29 13 20 7 20 7 0 -15 l-19 -22 23 12 c30 16 28

6 -4 -24 -15 -14 -22 -25 -17 -25 6 0 16 7 23 15 17 21 42 19 39 -2 -1 -10 1

-26 6 -36 8 -20 -12 -50 -28 -40 -6 4 -7 1 -3 -6 5 -7 14 -10 22 -7 19 7 28

-12 14 -29 -8 -10 -8 -15 4 -22 12 -7 18 -34 23 -108 3 -55 5 -119 4 -142 -1

-26 3 -43 10 -43 6 0 8 -7 5 -16 -3 -8 -2 -24 4 -34 5 -9 12 -57 14 -105 3

-56 9 -91 18 -96 7 -5 12 -29 12 -63 0 -31 4 -56 8 -56 12 0 9 -28 -3 -32 -8

-3 -9 -10 -2 -23 6 -11 13 -32 17 -48 6 -24 4 -27 -21 -28 -26 0 -26 -1 -7 -9

34 -13 37 -27 12 -51 l-23 -21 23 11 c26 14 44 7 36 -14 -4 -8 -11 -12 -17 -8

-6 3 -7 1 -3 -6 4 -6 11 -9 15 -7 12 8 33 -81 26 -106 -6 -19 -5 -21 6 -10 11

10 18 0 41 -55 15 -38 27 -78 27 -90 1 -12 6 -25 11 -28 19 -12 10 -35 -12

-35 -18 0 -20 2 -9 9 12 8 12 11 0 23 -8 8 -21 17 -29 20 -8 2 -15 15 -15 29

0 27 -18 28 -69 3 -17 -8 -34 -10 -45 -5 -9 5 -23 6 -31 3 -12 -4 -13 -2 -3 9

20 20 15 31 -9 25 -13 -3 -17 -3 -10 0 16 7 16 31 0 38 -10 5 -10 7 0 12 19 9

14 21 -13 28 -31 8 -32 20 -3 40 l22 16 -23 0 c-20 0 -21 2 -11 15 10 12 10

15 -4 15 -9 0 -16 -5 -16 -11 0 -5 -5 -7 -11 -3 -8 5 -8 9 1 14 7 4 9 13 5 20

-4 6 -2 22 5 35 7 14 9 31 5 42 -4 10 -8 31 -9 46 -1 19 -9 32 -26 40 -17 9

-24 20 -21 33 9 46 0 162 -15 185 -4 8 -3 9 4 5 7 -4 20 -2 29 4 17 11 17 11

0 6 -28 -9 -57 11 -57 39 0 13 -8 39 -18 57 -23 40 -35 108 -23 127 6 9 4 19

-4 28 -8 7 -12 20 -8 29 3 9 0 14 -8 12 -9 -2 -14 7 -15 27 -1 63 -16 106 -40

117 -13 6 -24 17 -24 25 0 7 -4 13 -9 13 -12 0 -21 63 -10 74 11 13 12 26 0

26 -5 0 -14 -14 -21 -31 -9 -21 -15 -26 -21 -18 -4 7 -5 17 -3 21 3 4 2 8 -3

8 -10 0 -10 58 0 88 5 12 15 22 22 22 29 0 42 69 21 111 -8 15 -10 33 -5 40 4

7 5 17 2 21 -2 5 1 15 7 23 6 8 9 18 6 24 -7 10 20 134 34 160 4 9 10 30 14

46 8 46 36 124 68 186 32 64 81 180 107 255 32 87 98 217 135 264 19 25 65 76

101 115 36 38 65 73 65 77 0 4 -17 0 -38 -9 -49 -23 -49 -23 -32 -33 13 -8 12

-10 -2 -10 -10 0 -18 5 -18 10 0 6 -17 10 -37 9 -37 -1 -38 -1 -11 -11 16 -5

28 -14 28 -18 0 -13 -33 -28 -49 -22 -7 2 -16 0 -20 -5 -3 -5 -15 -15 -26 -22

-18 -11 -18 -11 10 -10 64 3 68 -2 32 -41 -12 -14 -42 -50 -67 -80 -25 -30

-48 -56 -52 -58 -5 -2 -8 -11 -8 -20 -1 -24 -26 -56 -35 -43 -3 6 -15 11 -26

11 -21 0 -27 29 -6 32 6 0 17 2 22 2 24 3 36 18 25 31 -9 11 -16 11 -38 -1

-15 -8 -35 -14 -44 -14 -13 0 -18 -8 -18 -31 0 -22 -5 -32 -20 -36 -21 -6 -25

-20 -11 -41 6 -10 10 -10 21 3 8 10 27 15 56 13 24 0 44 -3 44 -4 0 -2 -5 -15

-12 -29 -9 -21 -17 -25 -37 -20 -39 8 -58 -9 -26 -23 29 -13 34 -42 8 -42 -14

0 -15 -2 -5 -9 10 -6 9 -21 -8 -72 -12 -35 -31 -82 -41 -105 -10 -22 -19 -45

-19 -52 0 -6 -9 -26 -19 -44 -11 -18 -24 -51 -30 -73 -27 -98 -51 -215 -51

-245 0 -19 -7 -38 -16 -45 -10 -7 -18 -31 -20 -68 -3 -32 -9 -69 -14 -83 -6

-14 -10 -49 -10 -79 0 -30 -5 -57 -11 -61 -8 -5 -9 -29 -5 -78 4 -39 7 -79 7

-89 0 -22 -33 -50 -42 -36 -3 5 -14 0 -24 -11 -18 -20 -18 -20 22 -20 36 0 42

-3 47 -26 7 -27 -4 -48 -36 -72 -10 -7 -18 -19 -18 -25 0 -7 -9 -18 -21 -25

-13 -8 -19 -21 -17 -35 5 -33 31 -27 40 10 6 25 12 30 28 26 12 -3 19 -8 16

-10 -3 -3 -1 -15 4 -28 7 -17 4 -27 -8 -39 -13 -11 -17 -26 -14 -56 4 -35 9

-43 33 -52 38 -13 37 -21 -5 -43 -28 -15 -32 -21 -21 -29 8 -6 19 -23 24 -38

8 -21 6 -31 -10 -51 -22 -29 -28 -92 -11 -125 39 -75 39 -74 12 -100 -45 -41

-46 -183 -2 -250 9 -14 19 -49 22 -76 3 -32 10 -50 17 -49 13 3 63 -57 63 -74

0 -6 7 -13 15 -17 8 -3 12 -12 9 -21 -3 -8 -1 -15 5 -15 6 0 11 -9 11 -19 0

-11 5 -23 10 -26 6 -4 8 -10 5 -15 -3 -4 2 -21 10 -36 8 -16 15 -34 15 -40 0

-7 7 -14 15 -18 11 -4 13 -16 9 -50 -6 -39 -3 -49 20 -76 14 -17 26 -39 26

-49 0 -9 9 -24 20 -34 17 -14 19 -24 14 -57 -5 -28 -3 -40 5 -40 8 0 10 -8 6

-20 -4 -12 0 -31 9 -45 9 -13 16 -29 16 -34 0 -5 5 -22 12 -38 6 -15 12 -30

13 -33 0 -3 9 -21 20 -40 10 -19 19 -39 20 -45 0 -5 6 -20 13 -32 l13 -23

-988 -3 c-543 -1 1039 -2 3517 -2 2478 0 4357 2 4177 5 l-329 5 22 25 c36 40

43 70 23 86 -10 7 -24 14 -30 14 -14 0 -14 1 -18 40 -1 13 -8 26 -14 28 -6 2

-11 10 -11 18 0 8 -7 14 -16 14 -14 0 -16 8 -10 48 3 26 1 54 -4 62 -8 12 -10

11 -10 -7 0 -13 -5 -23 -11 -23 -5 0 -8 -4 -4 -9 3 -6 1 -27 -3 -49 -5 -21 -7

-53 -4 -70 4 -28 7 -31 28 -26 28 7 30 2 38 -88 l5 -68 -46 0 -46 0 6 39 c4

34 1 41 -24 60 -17 12 -29 31 -29 44 0 45 -5 82 -12 87 -4 3 -3 22 1 43 5 21

5 37 0 37 -12 0 -40 70 -33 81 3 5 -1 12 -10 15 -26 10 -41 84 -17 84 4 0 16

-25 26 -55 11 -30 23 -55 28 -55 9 0 33 -60 29 -72 -1 -5 7 -8 18 -8 15 0 20

7 20 30 0 16 -6 41 -12 56 -10 22 -10 28 0 32 6 2 12 8 12 14 0 12 -39 48 -51

48 -18 0 -61 103 -56 133 3 23 0 31 -15 35 -10 2 -18 8 -18 13 0 5 -12 14 -26

19 -14 6 -23 14 -20 19 3 5 0 11 -8 14 -9 3 -12 15 -9 31 4 19 1 26 -11 26

-10 0 -16 -8 -16 -22 0 -19 -3 -18 -25 12 -14 19 -25 40 -25 47 0 8 -7 27 -15

43 -12 23 -13 34 -3 55 11 24 9 29 -26 62 -26 25 -36 42 -33 55 3 11 0 22 -9

25 -8 3 -14 16 -14 28 0 13 -5 27 -10 30 -6 4 -8 15 -5 26 4 11 2 19 -5 19 -6

0 -15 12 -21 28 -7 15 -16 37 -22 50 -8 18 -8 25 2 31 9 6 10 11 2 15 -6 4

-11 16 -11 27 0 10 -4 19 -10 19 -5 0 -10 12 -10 28 -1 26 -1 26 -15 8 -14

-19 -15 -18 -15 12 0 20 -6 35 -15 38 -8 4 -15 12 -15 20 0 7 -11 37 -24 66

-13 29 -27 69 -30 89 -4 20 -15 44 -25 53 -10 9 -26 43 -36 74 -10 31 -24 64

-31 73 -8 8 -14 27 -14 41 0 15 -7 39 -15 55 -17 32 -47 102 -50 119 -2 6 -10

27 -19 45 -8 19 -15 43 -15 54 1 26 -15 73 -56 160 -35 74 -49 119 -34 109 16

-10 9 9 -16 42 -14 18 -25 39 -25 48 0 8 -5 18 -10 21 -6 4 -10 14 -9 23 1 10

0 24 -4 32 -8 22 -21 73 -22 90 -1 8 -7 28 -13 43 -7 16 -12 43 -12 61 0 18

-3 36 -7 40 -8 8 -9 13 -12 41 0 8 -5 15 -9 15 -9 0 -7 -245 2 -340 3 -30 7

-104 9 -165 2 -60 8 -122 14 -136 7 -15 8 -31 3 -39 -5 -9 -5 -19 1 -27 6 -6

8 -21 4 -33 -4 -12 -2 -26 3 -33 8 -10 24 -83 27 -127 1 -8 4 -22 8 -30 3 -8

8 -28 10 -43 2 -16 9 -32 16 -36 10 -7 10 -13 2 -30 -9 -16 -8 -32 4 -68 9

-26 20 -52 25 -58 4 -5 11 -28 15 -50 3 -22 10 -49 15 -60 19 -46 24 -62 27

-93 2 -19 15 -49 28 -66 14 -18 25 -46 25 -62 0 -17 5 -35 12 -42 7 -7 13 -24

14 -40 1 -15 2 -35 3 -45 0 -10 12 -22 25 -27 33 -12 42 -31 23 -45 -15 -11

-14 -14 8 -35 33 -31 56 -99 41 -123 -9 -14 -7 -21 7 -31 11 -8 15 -20 11 -30

-4 -11 3 -27 21 -46 23 -24 26 -32 16 -44 -13 -16 -3 -41 34 -84 17 -20 17

-22 2 -16 -10 3 -17 1 -17 -5 0 -6 5 -11 10 -11 18 0 11 -20 -7 -20 -14 -1

-12 -5 10 -21 25 -19 40 -48 17 -34 -5 3 -10 2 -10 -3 0 -6 6 -12 14 -15 9 -4

12 -14 9 -27 -4 -15 1 -26 16 -36 26 -18 27 -41 4 -46 -13 -3 -6 -10 25 -26

41 -22 57 -52 27 -52 -24 0 -17 -20 10 -30 15 -6 25 -17 25 -30 0 -11 7 -23

15 -26 24 -9 17 -23 -7 -16 -21 5 -22 4 -9 -11 8 -10 28 -17 47 -17 40 0 49

-12 30 -42 -10 -16 -12 -35 -7 -63 l8 -40 18 38 c20 40 22 41 45 27 12 -8 13

-13 3 -29 -13 -21 -20 -121 -10 -138 4 -6 4 -18 1 -27 -6 -15 -152 -16 -1595

-16 -874 0 -1589 2 -1589 5 0 3 17 28 38 54 20 27 54 73 75 103 21 29 60 78

87 108 65 73 160 191 160 199 1 3 23 31 51 61 28 30 60 72 72 92 11 21 25 38

29 38 5 0 6 5 3 10 -5 8 -11 7 -21 -1 -8 -7 -14 -7 -14 -1 0 10 25 24 47 26

13 1 48 54 59 88 4 10 10 18 14 18 4 0 17 22 29 50 12 27 27 53 35 57 7 4 39

44 70 88 42 58 56 85 52 101 -3 13 -3 30 0 38 6 15 7 15 19 0 13 -18 12 -19

42 31 7 11 21 38 31 59 18 39 18 39 -5 64 -26 28 -27 31 -13 52 8 12 10 11 10

-6 0 -37 27 -36 49 0 12 18 21 38 21 43 0 6 9 18 21 29 l21 19 -22 17 c-14 11

-20 24 -16 34 5 13 9 14 21 4 17 -14 38 -3 31 16 -3 8 -2 14 2 14 4 0 13 15

21 33 8 17 22 40 33 50 28 28 22 37 -26 37 -46 0 -68 13 -41 24 8 3 21 3 29 0

15 -6 46 76 46 122 0 15 8 33 18 40 11 9 13 13 4 14 -16 0 -30 -14 -55 -53

-18 -28 -18 -29 0 -43 17 -13 17 -13 0 -14 -18 0 -99 -49 -105 -63 -2 -4 -8

-5 -12 -2 -5 3 0 15 11 26 11 11 19 25 16 32 -3 10 15 36 52 74 20 21 9 24

-24 7 -17 -9 -39 -18 -49 -20 -11 -2 -24 -9 -29 -16 -11 -16 -6 -3 13 37 8 17

20 33 26 37 6 4 9 19 6 33 -2 15 0 25 7 25 6 0 11 -4 11 -10 0 -5 5 -10 11

-10 7 0 9 9 6 21 -3 12 -3 18 0 15 8 -8 45 42 39 53 -3 5 1 12 10 15 9 4 14 9

11 13 -4 3 1 12 11 19 16 13 16 13 -1 14 -10 0 -38 -5 -62 -11 -48 -12 -93 -5

-65 10 8 5 31 11 50 15 40 8 56 19 88 60 16 21 19 32 11 42 -7 9 -5 24 11 53

16 33 26 41 47 41 23 0 25 -2 12 -12 -8 -7 -23 -23 -34 -36 -16 -20 -17 -25

-5 -32 23 -15 50 -12 50 5 0 8 9 20 20 27 11 7 20 19 20 26 0 6 9 20 20 29 11

10 20 22 20 27 0 5 7 17 16 27 14 16 14 20 -8 51 -12 18 -24 35 -25 37 -1 2

-9 1 -18 -3 -15 -5 -14 -9 4 -32 27 -34 26 -45 -2 -72 -25 -24 -61 -30 -54 -9

2 6 10 12 18 12 16 0 38 24 39 43 0 19 -28 14 -47 -8 -33 -38 -39 -23 -17 47

5 17 5 17 -6 1 -12 -19 -40 -25 -40 -8 0 5 9 14 20 20 11 6 17 16 14 25 -7 18

7 20 24 3 9 -9 12 -9 12 0 0 7 10 17 23 22 12 5 16 9 9 9 -7 1 -10 6 -7 12 5

6 12 4 20 -7 12 -17 14 -17 29 -1 14 14 15 17 3 17 -30 0 -29 34 0 57 25 21

26 23 8 24 -11 1 -28 1 -37 0 -26 -3 -16 45 14 68 14 11 28 17 32 13 4 -3 4 1

0 11 -4 11 -17 17 -35 17 -32 0 -40 23 -13 34 15 6 15 8 -2 28 -11 12 -13 18

-6 14 17 -10 29 24 11 35 -11 7 -12 12 -1 29 6 11 12 27 12 37 0 9 4 30 10 47

5 17 19 65 31 106 12 41 25 80 29 85 4 6 16 37 25 70 10 33 24 74 31 92 8 17

14 36 14 42 0 7 6 11 13 10 6 -1 17 -1 22 0 12 1 15 71 3 71 -4 0 -8 4 -8 9 0

5 9 7 20 4 11 -3 20 0 20 6 0 6 -6 10 -12 9 -8 -2 -13 7 -13 22 0 14 5 25 12

25 16 0 29 15 38 42 5 18 3 22 -9 17 -9 -3 -16 -1 -16 6 0 17 31 45 49 45 9 0

17 7 19 16 2 13 -3 15 -23 12 -25 -5 -35 10 -15 22 6 3 10 17 10 31 0 28 14

31 30 7 11 -17 11 -17 6 0 -3 10 -1 28 5 39 15 28 6 31 -19 8 -12 -11 -27 -20

-34 -20 -9 0 -9 3 2 10 9 6 14 21 12 42 -2 28 -1 31 10 17 17 -20 38 -13 38

12 0 15 -6 19 -22 17 -21 -3 -22 1 -25 91 -2 52 -8 98 -13 101 -12 8 -10 229

2 254 18 33 -1 122 -36 173 -31 47 -86 164 -86 185 0 5 -10 24 -22 41 -20 27

-22 28 -29 11 -14 -34 -9 -64 12 -87 41 -42 96 -135 113 -192 20 -63 18 -152

-4 -165 -7 -5 -15 -33 -18 -64 -2 -31 -6 -56 -9 -56 -8 0 -33 28 -33 38 0 5

-9 21 -21 36 -15 19 -25 55 -34 127 -13 97 -23 134 -27 93 0 -10 -2 -23 -3

-29 -2 -5 -3 -13 -4 -17 0 -4 -10 0 -21 9 -12 11 -16 20 -9 24 6 4 0 15 -17

28 -32 25 -44 27 -44 5 0 -9 -6 -14 -12 -12 -7 3 -16 29 -21 59 -4 30 -12 56

-17 57 -6 2 -9 20 -9 40 1 21 3 28 6 17 10 -44 11 -46 37 -33 14 6 28 19 31

29 3 9 12 19 19 22 9 4 13 36 14 112 2 100 9 138 25 136 28 -4 37 2 37 23 0

21 5 23 68 29 104 8 206 -8 345 -55 32 -11 60 -18 62 -16 8 8 7 492 -1 495 -5

1 -74 7 -154 13 -79 6 -149 15 -154 20 -7 7 -4 16 7 27 12 12 17 13 17 4 0 -9

4 -8 16 3 11 11 34 16 77 16 l62 0 0 92 0 92 -32 8 c-19 5 -33 15 -33 24 0 8

3 13 8 10 4 -2 6 14 5 37 -1 23 0 34 3 25 10 -32 20 -19 20 25 1 70 7 117 15

117 9 0 19 41 25 97 2 23 8 53 13 65 5 13 7 45 4 71 -5 43 -4 47 16 47 17 0

20 4 16 23 -3 12 1 39 9 59 10 24 16 66 15 116 0 44 4 90 11 102 6 12 9 28 6

36 -3 8 2 26 11 40 10 16 15 43 14 75 -1 28 3 49 9 49 5 0 10 7 10 15 0 9 9

15 23 15 28 0 100 46 123 78 18 26 2 30 -24 4 -9 -9 -25 -16 -34 -14 -21 4

-33 32 -13 32 27 0 25 19 -5 36 -16 10 -30 23 -30 28 0 6 5 5 12 -2 7 -7 16

-12 20 -12 12 0 9 35 -4 48 -7 7 -8 12 -4 12 5 0 2 8 -5 17 -12 15 -12 16 4

10 15 -5 16 -2 11 21 -8 35 -8 33 0 63 6 21 12 25 32 21 27 -5 32 9 8 28 -8 8

-20 22 -25 33 -9 16 -8 18 10 12 25 -8 36 13 27 50 -4 15 -11 22 -20 19 -10

-4 -15 7 -18 41 -4 51 0 60 22 60 10 0 15 10 14 30 -1 51 49 65 59 16 3 -16

13 -36 21 -44 11 -10 14 -25 10 -46 -4 -17 -4 -41 0 -54 4 -19 12 -23 38 -23

28 1 85 36 58 36 -5 0 -10 7 -10 15 0 8 6 15 14 15 8 0 13 11 14 28 0 15 3 41

6 57 5 28 16 220 36 635 4 97 14 188 23 220 9 30 18 75 21 100 2 25 7 80 11

123 6 55 5 77 -4 77 -6 0 -11 7 -11 15 0 24 -38 3 -58 -32 -9 -18 -37 -63 -62

-101 -62 -94 -65 -99 -99 -169 -41 -84 -53 -88 -46 -17 3 31 1 84 -5 118 -8

51 -22 196 -22 231 0 36 15 153 22 170 9 19 27 155 36 255 2 25 5 70 8 100 2

30 5 79 5 108 1 29 5 51 10 48 5 -4 7 11 4 33 -3 23 -1 41 6 45 6 4 11 27 11

52 0 24 4 44 9 44 6 0 7 16 4 36 -4 22 -2 39 5 43 6 4 12 22 13 41 2 19 9 43

17 52 8 9 11 25 7 36 -3 11 -1 23 4 27 6 3 8 27 5 56 -5 44 -3 51 14 56 19 5

19 7 6 39 -16 39 -18 74 -4 74 6 0 10 11 10 25 0 17 6 25 18 26 10 0 12 3 5 6

-7 2 -13 21 -13 40 0 24 -9 47 -30 73 -30 37 -31 54 -3 43 12 -5 13 -2 5 13

-40 80 -44 95 -39 136 2 24 -2 67 -10 97 -21 73 -12 222 15 253 9 11 9 17 0

26 -6 6 -8 15 -3 19 4 5 10 2 12 -5 8 -21 32 18 33 51 0 33 15 36 24 5 7 -22

7 -22 16 -3 5 11 9 14 9 7 1 -7 6 -10 12 -7 7 5 6 12 -4 23 -8 10 -20 28 -27

41 -11 21 -10 23 4 18 9 -4 16 -2 16 3 0 6 -4 10 -10 10 -5 0 -10 6 -10 14 0

8 -7 17 -16 20 -8 3 -24 26 -35 51 -11 26 -27 49 -35 52 -8 3 -14 11 -14 18 0

7 -9 24 -21 39 -20 26 -20 26 0 26 11 0 23 -4 26 -10 3 -5 14 -10 23 -9 12 0

11 3 -5 9 -13 5 -23 14 -23 19 0 5 -10 11 -22 14 -13 4 -32 13 -43 21 -19 15

-19 15 8 16 16 0 26 -4 22 -10 -3 -6 5 -10 19 -10 13 0 26 -3 28 -8 2 -4 21

-21 43 -38 l40 -32 0 29 c0 21 -5 29 -17 29 -20 0 -25 30 -5 30 7 1 4 6 -7 15

-13 10 -25 11 -44 4 -29 -11 -52 -5 -51 13 0 10 2 10 6 1 2 -7 11 -13 20 -13

12 0 12 2 -2 16 -12 12 -19 13 -29 5 -16 -13 -62 -5 -74 13 -4 6 -29 23 -57

36 -66 33 -85 49 -78 66 3 8 -1 14 -10 14 -17 0 -68 39 -51 40 20 0 11 30 -10

30 -13 0 -17 3 -9 8 25 16 17 35 -22 48 -32 11 -34 13 -10 9 39 -5 125 -43

125 -55 0 -6 11 -10 25 -10 14 0 34 -9 46 -21 11 -11 24 -18 27 -14 4 3 0 10

-8 16 -12 7 -11 10 9 15 l23 7 -28 13 c-16 7 -22 13 -14 14 10 0 6 6 -10 16

l-25 15 30 -5 c30 -5 30 -5 5 6 -14 7 -28 17 -31 22 -4 4 -11 6 -17 2 -5 -3

-12 3 -15 13 -3 12 1 22 9 25 8 3 14 10 14 15 0 6 -7 8 -15 4 -10 -3 -15 0

-13 8 2 8 -12 17 -34 23 -21 5 -38 14 -38 19 0 5 12 6 26 3 17 -5 23 -3 19 4

-3 5 -19 10 -36 10 -17 0 -29 5 -29 13 0 9 -11 12 -36 9 -26 -3 -35 -1 -30 7

4 7 15 9 24 7 10 -3 24 -1 32 4 12 8 13 13 2 30 -11 18 -10 20 10 21 21 1 21

2 3 6 -11 3 -24 10 -30 15 -7 8 -6 9 3 4 7 -4 12 -1 12 8 0 9 -8 16 -17 17

-11 0 -13 3 -5 6 6 2 12 10 12 16 0 5 -3 7 -6 4 -10 -10 -44 12 -44 29 0 10

-7 13 -22 9 -28 -6 -77 6 -78 20 -1 6 8 12 20 15 12 3 21 8 21 13 -2 19 0 21

9 7 5 -8 7 -23 4 -32 -7 -23 5 -22 36 1 24 19 24 20 6 40 -11 12 -16 21 -12

21 4 0 -5 16 -19 35 -15 19 -24 39 -20 45 3 5 2 10 -4 10 -6 0 -13 11 -17 25

-3 14 -12 25 -20 25 -8 0 -11 6 -7 16 3 8 12 13 19 10 8 -3 14 1 14 8 0 8 10

21 23 30 l22 16 -24 -9 c-35 -11 -66 -3 -76 22 -7 14 -22 24 -44 27 -33 5 -33

5 -13 23 14 13 22 15 27 7 4 -6 14 -9 22 -6 8 3 12 2 9 -3 -8 -12 31 -44 43

-36 6 3 11 10 11 14 0 12 -37 52 -46 50 -17 -4 -44 13 -44 27 0 8 -9 14 -21

14 -14 0 -19 5 -16 14 3 8 -2 17 -11 21 -14 5 -14 7 -2 15 10 7 -1 10 -38 10

-33 0 -51 4 -47 10 8 14 -8 13 -22 -1 -8 -8 -15 -2 -27 23 -16 33 -19 34 -66

32 l-50 -2 23 19 c12 10 17 18 11 19 -16 0 -24 36 -11 49 8 8 2 11 -22 11 -18

0 -30 4 -26 10 7 11 67 1 76 -13 4 -5 9 -5 13 2 4 6 14 11 22 11 9 0 22 6 30

14 11 11 19 12 39 3 14 -7 25 -15 25 -18 0 -11 -49 -28 -100 -35 -27 -4 -50

-10 -50 -15 0 -17 21 -19 52 -5 39 17 129 37 140 30 4 -3 5 2 2 10 -7 19 -20

21 -27 4 -4 -10 -6 -10 -6 -1 -1 6 4 15 9 18 6 3 10 11 10 16 0 6 -5 7 -12 3

-7 -4 -8 -3 -4 4 4 7 18 12 31 12 13 0 27 5 31 11 10 17 -17 29 -39 17 -13 -7

-22 -7 -30 1 -7 7 -3 13 14 20 23 9 23 10 2 10 -13 1 -27 -8 -33 -19 -12 -23

-35 -28 -27 -6 4 9 -3 16 -16 20 -12 3 -19 7 -17 9 10 10 130 15 135 6 8 -12

52 -12 60 1 4 6 -7 10 -25 10 -20 0 -29 4 -24 11 6 10 30 7 69 -8 12 -4 16 -2

13 7 -6 20 -123 24 -180 6 -27 -8 -48 -10 -48 -5 0 5 14 12 30 16 47 9 43 19

-8 18 -39 0 -47 -3 -47 -18 0 -15 -9 -20 -43 -22 -27 -2 -40 0 -36 7 4 6 -1 8

-15 3 -15 -4 -21 -2 -21 8 0 10 -7 13 -20 10 -11 -3 -20 -9 -20 -14 0 -5 -9

-9 -19 -9 -11 0 -23 -4 -26 -10 -8 -12 -25 -13 -25 -1 0 5 10 11 23 15 17 5

19 8 8 15 -19 12 -1 20 48 19 23 0 45 2 48 6 4 3 -5 6 -18 6 -23 1 -23 1 -5

15 28 21 6 19 -49 -5 -64 -28 -67 -25 -12 10 57 36 75 37 86 7 8 -20 15 -23

43 -19 18 2 39 10 47 16 11 8 13 8 8 -1 -10 -16 10 -26 39 -19 16 4 22 11 17

19 -5 9 -4 9 8 0 18 -15 135 -25 120 -10 -5 5 -27 10 -49 11 -47 1 -46 16 1

17 28 0 30 1 10 9 -12 5 -44 7 -72 5 -27 -3 -53 0 -56 5 -3 6 0 10 7 11 7 0 1

6 -14 13 -31 13 -23 42 9 34 10 -3 25 1 32 9 10 11 16 12 25 3 8 -8 7 -13 -4

-20 -13 -8 -12 -10 3 -10 9 0 17 5 17 10 0 6 8 10 18 10 14 0 15 2 2 9 -8 6

-18 7 -22 5 -4 -3 -8 2 -8 11 0 12 -5 15 -17 10 -10 -4 -29 -8 -43 -10 -14 -1

-35 -5 -47 -9 -12 -4 -24 -3 -27 2 -3 5 20 17 50 28 48 16 53 20 38 31 -18 13

-75 6 -86 -10 -9 -14 -38 -18 -38 -5 0 6 -7 7 -15 4 -39 -16 -47 -16 -20 0 17

10 41 20 55 21 14 2 38 8 54 13 20 7 32 7 36 0 10 -16 121 -18 168 -3 24 8 46

12 50 9 3 -3 -2 -6 -10 -6 -8 0 -27 -9 -40 -20 -26 -20 -65 -26 -105 -17 -13

3 -23 2 -23 -3 0 -16 56 -26 158 -30 6 0 12 -9 12 -21 0 -11 4 -18 8 -15 9 6

87 -15 98 -27 4 -4 15 -7 24 -7 9 0 31 -12 48 -27 55 -50 62 -54 82 -48 14 5

20 2 20 -9 0 -9 -3 -15 -7 -15 -21 3 -20 -3 2 -27 14 -15 25 -33 25 -40 0 -8

4 -14 10 -14 5 0 9 -8 8 -17 -3 -37 2 -53 17 -53 9 0 19 -8 23 -17 5 -14 8

-12 12 12 4 24 2 31 -14 35 -18 5 -18 7 -4 20 14 14 12 18 -18 48 -40 39 -41

42 -11 35 20 -4 19 -3 -5 14 -26 18 -27 20 -11 36 10 10 12 17 6 17 -7 0 -15

-5 -19 -11 -5 -8 -10 -6 -16 5 -5 9 -6 21 -2 27 8 14 -30 49 -55 49 -11 0 -23

5 -26 10 -4 6 -16 8 -28 5 -17 -5 -19 -4 -7 4 8 6 21 11 28 11 7 0 21 8 30 17

16 16 15 16 -8 9 -14 -4 -45 -8 -70 -9 -30 -1 -44 -6 -42 -14 1 -8 -8 -13 -20

-13 -23 1 -23 1 -3 16 17 13 18 16 5 24 -11 7 1 10 40 10 72 -1 107 4 117 14

4 5 2 6 -4 2 -7 -4 -13 -2 -13 4 0 7 -7 9 -16 6 -9 -3 -28 3 -44 14 -15 11

-33 20 -39 20 -6 0 -11 5 -11 10 0 13 12 13 44 0 37 -14 32 -2 -6 14 -27 12

-36 11 -76 -6 -30 -14 -47 -17 -54 -10 -6 6 -17 8 -24 5 -7 -3 -21 2 -29 11

-9 9 -23 16 -31 16 -8 0 -12 4 -9 10 3 5 18 7 33 4 15 -3 34 -6 42 -7 8 -2 21

-6 28 -11 7 -4 25 -5 40 -1 l27 7 -35 13 c-19 8 -45 14 -57 14 -13 1 -23 6

-23 11 0 6 27 10 60 10 49 0 58 -3 54 -15 -5 -12 2 -14 40 -9 31 5 46 3 46 -5

0 -6 11 -11 24 -11 14 0 28 -4 31 -10 3 -5 16 -10 28 -9 16 0 8 8 -28 25 -27

13 -57 24 -66 24 -9 0 -29 6 -45 14 -55 27 -110 30 -157 8 -41 -20 -53 -24

-111 -37 -26 -5 -27 -4 -13 10 9 8 22 15 30 15 7 0 17 3 21 8 4 4 26 12 49 18

34 9 38 13 23 19 -11 5 -21 3 -26 -5 -4 -7 -15 -10 -23 -7 -9 3 -21 -1 -28 -9

-8 -10 -21 -13 -36 -9 -16 4 -23 1 -23 -10 0 -9 -9 -15 -21 -15 -15 0 -19 5

-15 15 9 24 -61 19 -121 -10 -51 -23 -77 -20 -30 3 20 11 18 11 -12 6 -23 -4

-36 -2 -42 7 -6 10 -9 11 -9 2 0 -24 -35 -50 -56 -42 -10 4 -30 5 -44 2 l-25

-6 27 22 c18 15 36 20 50 17 13 -3 17 -3 10 0 -6 3 -10 9 -7 14 3 4 -19 8 -48

7 -28 0 -42 -2 -29 -4 35 -7 26 -18 -30 -44 -76 -33 -118 -34 -85 0 10 10 7

10 -16 2 -42 -16 -46 -13 -12 9 17 11 45 20 64 20 19 0 32 3 29 6 -11 10 -101

12 -126 3 -41 -16 -36 -2 7 20 45 23 55 26 46 11 -8 -14 5 -12 34 4 l24 13

-26 7 c-26 6 -84 -11 -139 -40 -34 -18 -52 -18 -44 1 8 23 -30 0 -44 -25 -6

-11 -16 -20 -22 -20 -7 0 -7 4 1 14 23 27 -8 28 -36 1 -42 -39 -73 -53 -123

-53 -51 0 -33 12 33 23 21 3 35 10 31 16 -4 7 -10 6 -19 -1 -9 -8 -14 -6 -19

5 -5 14 18 20 64 16 12 -1 12 0 -1 8 -15 10 -82 3 -153 -15 -19 -4 -27 -3 -23

3 4 6 21 14 39 18 28 7 29 9 11 12 -12 2 -31 -1 -43 -7 -15 -8 -25 -8 -38 0

-15 10 -14 11 6 7 12 -3 22 -1 22 4 0 8 56 25 90 28 8 1 38 4 65 7 36 4 46 2

35 -5 -8 -6 -29 -11 -47 -11 -17 0 -35 -4 -38 -10 -11 -17 41 -11 126 16 58

18 78 28 68 35 -12 7 -12 9 0 9 8 0 35 10 60 22 57 28 56 27 49 34 -4 3 -16 1

-27 -6 -12 -6 -21 -7 -21 -2 0 12 -117 5 -150 -8 -16 -7 -37 -10 -47 -7 -12 3

-9 5 9 6 15 0 29 5 32 10 5 8 -135 5 -177 -4 -13 -2 -17 1 -13 12 6 13 -1 15

-46 10 -32 -4 -45 -3 -33 2 11 4 54 10 95 13 46 3 67 2 55 -3 -12 -5 6 -6 45

-2 36 4 99 7 140 6 48 0 59 1 30 4 -36 4 -41 7 -25 13 14 6 3 9 -37 9 -31 1

-67 -4 -80 -9 -15 -7 -42 -8 -78 -2 l-55 10 60 1 c37 1 55 5 47 10 -10 6 -6

10 15 16 l28 7 -27 10 c-16 5 -28 14 -28 19 0 11 31 11 85 0 l40 -8 -33 -8

c-60 -14 -25 -17 60 -5 95 14 171 36 148 43 -8 3 -28 8 -45 12 -16 3 -52 11

-80 16 -27 6 -58 15 -67 20 -12 6 -18 6 -18 -1 0 -5 -21 -10 -47 -10 -48 0

-100 -19 -58 -21 14 0 11 -4 -12 -12 -17 -7 -35 -15 -39 -19 -4 -5 -17 -8 -28

-8 -12 0 -30 -6 -41 -14 -11 -7 -33 -15 -50 -18 -16 -3 -39 -8 -50 -12 l-20

-8 20 17 c11 9 32 19 48 22 15 3 27 9 27 14 0 11 -70 3 -83 -10 -5 -5 -15 -8

-21 -5 -6 2 -31 -3 -56 -11 -25 -9 -33 -14 -17 -12 34 5 36 -9 2 -17 -14 -4

-24 -12 -22 -18 1 -7 -14 -17 -33 -24 -36 -12 -55 -9 -31 5 10 7 11 10 1 16

-8 5 -18 2 -24 -6 -14 -19 -96 -61 -96 -50 0 5 12 14 28 20 15 7 35 23 45 36

20 27 13 33 -12 11 -22 -18 -111 -47 -111 -36 0 5 11 12 24 16 14 3 27 12 30

19 4 10 -2 11 -27 4 -43 -12 -47 -11 -17 6 19 11 21 14 8 15 -16 0 -82 -27

-162 -66 -16 -8 -31 -13 -33 -11 -8 9 60 57 95 67 20 5 48 19 62 30 20 16 9

14 -50 -10 -41 -17 -77 -34 -80 -39 -7 -12 -61 -20 -53 -8 8 14 -37 -3 -67

-25 -21 -15 -33 -17 -65 -10 l-40 10 35 13 c19 7 39 12 44 11 4 -2 13 1 20 6

6 5 28 15 48 21 46 15 53 25 32 45 -12 12 -12 16 -2 16 8 0 31 9 53 20 22 11

47 20 57 20 18 0 111 36 173 66 30 14 29 15 -20 8 -27 -4 -55 -11 -61 -15 -6

-5 -19 -7 -28 -3 -9 3 -16 1 -16 -5 0 -6 -6 -11 -14 -11 -24 0 -96 -36 -88

-45 4 -4 -4 -4 -17 0 -16 5 -21 4 -17 -4 7 -11 -40 -28 -51 -18 -3 3 -12 -1

-21 -9 -12 -12 -12 -18 -3 -24 10 -5 8 -9 -4 -14 -22 -8 -27 -8 -21 3 4 5 -10

5 -32 1 -31 -7 -34 -7 -20 4 10 7 13 17 8 25 -6 11 -12 9 -26 -5 -30 -29 -74

-56 -74 -44 0 6 7 13 15 16 8 4 13 10 10 15 -3 4 4 13 16 20 21 11 21 12 4 21

-14 8 -15 12 -4 19 12 8 12 11 -1 19 -12 8 -11 10 6 10 12 0 32 10 46 23 14

13 30 21 36 19 11 -3 72 25 72 34 0 2 -9 0 -20 -6 -11 -6 -33 -13 -48 -15 -15

-2 -38 -7 -52 -10 -24 -6 -24 -6 -6 9 10 8 24 17 30 19 6 2 9 7 6 10 -3 3 -30

-5 -60 -18z m-2310 -2191 c0 -2 -15 -10 -32 -18 -18 -8 -26 -15 -16 -15 9 -1

25 -4 35 -7 15 -5 16 -4 3 5 -12 10 -11 11 10 9 14 -2 25 -8 25 -15 0 -6 3

-15 8 -19 15 -15 6 -21 -47 -33 -41 -9 -53 -16 -49 -27 7 -18 1 -18 -42 0 -37

16 -47 35 -17 37 10 0 12 3 5 6 -26 10 -14 44 21 58 19 8 37 19 40 24 5 8 56

3 56 -5z m-178 -3454 c12 0 18 -3 14 -7 -4 -5 -9 -6 -10 -3 -2 3 -10 -1 -18

-8 -21 -17 -12 -48 15 -57 19 -6 20 -8 5 -12 -17 -4 -26 -24 -10 -22 35 6 46

-33 13 -50 -14 -8 -19 -22 -19 -56 -1 -25 -4 -50 -7 -55 -4 -6 7 -22 24 -36

17 -14 31 -35 31 -47 5 -109 8 -140 17 -145 11 -7 17 -27 14 -47 -1 -5 -19

-10 -41 -10 -38 -1 -41 1 -49 35 -13 53 -46 493 -38 514 5 11 13 16 23 12 9

-3 25 -6 36 -6z m-99 -67 c-3 -38 -10 -73 -15 -80 -5 -7 -4 -13 3 -15 8 -3 12

-34 13 -93 1 -50 4 -94 7 -100 3 -5 6 -34 7 -62 2 -41 -1 -53 -13 -53 -8 0

-15 6 -16 13 0 6 -2 21 -4 32 -13 86 -25 235 -21 264 4 20 8 56 11 81 7 57 14

80 25 80 5 0 7 -30 3 -67z m-272 -930 c6 -78 3 -263 -4 -263 -5 0 -7 -15 -6

-32 2 -18 0 -45 -4 -60 -4 -16 -9 -39 -12 -53 -6 -30 -29 -32 -48 -5 -8 11

-17 17 -20 13 -10 -10 -8 32 2 43 5 5 14 25 20 44 13 44 41 249 35 265 -7 16

13 65 26 65 5 0 11 -8 11 -17z m3793 -961 c-6 -4 -10 -17 -9 -29 2 -27 15 -44

15 -20 0 10 8 17 20 17 11 0 23 7 26 15 4 8 13 15 21 15 14 0 15 -12 10 -81

-5 -74 -4 -79 9 -54 8 15 14 35 15 44 0 11 3 10 11 -6 12 -25 23 -29 34 -12 4

8 9 7 15 -2 10 -17 20 -8 22 20 l1 21 22 -21 c13 -13 28 -18 35 -13 9 5 10 2

6 -10 -4 -10 -7 -22 -7 -28 0 -6 -11 -8 -25 -6 -14 3 -25 2 -25 -2 0 -12 52

-19 74 -10 17 7 18 9 4 9 -10 1 -18 8 -18 16 0 8 3 15 8 15 17 -1 62 -51 68

-77 l6 -28 -16 23 c-10 12 -28 22 -41 22 -17 0 -25 -6 -27 -22 -2 -18 -10 -24

-38 -26 -58 -5 -63 -8 -44 -37 11 -17 12 -25 4 -25 -7 0 -10 -13 -8 -37 3 -38

3 -38 -36 -39 -45 0 -54 -14 -32 -46 18 -26 20 -38 6 -38 -5 0 -12 11 -16 25

-3 14 -10 22 -15 19 -5 -3 -6 -16 -3 -30 4 -14 2 -24 -5 -24 -6 0 -11 14 -11

30 0 17 -4 30 -10 30 -5 0 -10 -13 -10 -30 0 -16 -4 -30 -10 -30 -5 0 -10 13

-10 29 0 17 -4 32 -9 35 -4 3 -6 -6 -3 -19 2 -15 0 -25 -7 -25 -6 0 -11 -9

-11 -20 0 -11 -4 -20 -10 -20 -5 0 -10 9 -10 20 0 11 -7 20 -15 20 -8 0 -15

-9 -15 -20 0 -11 5 -20 10 -20 6 0 10 -4 10 -10 0 -5 -7 -10 -16 -10 -13 0

-15 -8 -12 -35 2 -19 1 -35 -3 -35 -4 0 -9 -10 -12 -22 -6 -22 -6 -22 -27 4

-26 34 -26 37 9 67 23 20 31 38 36 80 8 58 4 59 -43 9 -18 -20 -42 -24 -42 -8

0 6 -8 10 -19 10 -24 0 -36 16 -53 68 -7 25 -19 42 -28 42 -8 0 -23 14 -32 31

-10 17 -22 27 -28 24 -5 -3 -14 5 -20 19 -10 28 -21 31 -49 16 -16 -8 -19 -4

-24 33 -3 23 -2 46 4 52 6 5 9 5 9 -3 0 -7 3 -12 8 -12 12 1 92 77 86 83 -3 3

10 8 28 12 18 4 37 13 41 19 5 6 7 2 4 -11 -5 -21 -1 -23 34 -23 28 0 39 4 39

15 0 8 4 15 9 15 5 0 23 11 39 25 20 17 32 21 34 13 3 -8 11 -7 28 5 14 9 31

17 40 17 10 0 11 -3 4 -8z m1169 -318 c58 -4 77 -9 77 -20 0 -9 -4 -12 -10 -9

-5 3 -10 1 -10 -4 0 -6 6 -11 14 -11 19 0 22 -133 3 -147 -17 -13 -243 1 -262

17 -10 9 -15 9 -15 1 0 -6 -6 -11 -13 -11 -8 0 -14 12 -14 30 0 16 4 27 9 24

5 -4 6 9 3 29 -6 29 -4 35 15 40 19 5 20 8 10 27 -6 12 -8 25 -4 28 4 4 9 2

11 -4 8 -23 32 -49 39 -42 4 4 1 14 -6 23 -22 27 -5 46 37 40 21 -2 73 -7 116

-11z m-3747 -1254 c10 -30 27 -71 38 -90 11 -19 22 -42 23 -52 3 -17 1 -17

-37 -2 -41 16 -58 14 -46 -5 17 -26 133 -40 155 -18 10 10 11 9 6 -5 -4 -9

-14 -19 -22 -23 -14 -5 -14 -7 2 -18 16 -12 16 -15 1 -29 -9 -9 -16 -28 -16

-41 0 -14 -7 -27 -15 -31 -8 -3 -15 -12 -15 -21 0 -8 7 -15 15 -15 11 0 15

-11 15 -40 0 -29 -4 -40 -15 -40 -17 0 -16 3 -19 -240 -2 -129 1 -162 16 -198

22 -54 23 -76 2 -107 -17 -26 -12 -55 12 -80 9 -8 11 -15 5 -15 -19 0 -12 -21

13 -41 14 -11 28 -29 32 -42 7 -23 60 -77 75 -77 5 0 9 -7 9 -16 0 -9 13 -21

28 -26 16 -6 37 -27 48 -47 10 -20 27 -37 37 -39 10 -2 32 -17 48 -33 24 -23

30 -37 27 -62 -2 -25 1 -32 17 -35 11 -1 31 -5 45 -9 23 -5 24 -6 5 -13 -19

-7 -18 -9 7 -18 15 -6 34 -25 43 -42 8 -16 22 -30 30 -30 10 0 15 -10 15 -27

1 -31 41 -83 65 -83 8 0 15 -7 15 -16 0 -14 3 -14 15 -4 13 10 17 7 30 -23 8

-20 15 -55 15 -77 0 -22 5 -40 10 -40 6 0 10 7 10 15 0 8 4 15 9 15 5 0 14 -7

21 -15 10 -13 9 -15 -9 -15 -11 0 -21 -4 -21 -9 0 -5 -13 -11 -30 -14 -38 -8

-39 -26 -2 -33 24 -5 31 -13 41 -55 14 -54 25 -56 36 -7 l7 33 13 -40 c9 -27

14 -33 14 -18 1 33 28 18 37 -19 5 -23 2 -33 -10 -40 -19 -11 -21 -35 -4 -40

9 -3 8 -12 -5 -31 -9 -14 -17 -33 -17 -41 0 -10 -6 -13 -15 -10 -10 4 -15 21

-15 55 0 41 -4 51 -25 65 -14 9 -25 23 -25 30 0 10 -13 14 -40 14 l-40 0 0

-43 c0 -37 4 -46 25 -55 17 -8 25 -20 25 -37 0 -20 5 -25 25 -25 14 0 25 -4

25 -10 0 -5 7 -10 15 -10 8 0 15 -9 15 -20 0 -11 -5 -20 -11 -20 -15 0 -39

-26 -39 -43 0 -26 -39 -107 -51 -107 -6 0 -9 -7 -5 -15 3 -8 1 -15 -4 -15 -6

0 -16 -15 -24 -32 l-14 -33 -12 48 c-9 33 -17 47 -29 47 -39 0 -89 161 -61

195 10 12 10 15 0 15 -6 0 -20 -10 -31 -22 -14 -18 -17 -32 -13 -62 6 -35 5

-38 -15 -31 -13 4 -28 1 -37 -6 -13 -10 -17 -10 -24 1 -5 9 -5 19 2 27 8 9 3

15 -17 23 -14 5 -35 10 -46 10 -10 0 -19 7 -19 15 0 21 -6 19 -57 -15 -51 -35

-102 -49 -156 -42 -50 6 -70 -12 -63 -53 7 -38 0 -48 -25 -34 -12 6 -19 21

-19 39 0 19 -7 33 -19 39 -25 14 -31 -2 -31 -87 0 -37 -4 -82 -9 -99 -5 -18

-6 -45 -1 -60 l8 -28 1 27 c1 36 19 80 29 74 15 -9 12 -312 -3 -333 -13 -17

-14 -17 -20 0 -9 21 -28 22 -45 3 -9 -12 -7 -21 11 -45 12 -17 19 -34 15 -38

-4 -4 -11 -2 -15 6 -5 7 -12 13 -17 13 -20 1 -34 11 -34 25 0 10 -4 11 -17 5

-11 -7 -21 -5 -31 4 -18 19 -43 18 -36 -1 4 -9 0 -15 -10 -15 -9 0 -16 5 -16

10 0 6 -7 10 -15 10 -8 0 -15 4 -15 9 0 5 -13 13 -28 19 -21 7 -31 20 -40 50

-7 22 -10 46 -7 53 3 8 -4 28 -15 44 -36 55 -39 60 -53 95 -26 62 -36 93 -57

175 -12 44 -28 103 -35 130 -7 28 -22 84 -33 125 -11 41 -33 147 -48 235 -26

146 -28 180 -27 380 2 193 5 235 28 347 14 70 35 156 46 190 11 35 27 87 35

117 8 30 19 60 24 66 5 7 16 29 24 51 24 68 95 212 133 272 20 31 63 96 94

144 31 47 80 135 109 195 41 86 52 119 53 164 2 66 14 57 43 -31z m971 -1830

l21 -40 -29 0 c-16 0 -29 -4 -29 -9 0 -15 44 -43 48 -31 2 5 12 10 23 10 26 0

24 -30 -2 -37 -15 -4 -17 -8 -8 -14 20 -12 4 -22 -50 -29 -56 -7 -71 -4 -71

16 0 8 -10 14 -25 14 -22 0 -25 4 -25 35 0 38 31 82 49 70 6 -3 11 -28 11 -56

0 -27 5 -49 10 -49 6 0 10 31 10 73 0 41 3 77 7 80 16 17 40 4 60 -33z m-448

-550 c4 0 17 -20 30 -45 25 -51 35 -165 14 -165 -7 0 -13 9 -13 20 0 11 -7 20

-15 20 -9 0 -15 9 -15 21 0 19 2 20 17 8 15 -12 16 -12 10 4 -4 10 -7 24 -7

31 0 8 -10 12 -25 11 -22 -3 -24 0 -19 20 5 19 1 24 -25 30 -17 4 -31 10 -31

14 0 3 15 19 33 35 26 24 33 26 35 12 2 -9 7 -16 11 -16z m-409 -155 c0 -17

39 -85 41 -70 1 6 2 17 3 25 0 8 9 14 19 12 11 -2 17 4 17 15 1 17 1 17 14 1

7 -10 18 -18 24 -18 14 0 25 -39 20 -71 -2 -17 -8 -23 -22 -21 -15 3 -18 -1

-12 -20 3 -13 6 -33 6 -46 0 -19 3 -21 19 -12 27 14 29 13 23 -15 -7 -38 -37

-50 -62 -25 -25 25 -36 25 -50 -1 -12 -21 -9 -27 38 -77 13 -14 11 -61 -4

-159 -10 -65 -32 -32 -39 56 -4 58 -25 131 -36 131 -5 0 -6 7 -3 15 7 18 -17

20 -33 4 -16 -16 -25 19 -22 88 2 32 -1 88 -5 125 l-8 66 28 5 c16 2 32 5 37

6 4 0 7 -6 7 -14z m250 -245 c10 -10 21 -32 25 -49 4 -18 13 -31 22 -31 11 0

13 -6 8 -22 -4 -13 -9 -35 -12 -49 -3 -14 -16 -39 -29 -54 -13 -15 -24 -34

-24 -42 0 -7 -7 -13 -15 -13 -8 0 -15 -9 -15 -20 0 -33 -36 -25 -53 13 -23 51

-31 81 -18 73 6 -4 11 0 11 8 0 28 19 17 37 -21 l17 -38 4 50 c2 27 9 53 15

57 9 6 8 8 -3 8 -10 0 -11 3 -3 11 9 9 9 17 0 32 -9 15 -9 21 1 24 6 3 12 19

12 36 0 24 -3 28 -10 17 -8 -12 -10 -11 -10 7 0 12 3 30 7 40 7 17 8 17 11 0

2 -11 12 -27 22 -37z m228 -30 c-3 -18 0 -31 9 -34 8 -4 11 -15 7 -36 -5 -24

-3 -30 10 -30 10 0 14 -5 10 -11 -4 -6 -8 -37 -10 -68 -5 -74 -12 -92 -25 -68

-6 9 -17 17 -24 17 -17 0 -19 9 -6 29 6 9 5 24 -2 39 -10 21 -8 27 11 43 27

21 27 21 6 60 -8 17 -13 38 -10 46 4 9 1 22 -5 29 -9 11 -7 14 11 14 19 0 22

-4 18 -30z m-1101 -114 c-4 -10 -1 -13 7 -10 8 3 23 -7 34 -21 11 -14 24 -27

29 -28 4 -1 6 -9 5 -19 -2 -9 2 -19 8 -23 5 -3 10 -15 10 -26 0 -10 5 -19 10

-19 6 0 10 -7 10 -15 0 -8 5 -15 10 -15 6 0 10 -7 10 -15 0 -8 4 -15 9 -15 14

0 23 -32 11 -44 -7 -7 -15 -3 -26 12 -21 30 -58 30 -51 0 6 -22 -7 -48 -25

-48 -6 0 -7 7 -4 16 8 21 -18 46 -40 37 -12 -4 -15 -3 -10 5 9 16 -7 15 -22 0

-7 -7 -12 -9 -12 -4 0 4 7 15 16 23 13 14 17 14 24 2 5 -7 12 -10 17 -6 4 5 2

12 -5 16 -8 5 -10 15 -5 27 6 17 5 18 -12 4 -17 -14 -18 -13 -12 3 8 21 -15

23 -37 2 -19 -19 -32 -20 -16 0 7 9 11 36 8 69 -3 47 0 58 22 79 28 28 45 34

37 13z m1205 -50 c4 -17 1 -23 -9 -19 -7 3 -13 -2 -13 -11 0 -9 5 -16 10 -16

6 0 10 -11 10 -25 0 -14 5 -25 11 -25 6 0 7 -5 2 -12 -4 -7 -8 -35 -9 -61 -3

-55 -1 -52 -31 -61 -20 -6 -23 -4 -23 21 0 16 5 34 12 41 7 7 8 15 1 24 -15

20 -16 123 -1 147 17 28 35 27 40 -3z m-1095 -229 c-14 -22 -14 -25 4 -38 12

-8 18 -22 15 -32 -2 -10 0 -14 7 -10 6 4 8 -2 4 -16 -7 -27 20 -62 41 -54 12

5 14 0 10 -25 -5 -34 1 -39 20 -20 6 6 14 9 18 6 3 -4 -6 -14 -20 -23 -36 -24

-33 -39 4 -20 33 17 38 10 14 -23 -17 -25 -16 -26 23 -11 23 8 26 8 16 -2 -19

-19 -16 -32 7 -26 19 5 19 4 2 -19 -9 -13 -20 -24 -24 -24 -4 0 -14 -7 -22

-16 -14 -13 -18 -14 -37 -1 -11 8 -16 18 -11 21 5 3 12 15 15 27 4 16 3 19 -6

10 -15 -15 -27 -14 -27 4 0 8 -4 15 -9 15 -12 0 -30 76 -24 99 3 13 -2 21 -16

26 -23 7 -25 13 -12 34 12 19 -8 50 -28 44 -12 -3 -16 2 -16 20 2 35 29 69 64

76 2 1 -4 -10 -12 -22z m2843 -48 c-12 -16 -20 -33 -17 -35 9 -9 46 15 57 37

9 17 17 19 43 13 54 -12 58 -28 19 -101 -33 -62 -57 -77 -57 -37 0 14 -6 18

-22 16 -16 -2 -23 2 -23 12 0 26 -18 18 -44 -20 -13 -19 -41 -45 -62 -56 -42

-22 -74 -51 -74 -68 0 -13 -19 -13 -58 1 -20 7 -29 16 -27 27 2 9 4 20 4 25 1

11 56 8 68 -4 8 -8 17 -3 33 19 12 16 35 33 51 36 27 5 43 36 19 36 -5 0 -10

5 -10 10 0 6 7 10 15 10 9 0 14 8 12 22 -1 14 6 26 21 34 13 6 30 21 38 33 8

11 20 21 25 21 6 0 1 -14 -11 -31z m-510 -244 c0 -8 -37 -43 -59 -55 -12 -6

-21 -17 -21 -24 0 -8 -20 -36 -43 -62 -66 -73 -180 -209 -195 -230 -7 -11 -10

-13 -7 -6 3 6 1 12 -5 12 -6 0 -13 -6 -16 -14 -6 -17 -58 -54 -53 -38 6 16 80

103 120 142 20 19 67 71 105 115 37 44 77 86 87 94 10 7 30 26 45 41 25 26 42

36 42 25z m-2121 -131 c-16 -19 -4 -18 16 2 14 15 18 14 50 -11 35 -26 45 -45

23 -45 -6 0 -3 -6 8 -14 19 -15 19 -15 -4 -38 -19 -20 -24 -21 -32 -8 -5 8

-10 11 -10 6 0 -6 -5 -5 -12 2 -7 7 -20 12 -29 12 -10 0 -16 7 -15 18 0 10 -5

16 -13 14 -12 -3 -12 0 -2 12 22 26 1 40 -22 15 -12 -13 -22 -18 -25 -11 -4

13 59 72 71 65 4 -3 3 -11 -4 -19z m179 -241 c7 -7 20 -13 29 -13 11 0 14 -6

9 -24 -4 -18 -1 -26 11 -29 10 -3 -15 -5 -55 -6 -45 -1 -71 3 -67 9 3 5 -3 18

-15 30 -28 28 -25 38 13 48 35 10 54 6 75 -15z"/>

<path d="M3068 2245 c-10 -21 -8 -29 10 -48 27 -29 28 -37 2 -37 -13 0 -20 -7

-20 -20 0 -11 -12 -27 -26 -36 -16 -11 -21 -20 -14 -24 18 -11 -19 -35 -54

-35 -26 0 -31 -4 -32 -25 -1 -28 13 -60 24 -59 22 4 31 -5 46 -41 9 -22 19

-40 23 -40 5 0 23 9 42 21 18 11 36 18 38 15 3 -3 12 2 20 10 10 9 30 14 56

12 l42 -3 3 -53 c2 -40 -1 -54 -12 -58 -21 -8 -21 -70 -1 -78 8 -3 15 -10 15

-16 0 -14 -27 -13 -33 3 -3 6 -6 3 -6 -9 -1 -12 8 -25 22 -32 17 -8 18 -11 5

-11 -19 -1 -26 -21 -7 -21 5 0 8 -4 5 -9 -3 -5 1 -22 9 -37 8 -16 15 -35 15

-41 0 -7 9 -13 20 -13 24 0 26 16 3 29 -14 8 -15 12 -4 25 11 13 11 19 0 32

-11 14 -10 18 6 30 10 8 13 14 7 14 -24 0 -33 53 -26 142 5 65 10 88 20 88 16

0 20 65 4 75 -5 3 -10 24 -10 46 0 32 -3 39 -20 39 -16 0 -20 7 -20 36 0 45

-19 64 -64 64 -33 0 -36 2 -36 30 0 17 -4 30 -10 30 -5 0 -10 7 -10 15 0 24

-19 18 -32 -10z"/>

<path d="M4173 9653 c-7 -2 -13 -13 -13 -23 0 -24 -21 -70 -32 -70 -4 0 -8 9

-8 20 0 11 7 20 16 20 8 0 12 4 9 10 -7 12 -45 -10 -45 -27 0 -6 -7 -13 -16

-15 -14 -3 -13 -7 6 -31 12 -15 19 -31 15 -35 -4 -4 -10 -1 -12 6 -4 10 -8 10

-18 2 -11 -9 -10 -15 6 -31 10 -10 19 -31 19 -45 0 -19 4 -25 15 -21 23 10 28

-11 5 -25 -26 -17 -25 -26 3 -31 l22 -4 -22 -2 c-13 0 -23 -7 -23 -15 0 -7 10

-17 23 -21 22 -6 21 -8 -21 -21 -10 -3 -9 -10 4 -34 15 -25 16 -32 5 -42 -10

-10 -15 -10 -18 -1 -2 7 -11 9 -19 6 -23 -9 -16 -23 11 -23 29 0 32 -12 9 -34

-11 -11 -14 -26 -9 -49 l6 -32 -16 34 c-8 18 -15 40 -15 49 0 12 -3 13 -12 4

-7 -7 -20 -12 -30 -12 -24 0 -23 -4 7 -34 14 -14 22 -31 19 -40 -3 -8 1 -28

10 -44 8 -16 13 -32 10 -34 -2 -3 2 -11 11 -18 12 -10 20 -9 46 8 26 16 36 18

60 9 30 -12 39 -27 15 -27 -7 0 -19 7 -26 15 -12 15 -35 11 -25 -5 3 -4 -4

-10 -15 -13 -11 -3 -20 -12 -20 -21 0 -20 14 -21 30 -1 7 8 19 15 28 15 13 0

12 -3 -2 -19 -21 -23 -14 -41 15 -41 10 0 19 -7 19 -15 0 -8 4 -15 9 -15 4 0

6 -11 4 -24 -3 -13 4 -43 15 -67 28 -63 33 -83 42 -168 5 -42 16 -107 25 -146

9 -38 19 -95 22 -125 3 -30 9 -57 13 -60 4 -3 19 -30 33 -60 14 -30 35 -66 46

-79 12 -13 21 -34 21 -46 0 -12 9 -30 20 -40 21 -19 51 -98 52 -137 1 -51 10

-78 26 -79 11 0 12 -2 5 -6 -14 -5 -18 -65 -6 -77 4 -4 13 8 19 26 7 18 13 25

13 16 1 -22 -4 -22 83 -2 82 19 98 30 98 65 0 7 14 8 40 4 26 -4 46 -3 54 5

11 8 16 8 22 -1 4 -7 2 -15 -4 -17 -20 -6 -13 -32 9 -32 11 0 17 5 14 10 -3 6

-1 10 4 10 6 0 11 -8 11 -19 0 -14 -10 -20 -42 -24 -24 -3 -44 -11 -46 -16 -2

-6 -16 -11 -31 -11 -30 0 -51 -16 -51 -39 1 -13 3 -13 15 2 11 16 27 19 89 18

66 -1 75 2 81 19 4 11 12 20 19 20 20 0 40 27 26 35 -8 5 -8 11 1 21 10 12 14

11 26 -6 8 -11 23 -20 33 -20 11 0 34 -9 52 -20 38 -23 138 -29 138 -7 1 8 5

7 13 -4 19 -24 48 -33 100 -30 38 2 47 0 47 -13 0 -12 -6 -15 -25 -10 -19 5

-25 2 -25 -10 0 -10 9 -16 25 -16 14 0 25 5 25 10 0 17 27 11 41 -9 20 -28

107 -18 118 13 12 30 2 54 -23 59 -13 3 -9 5 12 6 30 1 32 3 18 16 -8 8 -31

15 -52 15 -31 0 -35 2 -24 15 14 17 46 20 55 5 4 -6 11 -7 17 -4 7 4 8 2 4 -4

-5 -8 4 -12 29 -12 20 0 44 -4 53 -9 9 -4 34 -11 55 -14 l39 -6 -23 19 c-21

19 -42 25 -79 22 -19 -1 -44 47 -27 53 51 16 132 26 135 16 5 -14 52 -15 52

-1 0 6 18 10 40 10 34 0 40 3 40 21 0 19 4 21 40 16 22 -3 40 -1 40 3 0 5 10

10 23 12 16 2 23 11 25 31 2 15 9 27 18 27 8 0 14 5 14 11 0 6 7 9 15 5 8 -3

20 3 27 13 7 10 20 18 28 19 8 0 24 2 35 5 11 2 14 2 8 0 -18 -6 -16 -33 2

-33 9 0 18 7 21 15 4 8 15 15 26 15 16 0 18 3 9 14 -7 8 -19 12 -29 10 -9 -2

-28 5 -42 16 -21 17 -23 21 -10 29 8 6 33 9 55 7 22 -2 30 -2 18 1 -14 2 -23

12 -23 22 0 22 60 52 89 44 12 -3 21 -1 21 6 0 6 -12 11 -26 11 -22 0 -24 2

-14 15 15 18 6 33 -28 47 -22 9 -23 12 -10 15 16 4 16 7 3 39 -8 19 -24 47

-35 61 -25 32 -25 43 0 36 11 -3 20 0 20 6 0 6 -4 11 -8 11 -16 0 -33 50 -23

68 4 9 7 27 6 39 -1 15 5 23 21 27 15 4 21 11 18 20 -3 8 -14 12 -27 9 -17 -5

-19 -3 -10 7 29 31 109 -23 82 -56 -10 -12 -9 -13 5 -8 9 3 16 11 16 18 0 6

16 12 35 13 26 2 35 -1 35 -12 0 -8 9 -15 20 -15 24 0 38 -26 22 -42 -8 -8 -7

-15 3 -24 20 -20 25 -17 25 16 0 45 -20 82 -42 77 -20 -6 -25 18 -5 26 9 4 9

6 -1 6 -7 1 -10 6 -7 11 4 6 -5 10 -19 10 -14 0 -26 5 -26 10 0 6 25 10 57 10

31 0 54 2 51 5 -7 8 -180 36 -186 30 -3 -2 12 -12 32 -20 32 -14 36 -18 25

-31 -10 -13 -10 -17 0 -23 10 -6 9 -10 -3 -14 -11 -5 -16 -1 -16 12 0 15 -10

21 -42 26 -65 10 -78 15 -78 30 0 8 8 19 18 24 14 8 9 11 -23 12 -37 1 -38 2

-10 8 31 6 37 21 13 31 -19 7 -21 30 -2 30 8 0 12 -4 9 -10 -4 -6 5 -10 20

-10 39 0 20 19 -26 26 -51 8 -51 22 1 21 22 -1 40 -5 40 -9 0 -5 7 -8 15 -8 8

0 15 4 15 9 0 11 -79 33 -109 29 -13 -2 -26 3 -28 10 -3 7 5 12 19 13 25 1 19

4 -26 14 -30 6 -26 19 9 28 11 3 -1 5 -27 6 -36 1 -48 5 -48 16 0 10 7 14 23

12 12 -2 16 -2 10 0 -27 9 -13 33 20 33 25 0 29 3 17 11 -11 8 -8 9 15 5 17

-4 59 -12 95 -19 l65 -12 -50 -5 c-41 -4 -49 -8 -47 -23 2 -14 -2 -16 -22 -11

-36 9 -33 -11 3 -26 17 -7 28 -17 25 -24 -8 -21 77 -40 138 -32 79 11 90 11

121 3 15 -4 27 -3 27 2 0 15 -160 61 -215 61 -14 0 -24 4 -20 9 3 5 -3 12 -12

15 -10 3 6 4 35 2 29 -2 55 1 58 5 3 5 15 9 27 10 21 0 21 1 -3 12 -14 6 -31

17 -38 24 -11 11 -9 13 13 13 14 0 35 -5 46 -10 10 -6 19 -8 19 -5 0 10 -23

30 -42 37 -23 9 -44 48 -26 48 7 0 19 -9 26 -20 7 -11 21 -20 32 -20 18 0 14

6 -20 40 -22 21 -40 46 -40 55 0 8 -6 15 -14 15 -8 0 -26 19 -40 43 -31 52

-170 197 -189 197 -8 0 -23 8 -35 18 -12 9 -44 31 -71 47 -54 32 -68 51 -25

35 14 -6 33 -10 42 -10 19 1 -55 39 -76 40 -7 0 -50 18 -95 39 -83 39 -167 60

-167 41 0 -5 11 -12 25 -16 14 -3 25 -10 25 -15 0 -10 -13 -6 -103 30 -34 13

-47 14 -47 2 0 -5 9 -13 21 -16 29 -10 17 -17 -15 -9 -17 4 -25 12 -24 22 2

10 -5 18 -17 20 -16 2 -17 1 -5 -7 11 -8 -5 -11 -58 -11 -43 0 -71 -4 -67 -9

3 -6 -28 -8 -80 -5 -63 4 -85 2 -83 -7 3 -14 -69 -23 -77 -9 -3 5 -13 6 -22 3

-11 -4 -14 -3 -9 5 4 7 3 12 -3 12 -5 0 -12 -4 -15 -8 -3 -5 -19 -7 -36 -4

-20 3 -30 0 -30 -8 0 -9 -12 -11 -42 -6 -41 7 -42 6 -23 -9 19 -15 18 -16 -27

-12 -39 4 -45 2 -40 -11 4 -12 0 -14 -16 -10 -15 4 -19 2 -15 -8 4 -10 -3 -14

-22 -14 -20 0 -26 4 -21 15 3 9 0 15 -8 15 -7 0 -19 -7 -26 -15 -7 -8 -19 -15

-26 -15 -8 0 -14 -4 -14 -10 0 -5 10 -10 23 -10 12 0 31 -7 41 -15 11 -8 15

-15 9 -15 -7 0 -14 4 -17 9 -5 7 -59 8 -131 2 -5 -1 -5 -5 2 -9 9 -6 9 -13 0

-32 -14 -29 -57 -40 -57 -16 0 9 -5 16 -11 16 -6 0 -8 -9 -4 -20 8 -24 -3 -25

-33 -4 -12 8 -27 12 -34 8 -6 -4 -8 -3 -5 3 7 11 -13 23 -38 23 -8 0 -21 -7

-30 -16 -9 -9 -19 -13 -23 -9 -4 4 -1 10 6 12 19 7 14 21 -9 25 -19 3 -18 6

15 40 l36 37 0 -34 c0 -34 1 -35 38 -35 21 0 43 -5 48 -10 7 -7 19 -6 37 3 31

16 25 27 -12 27 -46 0 -70 11 -73 33 -2 17 -12 23 -43 28 -22 4 -44 4 -48 0

-13 -12 -57 0 -57 15 0 8 -5 14 -10 14 -6 0 -15 11 -21 24 -6 13 -22 30 -35

37 -13 7 -24 18 -24 26 0 7 -4 13 -9 13 -5 0 -15 2 -23 4 -7 3 -19 2 -25 -1z"/>

<path d="M5684 6929 c5 -22 2 -25 -17 -25 -19 1 -23 -6 -31 -49 -10 -61 8

-143 28 -126 9 8 23 -1 53 -33 36 -38 41 -41 51 -26 13 21 -3 41 -24 33 -8 -3

-18 5 -24 22 -14 37 -12 53 5 31 21 -28 39 -14 41 32 2 38 1 41 -17 31 -11 -5

-17 -15 -13 -21 4 -6 1 -9 -7 -6 -8 2 -15 17 -17 31 -2 15 -13 32 -25 39 -21

11 -21 12 10 22 39 13 45 25 18 40 -11 6 -24 16 -28 21 -5 6 -6 -1 -3 -16z"/>

<path d="M6935 4202 c-22 -20 -146 -44 -189 -38 -49 8 -177 -24 -208 -52 -20

-17 -23 -60 -7 -96 10 -21 16 -24 48 -19 20 3 38 7 40 10 8 6 -33 32 -51 33

-19 0 -34 41 -23 60 4 7 33 11 73 9 42 -1 82 4 107 14 22 9 54 16 70 17 29 0

189 51 202 63 10 10 -51 8 -62 -1z"/>

</g>

</svg>

