<?xml version="1.0" standalone="no"?>

<!DOCTYPE svg PUBLIC "-//W3C//DTD SVG 20010904//EN"

 "http://www.w3.org/TR/2001/REC-SVG-20010904/DTD/svg10.dtd">

<svg version="1.0" xmlns="http://www.w3.org/2000/svg"

 width="113.385827" height="59.112852" viewBox="0 0 113.385827 59.112852"

 preserveAspectRatio="xMidYMid meet">

<metadata>

Created by potrace 1.15, written by Peter Selinger 2001-2017

</metadata>

<g transform="translate(0.000000,59.444997) scale(0.013760,-0.013760)"

fill="#000000" stroke="none">

<path d="M0 3960 l0 -360 3070 0 3070 0 0 360 0 360 -3070 0 -3070 0 0 -360z

m6120 0 l0 -340 -3050 0 -3050 0 0 340 0 340 3050 0 3050 0 0 -340z"/>

<path d="M1557 4053 c-4 -3 -7 -15 -7 -25 0 -12 -7 -18 -22 -18 -31 0 -45 -11

-57 -43 -7 -19 -7 -35 0 -54 13 -35 26 -43 72 -43 l37 0 0 95 c0 87 -5 107

-23 88z"/>

<path d="M1830 4036 c0 -22 -4 -26 -29 -26 -53 0 -79 -69 -45 -118 13 -19 24

-22 57 -20 l42 3 0 89 c0 63 -4 91 -12 94 -8 2 -13 -6 -13 -22z"/>

<path d="M840 3960 c0 -73 3 -90 15 -90 10 0 15 11 15 35 0 28 4 35 19 35 11

0 28 -15 40 -35 32 -55 58 -41 27 14 -8 14 -12 40 -9 61 7 48 -15 70 -68 70

l-39 0 0 -90z"/>

<path d="M3048 4033 c-34 -38 -34 -115 -2 -148 20 -19 58 -19 78 1 36 35 7

104 -43 104 -35 0 -19 25 17 28 20 2 32 9 32 18 0 21 -63 18 -82 -3z"/>

<path d="M3466 4031 c-46 -50 -23 -161 33 -161 15 0 35 8 44 18 35 39 9 102

-42 102 -35 0 -19 25 17 28 20 2 32 9 32 18 0 22 -63 18 -84 -5z"/>

<path d="M3740 4023 c-18 -22 -21 -37 -17 -75 2 -26 10 -54 17 -63 17 -21 63

-19 83 3 35 39 9 102 -42 102 -35 0 -19 25 17 28 45 5 43 32 -2 32 -26 0 -40

-7 -56 -27z"/>

<path d="M3873 4043 c-7 -2 -13 -11 -13 -18 0 -10 9 -12 35 -8 56 9 56 -18 1

-77 -26 -28 -44 -55 -41 -60 10 -15 128 -13 123 3 -3 6 -19 14 -37 17 l-32 5

30 35 c34 39 39 71 15 94 -15 15 -55 20 -81 9z"/>

<path d="M4016 4028 c-9 -12 -16 -29 -16 -38 0 -31 30 -60 62 -60 26 0 29 -2

18 -15 -7 -8 -25 -15 -41 -15 -19 0 -29 -5 -29 -15 0 -21 64 -20 84 1 31 30

34 116 5 150 -18 22 -66 17 -83 -8z"/>

<path d="M4153 4043 c-7 -2 -13 -11 -13 -18 0 -10 11 -12 41 -8 36 5 41 4 37

-13 -2 -12 -13 -20 -31 -22 -35 -4 -30 -26 6 -30 21 -3 27 -9 27 -29 0 -24 -2

-25 -41 -20 -34 4 -40 3 -37 -11 2 -12 15 -18 44 -20 47 -3 67 13 65 55 0 16

-1 43 -1 62 0 18 -5 40 -11 47 -11 14 -61 18 -86 7z"/>

<path d="M4507 4032 c-35 -39 -9 -102 42 -102 35 0 19 -25 -17 -28 -45 -5 -43

-32 1 -32 42 0 67 26 74 78 7 55 -18 102 -56 102 -15 0 -35 -8 -44 -18z"/>

<path d="M4787 4032 c-12 -13 -17 -36 -17 -74 0 -64 21 -91 67 -86 23 2 31 11

43 46 13 37 13 47 0 85 -13 36 -20 42 -46 45 -20 2 -36 -3 -47 -16z"/>

<path d="M4927 4032 c-24 -27 -24 -123 1 -145 60 -55 124 32 90 121 -11 30

-19 38 -44 40 -20 2 -36 -4 -47 -16z"/>

<path d="M5066 4028 c-21 -29 -21 -107 0 -136 12 -17 24 -22 47 -20 70 7 70

109 0 116 -45 4 -33 32 14 32 47 0 39 24 -9 28 -28 2 -40 -2 -52 -20z"/>

<path d="M5215 3996 c-45 -70 -45 -86 -1 -86 25 0 35 -5 39 -20 3 -11 10 -20

15 -20 15 0 44 62 33 70 -5 3 -11 28 -13 55 -4 72 -27 72 -73 1z"/>

<path d="M999 3994 c-21 -26 -17 -93 6 -110 26 -19 90 -15 90 6 0 11 -9 14

-37 12 -29 -3 -38 0 -38 12 0 12 10 16 40 16 37 0 40 2 40 28 0 15 -5 33 -12

40 -17 17 -73 15 -89 -4z"/>

<path d="M1256 3988 c-34 -49 -8 -118 44 -118 18 0 34 8 44 22 34 49 8 118

-44 118 -18 0 -34 -8 -44 -22z"/>

<path d="M1620 3995 c-21 -25 -18 -95 5 -111 26 -19 90 -15 90 6 0 11 -9 14

-37 12 -29 -3 -38 0 -38 12 0 10 13 16 43 18 38 3 42 5 39 28 -2 14 -9 31 -14

38 -14 17 -73 15 -88 -3z"/>

<path d="M1960 4000 c-22 -14 -4 -25 38 -22 35 2 35 1 12 -9 -49 -22 -55 -26

-58 -48 -5 -34 16 -51 64 -51 l44 0 0 54 c0 36 -5 60 -16 70 -17 18 -61 21

-84 6z"/>

<path d="M2394 3996 c-10 -25 1 -119 14 -124 8 -2 12 9 12 36 0 53 8 72 31 72

16 0 19 -8 19 -55 0 -41 4 -55 14 -55 11 0 16 15 18 53 3 45 6 52 26 55 21 3

22 0 22 -52 0 -43 3 -56 15 -56 11 0 15 12 15 51 0 81 -7 87 -100 87 -58 1

-82 -3 -86 -12z"/>

<path d="M2616 3988 c-35 -50 -8 -118 47 -118 35 0 65 15 54 26 -4 4 -24 8

-44 8 -56 1 -55 26 1 26 42 0 46 2 46 24 0 54 -74 78 -104 34z"/>

<path d="M2930 3254 c-14 -2 -59 -9 -100 -15 -221 -33 -417 -136 -474 -250

-33 -67 -33 -111 0 -178 70 -139 310 -244 613 -267 l91 -7 0 -798 0 -799 -35

0 c-19 0 -35 -4 -35 -8 0 -4 15 -53 34 -109 l34 -100 -107 -7 c-365 -23 -653

-138 -722 -290 -23 -51 -23 -80 0 -131 54 -120 250 -219 536 -271 141 -25 469

-25 610 0 286 52 482 151 536 271 23 51 23 80 0 130 -70 153 -356 268 -723

291 -60 4 -108 7 -108 8 0 1 16 45 35 99 19 54 35 102 35 107 0 6 -16 10 -35

10 l-35 0 0 799 0 798 93 8 c304 23 541 126 611 266 33 67 33 111 0 178 -55

109 -220 201 -444 246 -73 15 -359 28 -410 19z m410 -39 c329 -66 507 -227

431 -390 -50 -108 -233 -206 -461 -246 -99 -18 -384 -18 -480 0 -286 51 -480

181 -480 321 0 142 206 279 480 319 41 6 86 13 100 15 51 9 337 -4 410 -19z

m-70 -2525 c264 -28 469 -100 572 -201 177 -176 -26 -369 -472 -446 -131 -23

-469 -23 -600 0 -291 50 -495 156 -531 276 -70 234 471 429 1031 371z"/>

<path d="M3190 2973 c0 -27 -1 -28 -45 -25 l-45 4 0 -72 c0 -53 3 -71 13 -68

7 3 13 26 15 55 3 48 5 51 32 55 l30 5 0 -60 c0 -42 3 -58 13 -54 8 2 12 30

12 92 0 62 -4 90 -12 93 -9 2 -13 -6 -13 -25z"/>

<path d="M3330 2976 c0 -22 -4 -26 -29 -26 -53 0 -79 -69 -45 -118 13 -19 24

-22 57 -20 l42 3 0 89 c0 63 -4 91 -12 94 -8 2 -13 -6 -13 -22z"/>

<path d="M2776 2923 c29 -117 48 -137 69 -73 l12 35 7 -38 c11 -59 36 -45 57

32 10 36 17 67 14 69 -10 10 -35 -9 -35 -27 0 -33 -18 -33 -25 -1 -9 39 -34

39 -41 0 -4 -16 -10 -30 -14 -30 -4 0 -10 14 -13 30 -4 18 -13 30 -22 30 -12

0 -14 -6 -9 -27z"/>

<path d="M2970 2931 c-5 -11 -10 -34 -10 -51 0 -47 16 -70 50 -70 39 0 60 24

60 70 0 22 -7 45 -16 54 -22 23 -71 20 -84 -3z"/>

<path d="M3030 425 c0 -11 -12 -15 -45 -15 l-45 0 0 -70 c0 -54 3 -70 14 -70

11 0 16 15 18 53 3 48 5 52 31 55 25 3 27 1 27 -37 0 -43 20 -71 51 -71 25 0

25 26 -1 33 -15 4 -20 14 -20 41 0 29 4 36 20 36 11 0 20 7 20 15 0 8 -9 15

-20 15 -11 0 -20 7 -20 15 0 8 -7 15 -15 15 -8 0 -15 -7 -15 -15z"/>

<path d="M3186 388 c-35 -50 -8 -118 47 -118 35 0 65 15 54 26 -4 4 -24 8 -44

8 -56 1 -55 26 1 26 40 0 46 3 46 21 0 39 -19 59 -55 59 -24 0 -39 -7 -49 -22z"/>

<path d="M4370 2266 c0 -22 -4 -26 -29 -26 -53 0 -79 -69 -45 -118 13 -18 23

-22 57 -20 l42 3 0 89 c0 63 -4 91 -12 94 -8 2 -13 -6 -13 -22z"/>

<path d="M5886 2275 c-9 -9 -16 -21 -16 -26 0 -5 -13 -9 -30 -9 -20 0 -30 5

-30 15 0 22 -27 18 -33 -5 -8 -32 8 -131 24 -141 22 -14 49 -11 49 6 0 8 -9

15 -20 15 -17 0 -20 7 -20 40 0 38 2 40 30 40 30 0 30 -1 30 -55 0 -42 3 -55

15 -55 12 0 15 13 15 55 0 42 3 55 15 55 8 0 15 7 15 15 0 8 -7 15 -15 15 -8

0 -15 5 -15 10 0 6 9 10 21 10 12 0 19 5 17 13 -7 19 -34 20 -52 2z"/>

<path d="M6054 2277 c-3 -8 -4 -49 -2 -93 l3 -79 42 -3 c33 -2 44 1 57 20 34

49 8 118 -45 118 -24 0 -29 4 -29 25 0 26 -17 34 -26 12z"/>

<path d="M6637 2283 c-4 -3 -7 -15 -7 -25 0 -12 -7 -18 -22 -18 -31 0 -45 -11

-57 -43 -7 -19 -7 -35 0 -54 13 -35 26 -43 72 -43 l37 0 0 95 c0 87 -5 107

-23 88z"/>

<path d="M3790 2190 l0 -90 40 0 c49 0 85 30 75 63 -4 12 -6 39 -5 59 1 43

-18 58 -74 58 l-36 0 0 -90z"/>

<path d="M4026 2218 c-34 -49 -8 -118 44 -118 18 0 34 8 44 22 34 49 8 118

-44 118 -18 0 -34 -8 -44 -22z"/>

<path d="M4157 2233 c-19 -19 -5 -32 31 -27 l37 5 -35 -18 c-65 -34 -49 -96

24 -91 41 3 41 3 44 46 4 59 -18 92 -62 92 -18 0 -36 -3 -39 -7z"/>

<path d="M4550 2225 c-14 -16 -11 -17 40 -16 34 1 34 0 10 -10 -49 -22 -55

-26 -58 -48 -5 -34 16 -51 64 -51 l44 0 0 58 c0 32 -5 63 -12 70 -17 17 -73

15 -88 -3z"/>

<path d="M4898 2228 c-37 -30 -25 -113 17 -124 36 -9 69 -1 73 18 3 14 -3 15

-37 11 -33 -5 -41 -3 -41 10 0 11 12 17 43 19 38 3 42 5 39 28 -5 35 -20 50

-51 50 -15 0 -34 -6 -43 -12z"/>

<path d="M5330 2169 c0 -52 3 -70 13 -67 7 3 13 26 15 56 3 43 6 52 22 52 16

0 19 -9 22 -52 4 -63 28 -80 28 -20 0 53 8 72 31 72 16 0 19 -8 19 -55 0 -42

3 -55 15 -55 19 0 22 112 3 127 -7 6 -48 11 -90 11 l-78 1 0 -70z"/>

<path d="M6290 2221 c-5 -11 -10 -34 -10 -51 0 -50 16 -70 55 -70 39 0 55 20

55 70 0 50 -16 70 -55 70 -24 0 -38 -6 -45 -19z"/>

<path d="M6420 2225 c-14 -16 -11 -17 40 -16 34 1 34 0 10 -10 -49 -22 -55

-26 -58 -48 -5 -34 16 -51 64 -51 l44 0 0 58 c0 32 -5 63 -12 70 -17 17 -73

15 -88 -3z"/>

<path d="M6817 2233 c-19 -19 -5 -32 31 -27 l37 5 -35 -18 c-65 -34 -49 -96

24 -91 41 3 41 3 44 46 4 59 -18 92 -62 92 -18 0 -36 -3 -39 -7z"/>

<path d="M7156 2218 c-35 -50 -8 -118 47 -118 35 0 65 15 54 26 -4 4 -24 8

-44 8 -56 1 -55 26 1 26 42 0 46 2 46 24 0 54 -74 78 -104 34z"/>

<path d="M3819 1973 c-55 -143 -57 -153 -39 -153 6 0 16 11 22 25 9 19 19 25

44 25 26 0 33 -5 38 -25 6 -23 36 -36 36 -16 0 6 -14 46 -32 90 -33 86 -51

100 -69 54z"/>

<path d="M5372 1989 c-26 -10 -25 -36 2 -31 13 2 16 -7 16 -53 0 -42 -3 -55

-15 -55 -8 0 -15 -7 -15 -15 0 -11 12 -15 50 -15 38 0 50 4 50 15 0 8 -7 15

-15 15 -11 0 -15 17 -17 72 -3 78 -10 86 -56 67z"/>

<path d="M5492 1988 c-21 -21 -13 -27 29 -25 25 1 44 -3 46 -10 3 -7 -16 -34

-41 -61 -25 -27 -46 -54 -46 -61 0 -8 19 -11 63 -9 68 3 85 21 24 26 l-38 3

35 40 c40 44 43 55 20 87 -17 25 -71 31 -92 10z"/>

<path d="M5646 1978 c-21 -29 -21 -107 0 -136 12 -17 24 -22 47 -20 70 7 70

109 0 116 -45 4 -33 32 14 32 47 0 39 24 -9 28 -28 2 -40 -2 -52 -20z"/>

<path d="M5990 1981 c-25 -49 -1 -101 47 -101 39 0 22 -25 -21 -28 -47 -4 -43

-26 5 -30 50 -4 71 23 71 88 0 35 -5 57 -17 70 -24 26 -71 26 -85 1z"/>

<path d="M6122 1988 c-22 -22 -13 -28 28 -22 36 6 40 5 40 -15 0 -12 -18 -41

-40 -65 -22 -24 -40 -48 -40 -55 0 -7 22 -11 60 -11 47 0 60 3 60 15 0 11 -11

15 -37 15 l-37 0 26 28 c40 43 49 65 35 93 -14 27 -73 39 -95 17z"/>

<path d="M4076 1944 c-21 -20 -21 -88 0 -109 21 -20 88 -17 92 5 2 11 -7 15

-34 15 -21 0 -39 6 -41 13 -3 8 9 12 41 12 37 0 46 3 46 18 0 52 -68 82 -104

46z"/>

<path d="M4200 1889 c0 -53 3 -69 14 -69 11 0 16 15 18 53 l3 52 65 2 c43 1

60 -1 50 -7 -8 -6 -23 -10 -33 -10 -25 0 -42 -42 -28 -69 10 -17 20 -21 56

-19 l45 1 0 57 c0 34 -5 62 -12 68 -7 5 -50 10 -95 10 l-83 1 0 -70z"/>

<path d="M4436 1945 c-40 -40 -5 -135 44 -122 14 3 20 1 17 -6 -2 -7 -18 -11

-36 -9 -22 1 -31 -2 -31 -13 0 -19 73 -21 88 -2 6 7 12 46 13 87 l2 75 -40 3

c-27 2 -46 -2 -57 -13z"/>

<path d="M4567 1942 c-23 -25 -22 -85 1 -105 23 -21 75 -22 92 -2 7 8 9 15 4

16 -5 0 -24 1 -43 2 -54 3 -52 27 3 27 37 0 46 3 46 18 0 53 -68 82 -103 44z"/>

<path d="M4760 1890 c0 -54 3 -70 14 -70 11 0 16 15 18 52 3 47 6 52 31 59 15

4 27 3 27 -1 0 -5 17 -6 38 -4 28 4 33 3 22 -5 -8 -6 -22 -11 -31 -11 -18 0

-37 -37 -31 -62 4 -20 32 -29 77 -25 28 2 30 6 33 45 2 27 -3 53 -12 67 -14

22 -23 24 -101 24 l-85 0 0 -69z"/>

<path d="M5088 1948 c-37 -30 -25 -113 17 -124 36 -9 69 -1 73 18 3 14 -3 15

-37 11 -33 -5 -41 -3 -41 10 0 11 12 17 43 19 38 3 42 5 39 28 -5 35 -20 50

-51 50 -15 0 -34 -6 -43 -12z"/>

<path d="M4088 1715 c-7 -9 -19 -23 -27 -31 -10 -11 -11 -18 -2 -27 6 -6 11

-35 11 -64 0 -40 4 -53 15 -53 12 0 15 13 15 55 0 52 1 55 25 55 24 0 25 -3

25 -55 0 -42 3 -55 15 -55 12 0 15 13 15 55 0 42 3 55 15 55 8 0 15 7 15 15 0

8 -7 15 -15 15 -23 0 -18 17 7 24 18 4 20 8 11 17 -16 16 -63 -4 -63 -26 0 -9

-9 -15 -25 -15 -14 0 -25 5 -25 10 0 6 9 10 21 10 12 0 19 5 17 13 -7 19 -35

20 -50 2z"/>

<path d="M5070 1635 c0 -76 3 -95 14 -95 11 0 16 15 18 53 3 45 6 52 26 55 21

3 22 0 22 -52 0 -43 3 -56 15 -56 11 0 15 12 15 51 0 66 -13 89 -50 89 -25 0

-30 4 -30 25 0 16 -6 25 -15 25 -12 0 -15 -17 -15 -95z"/>

<path d="M3790 1630 l0 -90 40 0 c49 0 85 30 75 63 -4 12 -6 39 -5 59 1 43

-18 58 -74 58 l-36 0 0 -90z"/>

<path d="M5720 1711 c-9 -7 -15 -31 -17 -75 -2 -74 10 -96 56 -96 35 0 53 20

52 57 0 16 0 43 0 62 0 18 -5 39 -12 47 -13 16 -57 18 -79 5z"/>

<path d="M5856 1704 c-36 -35 -7 -104 43 -104 35 0 19 -25 -17 -28 -45 -5 -43

-32 1 -32 62 0 94 71 63 143 -12 31 -20 37 -45 37 -16 0 -37 -7 -45 -16z"/>

<path d="M4229 1664 c-21 -26 -17 -93 6 -110 26 -19 90 -15 90 6 0 11 -9 14

-37 12 -29 -3 -38 0 -38 12 0 12 10 16 40 16 37 0 40 2 40 28 0 15 -5 33 -12

40 -17 17 -73 15 -89 -4z"/>

<path d="M4586 1658 c-35 -50 -8 -118 47 -118 35 0 65 15 54 26 -4 4 -24 8

-44 8 -56 1 -55 26 1 26 42 0 46 2 46 24 0 54 -74 78 -104 34z"/>

<path d="M4860 1661 c-15 -30 -12 -88 7 -106 9 -10 26 -15 40 -12 12 2 23 1

23 -3 0 -13 -30 -20 -57 -14 -19 5 -24 3 -21 -7 6 -18 75 -24 94 -8 10 8 14

34 14 90 l0 79 -45 0 c-34 0 -47 -5 -55 -19z"/>

<path d="M3794 1427 c-10 -26 1 -160 13 -164 8 -3 13 11 15 39 4 43 4 43 16

16 6 -16 18 -28 26 -28 8 0 19 12 24 28 10 26 10 25 11 -15 1 -31 5 -43 16

-43 12 0 15 17 15 90 0 104 -17 121 -46 45 -19 -50 -26 -49 -44 8 -11 37 -36

49 -46 24z"/>

<path d="M6536 1418 c-23 -32 -21 -120 2 -141 25 -23 69 -22 82 2 28 53 4 101

-50 101 -37 0 -16 25 24 28 47 4 43 26 -6 30 -28 2 -40 -2 -52 -20z"/>

<path d="M6956 1421 c-25 -27 -25 -114 -1 -141 36 -40 95 -15 95 40 0 35 -23

60 -57 60 -39 0 -22 25 21 28 47 4 43 26 -5 30 -25 2 -40 -3 -53 -17z"/>

<path d="M7235 1420 c-26 -28 -26 -111 0 -140 36 -40 95 -16 95 40 0 35 -23

60 -57 60 -39 0 -22 25 21 28 47 4 43 26 -5 30 -25 2 -40 -3 -54 -18z"/>

<path d="M7363 1433 c-7 -2 -13 -11 -13 -19 0 -11 9 -13 40 -8 34 6 40 4 40

-12 0 -10 -18 -39 -40 -65 -22 -26 -40 -52 -40 -58 0 -7 24 -11 60 -11 47 0

60 3 60 15 0 11 -11 15 -36 15 l-36 0 31 35 c32 37 41 81 19 103 -12 12 -62

15 -85 5z"/>

<path d="M7510 1424 c-34 -40 -5 -104 47 -104 16 0 21 -4 17 -15 -4 -9 -19

-15 -41 -15 -44 0 -40 -24 5 -28 46 -5 72 26 72 86 0 27 -7 57 -16 70 -18 26

-65 30 -84 6z"/>

<path d="M7640 1430 c-22 -14 -3 -25 36 -21 29 2 34 -1 34 -18 0 -16 -6 -21

-25 -21 -35 0 -33 -28 3 -32 19 -2 27 -9 27 -23 0 -17 -6 -20 -42 -19 -28 0

-43 -4 -43 -12 0 -28 79 -33 103 -6 18 20 23 57 9 66 -5 3 -7 19 -4 36 2 16

-1 37 -8 45 -14 17 -67 20 -90 5z"/>

<path d="M8000 1425 c-7 -8 -10 -29 -8 -45 3 -17 1 -33 -4 -36 -15 -9 -8 -50

10 -67 23 -21 66 -22 86 -1 18 17 21 60 6 69 -7 4 -6 13 1 26 25 47 -57 95

-91 54z"/>

<path d="M8133 1433 c-7 -2 -13 -11 -13 -19 0 -11 9 -13 40 -8 35 6 40 4 40

-13 0 -10 -18 -37 -40 -58 -22 -21 -40 -47 -40 -57 0 -15 9 -18 60 -18 47 0

60 3 60 15 0 11 -11 15 -36 15 l-35 0 30 37 c32 39 40 80 19 101 -12 12 -62

15 -85 5z"/>

<path d="M3986 1385 c-9 -10 -16 -33 -16 -55 0 -48 22 -72 63 -68 41 4 60 47

43 98 -9 29 -16 36 -42 38 -19 2 -38 -3 -48 -13z"/>

<path d="M4476 1378 c-35 -50 -8 -118 47 -118 35 0 65 15 54 26 -4 4 -24 8

-44 8 -56 1 -55 26 1 26 40 0 46 3 46 21 0 39 -19 59 -55 59 -24 0 -39 -7 -49

-22z"/>

<path d="M4736 1384 c-22 -22 -21 -87 2 -107 23 -21 75 -22 92 -2 7 8 9 15 4

16 -5 0 -24 1 -43 2 -54 3 -52 27 3 27 37 0 46 3 46 18 0 52 -68 82 -104 46z"/>

<path d="M5240 1330 c0 -54 3 -70 14 -70 11 0 16 15 18 52 3 47 6 52 31 59 15

4 27 3 27 -1 0 -5 17 -7 38 -4 l37 4 -32 -15 c-80 -37 -58 -100 32 -92 28 2

30 6 33 45 2 27 -3 53 -12 67 -14 22 -23 24 -101 24 l-85 0 0 -69z"/>

<path d="M5806 1378 c-34 -49 -8 -118 44 -118 18 0 34 8 44 22 34 49 8 118

-44 118 -18 0 -34 -8 -44 -22z"/>

<path d="M5930 1330 c0 -54 3 -70 14 -70 11 0 16 15 18 52 3 47 6 52 31 59

l27 7 0 -59 c0 -45 3 -59 14 -59 11 0 16 15 18 53 3 45 6 52 26 55 21 3 22 0

22 -52 0 -42 4 -56 14 -56 11 0 16 15 18 53 3 45 6 52 26 55 21 3 22 0 22 -52

0 -43 3 -56 15 -56 11 0 15 12 15 51 0 86 -1 87 -150 88 l-130 1 0 -70z"/>

<path d="M4100 1146 c0 -22 -4 -26 -29 -26 -53 0 -79 -69 -45 -118 13 -18 23

-22 57 -20 l42 3 0 89 c0 63 -4 91 -12 94 -8 2 -13 -6 -13 -22z"/>

<path d="M3802 1137 c-29 -31 -30 -95 -1 -131 27 -34 77 -36 107 -3 30 31 30

104 2 135 -28 30 -80 29 -108 -1z"/>

<path d="M5948 1143 c-34 -38 -34 -115 -2 -148 36 -35 94 -7 94 45 0 35 -23

60 -57 60 -36 0 -23 24 15 28 20 2 32 9 32 18 0 21 -63 18 -82 -3z"/>

<path d="M6368 1143 c-34 -38 -34 -115 -2 -148 35 -34 94 -5 94 47 0 30 -28

58 -59 58 -35 0 -19 25 17 28 20 2 32 9 32 18 0 21 -63 18 -82 -3z"/>

<path d="M6647 1142 c-21 -23 -31 -73 -23 -106 13 -53 67 -74 99 -38 35 39 9

102 -42 102 -35 0 -19 25 17 28 20 2 32 9 32 18 0 21 -63 18 -83 -4z"/>

<path d="M6773 1153 c-7 -2 -13 -11 -13 -18 0 -10 11 -12 40 -8 35 5 40 3 40

-14 0 -10 -18 -37 -40 -58 -22 -21 -40 -47 -40 -57 0 -15 9 -18 61 -18 44 0

60 3 57 13 -3 6 -19 13 -37 15 l-32 3 31 39 c31 40 38 78 18 98 -12 12 -62 15

-85 5z"/>

<path d="M6916 1138 c-9 -12 -16 -29 -16 -38 0 -31 30 -60 62 -60 26 0 29 -2

18 -15 -7 -8 -26 -15 -42 -15 -32 0 -35 -22 -4 -28 34 -7 64 8 76 38 14 34 8

103 -10 125 -19 23 -66 19 -84 -7z"/>

<path d="M7267 1142 c-35 -39 -9 -102 42 -102 35 0 19 -25 -17 -28 -45 -5 -43

-32 2 -32 51 0 79 40 73 102 -2 26 -10 54 -17 63 -17 21 -63 19 -83 -3z"/>

<path d="M7407 1142 c-35 -39 -9 -102 42 -102 35 0 19 -25 -17 -28 -45 -5 -43

-32 2 -32 51 0 79 40 73 102 -2 26 -10 54 -17 63 -17 21 -63 19 -83 -3z"/>

<path d="M7537 1153 c-20 -19 -5 -31 34 -26 36 5 41 4 37 -13 -2 -12 -13 -20

-31 -22 -35 -4 -30 -26 6 -30 21 -3 27 -9 27 -29 0 -24 -2 -25 -39 -20 -45 6

-56 0 -40 -20 15 -17 83 -17 97 0 14 16 13 138 0 155 -11 13 -80 17 -91 5z"/>

<path d="M4166 1098 c-35 -50 -8 -118 47 -118 35 0 65 15 54 26 -4 4 -24 8

-44 8 -56 1 -55 26 1 26 42 0 46 2 46 24 0 54 -74 78 -104 34z"/>

<path d="M4650 1049 c0 -53 3 -69 14 -69 11 0 16 15 18 53 l3 52 65 2 c43 1

60 -1 50 -7 -8 -6 -23 -10 -33 -10 -25 0 -42 -42 -28 -69 10 -17 20 -21 56

-19 l45 1 0 57 c0 34 -5 62 -12 68 -7 5 -50 10 -95 10 l-83 1 0 -70z"/>

<path d="M5217 1102 c-21 -23 -22 -86 -1 -106 20 -21 68 -20 85 0 17 20 16 88

-1 109 -17 21 -63 19 -83 -3z"/>

<path d="M5340 1050 c0 -54 3 -70 14 -70 11 0 16 15 18 52 3 47 6 52 31 59

l27 7 0 -59 c0 -45 3 -59 14 -59 11 0 16 15 18 53 3 44 6 52 23 52 17 0 20 -8

23 -53 4 -68 25 -65 32 4 4 41 8 49 25 49 17 0 20 -8 23 -53 4 -70 27 -66 27

4 -1 84 3 82 -144 82 l-131 1 0 -69z"/>

</g>

</svg>

