<?xml version="1.0" standalone="no"?>

<!DOCTYPE svg PUBLIC "-//W3C//DTD SVG 20010904//EN"

 "http://www.w3.org/TR/2001/REC-SVG-20010904/DTD/svg10.dtd">

<svg version="1.0" xmlns="http://www.w3.org/2000/svg"

 width="113.385827" height="114.214533" viewBox="0 0 113.385827 114.214533"

 preserveAspectRatio="xMidYMid meet">

<metadata>

Created by potrace 1.15, written by Peter Selinger 2001-2017

</metadata>

<g transform="translate(-56.668219,170.857438) scale(0.037905,-0.037905)"

fill="#000000" stroke="none">

<path d="M2855 4504 c-130 -19 -235 -41 -322 -69 -457 -149 -819 -511 -968

-968 -53 -163 -70 -278 -70 -467 0 -119 5 -193 19 -265 117 -626 595 -1104

1221 -1221 138 -26 392 -26 530 0 309 58 579 199 800 421 222 221 363 491 421

800 26 138 26 392 0 530 -115 616 -582 1092 -1192 1215 -95 20 -367 34 -439

24z m440 -44 c297 -63 541 -195 756 -409 215 -216 345 -456 410 -761 19 -88

23 -136 23 -290 0 -154 -4 -202 -23 -290 -65 -305 -195 -545 -410 -761 -216

-215 -456 -345 -761 -410 -151 -33 -429 -33 -580 0 -304 65 -546 196 -761 410

-215 216 -345 456 -410 761 -33 151 -33 429 0 580 65 305 195 545 410 760 241

241 528 383 871 430 106 15 361 4 475 -20z"/>

<path d="M1880 3000 l0 -180 25 0 c25 0 25 0 25 94 0 102 8 120 56 132 17 4

31 0 44 -11 17 -16 20 -31 20 -117 l0 -98 26 0 27 0 -5 110 c-4 86 -10 115

-23 130 -26 28 -76 35 -114 16 l-31 -17 0 61 c0 57 -1 60 -25 60 l-25 0 0

-180z"/>

<path d="M2440 3000 l0 -180 25 0 25 0 0 180 0 180 -25 0 -25 0 0 -180z"/>

<path d="M2550 3000 l0 -180 25 0 25 0 0 180 0 180 -25 0 -25 0 0 -180z"/>

<path d="M3880 3000 l0 -180 25 0 25 0 0 180 0 180 -25 0 -25 0 0 -180z"/>

<path d="M4170 3121 l0 -60 -34 14 c-69 29 -141 -21 -146 -100 -5 -74 0 -94

34 -129 39 -42 74 -46 124 -16 26 16 32 17 32 5 0 -8 9 -15 20 -15 19 0 20 7

20 180 l0 180 -25 0 c-24 0 -25 -3 -25 -59z m-25 -96 c50 -50 22 -175 -40

-175 -37 0 -66 31 -72 77 -13 95 56 155 112 98z"/>

<path d="M2223 3075 c-65 -28 -95 -134 -58 -205 35 -68 135 -79 188 -20 15 16

27 35 27 40 0 19 -37 10 -60 -15 -43 -46 -120 -20 -120 40 0 25 0 25 95 25

l96 0 -7 38 c-9 52 -30 81 -69 98 -42 17 -51 17 -92 -1z"/>

<path d="M2713 3076 c-42 -19 -64 -65 -64 -133 0 -93 58 -145 146 -129 40 8

71 43 86 99 31 116 -65 209 -168 163z m107 -53 c18 -23 21 -38 18 -80 -6 -64

-28 -93 -73 -93 -39 0 -64 25 -72 73 -16 102 71 171 127 100z"/>

<path d="M3493 3076 c-42 -19 -64 -65 -64 -133 0 -93 58 -145 146 -129 40 8

71 43 86 99 31 116 -65 209 -168 163z m107 -53 c18 -23 21 -38 18 -80 -6 -64

-28 -93 -73 -93 -39 0 -64 25 -72 73 -16 102 71 171 127 100z"/>

<path d="M3796 3069 c-21 -17 -26 -18 -26 -5 0 10 -9 16 -25 16 l-25 0 0 -130

0 -130 25 0 c25 0 25 1 25 90 0 77 3 93 20 110 11 11 29 20 40 20 15 0 20 7

20 25 0 31 -18 32 -54 4z"/>

<path d="M3060 3067 c0 -7 7 -33 14 -58 8 -24 24 -77 36 -116 18 -63 24 -73

43 -73 21 0 25 10 46 95 13 52 24 95 26 95 4 0 22 -63 45 -147 9 -35 15 -43

33 -43 21 0 27 12 57 118 18 64 36 123 38 130 3 10 -2 13 -18 10 -20 -3 -27

-15 -48 -96 -14 -51 -27 -90 -29 -88 -3 3 -15 44 -27 93 -20 81 -24 88 -48 91

-25 3 -27 0 -48 -93 -13 -53 -25 -94 -27 -91 -3 2 -15 44 -27 93 -19 75 -25

88 -44 91 -14 2 -22 -2 -22 -11z"/>

</g>

</svg>

