<?xml version="1.0" standalone="no"?>

<!DOCTYPE svg PUBLIC "-//W3C//DTD SVG 20010904//EN"

 "http://www.w3.org/TR/2001/REC-SVG-20010904/DTD/svg10.dtd">

<svg version="1.0" xmlns="http://www.w3.org/2000/svg"

 width="113.385827" height="200.604952" viewBox="0 0 113.385827 200.604952"

 preserveAspectRatio="xMidYMid meet">

<metadata>

Created by potrace 1.15, written by Peter Selinger 2001-2017

</metadata>

<g transform="translate(0.000241,200.604952) scale(0.009279,-0.009279)"

fill="#000000" stroke="none">

<path d="M0 14146 c0 -5962 3 -7475 13 -7479 9 -4 9 -6 0 -6 -10 -1 -13 -466

-13 -2290 l0 -2288 22 -49 c12 -27 25 -69 29 -94 3 -25 14 -72 22 -105 9 -33

24 -118 33 -190 22 -177 31 -241 43 -300 44 -218 46 -246 46 -726 -1 -316 -4

-478 -12 -505 -6 -21 -16 -56 -21 -76 l-10 -38 933 0 933 0 11 33 c11 32 79

106 111 121 8 4 31 15 50 26 31 16 38 17 57 4 12 -8 47 -14 77 -14 46 0 56 3

61 20 5 14 15 20 37 20 19 0 46 11 67 28 20 15 62 44 95 65 32 21 65 45 73 53

21 20 45 17 94 -10 34 -20 45 -33 55 -68 15 -53 40 -122 59 -165 8 -17 15 -40

15 -52 0 -12 5 -21 10 -21 6 0 10 -9 10 -20 0 -20 7 -20 404 -20 237 0 407 4

411 9 3 5 20 13 37 17 53 11 128 65 128 91 0 16 9 28 70 91 25 26 55 60 67 75

22 29 53 33 61 9 2 -7 -2 -10 -12 -6 -24 9 -19 -12 6 -30 27 -19 41 -11 33 21

-3 13 4 58 16 101 18 66 31 166 31 252 0 14 7 102 15 195 17 193 30 377 37

512 2 51 7 105 10 120 3 16 8 66 11 113 12 200 16 247 26 282 8 33 21 196 20

253 -1 11 4 40 10 65 13 57 0 97 -33 102 -33 4 -33 67 -1 84 45 22 60 44 66

97 10 77 13 98 25 142 6 22 11 72 11 110 0 39 7 102 15 140 8 39 14 82 14 95

1 57 22 214 36 259 12 40 12 73 3 193 -6 85 -7 152 -2 164 9 19 10 37 15 206

1 70 6 101 16 109 9 8 14 29 14 58 -1 73 19 283 29 295 5 6 11 36 12 66 2 30

8 58 13 62 24 17 48 158 27 158 -5 0 -11 -14 -15 -31 -3 -17 -10 -28 -14 -25

-5 3 -17 -22 -28 -54 -18 -56 -21 -60 -49 -60 -26 0 -33 -6 -48 -40 -16 -38

-39 -51 -52 -30 -3 5 -26 10 -51 10 -32 0 -44 -4 -44 -15 0 -8 8 -15 17 -15 9

0 14 -3 10 -6 -12 -12 -48 8 -57 32 -11 28 -46 33 -53 7 -2 -10 -3 -3 -1 16 2

19 9 38 16 43 8 6 0 7 -20 3 -31 -6 -33 -5 -30 17 2 15 -2 23 -12 23 -12 0

-16 -16 -18 -68 -2 -48 -7 -67 -15 -64 -7 2 -13 12 -15 23 -2 10 -21 33 -42

49 -22 17 -39 36 -40 43 0 7 -8 12 -17 10 -14 -2 -19 6 -23 42 -4 39 -8 45

-27 44 -18 0 -23 5 -23 23 0 14 -6 23 -15 23 -11 0 -15 11 -15 40 0 51 -18 53

-22 3 -2 -31 -7 -39 -25 -41 -16 -2 -26 4 -34 22 -6 13 -22 27 -35 30 -15 4

-24 14 -24 26 0 17 -7 20 -39 20 -50 0 -59 13 -27 41 l24 21 -21 21 c-11 11

-32 21 -45 22 -27 1 -62 37 -62 64 0 9 -5 22 -11 28 -8 8 -8 13 1 18 8 5 6 11

-7 21 -14 11 -15 13 -3 14 13 1 13 2 -1 13 -71 56 -73 58 -59 67 11 7 9 13

-13 30 -14 11 -32 33 -39 48 -7 15 -23 28 -36 30 -17 3 -22 10 -22 32 0 16 4

32 10 35 6 4 4 17 -5 35 -8 16 -15 35 -15 43 0 8 -10 21 -22 30 -22 14 -22 15

-5 34 17 19 16 20 -26 20 -34 1 -51 -5 -71 -23 -29 -28 -34 -54 -10 -54 8 0

12 -4 9 -10 -4 -6 -13 -5 -25 2 -14 9 -22 9 -33 -1 -10 -8 -17 -9 -22 -1 -3 5

1 10 9 10 12 0 16 10 16 40 0 28 -4 40 -15 40 -8 0 -20 10 -26 22 -7 13 -23

31 -36 41 -13 10 -21 23 -18 28 3 4 -1 19 -10 32 -8 13 -14 34 -14 48 3 36

-25 81 -39 67 -9 -9 -12 -8 -12 4 0 9 6 18 13 21 10 4 10 7 0 18 -11 11 -13

10 -13 -4 0 -9 -6 -17 -12 -17 -24 0 -53 -72 -50 -123 3 -45 5 -47 33 -47 28

0 29 -1 29 -49 0 -57 25 -91 35 -48 6 21 13 25 46 25 53 1 50 -19 -6 -43 -27

-12 -45 -27 -45 -36 0 -9 -7 -22 -15 -29 -8 -7 -15 -20 -15 -30 0 -15 11 -17

85 -18 47 0 89 -4 95 -7 20 -12 -1 -25 -41 -25 -39 0 -39 0 -39 -40 0 -33 3

-40 19 -40 11 0 23 -4 26 -10 11 -18 35 -10 45 16 14 37 27 22 35 -41 5 -47 9

-55 28 -56 20 -1 20 -2 -3 -8 -15 -4 -26 -15 -28 -28 -4 -24 -29 -49 -39 -40

-3 4 -12 28 -18 54 -17 64 -34 61 -119 -21 -30 -28 -30 -29 -9 -37 19 -7 22

-17 25 -79 2 -50 -1 -75 -10 -83 -7 -5 -9 -13 -5 -16 18 -13 32 -62 27 -91 -4

-18 -2 -30 4 -30 6 0 15 -15 22 -34 6 -19 19 -36 30 -39 26 -7 25 -23 0 -37

-11 -6 -20 -19 -20 -29 0 -13 -12 -20 -52 -27 l-53 -9 3 -43 c2 -33 -1 -42

-14 -42 -12 0 -14 6 -10 28 6 24 2 30 -29 47 -35 18 -56 44 -61 73 -1 8 -11

23 -21 34 -13 15 -15 22 -5 25 14 5 17 53 2 53 -5 0 -10 -4 -10 -10 0 -5 -11

-10 -25 -10 -16 0 -25 -6 -25 -15 0 -8 7 -15 15 -15 27 0 17 -39 -14 -54 -26

-14 -30 -14 -35 1 -4 9 1 24 10 34 15 16 14 18 -8 21 -24 3 -27 22 -12 81 5

21 3 28 -7 26 -8 -2 -24 1 -37 5 -19 6 -22 14 -22 56 0 49 -13 73 -24 44 -3

-9 -4 -19 -1 -24 8 -12 -32 -42 -52 -38 -23 4 -19 64 7 93 27 31 34 64 15 71

-9 4 -21 2 -28 -5 -6 -6 -16 -11 -22 -11 -15 0 -38 39 -46 80 l-7 35 -1 -37

c-1 -42 -7 -47 -27 -20 -8 10 -13 12 -14 5 0 -19 -21 -16 -36 5 -13 16 -16 15

-38 -11 -13 -16 -34 -34 -47 -41 -13 -6 -28 -21 -34 -34 -13 -29 -45 -29 -45

1 0 28 52 107 82 124 33 18 0 17 -44 -1 -32 -14 -36 -13 -51 5 -14 16 -15 19

-2 19 22 0 18 18 -5 25 -11 3 -20 15 -20 25 0 11 -8 23 -17 29 -14 8 -18 21

-16 67 2 32 -2 63 -9 71 -9 11 -7 17 10 29 l21 14 -23 25 c-15 16 -30 23 -40

19 -10 -4 -16 -1 -16 8 0 9 -9 14 -22 14 -20 -1 -24 6 -32 54 -5 30 -16 61

-23 68 -15 16 -17 38 -3 47 5 3 10 11 10 16 0 6 -5 7 -11 3 -9 -5 -10 1 -5 20

5 22 1 33 -23 56 -16 16 -32 45 -35 65 -4 19 -11 35 -17 35 -6 0 -5 8 2 21 6

12 9 40 6 63 -17 134 -39 241 -52 256 -8 9 -15 31 -15 48 0 17 -5 34 -11 38

-8 4 -4 13 12 25 22 17 23 18 6 37 -16 17 -16 20 -2 32 23 19 13 89 -16 111

-15 11 -20 22 -15 34 8 21 -19 55 -44 55 -25 0 -21 74 5 94 20 15 20 15 -3 31

-12 9 -22 25 -22 36 0 11 -7 22 -15 25 -17 7 -21 44 -5 44 6 0 10 18 10 40 0

30 -4 40 -16 40 -14 0 -15 7 -10 37 3 21 6 50 6 65 0 16 5 27 11 25 6 -1 16 7

22 18 7 11 17 24 22 28 6 6 6 10 -2 14 -7 2 -13 13 -13 24 0 10 -9 28 -20 39

-11 11 -20 29 -20 40 0 11 -4 20 -9 20 -5 0 -12 26 -15 58 -16 148 -17 183 -6

197 7 8 7 15 1 19 -6 4 -4 18 5 36 13 24 13 36 3 71 -12 37 -14 39 -26 23 -11

-16 -13 -11 -13 36 0 35 6 60 16 71 20 22 24 101 6 107 -30 10 -44 76 -48 226

-2 92 -8 154 -15 162 -17 21 -3 86 22 105 28 21 17 39 -25 39 -31 0 -34 2 -39

40 -7 55 1 79 29 86 32 8 34 59 4 67 -27 7 -26 45 2 56 18 6 19 9 5 14 -29 11

-20 54 20 98 34 38 36 42 20 54 -21 15 -22 34 -1 63 19 28 11 55 -22 72 -18

10 -24 20 -20 35 6 24 -2 38 -31 54 -14 7 -20 17 -17 26 5 11 -2 15 -25 15

-30 0 -31 1 -31 49 0 33 5 51 14 54 18 7 26 -1 26 -25 0 -23 36 -24 42 0 2 9

2 28 -2 42 -7 30 -46 38 -91 20 -24 -10 -33 -10 -54 4 -50 33 -20 75 42 60 25

-7 27 -6 14 9 -11 15 -10 18 13 27 14 5 26 14 26 19 0 5 8 12 17 14 17 4 17 5

1 6 -12 1 -18 9 -18 26 0 15 -11 36 -27 51 -21 19 -27 36 -30 74 -3 50 10 71

30 51 14 -14 57 -14 91 -1 17 6 26 17 26 32 0 23 19 83 32 103 14 22 12 92 -4

114 -14 20 -19 21 -40 11 -45 -24 -49 -30 -33 -53 12 -18 12 -22 -8 -37 -12

-9 -30 -19 -39 -23 -30 -11 -22 -37 12 -37 17 0 30 -4 30 -9 0 -20 -36 -71

-54 -77 -26 -9 -40 9 -27 34 17 33 13 49 -14 54 -14 3 -25 1 -25 -4 0 -5 -4

-7 -8 -4 -5 3 -9 29 -11 58 -1 29 -7 55 -12 59 -6 3 -3 11 6 19 14 12 18 11

26 -1 7 -11 9 -11 9 4 0 9 -6 17 -12 17 -7 0 -26 11 -43 24 -27 22 -29 25 -16

52 l13 29 13 -30 c13 -28 13 -25 14 53 1 70 4 83 19 88 38 12 47 23 57 72 5

28 13 54 18 58 16 16 7 35 -13 29 -11 -3 -28 -2 -37 4 -15 8 -10 10 24 11 43

0 58 11 58 42 0 10 5 18 10 18 6 0 10 -10 10 -23 0 -13 7 -23 18 -25 13 -3 17

4 17 30 0 24 3 29 10 18 8 -12 10 -12 15 2 4 10 4 21 1 27 -9 14 36 80 55 81

13 0 18 14 24 55 6 50 25 88 25 51 0 -9 9 -16 20 -16 11 0 20 6 20 14 0 7 13

23 29 35 16 13 27 29 25 36 -3 7 5 15 18 18 18 5 20 9 11 18 -17 17 11 62 48

76 19 8 29 18 29 32 0 13 6 21 16 21 10 0 14 -5 10 -15 -11 -29 15 -65 46 -65

17 0 28 5 28 13 0 9 17 14 56 16 31 1 66 8 78 16 29 19 56 4 40 -22 -9 -14 -8

-23 3 -40 l15 -23 28 20 c32 23 118 28 138 8 8 -8 15 -8 24 -1 7 6 26 13 41

17 26 6 27 5 18 -13 -15 -27 -14 -31 7 -29 9 1 25 0 36 0 15 -2 16 -5 6 -17

-10 -13 -9 -15 10 -15 13 0 24 -8 27 -19 5 -20 5 -20 26 0 34 31 79 51 91 39

5 -5 20 -10 32 -10 19 0 23 6 26 39 3 38 4 39 23 25 l20 -15 -20 -16 c-19 -15

-18 -15 14 -9 18 3 37 6 42 6 14 0 11 28 -3 33 -10 4 -10 6 -1 6 6 1 19 -8 27

-20 15 -22 36 -18 36 6 0 21 57 64 79 58 11 -3 24 3 32 15 8 10 31 24 52 31

20 7 37 19 37 27 0 8 5 14 10 14 6 0 10 -13 10 -30 0 -31 16 -41 26 -16 8 22

66 17 72 -6 2 -11 13 -18 28 -18 25 0 34 -25 11 -33 -6 -2 -9 -8 -5 -12 14

-15 40 17 33 42 -4 19 -1 23 17 23 13 0 36 7 52 15 28 15 46 13 46 -6 0 -5

-16 -9 -35 -9 -22 0 -38 -6 -41 -15 -11 -29 6 -33 58 -14 29 10 54 19 55 19 2

0 3 21 4 48 0 26 3 41 6 35 2 -8 22 -13 44 -13 45 0 50 -11 14 -34 -14 -9 -25

-25 -25 -36 0 -12 -7 -20 -16 -20 -13 0 -15 -7 -10 -31 5 -26 3 -29 -13 -24

-10 3 -29 -3 -44 -15 -32 -25 -37 -25 -37 0 0 30 -21 24 -55 -16 -16 -20 -41

-49 -55 -65 -13 -16 -32 -29 -42 -29 -27 0 -22 -26 10 -48 33 -24 57 -29 96

-19 22 6 34 3 52 -14 13 -12 24 -31 24 -41 0 -11 7 -18 20 -18 24 0 27 32 5

50 -20 17 -19 27 4 35 30 9 52 -4 41 -25 -14 -26 -13 -103 1 -95 5 4 8 12 6

18 -5 16 23 36 50 37 13 0 37 9 55 20 24 14 42 18 66 14 38 -7 69 11 52 31 -8

10 -7 15 1 21 7 4 15 2 17 -4 6 -19 23 -14 44 13 11 14 28 25 39 25 10 0 19 4

19 10 0 13 58 42 70 35 17 -10 58 6 63 26 4 13 10 17 22 13 11 -5 18 0 22 15

5 21 43 31 43 11 0 -5 5 -10 10 -10 6 0 10 8 10 18 0 28 22 49 58 57 25 5 32

3 32 -9 0 -18 8 -20 29 -7 16 10 6 31 -15 31 -8 0 -14 3 -14 7 0 13 53 63 67

63 7 0 13 7 13 15 0 20 16 19 24 -1 4 -10 -1 -22 -10 -29 -28 -20 -7 -39 21

-21 22 15 24 14 30 -4 9 -28 -2 -57 -24 -63 -10 -2 -20 -14 -23 -25 -4 -15 -2

-19 8 -15 23 9 17 -45 -6 -57 -11 -6 -20 -21 -20 -34 0 -13 -7 -26 -15 -30 -8

-3 -15 -14 -15 -24 0 -21 29 -64 30 -44 0 19 20 4 20 -15 0 -8 -12 -24 -26

-35 -23 -19 -25 -26 -22 -83 1 -37 -2 -68 -9 -77 -7 -8 -10 -24 -6 -36 3 -14

-1 -30 -12 -42 -10 -11 -15 -26 -12 -33 3 -8 -7 -30 -22 -48 -20 -25 -27 -44

-26 -72 1 -21 -4 -42 -12 -48 -7 -6 -13 -17 -13 -24 0 -7 -7 -15 -15 -19 -20

-7 -21 -102 -1 -109 23 -9 1 -136 -41 -236 -7 -18 -11 -42 -7 -53 3 -12 -1

-27 -12 -39 -13 -14 -19 -41 -22 -92 -8 -155 -22 -266 -33 -272 -5 -4 -9 -14

-9 -23 0 -9 -14 -44 -30 -76 -17 -32 -30 -69 -30 -81 0 -12 -7 -42 -15 -65 -8

-23 -15 -53 -15 -66 0 -20 5 -24 30 -24 32 0 107 16 153 33 18 6 25 13 18 20

-12 12 -3 37 15 37 9 0 14 11 14 28 0 20 8 32 31 45 17 9 33 26 36 37 3 11 14

22 25 26 10 3 17 11 15 17 -2 7 8 26 23 44 15 17 36 55 45 85 9 29 24 58 32

65 10 8 13 21 9 40 -5 22 0 39 18 66 14 20 28 52 32 71 3 20 12 40 20 47 8 6

14 23 14 38 1 16 14 39 35 61 19 19 35 41 35 50 0 19 25 43 53 53 10 4 17 15

16 24 -3 33 1 42 31 77 21 24 27 36 18 39 -7 3 0 6 16 6 24 1 27 4 23 22 -4

16 2 24 36 39 45 20 84 54 141 123 19 24 47 49 61 57 14 7 25 19 25 26 0 7 3

14 8 16 16 7 61 77 68 104 4 16 15 46 25 66 11 21 19 46 19 56 0 10 7 33 16

51 10 20 15 51 13 84 -2 38 3 64 19 97 19 37 21 49 11 72 -9 21 -8 31 5 49 11

16 12 27 5 41 -11 21 -4 38 17 38 8 0 14 9 14 20 0 11 13 34 30 52 32 33 33

37 30 82 -1 18 7 37 23 55 13 14 27 38 31 54 3 15 9 38 12 52 5 18 2 25 -9 25

-21 0 -10 38 20 69 12 13 23 32 23 42 0 10 9 23 20 29 14 8 19 17 15 30 -6 20

41 73 57 64 4 -3 8 2 8 10 0 9 -5 16 -11 16 -23 0 -1 25 27 30 27 5 29 8 26

44 -4 39 14 96 29 96 5 0 9 9 9 20 0 10 9 24 19 30 11 5 26 22 33 37 7 15 24

30 38 33 30 7 41 40 13 40 -10 0 -14 3 -8 8 21 15 48 67 52 99 4 39 -11 73

-33 73 -12 0 -15 11 -13 53 1 30 -1 58 -4 64 -4 5 0 19 8 29 21 28 18 42 -17

77 l-32 32 25 3 c36 5 41 15 24 48 -8 16 -15 40 -15 54 0 14 -12 36 -25 49

-14 13 -25 32 -25 44 0 11 -7 29 -17 39 -9 10 -18 33 -20 51 -5 55 -10 60 -36

42 -30 -19 -39 -10 -31 32 5 25 2 34 -10 39 -9 4 -19 23 -22 46 -5 30 -14 45

-38 59 -17 10 -39 19 -50 19 -12 0 -16 5 -12 15 3 9 -3 19 -15 26 -15 8 -19

17 -15 34 5 19 3 22 -14 18 -11 -3 -20 0 -20 6 0 6 -5 11 -11 11 -6 0 -19 10

-28 21 -15 18 -21 20 -39 10 -19 -10 -22 -9 -22 9 0 11 -5 20 -11 20 -7 0 -9

10 -5 26 5 19 3 25 -6 21 -7 -2 -21 3 -31 11 -16 14 -20 14 -29 2 -8 -12 -9

-12 -4 3 3 11 0 20 -9 24 -13 5 -13 7 2 19 16 12 14 13 -20 14 -39 0 -97 26

-97 43 0 5 11 7 25 5 14 -3 28 -1 31 3 6 10 -75 45 -94 41 -8 -2 -22 4 -33 14

-12 11 -26 14 -45 10 -20 -5 -31 -2 -46 13 -20 22 -48 28 -48 11 0 -5 -5 -10

-11 -10 -5 0 -8 4 -4 10 3 5 -5 25 -17 44 -21 32 -26 35 -59 30 -31 -5 -38 -3

-43 14 -9 29 -28 36 -113 44 -12 1 -20 5 -18 9 3 3 -7 21 -20 39 -14 19 -25

40 -25 47 0 7 -7 13 -15 13 -8 0 -15 4 -15 10 0 9 42 -5 66 -22 6 -4 28 1 50

11 24 12 50 17 67 14 23 -5 29 -1 34 16 7 27 43 29 43 2 0 -10 9 -21 20 -24

11 -3 20 -1 20 4 0 5 -5 9 -11 9 -5 0 -8 4 -5 9 11 17 59 -2 74 -29 10 -16 42

-40 82 -59 50 -24 69 -40 77 -62 9 -22 18 -29 37 -29 16 0 26 6 26 15 0 8 -7

15 -15 15 -9 0 -18 7 -21 15 -4 8 -10 15 -16 15 -13 0 -38 26 -38 39 0 6 -4

11 -10 11 -5 0 -10 11 -10 25 0 26 14 33 25 15 5 -8 11 -7 21 1 10 8 11 15 4

24 -24 29 59 23 97 -7 7 -5 17 -7 23 -3 13 8 13 45 0 45 -5 0 -10 8 -10 19 0

10 -8 29 -18 42 -10 13 -23 36 -30 52 -16 36 7 37 43 1 16 -16 32 -23 44 -19

23 7 55 -38 48 -66 -9 -33 11 -141 33 -188 12 -24 23 -51 25 -60 13 -64 17

-70 35 -59 10 6 24 28 30 49 11 33 10 43 -8 81 -11 23 -23 61 -26 83 -3 22

-10 76 -15 120 -23 179 -29 207 -47 218 -8 4 -14 15 -14 24 0 19 -28 119 -43

150 -5 12 -6 34 -2 50 16 63 9 110 -24 151 -35 45 -38 57 -16 66 8 3 15 12 15

20 0 19 -49 33 -59 18 -4 -7 -17 1 -35 22 -17 22 -34 32 -45 29 -10 -2 -23 3

-30 11 -14 17 -14 16 32 20 16 1 47 64 40 82 -7 19 -17 18 -38 -6 -21 -24 -46

-25 -84 -5 -16 8 -31 12 -34 8 -4 -3 -14 -2 -24 3 -10 4 -35 9 -56 10 -23 1

-48 11 -61 23 -12 12 -27 21 -33 21 -6 0 -16 6 -22 14 -15 18 30 66 63 66 35

0 42 -18 12 -32 -35 -15 -33 -28 4 -28 26 0 30 4 30 26 0 19 4 25 15 20 23 -8

42 3 55 32 11 27 40 50 151 124 31 20 73 55 95 77 21 23 43 41 49 41 5 0 43

32 82 70 40 39 77 70 82 70 5 0 11 7 14 15 9 22 69 35 83 17 9 -13 15 -9 38

24 14 21 26 42 26 47 0 12 27 37 39 37 6 0 2 -9 -10 -21 -14 -14 -18 -26 -13

-42 4 -12 6 -37 5 -54 -1 -18 1 -33 5 -33 3 0 25 19 49 43 24 23 53 49 66 58

20 14 22 19 11 32 -11 13 -9 18 12 32 14 10 26 24 26 32 0 35 49 -6 66 -55 2

-7 93 -11 98 -4 3 5 -6 31 -19 58 -30 59 -31 74 -5 74 14 0 20 7 20 24 0 13

-6 26 -12 29 -8 2 -9 8 -4 13 5 5 11 4 13 -3 3 -7 11 -13 19 -13 10 0 13 -10

12 -32 -3 -31 -2 -32 34 -33 21 0 38 3 38 7 0 12 34 -4 62 -30 14 -13 31 -21

37 -17 6 3 18 -1 27 -9 8 -9 25 -16 37 -16 12 0 46 -3 75 -7 53 -6 53 -6 47

19 -5 20 -1 29 16 42 26 18 89 22 89 6 0 -6 7 -6 19 1 15 10 27 8 63 -9 24

-12 59 -22 76 -22 l32 0 0 -56 c0 -41 -3 -54 -12 -50 -7 3 -21 9 -30 12 -10 4

-18 10 -18 15 0 5 -9 9 -20 9 -16 0 -18 -4 -11 -22 12 -33 56 -62 78 -53 10 5

22 7 27 6 5 -1 20 8 33 21 18 17 22 29 18 49 -9 39 16 60 56 49 28 -8 58 -34

59 -51 0 -11 -26 -29 -33 -23 -10 11 -35 -40 -35 -74 -1 -36 23 -52 74 -52 14

0 23 -4 20 -9 -4 -5 18 -3 46 5 l53 13 26 -30 c15 -17 26 -38 25 -47 0 -9 4

-17 9 -18 38 -4 65 -44 30 -44 -8 0 -15 5 -15 12 0 9 -3 9 -12 0 -7 -7 -29

-12 -50 -12 -27 0 -38 -4 -38 -15 0 -8 -2 -15 -5 -15 -10 0 -50 47 -50 60 0 8

-8 16 -17 18 -15 3 -18 -4 -18 -32 0 -27 -3 -34 -15 -30 -8 4 -17 -1 -21 -10

-9 -24 -23 -19 -30 9 -3 14 -9 23 -13 21 -4 -3 -24 -1 -45 4 -33 7 -39 6 -43

-10 -4 -15 -9 -17 -22 -9 -23 15 -73 -5 -65 -26 3 -8 13 -15 21 -15 8 0 11 -4

8 -10 -8 -12 -17 -11 139 -16 71 -2 133 -1 139 3 18 11 68 17 152 17 78 1 80

1 77 -23 -1 -13 3 -30 9 -37 12 -15 59 -19 59 -6 0 5 14 6 31 4 28 -4 30 -7

26 -36 -5 -36 7 -66 29 -66 8 0 17 -6 20 -13 8 -22 -14 -67 -33 -67 -10 0 -29

-9 -42 -19 -14 -10 -32 -16 -40 -13 -9 3 -13 1 -9 -3 5 -5 -1 -14 -11 -22 -12

-8 -17 -20 -14 -32 7 -27 -33 -51 -83 -51 -35 0 -43 4 -47 22 -4 14 0 29 10

40 11 12 13 22 7 28 -13 13 -57 -27 -50 -46 3 -8 -5 -21 -19 -30 -14 -9 -25

-23 -25 -30 0 -8 -10 -14 -26 -14 -15 0 -44 -15 -68 -35 -29 -24 -53 -35 -75

-35 -28 0 -31 -3 -31 -30 0 -23 -5 -30 -19 -30 -10 0 -36 -14 -57 -31 -46 -37

-73 -49 -133 -57 -24 -4 -46 -13 -49 -20 -11 -33 197 1 224 37 6 8 30 16 53

17 37 2 42 -1 39 -18 -2 -13 -22 -27 -63 -43 -33 -14 -61 -29 -63 -34 -2 -6

-12 -6 -27 1 -19 8 -29 7 -47 -4 -13 -8 -44 -22 -70 -31 -44 -15 -49 -14 -69

2 -19 15 -20 20 -9 40 12 23 12 23 -42 16 -29 -4 -58 -11 -64 -16 -7 -5 -85

-10 -175 -10 -128 -1 -172 3 -201 15 -35 15 -38 15 -50 -3 -7 -10 -27 -21 -44

-25 -17 -4 -42 -18 -54 -31 -19 -20 -21 -27 -10 -40 16 -19 49 -19 64 -1 6 8

26 17 44 21 39 8 51 -12 33 -53 -10 -21 -10 -27 -1 -30 7 -3 21 -13 31 -23 11

-11 32 -19 47 -19 15 0 32 -4 37 -9 6 -5 30 -11 55 -14 25 -3 79 -11 120 -17

91 -14 393 -8 434 9 16 7 34 19 40 27 7 9 30 16 56 17 40 2 45 0 48 -22 3 -21

7 -23 40 -17 20 3 63 19 95 36 31 16 68 30 82 30 14 0 47 14 73 30 27 17 52

30 55 30 4 0 30 15 59 33 29 18 68 39 86 46 17 8 32 17 32 22 0 5 14 16 30 24

17 9 35 27 40 40 6 15 21 27 37 31 35 9 101 41 132 65 13 11 37 19 53 19 21 0

31 6 35 20 4 14 14 20 34 20 17 0 28 -5 27 -12 -2 -6 6 -14 16 -16 14 -3 17 0

13 12 -4 10 1 20 13 26 10 5 25 17 33 25 8 8 46 21 84 29 58 12 71 12 90 0 19

-12 28 -11 78 11 65 29 100 33 91 9 -3 -9 -6 -19 -6 -23 0 -8 -77 -61 -90 -61

-4 0 -13 -7 -20 -15 -7 -9 -27 -15 -44 -14 -17 1 -39 -2 -48 -6 -13 -5 -18 -3

-18 9 0 9 10 20 22 25 21 8 21 9 -10 16 -41 9 -52 -1 -45 -37 4 -20 11 -28 26

-28 20 0 20 -1 -3 -17 -14 -9 -29 -23 -33 -30 -4 -7 -15 -13 -23 -13 -9 0 -23

-9 -32 -19 -10 -11 -45 -33 -78 -51 -34 -17 -69 -39 -77 -48 -22 -24 -12 -61

14 -55 10 3 19 9 19 14 0 5 8 9 19 9 10 0 24 7 31 15 7 8 19 15 26 15 8 0 14

5 14 10 0 6 5 10 11 10 6 0 40 14 76 30 35 17 69 30 74 30 5 0 9 5 9 10 0 6 9

10 19 10 11 0 22 4 26 9 8 14 120 68 154 76 16 3 35 13 42 21 9 11 14 12 19 3

6 -8 13 -8 31 1 13 7 26 16 29 19 7 9 74 31 93 31 20 0 40 36 34 60 -3 11 5

27 20 40 20 17 36 21 91 20 37 -1 77 2 90 6 17 5 22 2 22 -11 0 -10 16 -32 36

-50 l36 -33 -23 -12 c-12 -7 -31 -21 -42 -30 -19 -18 -60 -30 -103 -30 -13 0

-29 -8 -35 -19 -7 -10 -20 -16 -29 -14 -10 3 -21 0 -24 -6 -8 -12 -2 -13 74

-12 110 2 145 8 148 25 4 20 78 44 93 29 12 -12 59 -5 59 8 0 5 7 9 15 9 8 0

15 5 15 10 0 6 7 10 15 10 8 0 15 4 15 8 0 12 78 52 101 52 11 0 22 7 25 15 9

21 60 44 86 38 35 -8 48 -30 37 -61 -11 -33 -58 -59 -71 -39 -6 9 -12 8 -22

-5 -7 -10 -18 -18 -23 -18 -10 0 -26 -80 -18 -89 12 -11 52 13 68 41 19 35 56

58 93 58 13 0 26 5 29 10 3 6 17 10 31 10 14 0 27 6 30 14 4 11 12 11 38 2 43

-15 62 -31 81 -69 19 -38 19 -37 -5 -37 -11 0 -20 -4 -20 -10 0 -5 -10 -10

-21 -10 -17 0 -19 3 -10 14 9 11 7 15 -11 21 -22 8 -22 8 5 12 15 2 27 8 27

12 0 11 -64 0 -72 -13 -4 -6 -13 -11 -20 -11 -7 0 -14 -8 -16 -17 -2 -10 1

-18 7 -18 6 0 21 -10 32 -21 l21 -21 -26 -23 c-14 -12 -26 -30 -26 -39 0 -21

19 -58 34 -68 8 -5 7 -8 -1 -8 -22 0 -14 -27 12 -44 35 -23 31 -36 -10 -36

-26 0 -33 3 -29 15 11 28 -34 17 -48 -12 -14 -28 -42 -46 -32 -20 3 10 -2 18

-15 22 -12 3 -21 10 -21 15 0 5 -11 17 -25 26 -24 16 -26 15 -77 -30 -28 -25

-55 -43 -59 -40 -5 2 -13 -5 -19 -17 -7 -11 -14 -18 -17 -15 -3 3 -21 -4 -40

-15 -23 -15 -42 -19 -62 -14 -35 7 -80 -13 -108 -49 -23 -29 -82 -66 -105 -66

-9 0 -28 5 -42 12 l-26 11 27 22 c26 23 26 23 5 34 -12 6 -33 9 -47 5 -21 -5

-25 -3 -25 14 0 24 -16 38 -22 20 -3 -8 -9 -8 -22 -1 -16 9 -14 12 20 30 23

12 38 27 38 37 -1 9 4 16 12 16 18 0 18 15 -2 45 -9 14 -13 33 -9 45 8 26 -11

26 -27 0 -7 -11 -19 -20 -26 -20 -7 0 -17 -11 -22 -25 -5 -14 -17 -28 -25 -31

-8 -4 -15 -11 -15 -17 0 -21 -45 -76 -67 -82 -17 -4 -23 -13 -23 -34 0 -38

-35 -81 -65 -81 -15 0 -33 -11 -47 -30 -15 -21 -30 -30 -50 -30 -18 0 -38 -10

-52 -25 -28 -30 -46 -32 -46 -5 0 26 -25 36 -45 20 -11 -9 -12 -16 -5 -25 7

-9 5 -19 -8 -35 -16 -20 -29 -23 -93 -25 -92 -3 -196 -42 -191 -72 6 -27 9

-27 37 -5 26 20 65 20 65 -2 0 -6 -25 -38 -55 -70 -30 -33 -52 -63 -49 -67 2

-4 0 -10 -6 -14 -5 -3 -10 -13 -10 -21 0 -8 -9 -23 -19 -33 -17 -17 -21 -18

-32 -5 -7 8 -9 28 -6 49 3 19 1 37 -4 40 -15 10 -10 25 6 19 11 -5 15 1 15 19

0 14 3 32 6 41 5 12 0 16 -17 16 -22 0 -22 0 -3 15 18 14 18 14 -9 15 -19 0

-36 -9 -54 -30 -13 -16 -33 -30 -44 -30 -16 0 -19 -7 -19 -44 0 -65 -15 -95

-55 -112 -53 -22 -45 -37 15 -29 58 8 64 1 65 -77 0 -42 3 -48 20 -48 15 0 24

10 30 31 8 24 19 34 50 45 42 14 56 11 37 -8 -17 -17 -15 -84 4 -119 14 -28

14 -32 0 -48 -18 -19 -21 -51 -7 -51 6 0 13 5 16 10 3 6 13 10 22 10 18 0 55

44 65 77 7 25 -9 32 -18 8 -9 -23 -34 -18 -34 8 0 12 -4 28 -9 36 -11 18 13

77 45 112 13 14 24 32 24 40 0 7 16 27 36 43 36 28 36 28 29 5 -4 -13 -14 -31

-22 -40 -12 -14 -12 -17 0 -22 11 -4 12 -15 6 -49 -4 -23 -9 -52 -11 -62 -10

-61 56 17 82 96 17 54 27 54 39 1 8 -41 7 -53 -10 -81 -19 -33 -19 -33 3 -63

19 -25 20 -33 10 -47 -7 -9 -20 -33 -28 -52 -9 -19 -29 -50 -45 -67 -16 -19

-26 -39 -23 -48 9 -22 23 -18 36 9 12 28 34 40 43 26 8 -13 55 -2 80 20 13 11

33 15 57 13 29 -3 40 2 56 22 26 33 46 33 38 0 -7 -29 4 -31 83 -14 48 10 52

9 86 -18 27 -22 34 -33 30 -50 -4 -16 -1 -23 9 -23 7 0 27 -7 42 -15 37 -19

54 -19 54 0 0 8 5 15 10 15 6 0 10 -5 10 -12 0 -6 10 -2 23 9 12 11 33 23 47

25 14 3 33 9 42 13 13 5 18 2 18 -10 0 -11 7 -15 23 -13 12 2 27 -3 33 -11 13

-16 38 -5 30 14 -6 16 27 26 45 14 8 -5 10 -9 4 -9 -21 0 33 -28 60 -32 20 -2

35 3 46 16 20 24 50 15 42 -12 -3 -15 2 -21 20 -24 14 -3 31 -1 39 3 8 4 42 2

77 -5 46 -10 64 -10 69 -1 13 21 69 38 90 26 20 -11 42 2 42 25 0 6 21 14 48

18 26 3 59 9 74 12 39 9 36 -13 -3 -30 -55 -23 -13 -34 125 -31 123 1 130 0

152 -22 24 -24 72 -31 90 -13 16 16 92 16 106 1 11 -11 9 -12 -10 -6 -21 6

-23 4 -20 -22 3 -27 6 -28 61 -31 60 -3 81 -22 25 -22 -38 0 -88 -34 -73 -48

15 -15 112 -24 120 -12 3 6 10 8 15 5 4 -3 6 5 3 17 -4 21 -3 21 22 -5 18 -20

31 -27 43 -22 9 4 76 8 147 9 95 1 136 5 152 15 18 12 24 13 37 2 26 -22 19

-38 -25 -55 -43 -18 -44 -36 -1 -36 23 -1 25 -2 9 -11 -9 -5 -17 -17 -17 -26

0 -10 5 -13 17 -8 28 11 62 15 143 16 69 0 102 -2 203 -18 60 -9 43 -23 -28

-23 l-66 0 3 -57 3 -58 45 -3 c68 -6 80 -6 148 2 52 5 62 4 62 -9 0 -8 5 -15

10 -15 6 0 10 -7 10 -16 0 -13 -8 -15 -37 -12 -38 5 -83 -8 -83 -24 0 -4 5 -8

10 -8 6 0 10 -7 10 -15 0 -8 17 -19 43 -26 45 -12 55 -13 157 -6 52 3 72 0 98

-15 31 -19 32 -27 7 -54 -7 -9 -19 -3 -45 19 l-34 30 -9 -27 c-12 -35 -1 -46

52 -53 45 -6 49 -21 12 -39 -13 -7 -27 -16 -32 -21 -15 -15 0 -41 24 -45 22

-3 38 -38 17 -38 -14 0 -40 -25 -40 -39 0 -18 21 -12 40 11 l19 23 -5 -22 c-5

-17 -1 -22 18 -25 15 -2 24 -11 26 -26 2 -13 9 -25 16 -28 10 -4 10 -17 0 -62

-6 -31 -15 -66 -20 -76 -6 -16 -4 -18 14 -14 15 4 22 2 22 -9 0 -10 -6 -12

-20 -8 -15 5 -22 -1 -34 -29 -10 -25 -20 -34 -30 -30 -14 5 -56 -28 -56 -45 0

-5 -7 -14 -15 -21 -8 -7 -15 -22 -16 -34 0 -15 -4 -11 -13 14 -13 35 -13 35

-25 12 -7 -14 -18 -21 -26 -18 -8 3 -17 1 -20 -4 -8 -13 -25 -13 -25 0 0 6 7

10 16 10 30 0 10 34 -26 43 -29 8 -32 11 -16 16 17 7 17 9 -8 28 -14 12 -26

28 -26 37 0 9 -8 16 -20 16 -11 0 -20 7 -20 15 0 21 -53 75 -74 75 -17 0 -22

25 -6 35 18 11 10 25 -14 25 -26 0 -56 33 -56 61 0 24 -26 43 -47 34 -10 -4

-37 -7 -59 -6 -34 2 -42 -1 -47 -18 -8 -32 -25 -25 -44 18 -10 23 -26 42 -38

45 -38 10 -128 -21 -121 -41 7 -16 -32 -27 -48 -14 -8 6 -21 8 -30 5 -10 -4

-25 1 -37 12 -21 18 -21 18 -40 -6 -10 -14 -26 -33 -35 -42 -9 -9 -13 -21 -10

-27 4 -6 -8 -10 -31 -11 -21 0 -49 -1 -63 -2 -79 -5 -190 20 -190 44 0 4 -13

5 -30 2 -16 -4 -37 -3 -47 1 -10 4 -27 9 -38 10 -41 6 -98 24 -108 34 -6 6

-22 11 -35 11 -13 0 -33 5 -45 12 -12 6 -42 15 -67 19 -73 12 -122 27 -130 40

-4 6 -13 9 -19 5 -5 -4 -43 2 -83 13 -40 11 -109 24 -153 30 -44 7 -83 15 -88

20 -5 5 -16 7 -24 4 -8 -3 -24 -1 -36 5 -32 15 -131 31 -218 35 -69 4 -80 7

-118 37 -23 19 -49 35 -58 36 -9 2 -19 8 -23 14 -4 7 -18 8 -34 4 -27 -7 -28

-6 -25 38 2 32 -2 51 -13 62 -18 18 -44 21 -53 7 -7 -12 -55 35 -55 54 0 15

10 19 41 16 9 -1 22 6 30 15 11 14 11 18 -6 30 -18 13 -17 14 13 14 19 0 32

-5 33 -12 0 -7 4 -4 8 7 11 26 -19 35 -99 30 -47 -3 -61 -1 -69 12 -11 20 -46

9 -37 -12 3 -10 -1 -15 -13 -15 -10 0 -22 -7 -25 -16 -3 -8 -10 -13 -15 -9 -5

3 -12 1 -16 -5 -3 -5 -15 -10 -27 -10 -19 0 -19 1 -4 24 18 29 7 41 -29 32

-17 -4 -22 -11 -18 -26 6 -22 -15 -28 -33 -10 -8 8 -15 6 -23 -4 -7 -8 -18

-13 -26 -10 -7 3 -16 -3 -19 -14 -10 -29 -38 -37 -54 -15 -16 22 -42 18 -64

-10 -15 -18 -19 -20 -27 -8 -8 12 -12 12 -25 2 -9 -8 -16 -19 -16 -26 0 -15

-56 -25 -69 -12 -9 9 -91 -11 -91 -23 0 -3 5 -11 12 -18 17 -17 -19 -28 -43

-14 -11 7 -20 8 -24 2 -3 -6 -14 -10 -23 -10 -16 0 -32 -21 -48 -63 -5 -14

-14 -18 -34 -14 -24 5 -27 3 -22 -19 2 -13 11 -24 18 -24 8 0 14 -5 14 -11 0

-9 -20 -10 -67 -6 -66 6 -68 6 -80 -20 -8 -17 -9 -30 -3 -38 10 -12 4 -25 -12

-25 -4 0 -7 6 -6 13 4 15 -70 22 -91 8 -12 -8 -12 -12 -2 -24 10 -13 8 -16 -8

-22 -12 -3 -21 -13 -21 -20 0 -8 -11 -22 -25 -31 -14 -9 -25 -23 -25 -30 0 -9

-11 -14 -29 -14 -20 0 -30 -6 -34 -19 -2 -11 -15 -21 -28 -23 -13 -1 -28 -13

-34 -25 -12 -28 -35 -30 -42 -3 -3 11 -8 20 -12 20 -3 0 -37 -16 -75 -35 -37

-19 -74 -35 -81 -35 -22 0 -39 -28 -27 -43 9 -10 7 -19 -4 -35 -9 -13 -12 -31

-8 -47 6 -26 18 -32 29 -15 3 6 10 10 15 10 16 0 -14 -59 -32 -63 -12 -3 -18

-15 -18 -32 0 -18 -6 -29 -20 -32 -11 -3 -21 -12 -22 -19 0 -8 -1 -20 -2 -26

-1 -7 8 -13 19 -14 38 -2 45 -4 45 -14 0 -6 -14 -17 -31 -24 -24 -10 -27 -15

-15 -19 24 -9 21 -73 -3 -87 -12 -6 -17 -17 -14 -28 2 -11 -3 -26 -11 -35 -19

-19 -21 -47 -3 -47 18 0 65 -89 52 -98 -9 -6 -35 -56 -35 -67 0 -3 18 -5 39

-5 26 0 41 -5 45 -16 9 -24 8 -25 -18 -18 -27 7 -31 2 -40 -46 -3 -19 -3 -29

0 -22 3 6 12 12 20 12 16 0 19 -26 4 -35 -15 -9 -12 -45 4 -45 7 0 17 15 23

33 6 23 8 -1 5 -86 l-5 -117 27 -21 27 -22 -25 -26 c-27 -28 -35 -80 -13 -83

6 -1 23 -2 37 -2 16 -1 26 -8 28 -21 3 -16 1 -18 -9 -7 -18 17 -69 16 -69 -2

0 -8 6 -16 14 -19 8 -3 17 -20 21 -38 4 -19 15 -33 26 -36 31 -8 22 -23 -10

-17 -24 5 -35 1 -56 -21 -14 -16 -23 -31 -20 -34 4 -3 10 1 15 8 5 9 14 11 26

6 18 -8 18 -8 2 -12 -10 -3 -18 -13 -18 -24 0 -10 -7 -19 -15 -19 -8 0 -15 -9

-15 -20 0 -11 -7 -23 -15 -26 -10 -4 -15 -20 -15 -45 0 -28 -4 -39 -15 -39

-10 0 -15 -10 -15 -27 -1 -27 -1 -27 -16 -8 -13 18 -13 21 1 31 20 15 19 31

-4 59 l-18 24 -12 -25 c-6 -14 -11 -40 -11 -59 0 -19 -4 -37 -10 -40 -5 -3

-10 1 -10 9 0 16 -12 21 -23 9 -4 -3 -2 -12 4 -20 9 -10 4 -16 -24 -28 -20 -8

-45 -15 -55 -15 -12 0 -26 -14 -38 -40 -11 -24 -26 -40 -36 -40 -28 0 -47 -59

-40 -121 7 -51 8 -54 34 -51 31 4 45 -13 27 -34 -10 -12 -9 -16 9 -20 12 -4

19 -11 15 -20 -3 -8 1 -14 10 -14 9 0 17 -13 21 -35 4 -19 16 -41 27 -49 15

-10 18 -20 13 -40 -3 -14 -3 -37 0 -51 7 -27 33 -34 42 -10 10 26 21 16 27

-25 4 -28 14 -47 36 -66 17 -14 31 -33 31 -42 0 -9 10 -26 22 -40 l23 -23 -25

-19 c-14 -10 -21 -22 -17 -27 5 -4 12 -1 16 6 5 8 17 11 30 6 17 -5 20 -10 11

-20 -9 -10 -6 -23 8 -52 11 -21 32 -67 46 -102 24 -60 25 -65 8 -78 -12 -10

-14 -16 -4 -19 6 -3 12 -16 12 -29 0 -13 10 -31 23 -40 19 -13 20 -17 7 -26

-12 -8 -11 -9 5 -5 28 7 106 -60 86 -73 -12 -8 -12 -12 -2 -25 8 -9 20 -16 27

-16 17 0 48 -47 49 -74 0 -14 7 -22 23 -24 12 -2 22 -7 22 -12 0 -14 30 -40

46 -40 8 0 14 9 14 20 0 11 5 20 11 20 7 0 9 -12 5 -35 -8 -41 13 -57 47 -35

15 9 22 10 25 1 2 -6 10 -11 18 -11 8 0 14 -7 14 -15 0 -8 -7 -15 -15 -15 -8

0 -15 -9 -15 -20 0 -13 7 -20 18 -20 25 0 42 -19 42 -47 0 -13 7 -26 15 -29 8

-4 15 -18 15 -33 0 -19 3 -22 9 -12 25 39 53 -28 30 -71 -8 -15 -8 -22 0 -28

7 -3 14 -24 17 -46 3 -21 10 -49 15 -61 20 -50 33 -73 40 -73 17 0 32 114 35

265 8 333 5 489 -9 513 -4 5 -3 22 3 37 8 22 6 33 -10 59 -14 23 -16 36 -9 43

8 8 7 17 -1 33 -6 12 -10 37 -9 55 2 19 0 37 -4 41 -4 4 -7 23 -7 42 0 37 21

61 53 62 25 0 21 18 -5 22 -29 4 -35 28 -9 35 30 8 26 23 -6 24 -59 3 -72 7

-102 30 -21 17 -30 33 -30 55 -2 73 -11 91 -52 103 -21 7 -39 16 -39 21 0 23

65 -1 97 -36 23 -25 25 -25 48 -10 14 9 25 20 25 24 -1 16 -40 52 -57 52 -49

1 -63 11 -63 49 0 26 -6 40 -22 50 -16 10 -23 10 -26 2 -2 -6 -8 -11 -13 -11

-5 0 -4 9 3 20 10 16 10 24 1 40 -8 12 -9 21 -3 25 15 9 2 25 -21 25 -10 0

-19 4 -19 9 0 5 -8 17 -17 26 -11 12 -16 31 -14 56 1 33 -1 39 -18 39 -11 0

-23 5 -26 10 -3 6 1 10 9 10 19 0 11 27 -16 53 -10 10 -18 23 -18 29 0 6 -3 8

-7 5 -3 -4 -11 3 -17 15 -17 33 -42 45 -66 30 -16 -10 -20 -10 -20 2 0 19 40

27 81 16 27 -8 36 -7 45 5 16 21 21 19 27 -13 8 -40 45 -82 71 -82 32 0 34 5

23 55 -6 28 -7 59 -1 87 l9 43 19 -58 c19 -61 71 -115 101 -103 22 8 20 76 -2

82 -10 3 -26 23 -35 45 -10 23 -26 43 -36 46 -14 3 -18 11 -14 25 3 13 -1 24

-11 29 -12 7 -14 19 -10 47 8 53 25 69 58 54 14 -7 44 -12 65 -12 38 0 40 -2

40 -30 0 -16 3 -30 6 -30 18 0 68 86 58 101 -3 5 -12 9 -20 9 -9 0 -14 6 -11

13 2 6 11 10 18 8 8 -3 28 -6 44 -7 17 -1 36 -2 43 -3 6 0 12 -8 12 -16 0 -8

7 -15 15 -15 8 0 12 6 9 14 -6 17 12 31 21 16 3 -5 16 -10 28 -10 28 -1 61

-25 52 -39 -3 -6 -17 -11 -31 -11 -13 0 -24 -4 -24 -10 0 -13 65 -23 109 -16

30 5 42 2 56 -14 18 -20 17 -20 -13 -20 -43 0 -40 -14 7 -42 45 -27 181 -152

181 -166 0 -5 14 -12 30 -16 20 -4 34 -14 40 -31 7 -18 17 -25 35 -25 14 0 25

-4 25 -8 0 -4 12 -13 28 -19 15 -7 35 -18 44 -25 14 -10 20 -9 35 5 18 15 20

15 35 -3 11 -12 24 -17 37 -13 16 4 19 9 11 18 -7 9 -6 16 5 25 9 8 12 17 7

24 -5 6 -13 25 -17 41 -4 17 -10 24 -12 18 -6 -18 -23 -16 -23 1 0 8 13 27 30

42 27 26 28 30 13 46 -13 14 -13 20 -3 33 20 24 41 18 53 -15 12 -33 50 -42

61 -15 3 8 14 15 24 15 30 0 112 -39 112 -54 0 -22 45 -56 76 -56 22 0 35 -9

53 -35 13 -19 28 -32 33 -29 6 4 23 -3 38 -14 29 -22 97 -30 137 -17 17 5 25

1 39 -22 10 -15 24 -32 31 -36 7 -4 13 -14 13 -21 0 -8 7 -17 16 -20 8 -3 13

-10 10 -15 -3 -5 7 -25 23 -45 19 -23 31 -31 34 -23 3 8 18 11 46 9 32 -3 41

-8 41 -23 0 -16 7 -19 41 -19 30 0 40 -4 36 -13 -4 -11 5 -13 41 -10 64 6 100

-9 104 -44 3 -30 38 -47 38 -18 0 12 4 14 19 5 25 -13 67 -13 105 1 34 12 92

-3 81 -21 -10 -16 -35 -11 -35 7 0 9 -2 14 -5 11 -4 -3 -3 -17 1 -32 7 -29 25

-33 47 -12 19 19 127 10 127 -10 0 -10 14 -14 45 -14 35 0 52 6 71 25 21 21

55 25 54 6 -1 -18 -30 -41 -54 -41 -14 0 -26 -4 -26 -10 0 -5 18 -10 39 -10

22 0 41 -5 43 -12 3 -8 11 -9 24 -3 18 8 18 9 -4 13 -27 4 -24 25 3 31 32 6

48 30 42 64 -4 26 0 36 24 57 16 13 29 33 29 43 0 16 5 19 30 14 24 -5 30 -3

30 11 0 9 7 25 14 35 13 16 14 16 28 -5 8 -13 18 -32 23 -43 7 -18 9 -18 12

-2 3 9 13 17 24 17 22 0 24 -8 5 -24 -9 -7 -12 -24 -9 -49 6 -46 17 -47 33 -4

8 25 13 29 20 17 4 -8 10 -24 12 -35 4 -23 22 -33 61 -34 17 -1 27 -6 27 -16

0 -8 11 -17 25 -21 14 -3 25 -9 25 -13 0 -4 12 -13 26 -20 23 -10 26 -10 20 4

-3 9 -6 29 -6 45 0 25 -4 29 -40 35 -22 4 -40 11 -40 15 0 5 -13 11 -30 15

-39 9 -38 20 2 33 33 10 33 10 -14 11 l-48 1 0 50 c0 28 5 50 10 50 6 0 10 18

10 40 0 27 5 43 15 46 9 4 15 20 15 43 1 20 7 54 15 76 18 48 18 55 5 55 -5 0

-10 -6 -10 -14 0 -8 -10 -16 -22 -18 -17 -2 -22 -9 -20 -25 5 -39 -14 -33 -35

12 -15 32 -17 45 -8 45 12 0 25 21 25 41 0 5 -9 9 -20 9 -13 0 -18 5 -14 15 4

8 1 15 -5 15 -6 0 -11 -4 -11 -10 0 -5 -9 -10 -20 -10 -27 0 -26 -31 2 -49 20

-12 20 -14 4 -23 -25 -14 -32 0 -40 77 -7 69 -1 96 19 89 8 -3 22 -1 32 5 15

9 11 10 -20 11 -25 0 -36 4 -31 11 4 7 24 9 55 5 37 -5 49 -3 49 6 1 9 5 7 13

-4 9 -11 27 -17 56 -16 31 0 40 3 32 11 -16 16 -14 42 4 57 13 11 15 8 15 -13

0 -24 22 -57 38 -57 4 0 15 -12 25 -26 15 -21 16 -28 6 -40 -11 -13 -10 -18 4

-25 23 -14 21 -29 -4 -29 -11 0 -17 -4 -14 -10 8 -13 71 -13 95 0 11 6 17 17

14 24 -10 27 19 30 41 3 17 -19 25 -23 34 -14 10 9 15 8 25 -5 26 -36 60 -15

37 21 -6 9 -6 24 0 38 6 17 5 30 -5 44 -13 20 -13 28 10 92 5 12 18 17 48 18

63 2 80 -1 92 -17 6 -8 15 -14 19 -14 5 0 29 -10 53 -21 46 -23 43 -37 -8 -40

-17 -1 -19 -3 -7 -6 22 -6 22 -12 0 -29 -12 -9 -14 -13 -5 -14 7 0 11 -4 8 -9

-3 -5 -15 -7 -25 -4 -10 3 -28 0 -40 -6 -27 -15 -17 -45 13 -37 18 4 25 -2 39

-34 20 -48 21 -50 5 -50 -7 0 -26 -11 -43 -24 -29 -24 -30 -25 -10 -40 30 -22

10 -32 -38 -19 -26 7 -46 8 -52 2 -5 -5 -1 -9 13 -9 12 0 22 -4 22 -10 0 -5

10 -18 22 -30 18 -17 19 -20 5 -20 -10 0 -17 -8 -17 -20 0 -12 7 -20 16 -20

11 0 15 -6 11 -20 -3 -11 -1 -21 4 -21 14 -2 22 -4 45 -12 18 -6 20 -15 20

-66 -1 -61 -11 -86 -22 -57 -8 21 -70 22 -78 1 -3 -9 -19 -15 -41 -15 -28 0

-35 -4 -35 -20 0 -13 -7 -20 -20 -20 -29 0 -70 -21 -70 -37 0 -7 7 -13 15 -13

8 0 25 -10 36 -21 12 -12 24 -17 28 -12 3 6 24 10 46 9 39 -2 40 -2 43 -43 3

-40 5 -42 40 -46 20 -3 10 -3 -24 -1 l-60 3 -12 -45 c-11 -39 -15 -44 -33 -39

-16 5 -20 3 -17 -11 1 -9 12 -18 24 -20 16 -3 24 5 34 32 17 42 42 58 78 49

25 -6 25 -8 10 -19 -10 -7 -14 -16 -10 -20 4 -4 7 -13 7 -19 0 -7 10 -13 23

-15 16 -3 22 -10 22 -28 0 -28 48 -94 68 -94 7 0 15 7 18 15 7 16 49 21 58 6

12 -19 -6 -41 -29 -35 -25 6 -39 -14 -24 -37 14 -23 10 -39 -10 -39 -24 0 -35

-39 -21 -76 10 -24 8 -30 -17 -50 -33 -27 -43 -29 -43 -9 0 11 -11 15 -40 15

-27 0 -40 -4 -40 -14 0 -7 -7 -19 -15 -26 -22 -18 -20 -81 4 -87 15 -4 18 -14

18 -57 0 -93 48 -132 66 -53 5 21 15 37 23 37 8 0 14 -4 14 -9 0 -5 3 -18 7

-28 6 -16 5 -16 -10 -4 -22 17 -35 7 -15 -12 26 -27 58 -39 72 -28 15 13 26 4

26 -21 0 -10 5 -18 10 -18 6 0 10 -4 10 -10 0 -5 -7 -10 -15 -10 -8 0 -15 -7

-15 -15 0 -8 -6 -15 -13 -15 -8 0 -21 -8 -30 -17 -12 -15 -14 -27 -6 -67 5

-28 14 -53 19 -56 15 -9 -5 -59 -38 -93 -25 -27 -26 -28 -9 -56 18 -31 23 -96

8 -106 -5 -3 -16 2 -24 10 -20 19 -27 19 -27 -1 0 -22 27 -47 41 -38 9 5 10 0

5 -17 -6 -22 -12 -61 -20 -133 -3 -21 1 -30 15 -33 21 -6 25 -18 8 -28 -6 -4

-8 -13 -5 -20 2 -7 2 -16 -2 -19 -3 -4 -6 -26 -7 -49 -3 -55 -14 -89 -26 -81

-6 3 -8 12 -5 20 5 13 -44 44 -71 44 -16 0 -17 -32 -2 -47 7 -7 13 -28 14 -48

1 -25 -1 -33 -9 -25 -18 18 -24 11 -24 -32 -1 -24 -6 -44 -11 -46 -16 -5 -13

-33 6 -54 13 -14 14 -21 5 -30 -7 -7 -12 -33 -12 -60 0 -26 -5 -58 -11 -72 -9

-19 -9 -36 1 -70 7 -25 9 -57 6 -72 -6 -23 -10 -25 -40 -20 -49 9 -65 -13 -43

-60 20 -40 37 -37 37 7 0 24 4 29 24 29 21 0 25 -6 32 -47 11 -66 11 -68 -6

-68 -9 0 -15 10 -16 28 -1 33 -14 50 -14 19 0 -16 -6 -22 -21 -22 -11 0 -27

-7 -36 -15 -14 -14 -17 -14 -34 1 -18 16 -19 16 -19 -9 0 -14 8 -30 17 -36 14

-7 15 -12 5 -24 -10 -12 -10 -16 3 -21 17 -6 21 -36 4 -36 -6 0 -19 5 -30 11

-15 7 -17 14 -10 23 6 6 8 22 4 34 -4 16 -13 22 -35 22 -25 0 -28 -3 -26 -28

3 -25 1 -27 -29 -24 -40 4 -53 -16 -25 -37 13 -9 28 -39 35 -68 l14 -52 -29 6

c-29 6 -34 -2 -19 -26 6 -10 5 -24 -3 -40 -8 -14 -17 -44 -21 -66 -4 -22 -10

-42 -14 -45 -4 -3 -18 -27 -31 -54 -24 -48 -36 -59 -73 -70 -15 -5 -17 -13

-11 -55 7 -58 -1 -95 -16 -71 -7 11 -10 6 -10 -18 0 -20 -8 -39 -20 -49 -11

-10 -20 -23 -20 -30 0 -7 -4 -13 -9 -13 -5 0 -14 -14 -20 -31 -14 -40 -14 -39

3 -39 32 0 30 -116 -2 -152 -9 -11 -29 -18 -49 -18 -21 0 -33 -5 -33 -14 0 -7

-11 -21 -25 -30 -14 -9 -25 -22 -25 -30 0 -7 -11 -19 -25 -26 -14 -7 -25 -19

-25 -27 0 -23 -17 -14 -38 18 -20 32 -20 32 -27 8 -5 -14 -3 -25 4 -27 13 -4

15 -32 2 -32 -5 0 -11 -14 -15 -31 -5 -27 -9 -30 -28 -24 -13 4 -33 6 -44 6

-13 0 -24 7 -27 18 -3 11 -18 22 -36 26 -31 7 -36 13 -57 70 -6 17 -8 15 -15

-15 -4 -19 -11 -47 -14 -62 -5 -20 -2 -31 14 -44 17 -15 21 -30 21 -78 0 -36

-5 -66 -14 -75 -7 -9 -16 -46 -20 -83 -6 -61 -5 -68 16 -82 12 -9 18 -16 13

-16 -6 0 -24 14 -42 30 -35 33 -60 38 -69 15 -4 -8 -10 -12 -16 -9 -5 3 -16

-2 -23 -12 -17 -22 -20 -64 -5 -64 6 0 10 -7 10 -15 0 -24 -14 -17 -32 16 -19

32 -16 71 7 99 12 14 17 30 31 98 3 15 9 36 14 47 4 11 13 33 19 49 22 53 -7

86 -42 48 -13 -14 -17 -38 -17 -95 0 -71 -2 -77 -21 -77 -11 0 -17 -4 -14 -10

3 -5 1 -18 -4 -27 -10 -17 -10 -17 -11 0 0 9 0 20 1 23 0 10 -52 46 -58 40 -4

-3 -1 -17 7 -30 16 -30 10 -180 -9 -214 -17 -31 -39 -13 -47 39 -4 24 -12 39

-21 39 -11 0 -14 -14 -11 -67 3 -65 2 -68 -19 -67 -13 0 -23 -3 -23 -8 0 -4

-16 -8 -35 -8 l-35 0 20 -36 c22 -39 19 -54 -11 -54 -29 0 -34 -26 -15 -87 10

-30 15 -57 13 -60 -3 -2 -19 3 -36 11 -38 20 -49 5 -23 -32 24 -35 34 -62 22

-62 -6 0 -10 5 -10 10 0 17 -25 11 -38 -10 -17 -27 -41 -25 -52 5 -5 14 -14

25 -19 25 -13 0 -22 -28 -10 -32 7 -2 8 -15 3 -33 l-8 -30 -7 25 c-4 14 -7 18

-8 9 -1 -8 -20 -25 -43 -37 -24 -12 -37 -22 -30 -22 24 0 12 -30 -15 -36 -16

-4 -38 -13 -50 -21 -26 -17 -39 -63 -21 -74 12 -8 5 -23 -13 -25 -22 -3 -23

-5 -10 -13 8 -5 11 -16 6 -31 -5 -16 -10 -19 -18 -11 -6 6 -24 11 -39 11 -23

0 -28 -4 -28 -23 0 -13 5 -28 12 -35 9 -9 9 -15 0 -24 -16 -16 -15 -38 2 -38

8 0 18 -4 21 -10 4 -6 -10 -10 -34 -10 -32 0 -41 4 -41 17 0 36 -14 -1 -17

-44 -2 -34 3 -54 18 -75 28 -38 18 -45 -21 -16 l-32 23 -24 -28 c-16 -19 -23

-36 -19 -48 4 -10 4 -28 0 -38 -6 -19 -7 -19 -35 -3 -30 17 -52 10 -32 -10 7

-7 12 -27 12 -45 0 -30 -2 -33 -32 -33 -25 0 -29 3 -20 12 18 18 15 28 -8 28

-13 0 -18 -5 -14 -15 8 -20 -20 -20 -36 0 -7 8 -21 15 -31 15 -9 0 -25 8 -35

18 -29 29 -68 52 -89 52 -11 0 -25 10 -30 22 -6 13 -21 28 -35 35 -14 7 -25

18 -25 25 0 7 -9 30 -19 52 -18 36 -18 44 -6 130 7 50 13 112 12 138 -2 40 1

46 14 41 18 -7 34 12 34 42 0 15 -3 16 -12 7 -17 -17 -28 -15 -28 7 0 11 -3

21 -7 23 -5 2 -17 20 -27 41 -16 31 -18 42 -8 58 14 22 16 65 3 73 -5 3 -9 25

-9 48 l0 43 13 -29 12 -29 7 36 c9 49 22 54 30 13 10 -51 31 -64 60 -37 17 16

23 32 23 69 0 26 -4 50 -9 53 -4 3 -11 43 -15 90 -3 46 -9 89 -13 94 -3 6 -12

29 -20 53 -7 23 -19 47 -27 53 -7 6 -13 22 -13 35 0 14 -6 24 -14 24 -18 0

-30 -17 -17 -24 5 -4 9 -27 9 -52 0 -25 6 -59 12 -75 7 -16 9 -37 5 -46 -5

-16 -10 -13 -35 17 -16 19 -30 46 -30 58 0 36 -29 89 -51 95 -11 3 -19 14 -19

25 0 11 -6 22 -14 25 -7 3 -23 25 -35 50 -12 25 -31 55 -41 67 -11 13 -20 29

-20 36 0 7 -14 12 -35 12 -19 0 -33 -5 -32 -10 1 -6 -3 -12 -8 -14 -6 -2 -19

15 -29 38 -10 24 -21 45 -25 48 -11 9 -57 84 -80 132 -13 27 -27 48 -31 48 -5

0 -11 8 -15 18 -3 11 -16 24 -29 30 -23 10 -24 10 -10 -18 8 -15 21 -33 29

-40 8 -7 15 -21 15 -31 0 -10 9 -24 20 -31 11 -7 20 -21 20 -31 0 -10 5 -27

11 -39 6 -11 9 -22 6 -24 -10 -10 -39 11 -54 40 -8 17 -31 50 -49 73 -19 23

-34 46 -34 51 0 6 -15 25 -34 43 -19 17 -42 49 -52 70 -13 31 -23 39 -43 39

-14 0 -37 7 -51 15 -14 8 -31 17 -38 21 -8 4 -34 29 -59 55 -25 27 -49 46 -54

43 -5 -3 -6 -11 -2 -17 8 -14 12 -89 4 -84 -4 1 -17 8 -31 15 -14 7 -40 35

-59 63 -18 27 -39 49 -46 49 -6 0 -33 27 -59 61 -38 49 -51 59 -67 54 -17 -6

-20 -4 -15 12 5 15 -1 23 -21 32 -16 8 -35 17 -44 22 -21 10 -29 2 -29 -28 0

-13 -6 -23 -14 -23 -9 0 -13 13 -13 39 0 47 -10 64 -30 56 -14 -5 -15 4 -10

65 5 62 4 73 -14 88 -16 14 -19 30 -19 94 0 42 -4 80 -10 83 -13 8 -13 62 1

67 7 2 6 13 -2 33 -7 17 -11 35 -9 40 5 16 0 188 -5 207 -6 16 50 68 73 68 15

0 35 38 28 56 -3 8 -19 14 -41 14 -32 0 -36 3 -30 20 3 11 2 20 -3 20 -34 0

-35 156 -2 189 9 9 20 27 23 41 5 22 0 29 -41 54 -33 20 -64 30 -107 33 -52 4

-58 3 -43 -10 16 -12 15 -15 -6 -38 -12 -13 -25 -31 -28 -40 -8 -20 -57 -33

-151 -43 -55 -5 -89 -41 -81 -84 6 -28 9 -31 31 -26 24 6 24 5 13 -16 -7 -12

-8 -20 -2 -16 5 3 12 -1 16 -9 3 -8 13 -15 22 -15 23 0 138 -122 154 -162 25

-69 45 -113 51 -118 4 -3 11 -25 17 -50 6 -25 15 -63 20 -85 11 -47 9 -271 -3

-300 -5 -11 -19 -37 -32 -58 -15 -24 -22 -45 -18 -55 13 -30 14 -165 3 -245

-9 -71 -13 -80 -37 -89 -14 -6 -29 -11 -33 -10 -5 1 -8 -5 -8 -13 0 -8 7 -15

15 -15 16 0 20 -35 17 -135 -1 -27 -1 -85 -1 -128 0 -60 -4 -79 -15 -83 -13

-5 -94 11 -168 32 -32 9 -20 -25 15 -42 52 -27 96 -74 96 -103 0 -14 3 -61 7

-104 5 -57 3 -85 -6 -103 -11 -19 -11 -35 -2 -72 11 -46 10 -117 -1 -128 -3

-3 -3 -20 0 -37 2 -18 0 -66 -6 -107 -7 -52 -7 -78 1 -87 5 -7 8 -19 5 -26 -3

-7 1 -56 9 -108 8 -52 12 -100 9 -108 -3 -8 2 -22 11 -32 13 -14 15 -30 11

-66 -3 -26 0 -54 6 -64 8 -13 8 -25 -1 -44 -16 -34 -15 -57 3 -91 16 -30 21

-114 7 -114 -10 0 -9 -76 1 -86 14 -14 7 -23 -20 -26 -20 -2 -27 -8 -25 -20 2

-12 -4 -18 -18 -18 -28 0 -26 -5 19 -53 45 -48 81 -93 81 -101 0 -3 13 -25 30

-49 16 -25 30 -49 30 -55 0 -5 6 -12 14 -15 7 -3 16 -28 20 -55 3 -28 10 -52

14 -54 4 -2 22 -34 40 -72 27 -57 34 -85 39 -155 3 -57 10 -92 20 -103 8 -9

17 -35 19 -59 2 -23 9 -48 15 -55 6 -7 8 -18 5 -23 -4 -6 -2 -39 3 -73 6 -35

13 -90 16 -123 3 -33 8 -76 10 -95 5 -36 7 -179 2 -215 -1 -11 2 -76 7 -145 5

-69 10 -147 11 -175 1 -27 5 -86 10 -130 4 -44 7 -93 7 -109 -1 -17 5 -50 14

-74 8 -24 12 -53 8 -64 -3 -11 0 -47 6 -81 9 -45 10 -75 2 -111 -9 -41 -7 -54

8 -81 14 -25 20 -65 26 -157 3 -67 11 -129 17 -137 6 -7 11 -45 10 -84 0 -48

4 -76 13 -85 9 -8 12 -23 8 -38 -7 -28 13 -216 28 -255 5 -14 11 -77 13 -140

5 -133 8 -158 26 -219 7 -25 14 -85 16 -135 1 -49 5 -121 8 -160 3 -38 7 -108

8 -155 1 -47 8 -95 15 -107 7 -13 12 -62 12 -122 0 -55 5 -132 12 -171 l12

-70 1258 0 c1251 0 1258 0 1258 20 0 26 17 26 25 0 4 -12 15 -20 30 -20 32 0

39 36 15 70 -19 27 -19 27 4 61 24 35 39 89 26 89 -20 0 -16 31 6 55 23 25 24

29 9 49 -8 11 -18 28 -22 36 -4 8 -10 18 -15 21 -14 9 2 38 25 45 29 8 107 92

107 114 0 9 -9 29 -20 43 -26 33 -25 37 10 37 23 0 30 -4 30 -20 0 -24 18 -27

27 -5 3 9 -2 24 -12 35 -15 16 -15 23 -3 57 7 21 15 40 19 43 3 3 8 13 12 23

3 9 14 17 23 17 14 0 15 7 10 45 -8 51 6 85 34 85 11 0 20 5 20 10 0 6 12 15

27 21 l28 11 -23 9 c-13 5 -20 13 -17 19 3 5 -2 10 -12 10 -17 1 -17 1 0 11

20 12 24 75 5 82 -7 2 7 10 31 17 37 12 41 15 26 26 -14 10 -14 15 -3 34 11

18 11 23 -3 33 -18 14 -14 37 7 37 10 0 12 8 7 31 -5 29 -4 31 16 24 17 -5 23

-1 31 22 6 15 15 36 20 45 13 22 13 58 1 58 -5 0 -11 -5 -13 -11 -2 -6 -13 -9

-23 -6 -19 5 -19 5 2 12 19 6 23 14 21 45 0 20 2 42 6 48 4 7 2 12 -3 12 -6 0

-11 19 -11 41 0 32 3 39 13 31 6 -6 29 -13 50 -17 20 -4 37 -13 37 -20 0 -7 7

-16 15 -19 14 -5 13 -1 -2 24 -9 17 -25 30 -34 30 -14 0 -16 5 -10 28 5 15 13

26 20 25 6 -2 11 5 11 15 0 13 -9 17 -36 19 -22 1 -42 10 -55 24 -33 39 4 56

42 18 15 -15 24 -17 33 -10 22 18 42 -32 27 -66 -9 -21 -9 -28 1 -34 21 -13

28 0 28 55 0 36 5 58 15 66 10 8 15 25 13 44 -2 25 0 30 15 28 18 -3 22 14 8

37 -6 9 -18 11 -35 7 -19 -5 -28 -2 -33 9 -3 9 -11 14 -18 11 -9 -3 -11 7 -7

40 3 29 1 44 -7 44 -21 0 -11 25 19 49 17 13 30 31 30 41 0 22 35 54 50 45 6

-4 10 -14 9 -23 -3 -23 11 -52 23 -52 6 0 8 14 5 35 -5 30 -3 35 14 35 17 0

19 -5 14 -34 -8 -38 9 -58 20 -23 4 12 7 27 6 34 -1 6 13 22 30 36 25 19 29

28 22 42 -9 16 -11 16 -26 -5 -12 -17 -22 -21 -41 -16 -13 3 -27 2 -31 -4 -8

-14 -35 -1 -35 18 0 8 -7 23 -15 32 -14 16 -14 21 6 54 16 27 26 35 40 31 14

-5 19 1 23 27 3 18 5 42 3 53 -1 15 3 19 20 17 12 -2 24 2 28 8 3 6 -3 10 -14

10 -12 0 -21 5 -21 10 0 6 7 10 16 10 13 0 15 6 9 28 -9 33 -9 92 0 101 11 10

32 -27 39 -70 4 -24 11 -37 17 -33 13 8 1 133 -14 153 -9 10 -7 16 6 26 24 18

21 28 -13 43 -26 12 -30 19 -30 53 0 21 5 39 10 39 6 0 10 7 10 15 0 18 26 20

33 3 3 -7 6 15 6 50 1 48 4 62 16 62 8 0 15 -9 15 -20 0 -27 23 -25 35 3 6 12

20 23 33 25 27 4 27 4 2 71 -19 49 -20 55 -5 77 8 13 22 24 30 24 20 0 20 54

0 70 -8 7 -15 23 -15 37 0 13 -7 26 -15 29 -8 4 -15 12 -15 20 0 8 7 14 15 14

19 0 20 19 1 26 -19 7 -9 40 19 58 13 9 26 25 30 36 3 11 22 27 42 37 20 9 38

25 41 35 5 20 24 23 51 9 10 -6 23 -6 32 0 10 6 7 9 -13 9 -24 0 -28 4 -28 30

0 19 5 30 14 30 14 0 28 34 18 44 -10 11 -40 6 -52 -9 -7 -8 -21 -15 -31 -15

-16 0 -19 8 -19 44 0 52 13 65 40 41 10 -9 24 -14 31 -9 9 5 8 10 -3 18 -11 9

-12 18 -5 46 l10 35 11 -27 c13 -37 24 -35 28 4 3 35 28 52 28 19 0 -16 6 -21

25 -21 32 0 32 12 0 41 -27 26 -33 49 -12 49 24 0 47 36 47 73 0 20 -4 37 -10

37 -5 0 -10 -18 -10 -40 0 -22 -4 -40 -10 -40 -18 0 -11 72 7 86 15 10 16 15

6 25 -23 23 -14 45 22 56 36 12 48 1 18 -16 -10 -5 -14 -13 -9 -18 5 -4 11 -2

13 5 3 6 12 12 22 12 26 0 28 60 1 67 -29 8 -24 23 10 30 17 3 33 9 36 14 2 4

16 4 31 -2 30 -11 46 -2 21 12 -18 10 -14 39 6 39 6 0 22 -9 36 -20 14 -11 33

-20 42 -20 15 0 15 3 2 29 -13 26 -17 28 -65 24 -28 -2 -55 -5 -59 -8 -4 -3

-10 2 -14 10 -4 11 2 15 19 15 14 0 25 3 25 8 0 8 -59 36 -64 31 -2 -2 -13

-23 -26 -46 -19 -34 -29 -43 -51 -43 -21 0 -28 6 -31 25 -3 14 -1 25 3 25 19

0 7 21 -17 30 -20 8 -24 14 -18 33 9 30 14 34 23 18 9 -14 80 -33 93 -25 4 3

8 14 8 26 0 16 5 19 26 15 23 -4 25 -2 19 22 -13 52 -41 67 -51 26 -5 -21 -10

-24 -32 -18 -22 5 -24 3 -19 -16 3 -15 1 -21 -10 -21 -10 0 -13 6 -9 16 5 14

1 15 -29 10 -22 -4 -35 -3 -35 4 0 5 5 10 10 10 6 0 10 7 10 15 0 18 31 20 48

3 19 -19 37 4 23 30 -15 28 -14 42 4 42 9 0 15 -9 15 -22 0 -18 2 -20 10 -8 6

9 6 18 0 24 -16 16 -12 36 5 30 10 -4 15 0 15 13 0 10 9 24 20 31 25 15 15 42

-16 42 -16 0 -24 -6 -25 -17 0 -14 -2 -15 -6 -3 -3 8 -11 18 -17 22 -7 5 -4 8

7 8 10 0 20 7 23 15 8 19 23 19 45 -1 23 -20 42 -9 33 19 -10 32 -40 57 -68

57 -13 0 -26 6 -29 14 -6 15 9 16 32 2 8 -5 17 -3 22 5 14 22 6 44 -19 47 -21

3 -32 22 -13 22 4 0 11 27 15 60 7 58 18 75 30 45 9 -24 54 2 61 36 8 34 16

36 33 9 7 -11 19 -20 27 -20 8 0 15 -8 15 -19 0 -10 9 -30 20 -44 17 -22 18

-26 5 -37 -22 -18 -45 -5 -51 30 -7 34 -29 40 -39 10 -8 -24 1 -40 21 -40 8 0

14 -7 14 -15 0 -16 30 -35 56 -35 10 0 29 10 42 23 17 15 26 18 29 10 3 -7 11

-13 19 -13 11 0 12 4 4 19 -14 28 -13 31 15 31 27 0 35 -26 13 -48 -9 -9 -9

-12 0 -12 7 0 12 -8 12 -19 0 -18 34 -31 81 -31 25 0 24 20 0 27 -11 3 -17 11

-15 18 3 7 -12 30 -32 51 -23 22 -33 39 -26 42 19 6 14 22 -8 22 -27 0 -25 16

3 24 33 9 37 8 37 -13 0 -10 7 -21 15 -25 8 -3 15 -17 15 -31 0 -41 29 -77 57

-70 17 4 23 1 23 -10 0 -9 -7 -18 -15 -21 -11 -5 -12 -11 -4 -26 8 -14 7 -25

-5 -43 -23 -35 -20 -64 8 -75 13 -5 26 -20 30 -35 4 -15 14 -34 21 -42 8 -8

18 -32 21 -53 4 -21 13 -41 20 -44 22 -8 17 -46 -5 -46 -11 0 -23 -4 -26 -10

-3 -5 -1 -10 5 -10 7 0 9 -8 5 -19 -4 -13 1 -27 14 -40 25 -25 28 -61 5 -61

-9 0 -14 -5 -12 -12 8 -22 25 -19 37 8 10 23 14 24 28 13 15 -13 15 -14 0 -17

-10 -2 -17 -10 -17 -19 0 -10 5 -13 18 -8 9 4 26 10 37 13 19 5 18 3 -3 -20

-15 -17 -20 -28 -13 -33 19 -11 12 -22 -20 -29 -27 -5 -30 -8 -19 -21 16 -20

22 -19 48 5 l21 20 0 -60 c0 -33 3 -65 7 -72 10 -16 11 -198 2 -198 -5 0 -8

-9 -8 -20 0 -17 5 -19 24 -14 14 3 32 1 42 -4 16 -9 15 -10 -4 -16 -18 -6 -22

-15 -22 -47 0 -21 5 -39 10 -39 18 0 10 -18 -10 -23 -21 -5 -26 -32 -11 -56

14 -21 2 -43 -20 -36 -11 4 -19 2 -19 -4 0 -6 9 -11 20 -11 12 0 20 -7 21 -17

1 -10 2 -27 3 -38 0 -11 8 -20 16 -20 8 0 17 -13 21 -30 4 -17 10 -38 14 -48

4 -9 3 -17 -3 -17 -16 0 -22 -41 -6 -47 25 -9 16 -31 -11 -25 -14 2 -25 0 -25

-5 0 -15 35 -43 53 -43 15 0 14 -3 -3 -20 -24 -24 -24 -29 -6 -95 7 -27 11

-57 9 -65 -13 -45 -14 -45 -32 -21 -25 33 -34 12 -16 -39 20 -55 20 -81 0 -74

-9 4 -15 0 -15 -9 0 -8 10 -17 22 -20 19 -5 20 -8 7 -23 -8 -9 -13 -25 -11

-35 2 -9 -2 -20 -8 -24 -6 -4 -7 -12 -1 -23 6 -11 5 -37 -1 -67 -6 -28 -11

-60 -12 -73 0 -12 -7 -26 -13 -30 -7 -5 -15 -25 -17 -45 -3 -21 -8 -43 -13

-49 -4 -7 -8 -32 -9 -55 -1 -24 -7 -50 -14 -58 -8 -9 -10 -28 -6 -50 4 -21 2

-50 -5 -70 -14 -37 -24 -44 -32 -22 -3 6 -6 2 -6 -10 -1 -13 -5 -23 -11 -23

-16 0 -12 -40 5 -46 8 -4 15 -10 15 -15 0 -4 -7 -6 -15 -3 -19 8 -36 -33 -42

-101 -2 -27 -9 -62 -14 -77 -6 -15 -8 -32 -4 -38 4 -7 -2 -18 -14 -26 -14 -10

-21 -26 -21 -48 0 -19 -7 -39 -15 -46 -11 -9 -12 -17 -5 -31 8 -14 6 -20 -10

-29 -11 -6 -20 -21 -20 -35 0 -13 -6 -25 -12 -28 -10 -3 -10 -8 -2 -17 18 -18

-13 -128 -47 -165 -22 -25 -36 -167 -20 -207 12 -32 38 -37 49 -10 5 12 9 6

13 -23 4 -23 5 -11 2 26 -3 54 -1 68 12 72 24 10 17 27 -11 27 -20 0 -25 4

-20 16 3 9 6 22 6 30 0 21 27 17 33 -6 3 -11 10 -20 16 -20 17 0 13 40 -4 46

-8 4 -15 14 -15 24 0 11 -4 22 -10 25 -15 10 -12 25 6 25 16 0 53 37 54 54 0

5 16 28 35 52 29 35 34 48 29 73 -8 40 20 54 43 21 12 -17 22 -21 45 -16 24 5

34 1 50 -19 11 -14 30 -25 44 -25 29 0 32 16 4 23 -13 3 -20 14 -20 28 l0 22

25 -23 c13 -13 25 -32 25 -44 0 -12 2 -50 4 -86 3 -37 0 -75 -7 -88 -8 -17 -8

-28 1 -42 7 -12 8 -28 2 -51 -6 -20 -6 -37 0 -44 14 -17 24 -102 22 -190 -1

-84 4 -125 16 -125 4 0 22 13 40 28 36 31 43 57 13 49 -17 -4 -19 0 -16 37 2

22 4 64 6 91 1 28 7 56 12 63 10 13 3 27 -14 27 -13 0 -12 10 6 52 11 26 12

38 4 44 -8 5 -8 8 0 13 14 9 15 158 1 172 -6 6 -4 28 7 61 12 39 22 53 40 58

13 3 23 10 23 15 0 6 5 10 11 10 6 0 8 -7 5 -15 -4 -10 3 -20 19 -27 28 -13

33 -36 10 -44 -22 -9 -18 -34 5 -34 11 0 20 -6 20 -14 0 -8 11 -24 25 -37 22

-21 24 -30 19 -70 -6 -41 -3 -48 17 -63 20 -14 22 -19 12 -36 -15 -23 -7 -50

16 -50 14 -1 14 -2 1 -13 -20 -15 -20 -75 -1 -86 10 -6 11 -17 6 -37 -6 -23

-9 -91 -6 -136 1 -14 31 -8 31 6 0 8 7 16 15 20 17 6 20 42 5 51 -17 10 -11

35 8 35 16 1 16 1 -1 11 -9 5 -22 7 -28 3 -7 -4 -7 1 1 16 7 12 9 37 5 59 -5

28 -2 41 10 51 12 10 14 23 9 59 -4 25 -10 51 -14 56 -4 6 -10 29 -14 53 -5

34 -3 42 9 42 11 0 15 11 15 39 0 22 -4 43 -10 46 -15 9 -12 35 5 35 7 0 18

-8 24 -17 5 -10 13 -15 17 -10 4 4 0 15 -8 24 -18 21 -30 63 -18 63 4 0 10 -7

14 -15 7 -20 46 -20 46 0 0 19 14 19 28 2 7 -8 9 -29 5 -52 l-6 -38 32 19 c32

19 33 19 47 -1 10 -13 13 -34 10 -60 -3 -22 -3 -31 0 -20 3 11 10 24 15 29 5

6 9 4119 9 10083 l0 10073 -6110 0 -6110 0 0 -7474z m4438 296 c20 -10 59 -9

86 3 19 8 47 -3 53 -22 2 -6 -7 -13 -21 -17 -17 -4 -23 -11 -20 -21 7 -18 -27

-21 -57 -5 -25 14 -26 -5 -1 -21 13 -8 17 -20 14 -45 -3 -25 0 -34 11 -34 8 0

26 -9 40 -20 16 -13 28 -16 32 -10 8 12 65 13 84 1 12 -8 12 -12 -2 -26 -10

-9 -17 -20 -17 -25 0 -18 -30 -18 -53 1 -43 33 -117 20 -87 -16 19 -23 -8 -29

-50 -10 -46 21 -54 42 -26 72 47 48 48 51 30 78 -9 14 -24 25 -33 25 -14 1

-14 2 2 11 21 12 24 69 3 69 -21 0 -29 17 -20 43 l8 22 4 -23 c2 -12 11 -26

20 -30z m2498 -736 c18 -14 18 -15 -11 -21 -17 -4 -37 -9 -45 -11 -8 -3 -16

-4 -17 -2 -1 2 -12 -7 -25 -18 -42 -39 -135 -79 -208 -90 -8 -1 -59 -9 -114

-18 -54 -9 -101 -15 -103 -12 -3 2 -24 -2 -46 -10 -23 -8 -71 -15 -107 -15

-92 0 -132 -4 -155 -17 -16 -8 -35 -7 -78 6 -31 9 -59 22 -61 28 -11 28 13 36

120 38 77 2 109 6 112 15 3 9 7 10 11 3 9 -15 87 -17 141 -3 25 6 65 11 90 11

25 0 56 7 68 16 24 17 138 44 184 44 15 0 29 4 32 9 4 5 30 12 58 16 29 4 69

16 88 26 42 23 41 23 66 5z m-3347 -467 c55 -24 60 -24 88 3 17 16 34 21 70

19 25 0 52 -6 59 -12 7 -6 18 -8 23 -5 14 9 61 -4 61 -16 0 -5 9 -21 20 -35

13 -17 17 -30 11 -37 -6 -7 -6 -17 -2 -24 12 -19 6 -151 -7 -164 -17 -17 -54

-20 -64 -6 -4 7 -8 23 -8 36 0 32 -17 27 -25 -7 -5 -23 -13 -31 -33 -33 -19

-2 -28 -10 -30 -25 -5 -33 -32 -38 -32 -6 0 25 -1 25 -56 21 -45 -4 -57 -2

-64 13 -6 9 -27 20 -49 24 -22 4 -46 14 -53 22 -11 14 -10 15 10 9 29 -10 28

3 -3 37 -29 31 -40 34 -49 12 -9 -24 -36 -18 -46 11 -6 14 -14 23 -19 19 -14

-8 -24 14 -23 52 1 22 -5 39 -18 51 -24 20 -25 28 -4 36 18 7 76 -10 109 -31

22 -15 45 -17 45 -5 0 5 -9 18 -20 30 -11 12 -20 26 -20 32 0 16 72 4 129 -21z

m405 -75 c9 -8 20 -13 26 -9 5 3 26 2 45 -4 21 -6 37 -6 41 0 11 18 32 9 27

-11 -7 -28 12 -48 41 -43 28 6 66 -27 66 -57 0 -23 -37 -50 -75 -54 -15 -2

-36 -14 -46 -27 l-17 -23 -13 27 c-8 17 -18 26 -27 22 -7 -3 -26 2 -40 11 -24

14 -27 22 -28 71 0 45 -4 59 -23 74 -12 10 -20 23 -16 29 9 14 21 13 39 -6z

m-524 -227 c0 -7 23 -33 50 -57 28 -24 50 -50 50 -57 0 -24 -48 -26 -76 -4

-15 12 -35 21 -44 21 -10 0 -20 9 -23 19 -2 11 -15 21 -28 23 -35 5 -36 34 -2

52 35 19 73 20 73 3z m410 -150 c28 -23 25 -31 -16 -50 -42 -21 -90 -10 -139

29 -39 31 -26 39 64 39 52 -1 77 -5 91 -18z m300 -21 c0 -2 -7 -20 -15 -39 -8

-20 -15 -39 -15 -42 0 -13 39 21 44 38 2 10 9 16 15 12 14 -8 14 -35 1 -35 -5

0 -10 -5 -10 -11 0 -8 5 -7 16 2 13 10 17 10 25 -2 13 -21 11 -29 -7 -29 -11

0 -13 -6 -9 -19 3 -11 1 -22 -5 -26 -5 -3 -10 -15 -10 -27 0 -17 -2 -18 -15

-8 -10 9 -19 9 -27 2 -16 -12 -148 -7 -194 8 -18 6 -43 10 -56 9 -35 -4 -88

12 -88 26 0 6 12 17 28 24 15 8 34 16 42 20 8 4 54 6 102 5 64 -2 89 1 98 11

9 10 7 16 -7 24 -14 8 -16 12 -5 22 10 11 12 10 12 -4 0 -27 27 -20 47 13 15

25 33 40 33 26z m-453 -87 c8 -3 8 -9 -3 -24 -14 -18 -27 -20 -159 -20 -80 0

-145 2 -145 5 2 34 69 58 166 59 28 1 44 6 48 16 5 13 11 12 43 -8 21 -13 43

-26 50 -28z m249 -344 c20 -8 41 -12 47 -8 6 4 3 9 -9 14 -19 7 -19 8 0 8 11

1 28 -6 38 -16 14 -12 23 -14 40 -6 16 7 36 6 67 -4 24 -7 57 -14 74 -15 16

-1 35 -10 41 -20 8 -14 19 -16 47 -12 24 4 39 2 44 -7 13 -19 11 -69 -1 -69

-6 0 -17 -7 -24 -14 -8 -11 -27 -14 -68 -11 -32 2 -62 5 -67 6 -6 1 -27 -6

-48 -16 -32 -16 -42 -17 -72 -6 -36 13 -302 27 -576 32 l-85 1 4 29 c6 43 70

90 119 89 21 -1 67 5 103 14 39 9 66 11 68 6 4 -12 49 -13 56 -1 3 4 35 8 71

8 36 0 68 3 72 7 9 9 20 8 59 -9z m537 -129 c35 -14 67 -22 71 -19 3 3 15 -5

26 -18 11 -13 23 -27 27 -31 5 -3 44 -41 88 -83 57 -55 73 -75 55 -70 -14 4

-44 10 -67 12 -27 3 -43 10 -43 19 0 8 -6 11 -15 7 -9 -3 -24 2 -34 11 -9 9

-33 19 -51 23 -19 3 -43 15 -54 25 -11 10 -24 18 -30 18 -5 0 -17 6 -25 13 -9

8 -35 19 -58 26 -38 10 -60 31 -33 31 6 0 10 5 10 12 0 17 32 47 51 47 9 1 46

-10 82 -23z m94 -276 c31 -16 62 -30 70 -30 8 0 29 -11 47 -25 18 -14 43 -25

55 -25 12 0 24 -7 27 -15 8 -21 -14 -45 -41 -45 -18 0 -25 -7 -30 -32 -10 -45

-25 -66 -62 -89 -45 -28 -120 -18 -134 18 -17 46 -11 99 14 116 18 12 20 18

10 28 -7 7 -13 26 -13 41 0 16 -7 31 -15 34 -20 8 -20 54 0 54 9 0 41 -13 72

-30z m-594 1 c8 -8 11 -55 8 -137 -1 -23 -56 -54 -96 -54 -27 0 -28 1 -42 114

-7 50 -6 71 3 80 14 14 112 12 127 -3z m-483 -35 c0 -7 -7 -19 -15 -26 -17

-14 -20 -40 -5 -40 6 0 13 7 16 15 4 8 15 15 26 15 15 0 18 -4 14 -17 -4 -9

-12 -49 -18 -89 -10 -65 -9 -77 9 -121 11 -26 23 -63 26 -80 6 -31 5 -33 -22

-33 -16 0 -34 -7 -41 -15 -8 -9 -21 -13 -36 -9 -16 4 -24 2 -24 -6 0 -9 -4 -9

-13 -2 -7 6 -36 14 -65 18 -30 4 -60 13 -68 21 -7 8 -19 11 -24 8 -6 -4 -27 3

-46 14 -20 12 -39 19 -44 16 -4 -3 -6 3 -3 14 4 15 0 18 -22 14 -15 -3 -33 1

-43 10 -9 8 -28 18 -42 22 -14 4 -40 21 -58 36 -18 16 -37 29 -43 29 -20 0 -4

45 21 57 14 7 34 19 45 28 11 9 37 27 59 41 35 23 40 23 55 10 17 -16 91 -12

91 4 0 13 51 21 65 10 16 -14 170 34 179 55 7 19 26 20 26 1z m4343 -149 c3

-8 1 -20 -3 -27 -13 -21 0 -40 27 -40 34 0 27 -31 -12 -49 -17 -8 -31 -18 -33

-23 -2 -4 -12 -8 -21 -8 -10 0 -21 -3 -25 -7 -4 -4 -23 -8 -42 -10 -19 -1 -41

-9 -50 -17 -8 -9 -24 -16 -34 -16 -11 0 -23 -7 -27 -15 -11 -19 -102 -65 -129

-65 -18 0 -21 5 -19 39 3 48 5 51 57 86 24 16 52 40 63 53 11 13 34 25 50 27

68 8 121 28 149 56 32 32 41 35 49 16z m833 -68 c3 -6 0 -15 -7 -20 -11 -7

-11 -9 -1 -9 7 0 12 -6 11 -12 -3 -29 2 -38 24 -38 13 0 26 -9 32 -22 6 -12

17 -24 25 -28 8 -4 26 -13 40 -20 14 -8 59 -14 101 -15 52 -2 84 -7 100 -19

13 -9 36 -16 51 -16 28 0 37 -13 18 -25 -16 -10 0 -27 21 -22 10 3 20 0 22 -6

1 -5 30 -12 63 -15 32 -2 66 -10 74 -18 9 -7 24 -17 35 -21 11 -4 39 -21 61

-38 34 -24 43 -38 47 -70 3 -23 1 -42 -5 -46 -15 -10 -56 -4 -103 15 -22 8

-54 15 -70 16 -17 0 -41 8 -54 17 -22 15 -101 39 -158 48 -11 2 -42 15 -68 30

-25 15 -63 29 -83 31 -43 3 -103 24 -125 43 -10 8 -27 10 -45 6 -24 -5 -32 -1

-47 21 -15 24 -19 25 -27 11 -12 -22 -44 -22 -52 -1 -5 12 -14 15 -36 11 -16

-4 -32 -2 -35 4 -4 5 -16 7 -28 4 -15 -4 -18 -3 -9 3 10 7 9 16 -3 46 -14 32

-14 39 -1 51 19 19 53 19 63 0 7 -12 14 -10 39 13 16 15 36 36 44 48 16 21 59

54 72 54 4 0 10 -5 14 -11z m-712 -70 c8 -12 19 -18 24 -15 15 9 23 -35 9 -48

-31 -30 -64 -46 -97 -46 -19 0 -60 -9 -90 -21 -138 -53 -222 -81 -227 -76 -10

11 9 69 25 74 10 3 37 15 62 26 25 12 68 26 95 32 39 8 50 15 50 30 0 17 6 19

47 16 43 -2 49 0 58 23 12 32 24 33 44 5z m51 -199 c4 -6 -2 -25 -13 -43 -11

-17 -23 -42 -27 -54 -5 -20 -3 -23 19 -23 30 0 32 -13 12 -61 -7 -19 -17 -61

-21 -94 -12 -112 -23 -126 -60 -85 -10 11 -22 20 -28 20 -5 0 -27 14 -49 31

l-39 31 7 -28 c4 -16 13 -36 20 -45 17 -20 18 -39 2 -39 -19 1 -93 116 -114

177 -10 29 -21 50 -24 48 -15 -10 -38 32 -42 75 l-3 45 81 0 c63 0 84 4 98 18

13 12 34 17 76 17 32 0 62 5 65 10 8 13 32 13 40 0z m-3795 -29 c7 -13 7 -22

0 -26 -5 -3 -10 -24 -10 -45 0 -33 -4 -41 -32 -54 -33 -17 -57 -20 -82 -10

-26 10 0 45 31 42 15 -2 28 3 31 10 3 10 -4 12 -32 7 -39 -8 -44 0 -26 36 6

10 19 19 29 19 10 0 26 9 36 20 23 25 41 25 55 1z m-186 -38 c4 -3 6 -21 3

-39 -3 -19 -1 -37 5 -40 6 -4 5 -10 -3 -15 -21 -13 -39 -11 -39 4 0 23 -46 42

-73 30 -19 -9 -28 -6 -56 17 -34 29 -29 46 12 37 12 -3 33 1 47 9 23 13 80 11

104 -3z m4941 -145 c-5 -25 -3 -44 5 -53 8 -10 9 -15 2 -15 -6 0 -12 -12 -14

-27 -2 -22 -8 -28 -28 -28 -22 0 -25 5 -28 45 -2 24 2 63 8 86 10 36 15 40 37

36 22 -4 24 -8 18 -44z m105 -3 c0 -15 6 -25 14 -25 24 0 39 -66 33 -149 -3

-60 0 -86 15 -126 30 -76 42 -80 34 -12 -4 33 -2 57 3 57 5 0 15 16 21 35 16

49 30 43 29 -12 0 -27 2 -57 4 -68 3 -11 6 -33 6 -49 1 -24 3 -27 16 -16 8 7

15 21 15 31 0 10 9 23 20 29 17 9 20 21 20 70 0 63 11 80 37 58 13 -10 17 -10

20 0 6 15 33 16 33 0 0 -19 89 -194 105 -208 8 -7 15 -24 15 -38 0 -14 7 -33

16 -43 9 -10 18 -36 21 -58 5 -39 4 -41 -21 -41 -29 0 -37 -19 -8 -21 25 -1

-36 -19 -86 -25 -32 -3 -44 0 -48 11 -8 19 -33 20 -40 2 -3 -8 -19 -24 -36

-37 -23 -17 -32 -19 -38 -10 -6 10 -42 13 -134 12 -88 -1 -126 3 -126 11 0 8

-3 8 -11 0 -12 -12 -90 -7 -131 9 -27 10 -39 38 -16 38 6 0 4 8 -6 19 -21 23

-15 54 19 91 26 30 55 129 55 191 0 36 6 51 25 69 14 13 25 27 25 32 0 5 11

25 23 46 13 20 27 51 31 67 17 76 46 113 46 60z m-377 -100 c6 -59 5 -100 -2

-117 -9 -25 -13 -27 -34 -17 -17 7 -31 8 -43 1 -24 -12 -61 1 -68 25 -5 17

-10 128 -7 166 1 14 10 17 50 17 28 0 53 5 56 11 4 5 14 9 23 7 14 -3 19 -22

25 -93z m2047 -115 c28 -4 34 -9 32 -25 -5 -27 -22 -36 -45 -23 -30 16 -50 -9

-34 -42 7 -14 21 -24 30 -24 13 1 19 -9 23 -37 8 -48 18 -49 34 -6 l12 32 13

-30 c13 -29 13 -30 -20 -45 -53 -23 -74 -103 -35 -128 11 -7 20 -17 20 -22 0

-6 -9 -10 -20 -10 -15 0 -20 -7 -20 -25 0 -38 -35 -33 -55 8 -12 27 -13 40 -5

63 9 22 13 25 20 14 6 -8 10 -25 10 -37 0 -13 5 -23 10 -23 6 0 10 18 10 40 0

30 -6 45 -25 62 -30 26 -31 35 -5 43 32 10 25 42 -10 50 -17 4 -35 16 -41 27

-9 16 -7 24 11 40 22 21 23 30 4 102 -5 22 -3 28 15 33 11 3 22 10 22 17 1 6

4 -2 8 -19 5 -25 12 -31 41 -35z m-2906 -154 c72 -48 90 -70 82 -101 l-7 -26

-28 30 c-16 17 -34 31 -40 31 -14 0 -14 -5 4 -40 20 -38 9 -38 -38 1 -36 29

-43 54 -12 42 20 -7 20 21 0 37 -8 7 -13 16 -10 20 3 5 1 11 -5 15 -11 7 -14

25 -4 25 4 0 30 -15 58 -34z m200 -93 c-8 -19 -9 -82 -1 -90 3 -2 28 6 56 18

59 25 127 22 148 -7 10 -13 22 -16 58 -11 35 5 45 4 45 -8 0 -7 -4 -16 -9 -19

-4 -3 -11 -24 -15 -46 -4 -24 -12 -40 -20 -40 -8 0 -16 -7 -20 -15 -3 -8 -15

-15 -27 -15 -16 0 -20 4 -14 18 4 9 9 32 12 51 5 30 4 33 -11 28 -10 -4 -26

-7 -37 -7 -14 0 -19 -7 -19 -25 0 -33 -38 -34 -77 -2 -15 13 -43 32 -62 43

-32 18 -52 33 -93 70 -9 9 -15 22 -12 30 2 8 6 21 9 29 3 11 18 15 51 15 40 0

45 -2 38 -17z m2645 -329 c12 -32 11 -38 -2 -46 -9 -4 -18 -22 -22 -38 -4 -17

-11 -30 -16 -30 -6 0 -19 -9 -31 -20 -30 -28 -88 -28 -88 0 0 12 -10 24 -24

30 -26 9 -44 30 -27 30 6 0 11 7 11 15 0 19 56 21 64 3 5 -10 7 -10 12 0 3 7

24 12 50 12 l44 0 0 40 c0 50 12 51 29 4z m-1335 -266 c15 25 29 12 23 -23 -8

-46 9 -45 29 3 l15 37 25 -28 24 -28 -27 -28 c-22 -22 -32 -26 -46 -19 -9 5

-22 6 -28 3 -19 -12 -54 21 -57 54 -3 42 6 57 22 35 9 -12 15 -14 20 -6z

m2412 -185 c-3 -10 -2 -23 2 -29 9 -14 92 -27 92 -15 0 5 -12 12 -27 14 -23 3

-22 4 9 6 20 0 43 3 50 6 9 4 19 -7 28 -32 7 -21 15 -32 17 -25 6 17 23 15 23

-3 0 -8 -5 -15 -11 -15 -7 0 -9 -15 -7 -42 6 -51 -15 -100 -37 -92 -18 7 -20

-17 -3 -34 9 -9 -3 -42 -55 -145 -37 -73 -67 -145 -67 -159 0 -16 -9 -33 -21

-42 -21 -15 -27 -45 -15 -81 6 -17 3 -21 -16 -21 -13 0 -26 4 -29 9 -3 5 -9 2

-12 -6 -4 -10 3 -17 21 -22 24 -6 25 -8 9 -16 -11 -7 -14 -15 -10 -24 13 -23

3 -125 -12 -125 -8 0 -17 5 -21 12 -5 8 -2 9 9 5 13 -5 17 -1 17 18 0 18 -4

23 -15 19 -24 -10 -18 24 7 37 14 8 18 14 10 17 -6 2 -12 10 -12 18 0 8 -6 14

-13 14 -22 0 -40 102 -33 189 4 42 3 102 -2 133 -5 32 -5 64 0 72 8 14 12 40

22 154 2 13 17 36 35 52 31 29 34 57 5 46 -10 -4 -14 4 -14 29 0 24 5 35 15

35 18 0 20 16 3 24 -7 3 -3 3 8 1 16 -4 23 0 27 15 3 11 10 20 17 20 6 0 9 -8

6 -17z m-400 -843 c8 0 23 6 35 13 17 10 22 9 35 -8 13 -18 12 -21 -17 -36

-28 -14 -29 -17 -13 -23 11 -4 20 -3 22 3 2 6 12 11 22 11 12 0 19 -10 23 -32

8 -56 16 -80 30 -97 7 -9 14 -27 15 -41 1 -14 6 -26 12 -28 5 -2 10 -11 10

-19 0 -10 -6 -13 -16 -9 -12 5 -14 1 -9 -15 5 -13 2 -25 -6 -30 -10 -6 -10

-13 -2 -31 6 -14 9 -36 6 -51 -4 -20 -1 -27 11 -27 9 0 16 -6 17 -12 0 -7 3

-36 5 -64 2 -37 -1 -55 -11 -64 -10 -9 -13 -24 -8 -56 5 -38 2 -49 -17 -69

-12 -13 -20 -30 -17 -37 2 -8 -1 -22 -8 -31 -7 -9 -10 -27 -8 -40 3 -14 -2

-29 -11 -36 -9 -8 -16 -29 -16 -51 0 -34 -7 -44 -70 -100 -38 -34 -70 -68 -70

-76 0 -10 -12 -14 -40 -14 -35 0 -40 3 -40 23 1 21 1 22 15 3 14 -19 15 -18

15 11 0 18 -4 35 -10 38 -13 8 -13 52 0 60 8 5 7 11 -1 21 -12 15 -7 17 27 15

39 -3 47 21 45 147 0 64 -1 136 -1 159 0 23 -7 63 -15 90 -18 58 -19 103 -4

103 8 0 10 19 6 60 -4 47 -2 60 9 60 8 0 14 10 14 25 0 15 -5 24 -12 23 -7 -2

-13 4 -13 12 0 8 5 14 11 13 7 -1 12 15 12 40 2 67 9 181 12 192 1 6 4 2 7 -7

2 -10 11 -18 19 -18z m-326 -4105 c0 -9 12 -21 28 -28 15 -6 29 -14 32 -18 3

-3 13 -8 23 -12 13 -5 17 -1 17 14 0 21 7 18 50 -25 25 -25 25 -36 0 -36 -11

0 -20 5 -20 12 0 7 -5 5 -12 -4 -16 -20 -58 -7 -58 17 0 8 -7 15 -16 15 -14 0

-14 -2 0 -22 9 -12 16 -32 16 -44 0 -12 7 -24 15 -28 8 -3 15 -11 15 -18 0

-14 67 -64 75 -57 2 3 8 16 14 29 9 23 10 22 10 -13 1 -37 0 -38 -28 -32 -23

5 -29 2 -34 -14 -6 -26 -45 -28 -87 -6 -32 16 -38 30 -17 38 9 3 7 13 -7 41

-22 41 -31 45 -39 16 -6 -23 -27 -27 -27 -5 0 24 -27 29 -55 11 -18 -12 -30

-13 -50 -6 -15 6 -33 10 -41 10 -17 0 -19 -40 -1 -41 10 0 10 -2 0 -6 -18 -7

-16 -23 2 -23 8 0 15 -7 15 -15 0 -8 -6 -15 -14 -15 -7 0 -19 7 -26 15 -7 8

-16 15 -21 15 -14 0 -10 -26 6 -40 8 -7 15 -16 15 -21 0 -15 -32 -10 -52 8

-22 20 -23 42 -3 49 17 7 21 59 5 69 -5 3 -7 12 -4 20 4 8 10 12 15 9 14 -8

49 6 49 19 0 7 -10 21 -22 32 -22 18 -22 20 -4 23 10 2 22 -2 27 -9 6 -11 9

-10 15 4 4 12 13 16 26 11 11 -3 24 -1 28 5 4 8 14 9 31 3 17 -7 32 -5 52 4

24 13 27 13 27 -1 0 -8 -5 -15 -12 -15 -9 0 -9 -3 -1 -11 7 -7 18 -9 26 -6 12

5 13 14 6 44 -11 49 -11 53 1 53 6 0 10 -7 10 -15z m-3848 -104 c25 -29 45

-40 69 -43 45 -4 51 -32 10 -52 -38 -20 -95 -21 -111 -1 -16 19 -6 45 16 45

15 0 14 4 -6 25 -13 14 -32 25 -42 25 -18 0 -25 20 -11 33 15 16 42 4 75 -32z

m548 -4 c0 -13 9 -32 20 -42 11 -10 22 -27 26 -39 3 -11 13 -29 21 -38 29 -33

-9 -77 -59 -69 -27 4 -22 -28 7 -41 14 -6 25 -17 25 -25 0 -7 7 -13 15 -13 19

0 45 -51 45 -90 0 -16 5 -30 10 -30 6 0 10 -8 10 -17 0 -9 7 -24 15 -33 9 -10

19 -35 22 -56 11 -70 96 -152 133 -129 8 5 2 17 -18 35 -17 15 -40 46 -51 69

-19 36 -20 42 -6 47 11 5 13 10 5 19 -9 11 -7 12 9 8 12 -3 21 -12 21 -19 0

-8 7 -14 15 -14 9 0 27 -11 41 -25 14 -14 30 -25 37 -25 7 0 19 -19 27 -42 9

-25 21 -43 30 -43 8 0 18 -7 21 -15 7 -16 -31 -40 -63 -40 -16 0 -18 -3 -9

-13 13 -17 5 -27 -23 -27 -12 0 -33 -11 -47 -24 -22 -20 -29 -22 -48 -11 -36

19 -68 7 -81 -29 -9 -25 -13 -28 -20 -16 -5 8 -10 23 -10 33 0 10 -4 15 -10

12 -15 -9 -12 -75 3 -76 6 -1 1 -5 -13 -9 -37 -12 -140 -12 -140 0 0 6 7 10

15 10 27 0 16 19 -12 22 -22 2 -28 8 -29 28 0 35 -13 53 -27 41 -8 -6 -24 2

-50 26 -38 34 -44 63 -12 63 11 0 15 11 15 40 0 33 -3 40 -20 40 -15 0 -20 -7

-20 -26 0 -25 -1 -26 -22 -12 -19 13 -22 23 -19 66 2 40 -1 53 -13 58 -11 4

-16 19 -16 44 0 22 -5 40 -12 43 -7 2 -10 8 -6 12 4 4 14 2 23 -5 19 -15 65

-5 65 15 0 9 -10 15 -25 15 -27 0 -32 9 -13 28 10 10 10 15 -1 21 -11 7 -8 13

12 26 25 16 25 18 10 41 -14 22 -11 28 10 25 4 0 7 9 7 22 0 20 4 22 40 19 30

-3 41 0 46 12 4 11 13 14 25 11 26 -9 36 21 15 44 -19 21 -21 42 -4 59 9 9 7

13 -5 18 -9 3 -17 12 -17 20 0 17 26 19 36 3 5 -8 10 -6 16 5 13 23 28 20 28

-7z m3046 -372 c4 -8 12 -15 19 -15 14 0 24 -28 18 -47 -3 -7 -15 -13 -29 -13

-14 0 -30 -10 -40 -26 l-17 -25 -20 30 c-10 17 -23 31 -28 31 -5 0 -9 12 -9

26 0 22 2 24 15 14 16 -13 35 -6 35 15 0 12 14 20 43 24 4 0 10 -6 13 -14z

m-2566 -359 c0 -8 7 -16 15 -20 8 -3 15 -15 15 -26 0 -23 -4 -24 -30 -10 -15

8 -22 4 -38 -23 -17 -30 -23 -33 -57 -29 -35 4 -36 3 -26 -16 8 -15 7 -23 -5

-33 -13 -10 -16 -9 -20 8 -7 24 -41 21 -61 -5 -12 -14 -14 -14 -27 3 -16 22

-12 37 8 29 8 -3 20 3 28 14 7 11 29 27 48 35 19 8 52 31 73 51 39 37 77 47

77 22z m1660 -596 c0 -5 11 -12 25 -16 24 -6 35 -24 15 -24 -19 0 -10 -21 15

-32 19 -9 22 -14 14 -25 -9 -10 -8 -13 3 -13 8 0 25 -11 38 -25 22 -23 22 -27

10 -65 -15 -45 -17 -46 -45 -24 -15 11 -20 27 -20 59 0 42 -2 45 -27 45 -25 0

-28 -4 -30 -32 0 -18 0 -41 1 -52 2 -27 -20 -51 -30 -34 -5 7 -9 23 -9 36 0

23 -25 31 -33 10 -2 -7 -7 2 -11 19 -8 33 -2 53 15 53 5 0 9 -6 9 -14 0 -8 7

-17 15 -20 21 -8 31 22 16 45 -9 15 -8 19 3 19 15 0 32 37 22 47 -3 4 -6 -1

-6 -10 0 -9 -7 -17 -15 -17 -18 0 -21 46 -2 53 7 3 5 6 -5 6 -28 1 -21 21 7

21 14 0 25 -4 25 -10z m-300 -342 c0 -7 17 -22 38 -33 30 -16 37 -26 37 -50 0

-36 33 -49 42 -17 6 24 22 20 71 -16 40 -30 40 -38 2 -45 -20 -5 -30 -12 -30

-25 0 -27 9 -32 37 -19 22 10 28 8 45 -13 12 -15 17 -32 14 -46 -4 -16 0 -27

16 -38 12 -8 24 -13 28 -11 4 2 5 -7 2 -21 -3 -15 1 -29 7 -34 7 -4 14 -27 17

-51 2 -24 1 -38 -2 -31 -3 6 -19 12 -36 12 -25 0 -29 -3 -22 -17 4 -10 8 -38

8 -63 1 -42 -1 -45 -26 -45 -14 0 -30 -3 -34 -7 -4 -5 -20 -8 -36 -8 -15 0

-28 -4 -28 -10 0 -5 9 -10 20 -10 11 0 19 -6 18 -12 -2 -7 7 -14 20 -16 27 -4

30 -22 3 -22 -27 0 -37 -21 -18 -35 28 -20 19 -35 -20 -36 -36 0 -36 -1 -13

-10 14 -6 35 -8 48 -6 41 8 23 -18 -22 -32 l-44 -13 3 -48 c3 -51 -15 -90 -40

-90 -9 0 -12 -6 -9 -15 4 -8 1 -22 -5 -29 -7 -8 -14 -38 -16 -67 -5 -63 -14

-74 -62 -71 -21 2 -40 -2 -44 -10 -7 -10 -9 -8 -9 5 0 9 -3 17 -7 17 -15 0

-79 -26 -85 -35 -4 -5 -9 -7 -12 -5 -8 9 -10 75 -2 88 10 16 -28 16 -42 -1 -6

-6 -12 -28 -14 -47 -2 -19 -7 -34 -13 -33 -20 4 -16 44 10 95 16 32 22 54 16

56 -6 2 -1 12 11 23 l23 18 -32 1 c-40 0 -49 13 -29 42 20 28 20 48 2 48 -20

0 -24 18 -18 78 l5 52 35 0 c33 0 34 1 17 14 -18 13 -18 14 2 25 12 6 23 21

25 33 4 29 24 34 31 8 7 -26 27 -26 34 0 3 11 12 20 21 20 30 0 -2 18 -38 22

l-35 4 29 14 c23 11 30 12 34 2 6 -19 34 -14 30 5 -2 10 -12 18 -25 18 -30 0

-29 18 2 27 15 4 25 2 25 -4 0 -6 9 1 21 16 23 29 18 46 -12 46 -17 0 -20 6

-17 33 3 31 5 32 48 32 39 0 45 -3 48 -22 3 -18 10 -23 33 -23 17 0 28 4 24

10 -3 5 -3 26 1 45 4 25 11 35 20 31 8 -3 14 1 14 9 0 24 -33 17 -55 -12 -22

-27 -52 -25 -41 3 3 8 1 14 -4 14 -6 0 -10 -4 -10 -10 0 -5 -16 -10 -35 -10

-33 0 -34 1 -23 25 9 19 9 28 0 37 -9 9 -12 9 -12 -2 0 -7 -7 -22 -17 -32 -19

-21 -92 -25 -111 -6 -8 8 -12 9 -12 1 0 -6 5 -13 11 -15 5 -2 7 -11 3 -21 -7

-19 -31 -17 -26 2 1 6 -7 21 -18 33 -24 26 -27 53 -5 44 10 -4 15 1 15 15 0

13 11 25 35 35 27 11 35 20 35 39 0 15 6 25 14 25 16 0 38 73 40 132 1 25 4

33 12 27 7 -5 18 -2 30 11 22 22 34 25 34 8z m-240 -1144 c0 -21 -20 -57 -36

-67 -8 -4 -14 -17 -14 -27 0 -28 -25 -25 -38 5 -14 29 -29 32 -48 8 -13 -17

-15 -17 -34 6 -11 13 -20 34 -20 47 0 24 15 40 24 26 3 -5 19 -9 35 -10 16 0

40 -6 52 -13 19 -10 25 -9 36 7 7 10 13 21 13 26 0 4 7 8 15 8 8 0 15 -7 15

-16z m78 -141 c-1 -10 5 -29 15 -43 14 -20 17 -21 17 -6 0 11 6 16 18 14 11

-2 17 -13 17 -33 0 -23 -5 -31 -25 -36 -21 -5 -22 -7 -7 -14 12 -5 17 -19 17

-49 0 -61 -12 -74 -45 -52 -21 14 -24 20 -14 32 9 11 8 14 -4 14 -24 0 -19

-58 6 -75 11 -8 24 -12 29 -9 4 3 8 2 8 -3 0 -15 -78 -46 -97 -39 -10 4 -13

10 -8 14 6 4 11 28 13 55 l4 47 -27 -10 c-37 -14 -55 -12 -55 5 0 8 6 15 14

15 8 0 17 14 21 31 16 73 115 208 103 142z m2132 -234 c0 -32 3 -39 20 -39 10

0 24 -9 30 -20 9 -16 8 -20 -6 -20 -10 0 -25 -7 -35 -16 -11 -10 -25 -14 -36

-10 -17 7 -17 8 0 17 21 12 22 29 2 29 -8 0 -15 -6 -15 -13 0 -8 -8 -21 -18

-30 -17 -16 -19 -15 -31 19 -15 41 -11 48 27 49 17 0 28 6 30 18 2 10 -3 17

-13 17 -16 0 -64 -27 -78 -45 -5 -6 -6 -2 -3 8 3 10 6 25 6 33 0 8 10 14 23

15 12 0 36 9 52 18 38 23 45 19 45 -30z m-7965 -519 c6 -4 37 -11 70 -15 52

-5 67 -12 103 -45 23 -22 42 -42 42 -45 0 -4 14 -18 31 -32 41 -35 23 -45 -65

-37 -52 5 -70 3 -77 -7 -7 -11 -11 -8 -15 9 -6 20 -12 23 -35 18 -22 -4 -32

-1 -41 14 -9 13 -24 20 -45 20 -21 0 -33 5 -33 13 0 25 -36 47 -86 54 -66 9

-226 4 -240 -8 -6 -5 -35 -17 -65 -28 -52 -17 -148 -55 -271 -106 -59 -24 -68

-23 -68 6 0 19 71 85 110 102 14 6 37 19 51 28 14 10 57 23 95 30 38 6 74 15

79 19 6 4 57 11 115 15 58 4 107 8 108 10 7 7 227 -8 237 -15z m-222 -135 l35

-14 7 -111 c4 -61 5 -113 2 -116 -3 -3 -14 -1 -25 5 -30 16 -87 -25 -88 -64 0

-17 -6 -41 -13 -54 -7 -12 -11 -31 -8 -41 2 -9 -3 -23 -13 -30 -15 -11 -16

-16 -4 -39 7 -15 11 -37 7 -49 -4 -18 -13 -22 -43 -22 -44 0 -63 18 -55 53 5

17 2 28 -9 34 -8 4 -17 21 -20 36 -3 16 -9 34 -14 40 -6 7 -15 32 -22 57 -14

50 -24 79 -48 128 -13 26 -18 31 -27 20 -14 -18 -58 -11 -73 12 -11 18 -7 22

41 44 72 34 107 42 117 26 7 -11 16 -8 42 11 18 14 40 29 48 32 8 4 33 18 55

31 48 29 62 30 108 11z m-610 -275 c19 0 53 -42 66 -82 7 -20 19 -42 27 -49

10 -8 14 -27 12 -61 -2 -26 -6 -48 -9 -48 -4 0 -33 14 -64 30 -31 17 -65 30

-75 30 -10 0 -20 4 -22 10 -1 5 -50 10 -108 11 l-106 1 -106 -52 c-90 -43

-116 -61 -167 -117 -34 -37 -61 -71 -61 -77 -1 -13 -57 -76 -68 -76 -13 0 -31

61 -38 126 -5 46 -3 68 10 92 24 47 111 130 143 137 15 4 39 11 53 16 14 5 36

9 50 9 73 -1 160 22 244 65 49 25 98 45 108 45 10 0 18 4 18 9 0 17 45 16 63

-1 9 -10 23 -18 30 -18z m272 -352 c17 -35 31 -148 19 -148 -40 1 -54 15 -69

69 -9 31 -21 66 -27 79 -9 18 -8 25 8 41 17 17 21 17 37 3 9 -8 24 -28 32 -44z"/>

<path d="M7570 4470 c0 -22 5 -40 10 -40 6 0 10 5 10 10 0 6 5 10 11 10 6 0 8

-9 4 -20 -4 -11 1 -32 11 -50 l18 -29 17 26 c10 15 17 44 17 68 -1 36 -5 45

-25 54 -13 6 -35 11 -48 11 -22 0 -25 -4 -25 -40z"/>

<path d="M5305 13658 c-34 -109 -46 -165 -43 -189 3 -16 1 -32 -4 -35 -11 -7

-10 -52 2 -59 6 -3 10 1 10 9 0 22 50 168 62 183 6 8 7 24 3 40 -5 16 -7 36

-6 46 3 19 -18 24 -24 5z"/>

<path d="M5550 13455 c-5 -14 -21 -30 -34 -36 -18 -9 -27 -23 -32 -53 -4 -24

-19 -55 -36 -75 -21 -24 -28 -40 -24 -56 3 -12 -1 -37 -10 -54 -9 -18 -13 -39

-10 -47 11 -29 30 -8 42 45 6 28 20 62 31 74 19 22 63 107 63 123 0 4 12 17

26 29 21 16 24 26 19 48 -9 34 -23 35 -35 2z"/>

<path d="M5423 13077 c3 -19 -1 -70 -9 -113 -15 -89 -18 -134 -6 -134 4 0 13

-4 21 -9 12 -8 13 -12 1 -25 -18 -23 -9 -28 27 -15 28 9 32 16 39 67 12 86 11

95 -13 122 -17 20 -43 101 -43 136 0 2 -5 4 -11 4 -8 0 -10 -12 -6 -33z"/>

<path d="M10170 9760 c0 -17 -7 -20 -45 -20 -25 0 -45 5 -45 10 0 6 -4 10 -10

10 -5 0 -10 -20 -10 -45 0 -25 4 -45 9 -45 6 0 11 -19 13 -42 l3 -43 61 -3

c52 -2 63 -6 67 -22 7 -27 36 -25 46 3 8 19 10 20 16 5 8 -21 26 -23 43 -6 9

9 5 18 -18 40 -17 15 -37 25 -44 22 -9 -3 -17 3 -21 16 -4 12 -21 35 -39 50

-25 23 -29 31 -18 41 14 15 16 49 2 49 -5 0 -10 -9 -10 -20z"/>

<path d="M4408 7822 c-16 -10 -28 -23 -28 -29 0 -7 -7 -13 -15 -13 -8 0 -22

-12 -32 -26 -16 -24 -16 -27 0 -36 14 -7 17 -25 17 -99 0 -86 -1 -90 -25 -99

-14 -5 -25 -15 -25 -22 0 -19 -65 -73 -119 -99 -28 -13 -51 -28 -51 -34 0 -6

-9 -17 -20 -25 -11 -8 -20 -18 -20 -23 0 -4 -14 -20 -31 -34 -17 -15 -35 -37

-40 -50 -7 -18 -16 -23 -45 -23 -28 0 -35 -3 -31 -15 4 -9 -6 -23 -24 -36 -17

-12 -41 -32 -54 -45 -13 -13 -35 -24 -49 -24 -15 0 -30 -8 -35 -19 -9 -16 -6

-19 21 -25 l32 -6 -21 -22 -22 -21 -21 24 c-18 21 -20 22 -18 4 2 -12 -4 -21

-14 -23 -10 -2 -18 2 -18 10 0 7 -9 19 -20 26 -31 19 -26 52 8 52 19 0 23 3

13 9 -16 10 -61 -6 -74 -26 -12 -19 -103 -63 -130 -63 -14 0 -36 -9 -50 -20

-14 -11 -34 -20 -45 -20 -11 0 -23 -8 -27 -17 -6 -16 -8 -16 -18 -2 -8 10 -35

18 -79 22 -56 5 -69 3 -76 -10 -6 -10 -12 -12 -16 -5 -4 7 -16 5 -36 -5 -17

-8 -37 -12 -45 -10 -7 3 -19 0 -25 -8 -6 -8 -17 -12 -23 -10 -18 7 -76 -17

-125 -49 -27 -19 -64 -32 -97 -37 -68 -9 -106 -39 -87 -69 10 -17 10 -20 -3

-20 -8 0 -15 5 -15 10 0 15 -26 12 -40 -5 -10 -12 -9 -16 4 -21 21 -8 20 -23

-1 -31 -18 -7 -49 -43 -46 -53 1 -4 -22 -32 -52 -63 -50 -54 -67 -79 -69 -102

-2 -21 -36 -73 -51 -79 -9 -3 -14 -10 -11 -14 7 -12 -10 -76 -34 -128 -11 -23

-22 -55 -26 -70 -4 -16 -20 -42 -37 -57 -27 -26 -29 -33 -25 -78 3 -32 0 -55

-8 -67 -18 -23 -17 -32 1 -32 17 0 18 -7 6 -67 -7 -34 -5 -43 5 -43 17 0 54

36 54 51 0 8 4 8 13 1 7 -6 13 -23 12 -38 0 -22 -7 -29 -39 -41 -22 -7 -48

-11 -57 -8 -10 4 -28 1 -39 -5 -15 -8 -25 -8 -34 -1 -11 9 -15 4 -20 -20 -9

-47 -8 -55 6 -41 17 17 26 15 33 -8 4 -11 11 -18 16 -14 5 3 7 14 4 24 -7 23

21 40 66 40 l32 0 -7 -47 c-4 -27 -10 -76 -13 -111 -3 -34 -10 -65 -14 -68 -5

-3 -9 -21 -9 -40 0 -25 4 -34 18 -35 23 -2 27 -3 95 -18 50 -11 61 -18 83 -52

23 -37 64 -64 87 -56 5 1 -7 22 -27 46 -20 24 -41 52 -46 62 -6 10 -19 20 -29

24 -11 3 -23 15 -26 26 -8 25 -22 24 -30 -1 -5 -15 -14 -20 -36 -18 -39 3 -44

11 -27 48 15 34 23 37 36 13 16 -28 46 -8 39 26 -8 39 0 65 26 78 91 47 89 46

115 13 18 -23 31 -30 55 -29 22 1 25 3 11 6 -15 3 -24 14 -28 34 -3 16 -7 32

-8 36 -7 15 38 10 60 -8 14 -10 20 -19 13 -19 -6 0 -11 -5 -11 -10 0 -7 13 -8

34 -5 20 4 36 2 40 -4 4 -7 -1 -11 -13 -11 -24 0 -38 -19 -22 -30 18 -11 -14

-34 -39 -27 -17 4 -18 2 -9 -14 14 -26 34 -24 58 8 20 25 23 26 63 13 30 -9

43 -9 46 -1 6 19 32 12 32 -8 0 -13 -8 -21 -22 -23 -16 -2 -22 -9 -21 -22 1

-11 -14 -40 -33 -64 -36 -48 -39 -65 -11 -70 12 -3 17 4 17 22 0 14 4 26 10

26 5 0 13 15 18 33 6 25 14 33 35 35 24 3 27 7 28 45 0 23 3 36 6 30 3 -10 8

-10 18 1 12 11 11 22 -6 69 -24 67 -15 101 25 91 30 -7 47 16 22 30 -55 33

-58 39 -41 74 9 17 21 32 26 32 5 0 9 7 9 16 0 11 5 14 16 10 11 -4 18 1 21

14 3 11 13 20 23 20 22 0 70 -24 80 -40 4 -7 23 -12 41 -13 l34 -2 0 68 c0 37

4 67 9 67 5 0 2 8 -7 18 -21 23 -22 72 -3 98 20 26 43 6 27 -24 -6 -11 -11

-23 -11 -26 0 -13 28 -5 44 13 22 24 63 32 77 15 7 -9 9 -33 7 -59 -6 -49 7

-69 28 -41 10 14 16 15 34 6 11 -6 30 -10 42 -8 18 3 20 10 21 78 0 41 2 81 5

88 5 14 58 16 67 2 16 -25 26 -7 19 35 -3 25 -4 45 0 45 7 0 40 -71 53 -115 6

-18 21 -36 40 -45 39 -19 90 -73 74 -78 -6 -2 -11 -21 -11 -43 0 -33 5 -41 30

-54 34 -18 40 -18 40 -5 0 6 -7 10 -15 10 -14 0 -21 31 -9 42 3 4 20 0 39 -7

18 -8 35 -12 38 -9 11 11 67 -8 89 -31 12 -12 28 -21 35 -18 8 3 13 -3 13 -16

0 -12 6 -21 13 -21 7 0 23 -13 37 -30 14 -16 30 -30 37 -30 22 0 14 27 -16 57

l-29 29 30 17 c30 17 31 17 54 -8 13 -14 24 -38 24 -52 0 -21 4 -24 20 -19 11

3 29 9 40 12 12 4 20 2 20 -5 0 -6 21 -21 48 -33 26 -11 57 -30 69 -41 27 -24

63 -15 63 17 0 15 6 22 22 23 24 2 58 -27 58 -50 0 -8 9 -17 20 -20 15 -4 20

-14 20 -41 0 -36 27 -106 42 -106 4 0 8 9 8 20 0 11 5 20 11 20 7 0 9 -14 5

-37 -9 -61 -9 -97 -1 -115 4 -10 4 -26 0 -35 -5 -12 -9 -14 -12 -5 -3 7 -22

12 -45 12 -38 0 -40 -2 -36 -25 3 -14 1 -28 -4 -31 -18 -11 -85 8 -113 32 -16

13 -40 27 -54 31 -14 3 -37 13 -51 23 -52 35 -148 69 -225 80 -58 9 -114 27

-202 67 -67 30 -127 52 -133 48 -6 -4 -17 -2 -24 4 -7 6 -40 13 -72 15 -39 3

-62 10 -70 21 -7 9 -21 15 -31 14 -27 -4 -102 11 -109 22 -3 5 -20 9 -38 9

-25 0 -36 6 -47 28 -8 15 -20 31 -26 35 -7 4 -13 19 -13 32 0 21 -3 22 -27 16

-16 -4 -29 -15 -31 -25 -5 -24 17 -48 39 -41 13 5 19 1 19 -10 0 -9 -6 -15

-12 -13 -7 1 -22 -1 -33 -5 -19 -6 -20 -13 -15 -64 7 -65 21 -98 51 -114 16

-8 25 -7 39 6 22 20 43 11 35 -15 -4 -14 2 -21 29 -30 38 -12 56 -7 56 16 0 8

5 14 10 14 6 0 10 7 10 15 0 8 16 21 35 29 19 8 35 19 35 24 0 21 32 21 60 1

15 -12 33 -18 39 -15 14 9 64 -30 68 -52 2 -16 -70 -92 -88 -92 -5 0 -9 -4 -9

-10 0 -5 4 -10 9 -10 5 0 16 -12 26 -26 16 -25 16 -27 -4 -48 l-21 -22 28 -27

c28 -27 52 -35 52 -18 0 11 65 46 105 55 17 4 57 20 90 36 77 37 133 46 160

26 25 -19 13 -44 -34 -68 -18 -9 -51 -34 -73 -57 -38 -37 -40 -43 -30 -66 7

-15 9 -37 6 -49 -3 -14 0 -27 7 -31 18 -12 127 -6 148 7 27 16 49 4 59 -33 4

-18 17 -37 27 -43 30 -16 36 -30 21 -41 -8 -6 -17 -27 -21 -45 -10 -57 22 -84

123 -103 61 -11 90 -13 107 -5 17 7 37 6 78 -6 44 -13 57 -21 67 -46 7 -16 9

-41 6 -55 -5 -18 -2 -25 8 -25 18 0 31 -35 27 -74 -2 -20 1 -27 11 -24 21 7

48 70 48 114 0 40 27 161 50 218 6 16 9 35 6 42 -3 8 1 35 9 61 7 26 16 73 20

103 3 30 10 64 15 75 5 11 11 41 15 67 3 27 12 49 20 52 8 3 15 14 15 25 0 11

7 46 16 78 9 32 19 69 22 83 3 14 16 44 29 67 12 23 29 69 37 103 13 55 13 60

-1 58 -12 -2 -20 11 -29 46 -14 54 -24 147 -15 141 3 -1 7 58 8 133 2 160 21

303 57 421 14 47 26 94 26 104 0 11 6 28 13 36 8 9 19 39 26 66 11 45 28 88

67 168 8 16 14 34 14 40 0 15 62 147 69 147 3 0 6 15 7 33 0 17 13 57 27 88

27 55 33 79 21 79 -12 0 -69 -65 -81 -93 -7 -14 -24 -33 -38 -43 -14 -9 -25

-22 -25 -29 0 -7 -7 -15 -15 -19 -8 -3 -12 -12 -9 -19 3 -8 -2 -17 -10 -20 -9

-4 -16 -15 -16 -26 0 -11 -4 -22 -9 -25 -5 -3 -7 -15 -4 -26 4 -14 0 -20 -11

-20 -9 0 -16 7 -16 16 0 10 -6 14 -15 10 -22 -8 -18 12 5 26 25 16 25 29 1 49

-11 11 -24 13 -33 8 -8 -5 -35 -5 -59 -1 -37 7 -44 11 -41 29 4 31 -41 75 -80

77 -32 2 -33 3 -43 61 -10 55 -14 62 -48 80 -41 22 -49 52 -20 81 23 22 26 49

8 64 -12 10 -17 8 -24 -11 -9 -22 -10 -22 -11 -4 -1 11 -1 32 0 48 2 29 -8 35

-28 15 -9 -9 -17 -6 -37 12 -14 13 -25 31 -25 41 0 10 -5 21 -11 25 -8 4 -10

27 -6 64 7 86 -10 105 -65 72z"/>

<path d="M9704 6344 c-10 -14 -18 -45 -18 -68 -1 -38 3 -47 34 -72 41 -34 69

-63 91 -95 20 -28 39 -18 39 23 0 21 -6 31 -19 35 -20 5 -36 46 -26 63 4 6

-11 10 -34 10 l-40 0 6 65 c6 71 -4 84 -33 39z"/>

<path d="M11064 548 c-4 -6 -9 -23 -10 -37 -6 -46 -22 -107 -23 -86 -1 15 -3

17 -10 6 -10 -15 -3 -51 10 -51 14 0 10 -27 -5 -33 -9 -4 -13 -25 -14 -68 -1

-34 -5 -65 -10 -68 -5 -3 -12 -23 -15 -45 -5 -32 -2 -42 16 -57 20 -18 21 -20

5 -29 -12 -7 -18 -23 -18 -44 0 -32 2 -34 35 -34 29 0 35 4 35 22 0 12 -4 26

-9 32 -6 5 -6 28 0 58 5 26 6 52 3 58 -3 5 0 15 6 23 9 11 9 15 1 15 -12 0

-15 29 -5 54 3 9 12 16 20 16 8 0 14 9 14 19 0 11 5 21 10 23 7 2 7 14 0 37

-6 21 -6 40 0 52 11 20 3 49 -19 66 -14 10 -14 13 2 31 10 11 15 26 11 36 -7

19 -20 21 -30 4z"/>

</g>

</svg>

