<?xml version="1.0" standalone="no"?>

<!DOCTYPE svg PUBLIC "-//W3C//DTD SVG 20010904//EN"

 "http://www.w3.org/TR/2001/REC-SVG-20010904/DTD/svg10.dtd">

<svg version="1.0" xmlns="http://www.w3.org/2000/svg"

 width="113.385827" height="113.385744" viewBox="0 0 113.385827 113.385744"

 preserveAspectRatio="xMidYMid meet">

<metadata>

Created by potrace 1.15, written by Peter Selinger 2001-2017

</metadata>

<g transform="translate(0.000000,113.385744) scale(0.022146,-0.022146)"

fill="#000000" stroke="none">

<path d="M609 5098 c-6 -84 -4 -118 5 -118 8 0 8 -3 1 -8 -15 -10 -13 -31 5

-42 10 -7 12 -12 4 -17 -13 -10 -13 -10 -18 -146 -2 -59 1 -110 6 -113 4 -3 5

-16 2 -29 -11 -43 -18 -410 -9 -426 4 -5 3 -9 -2 -9 -4 0 -8 -20 -8 -45 0 -25

2 -45 5 -45 3 0 4 -27 3 -60 -1 -38 2 -60 9 -60 7 0 7 -4 1 -12 -15 -19 -23

-58 -12 -58 6 0 6 -7 0 -19 -6 -10 -8 -20 -6 -23 12 -11 40 -1658 36 -2130 -1

-147 2 -178 13 -178 18 0 76 61 115 120 63 94 87 125 104 128 30 6 18 -22 -34

-77 -28 -30 -62 -72 -75 -93 -13 -20 -46 -61 -73 -89 l-49 -52 0 -96 c0 -53

-3 -120 -7 -149 -9 -66 0 -67 75 -2 52 45 57 47 52 24 -2 -14 -29 -46 -63 -76

-58 -50 -59 -52 -59 -102 1 -40 3 -47 11 -33 6 9 14 15 19 12 5 -3 14 4 20 16

19 34 21 16 5 -31 -19 -54 -19 -58 2 -56 12 1 19 -7 21 -24 2 -23 1 -24 -11

-7 -17 21 -37 22 -37 3 0 -8 -3 -21 -6 -29 -3 -8 2 -21 10 -30 18 -18 21 -53

6 -62 -10 -6 -14 6 -11 35 1 12 -2 11 -13 -3 -25 -32 3 -72 30 -44 16 16 23 5

12 -18 -6 -13 -15 -22 -20 -19 -5 3 -6 -6 -2 -19 7 -30 -4 -70 -17 -62 -5 4

-9 1 -9 -5 0 -7 9 -14 21 -17 14 -4 18 -11 14 -22 -20 -47 -23 -70 -11 -80 17

-15 2 -132 -21 -168 -15 -23 -18 -49 -18 -159 0 -97 -4 -135 -14 -148 -12 -14

-11 -19 3 -34 20 -23 21 -42 1 -42 -16 0 -19 -9 -9 -34 5 -14 35 -16 230 -16

l223 0 21 63 c16 52 19 55 15 22 -3 -22 -8 -50 -11 -62 -6 -23 -6 -23 115 -23

66 0 121 4 121 8 0 5 -9 17 -20 27 -22 20 -94 165 -86 173 3 2 10 -7 16 -22 5

-15 14 -25 18 -22 5 3 20 -18 33 -47 36 -79 62 -117 82 -117 12 0 17 8 17 28

0 15 4 33 9 40 12 20 23 -12 15 -44 l-6 -24 160 0 c119 0 162 3 165 13 4 10 6

10 6 0 1 -10 40 -13 160 -13 144 0 160 2 164 18 4 16 5 16 6 0 1 -22 41 -25

41 -3 0 9 -6 12 -15 9 -11 -5 -13 -2 -9 10 7 19 12 20 28 3 7 -7 10 -19 8 -26

-4 -12 -3 -12 10 0 9 8 13 16 9 19 -11 9 -31 49 -31 62 0 10 2 10 9 0 6 -10

11 -9 22 4 8 10 9 15 2 11 -19 -12 -41 3 -36 24 7 24 33 25 33 2 1 -17 1 -17

11 0 6 9 15 15 20 11 5 -3 8 0 7 7 -2 7 3 13 11 14 8 0 16 6 19 13 2 8 -8 12

-30 13 -27 0 -29 2 -13 8 11 5 24 6 28 4 5 -3 15 3 23 13 8 12 13 13 12 5 -2

-8 7 -14 25 -15 15 -1 27 2 27 6 0 4 -7 8 -16 8 -12 0 -15 6 -10 22 3 13 6 29

6 36 0 6 4 12 8 12 5 0 8 -12 7 -28 -2 -15 0 -18 2 -7 3 11 10 26 16 33 6 7 6

12 1 10 -24 -8 -15 15 42 102 13 19 30 54 38 77 8 23 22 52 30 65 16 24 17 29

31 106 5 30 11 39 16 30 6 -8 7 4 5 30 -2 23 0 45 6 48 5 3 8 18 7 32 -2 15 1

38 6 52 4 14 9 39 10 55 1 31 32 71 69 90 10 6 24 19 30 30 6 11 17 24 23 28

7 4 18 18 23 30 l11 22 -18 -21 c-11 -12 -38 -33 -61 -48 -23 -14 -42 -31 -42

-37 0 -5 -4 -7 -10 -4 -5 3 -8 16 -6 28 3 12 5 25 5 29 1 5 6 7 12 5 7 -1 14

12 16 30 6 50 -44 90 -67 53 -5 -8 -10 -10 -10 -4 0 6 6 17 14 24 8 6 12 18 9

26 -3 8 4 24 16 35 11 11 21 17 21 13 0 -3 6 -1 14 5 7 6 44 13 81 15 44 2 70

7 76 17 6 10 9 10 9 2 0 -7 5 -13 10 -13 18 0 11 30 -7 31 -57 4 -88 10 -91

19 -2 6 -9 10 -16 10 -14 0 -56 33 -56 44 0 3 -9 15 -21 27 -15 15 -19 29 -16

55 3 19 1 37 -4 40 -5 3 -9 10 -9 15 0 6 5 7 12 3 7 -4 8 -3 4 4 -11 18 -26

14 -27 -5 0 -10 -6 -3 -12 15 -14 39 -37 57 -50 39 -5 -7 -6 -1 -3 16 5 20 2

27 -8 27 -8 0 -16 -10 -18 -22 -3 -21 -4 -21 -18 -3 -11 14 -12 17 -1 11 9 -6

12 -5 9 5 -3 8 -12 13 -21 11 -11 -2 -15 2 -11 12 3 9 -1 23 -10 31 -12 13

-13 21 -6 36 8 15 7 19 -5 19 -18 0 -19 5 -4 32 9 17 9 20 -4 15 -27 -10 -28

32 -2 49 22 14 46 52 25 39 -11 -7 -26 22 -16 32 3 3 13 0 22 -8 16 -13 16

-12 5 9 -8 15 -8 22 -1 22 6 0 9 4 5 10 -3 5 -12 7 -20 3 -8 -3 -16 0 -16 6

-1 6 -2 17 -3 24 -1 6 1 26 5 44 4 18 3 33 -3 35 -5 2 -11 25 -11 51 -2 35 2

47 12 47 10 0 8 7 -8 21 -15 14 -20 27 -15 38 4 9 7 24 8 33 0 9 5 14 10 11 5

-4 7 3 4 15 -4 14 -1 25 9 30 8 5 16 26 18 48 1 21 7 40 14 42 6 2 11 10 11

17 0 8 7 21 16 30 13 13 19 14 25 4 6 -10 11 -5 19 15 8 22 14 26 22 18 7 -7

18 -12 26 -12 8 0 31 -13 51 -29 28 -22 41 -27 58 -20 16 6 21 13 16 25 -5 15

-2 16 26 11 58 -12 110 32 99 83 -2 8 6 16 18 18 29 4 114 -80 114 -113 0 -8

4 -15 9 -15 13 0 22 28 11 35 -6 4 -10 13 -10 22 0 9 13 -1 33 -24 36 -44 52

-51 52 -25 0 9 -6 16 -12 15 -15 -3 -17 13 -3 22 6 3 10 1 10 -4 0 -6 5 -11

10 -11 6 0 9 12 6 28 -2 15 -5 33 -5 40 -1 18 -28 15 -40 -5 -10 -17 -10 -17

-11 0 0 10 -11 29 -25 43 -27 27 -25 60 3 45 10 -4 23 -6 30 -4 7 3 19 0 27

-7 11 -9 14 -6 13 20 -1 25 -9 35 -42 55 -23 13 -63 29 -91 36 -27 6 -57 14

-65 17 -8 3 -17 6 -20 7 -3 0 -15 5 -28 9 -17 6 -33 1 -63 -18 -21 -15 -39

-28 -39 -30 0 -3 24 -2 53 1 65 7 151 -25 141 -52 -5 -12 -10 -13 -20 -4 -11

9 -15 8 -20 -5 -8 -22 -27 -20 -49 4 -16 18 -20 19 -28 5 -4 -8 -12 -13 -17

-10 -5 3 -25 6 -45 7 -34 1 -47 12 -23 20 8 3 9 7 2 11 -19 11 -86 -47 -246

-218 -102 -108 -182 -203 -229 -273 -39 -59 -78 -114 -85 -123 -8 -9 -17 -26

-19 -39 -5 -25 -21 -49 -47 -68 -10 -7 -18 -19 -18 -27 0 -7 -4 -15 -9 -17

-10 -3 -104 -129 -171 -228 -24 -36 -77 -106 -117 -156 -40 -50 -73 -98 -73

-107 0 -10 -9 -14 -24 -13 -21 1 -24 5 -19 27 3 15 0 30 -6 33 -7 5 -11 -1

-11 -15 0 -39 -10 -14 -14 35 -4 59 -15 72 -18 20 -7 -147 -3 -160 50 -166 17

-2 40 -13 51 -24 10 -12 30 -29 43 -40 37 -29 94 -114 130 -190 32 -72 42

-162 23 -229 -7 -27 -7 -29 9 -16 19 16 31 9 23 -14 -4 -8 -17 -15 -31 -15

-13 0 -26 -7 -30 -15 -7 -19 14 -30 104 -52 22 -5 63 -12 79 -12 10 -1 12 -4

5 -11 -7 -7 -28 -7 -65 1 -30 5 -67 12 -84 14 -80 12 -136 28 -144 42 -5 10

-15 14 -25 10 -12 -5 -15 -14 -10 -34 9 -38 25 -58 34 -43 4 7 18 -7 34 -35

18 -30 33 -45 42 -41 9 3 14 -1 14 -11 0 -14 2 -14 14 3 19 26 31 12 14 -18

-7 -12 -18 -39 -24 -58 -11 -33 -12 -33 -13 -8 -1 17 -11 34 -31 48 -16 12

-33 32 -36 45 -3 13 -14 27 -25 30 -10 4 -18 9 -17 13 4 14 -23 52 -33 46 -6

-4 -4 -13 7 -25 17 -19 9 -24 -20 -13 -9 3 -16 18 -17 33 0 25 -1 25 -11 5 -8

-17 -5 -26 16 -49 15 -16 25 -33 23 -39 -3 -6 4 -26 15 -43 11 -18 16 -33 11

-33 -15 0 -43 39 -44 63 -1 17 -2 18 -6 5 -9 -34 -25 -19 -19 17 5 25 3 35 -5

33 -6 -2 -19 17 -28 42 -9 25 -20 51 -24 57 -10 15 3 16 36 4 27 -11 26 -17

27 112 1 48 5 85 9 82 5 -3 11 1 14 8 4 10 -3 13 -21 12 -20 -1 -28 -7 -30

-23 -5 -34 -19 -26 -20 10 -1 91 -2 97 -23 103 -22 7 -88 74 -89 89 0 6 13 -3

29 -18 18 -17 31 -24 35 -17 4 6 4 16 1 21 -3 6 -4 10 -1 10 3 0 10 -10 17

-21 9 -17 8 -20 -2 -14 -8 5 -10 4 -5 -3 8 -14 33 -16 40 -3 3 5 -3 20 -14 34

-23 29 -26 42 -7 30 16 -10 37 -13 37 -5 0 4 -15 23 -33 42 -34 36 -53 64 -63

93 -6 16 -8 17 -24 2 -17 -15 -19 -15 -30 4 -6 12 -17 21 -25 21 -11 0 -12 -5

-5 -26 10 -26 6 -44 -9 -44 -11 0 -44 70 -37 77 3 4 6 2 6 -3 0 -6 6 -18 13

-29 13 -16 14 -15 9 11 -3 22 -19 39 -66 70 -40 27 -60 47 -58 57 2 10 -2 17

-8 17 -5 0 -10 -7 -10 -15 0 -9 -6 -12 -15 -9 -12 5 -15 -3 -15 -36 0 -32 3

-41 14 -37 10 4 17 -4 22 -26 15 -72 73 -137 122 -137 29 0 33 3 27 21 -6 17

-4 20 12 15 15 -5 23 0 31 19 6 14 16 25 21 25 23 0 19 -22 -14 -77 -19 -32

-35 -62 -35 -68 0 -5 -16 -20 -35 -33 -20 -13 -35 -30 -35 -42 0 -19 -17 -36

-27 -27 -11 11 10 49 43 79 32 30 42 62 19 64 -40 2 -79 21 -105 50 -16 19

-30 31 -30 26 0 -16 57 -88 84 -105 15 -10 24 -23 20 -28 -4 -7 -10 -7 -17 0

-6 6 -18 11 -26 11 -9 0 -24 10 -34 23 -9 12 -29 37 -43 54 -23 29 -26 44 -30

140 -3 59 -6 110 -7 113 -1 3 4 32 10 65 7 33 15 87 19 120 6 57 7 58 20 35 7

-14 13 -41 14 -62 0 -34 43 -118 61 -118 3 0 9 10 12 22 9 34 18 15 19 -39 0

-28 4 -56 9 -64 7 -11 9 -9 9 8 0 20 6 28 46 62 14 12 12 18 -27 57 -45 46

-41 62 4 20 19 -18 28 -21 38 -12 9 8 10 6 6 -11 -3 -13 -1 -23 4 -23 5 0 9 6

9 13 0 7 11 14 25 15 14 1 25 -2 25 -7 0 -5 3 -18 7 -28 6 -16 5 -16 -10 -4

-25 20 -30 9 -12 -25 8 -16 15 -43 15 -61 0 -17 5 -35 10 -38 6 -4 10 5 10 19

0 14 5 26 10 26 13 0 10 58 -3 85 -12 23 -28 89 -20 81 3 -3 17 6 31 21 l25

27 -24 19 c-14 11 -25 15 -27 8 -7 -20 -19 -12 -32 20 -9 22 -15 27 -21 17 -7

-10 -15 -6 -36 17 -16 16 -27 33 -25 38 3 10 -25 94 -39 116 -8 13 -9 13 -6 1

2 -8 0 -23 -5 -34 -7 -12 -6 -22 1 -29 17 -17 13 -31 -4 -17 -18 15 -21 -1 -4

-32 6 -11 8 -22 5 -25 -5 -6 -17 20 -30 67 -6 19 -5 21 3 10 9 -12 11 -9 13

15 1 17 0 53 -2 80 -2 28 -4 76 -4 108 -1 31 -4 57 -8 57 -5 0 -8 -7 -8 -15 0

-8 -4 -15 -9 -15 -5 0 -12 -8 -14 -17 -3 -10 -5 -5 -6 12 0 17 6 43 14 58 11

22 12 33 3 53 -9 20 -8 32 5 60 9 19 17 43 17 53 0 10 7 21 15 25 13 5 14 2 5

-17 -8 -17 -5 -15 16 8 l27 30 -18 -30 c-10 -16 -24 -34 -30 -40 -7 -5 -15

-18 -18 -28 -6 -15 -3 -16 13 -7 10 6 26 20 34 32 10 14 16 17 16 8 0 -9 12

-3 31 16 l32 29 -29 -42 c-16 -23 -46 -49 -66 -59 l-37 -17 15 -35 c8 -19 19

-67 25 -106 9 -63 21 -111 61 -236 15 -50 58 -94 58 -59 0 5 -4 8 -9 5 -5 -3

-13 0 -18 7 -13 16 -35 100 -32 118 5 25 -12 107 -37 181 -13 39 -24 79 -23

87 0 26 53 -132 89 -267 6 -23 20 -64 31 -90 l20 -47 19 25 c17 21 20 22 20 7

0 -10 -5 -28 -11 -39 -15 -27 19 -65 48 -53 10 5 26 7 36 6 19 -3 24 15 5 21

-6 2 -8 10 -4 17 6 8 20 10 46 6 30 -5 39 -3 44 11 4 10 2 20 -3 23 -16 11 19

72 38 66 9 -2 43 9 76 25 32 16 61 28 63 25 7 -6 -50 -97 -100 -161 -26 -34

-48 -66 -48 -72 0 -5 -13 -26 -30 -47 -48 -60 -36 -70 26 -23 63 47 184 200

184 231 0 12 10 31 22 44 l21 23 -25 0 c-33 0 -41 22 -26 71 16 55 27 62 76

45 43 -15 54 -13 45 10 -3 8 1 24 9 37 15 22 33 76 30 90 -1 4 3 7 8 7 6 0 14

10 19 23 23 58 127 267 157 314 19 30 34 57 34 61 0 11 80 120 152 210 33 39

56 72 52 72 -4 0 0 6 11 13 12 9 14 16 7 21 -6 3 -19 -5 -29 -20 -34 -49 -54

-67 -65 -56 -7 7 -2 20 15 38 14 16 53 62 87 102 58 68 80 85 80 62 0 -5 -12

-24 -28 -42 -56 -67 -54 -83 3 -28 64 61 81 76 118 105 25 20 38 43 16 29 -8

-4 -9 0 -4 15 4 12 2 21 -4 21 -20 0 -11 16 19 33 21 13 34 32 44 65 9 30 15

39 15 24 1 -23 4 -21 53 20 29 23 70 60 92 81 21 20 42 37 46 37 17 0 41 40

36 58 -10 29 -47 51 -71 41 -17 -6 -17 -8 -2 -8 9 -1 17 -8 17 -17 0 -12 -4

-14 -12 -7 -7 6 -32 9 -55 7 -23 -2 -45 1 -48 6 -3 6 -11 10 -17 10 -6 0 -5

-7 3 -16 13 -15 9 -16 -41 -11 -109 12 -174 31 -185 55 -7 16 -18 22 -39 22

l-30 0 34 -30 c19 -16 43 -29 53 -30 9 0 17 -6 17 -12 0 -10 2 -10 8 -1 8 13

52 7 52 -7 0 -10 -26 -20 -51 -20 -11 0 -37 -11 -59 -25 -42 -26 -55 -31 -46

-16 8 12 -20 22 -40 14 -13 -5 -15 2 -14 38 2 60 1 66 -10 49 -8 -13 -13 -13

-31 -2 -37 23 -121 27 -162 7 -21 -9 -37 -21 -37 -25 0 -11 -108 -120 -119

-120 -5 0 -9 -19 -9 -42 1 -70 -1 -78 -17 -78 -9 0 -27 7 -40 16 -13 8 -36 14

-52 12 l-28 -4 35 -16 c19 -9 29 -17 22 -17 -7 -1 -20 -8 -28 -16 -9 -8 -26

-15 -40 -15 -13 0 -24 -4 -24 -10 0 -5 11 -10 25 -10 27 0 32 -9 13 -28 -14

-14 -50 -16 -64 -2 -6 6 -15 6 -24 0 -12 -8 -11 -10 7 -10 12 0 29 -10 38 -22

14 -21 14 -23 -2 -27 -10 -2 -21 -8 -25 -15 -5 -6 -8 -2 -8 11 0 12 -4 25 -10

28 -5 3 -10 1 -10 -4 0 -22 -2 -26 -15 -33 -9 -6 -11 -17 -5 -42 6 -27 4 -33

-9 -32 -18 1 -36 24 -26 34 3 4 11 0 16 -8 9 -13 10 -13 6 0 -7 26 -33 22 -46

-7 -12 -25 -14 -26 -25 -11 -15 20 -26 14 -26 -14 0 -21 -29 -25 -48 -6 -7 7

-12 9 -12 5 0 -16 41 -47 53 -40 15 9 -14 -29 -30 -40 -7 -4 -13 -14 -13 -21

0 -7 -8 -21 -19 -30 -10 -9 -18 -28 -18 -42 0 -27 -18 -52 -29 -41 -4 4 -1 13

6 22 7 9 10 19 6 23 -4 4 -14 -2 -21 -13 -8 -11 -18 -25 -23 -31 -5 -5 -15

-20 -21 -32 -6 -12 -19 -22 -28 -22 -12 0 -14 -7 -9 -31 5 -27 4 -30 -14 -24

-14 4 -27 -1 -42 -18 -18 -19 -28 -23 -45 -16 -18 7 -25 4 -34 -14 -7 -12 -12

-33 -13 -47 -1 -15 -8 -26 -19 -28 -15 -3 -17 1 -11 25 5 19 3 25 -4 18 -6 -5

-12 -19 -14 -29 -6 -36 -120 -127 -165 -132 -34 -3 -73 -31 -73 -52 0 -13 -2

-14 -9 -4 -7 11 -16 9 -45 -10 -37 -24 -50 -46 -18 -33 9 5 31 9 47 10 17 2

45 6 64 10 50 12 36 -17 -15 -31 -49 -13 -94 -35 -94 -46 0 -4 -9 -8 -19 -8

-11 0 -23 -9 -26 -21 -9 -27 -29 -19 -33 13 -3 24 -5 25 -40 17 -20 -4 -39 -6

-42 -3 -9 10 34 35 78 46 31 8 42 15 38 25 -3 8 -2 11 3 8 20 -12 19 13 0 53

-14 28 -18 48 -13 64 7 21 9 20 14 -12 7 -46 27 -48 73 -6 21 19 52 38 68 41

29 7 30 9 24 42 -3 19 -8 40 -11 47 -7 18 36 63 79 81 20 8 37 22 37 30 0 8 5

15 11 15 6 0 9 6 6 14 -3 8 1 17 9 20 9 3 12 1 9 -4 -3 -6 -3 -10 2 -10 12 1

45 49 39 58 -3 5 10 8 29 7 26 0 32 2 26 14 -10 16 25 61 46 61 13 0 13 1 -18

62 -18 35 -29 79 -35 143 -4 43 -16 77 -40 118 -19 32 -34 65 -34 73 0 9 -4

23 -9 33 -5 9 -17 54 -26 98 -14 70 -15 102 -6 225 18 243 84 516 140 582 9

11 10 16 4 12 -18 -10 -16 -1 3 18 8 9 13 20 9 25 -3 6 -19 -4 -35 -20 -25

-26 -29 -28 -27 -11 1 13 6 18 16 14 10 -4 12 -1 6 8 -5 8 -4 11 3 6 6 -3 13

3 17 14 4 11 10 18 15 15 12 -7 61 21 52 30 -4 5 -2 5 4 2 8 -4 13 5 16 25 4

24 2 28 -6 17 -12 -16 -30 -18 -42 -6 -4 4 -1 7 8 7 8 0 20 12 26 26 7 14 17

22 23 18 8 -5 8 -9 -1 -14 -8 -5 -6 -9 8 -12 16 -4 19 0 18 23 -1 16 -5 29

-11 29 -5 0 -4 4 3 9 8 4 13 11 13 15 -3 18 1 19 9 1 l9 -20 7 20 c7 22 72 81

80 73 8 -8 -15 -59 -54 -121 -27 -41 -42 -56 -55 -53 -9 2 -15 0 -12 -5 3 -4

-10 -32 -30 -60 -19 -28 -35 -57 -35 -64 0 -7 -7 -18 -15 -25 -8 -7 -13 -16

-10 -20 2 -4 0 -22 -6 -41 -5 -19 -12 -68 -15 -109 -7 -114 -10 -128 -23 -143

-9 -12 -8 -18 4 -31 9 -9 13 -16 8 -16 -4 0 -2 -4 5 -8 7 -5 13 -26 14 -48 1

-21 7 -45 15 -52 7 -7 13 -23 13 -35 1 -22 1 -22 16 -2 13 17 16 18 24 5 6 -8

8 -20 6 -27 -3 -6 2 -14 10 -17 8 -3 14 -19 14 -41 0 -20 5 -35 12 -35 9 0 9

-3 0 -12 -15 -15 -16 -32 -2 -23 6 3 13 -1 16 -9 3 -9 10 -14 14 -11 15 9 9

-80 -7 -97 -14 -16 -13 -20 11 -48 26 -31 26 -31 34 -9 7 19 10 20 15 5 8 -19

-12 -68 -24 -60 -5 3 -9 -3 -9 -14 0 -28 -11 -34 -26 -14 -11 14 -11 11 -1

-17 9 -27 9 -35 0 -38 -7 -3 -13 -18 -13 -33 0 -16 -5 -32 -10 -35 -13 -8 -13

-35 -1 -35 5 0 13 9 16 20 3 11 12 26 19 32 6 7 20 30 29 51 10 20 22 37 28

37 19 0 58 55 54 75 -3 11 -2 14 1 7 4 -8 17 0 40 25 33 36 38 45 35 69 -1 7

7 11 16 10 13 -1 17 5 15 22 -3 21 11 31 21 15 2 -5 2 -2 0 6 -4 16 34 61 51

61 8 0 8 -3 0 -8 -11 -7 -38 -52 -31 -52 2 0 18 18 36 40 22 28 26 38 14 33

-16 -6 -16 -5 -4 10 7 10 21 16 30 15 9 -2 15 3 13 10 -1 6 5 12 13 12 8 0 15

4 15 8 0 5 14 23 32 41 40 41 49 74 10 40 -14 -13 -44 -40 -65 -59 -66 -59

-247 -243 -247 -252 0 -17 -17 -7 -33 22 -10 17 -14 30 -8 30 5 0 14 -7 19

-16 7 -13 10 -13 20 -1 10 11 8 19 -9 38 -11 13 -17 18 -13 10 5 -10 3 -13 -9

-8 -9 3 -17 1 -19 -5 -2 -6 -10 -3 -17 6 -12 14 -12 16 1 11 11 -4 17 2 21 22

11 54 415 445 602 583 64 47 90 69 66 55 -11 -6 -13 -4 -8 9 4 10 3 15 -3 11

-6 -3 -10 -12 -10 -18 0 -7 -11 -12 -25 -12 -30 0 -30 2 -7 28 17 20 17 20

-11 2 -15 -10 -26 -23 -24 -29 6 -16 -12 -48 -24 -41 -5 4 -6 11 -3 17 4 6 1

9 -6 6 -8 -2 -16 -10 -18 -18 -3 -7 0 -10 7 -6 18 11 13 -6 -6 -20 -24 -18

-38 -17 -23 1 7 8 9 15 5 15 -11 0 -67 -34 -87 -52 -24 -24 -23 -36 1 -14 11

10 26 16 33 14 7 -3 -6 -15 -29 -29 -24 -13 -49 -37 -56 -52 -8 -16 -18 -29

-23 -30 -5 -1 -8 -5 -6 -9 1 -5 -5 -8 -13 -8 -8 0 -15 -7 -15 -15 0 -8 -9 -15

-21 -15 -11 0 -17 5 -14 10 3 6 4 10 0 10 -8 0 -47 -23 -63 -37 -7 -7 -20 -13

-28 -13 -8 0 -14 -4 -14 -10 0 -5 -7 -10 -15 -10 -9 0 -18 -7 -21 -15 -4 -8

-11 -15 -17 -15 -6 0 -19 -8 -30 -17 -19 -17 -19 -17 -6 4 7 12 22 25 34 28

18 6 18 8 3 12 -21 5 -23 14 -7 30 9 9 6 10 -12 6 l-24 -6 24 22 c24 21 57 29

46 11 -3 -5 -1 -10 4 -10 14 0 14 17 0 26 -9 5 60 56 116 83 33 17 59 40 52

47 -4 4 -26 -6 -49 -22 -64 -42 -87 -54 -93 -44 -3 5 3 11 12 14 10 4 29 15

43 26 l25 20 -30 -10 c-16 -6 -43 -22 -60 -37 -16 -14 -22 -23 -12 -19 32 11

17 -10 -25 -34 -24 -13 -49 -30 -57 -37 -7 -8 -16 -11 -20 -8 -3 4 5 15 19 25

20 16 22 20 8 20 -10 0 -18 -4 -18 -10 0 -5 -7 -10 -15 -10 -25 0 -17 30 8 31

12 0 16 3 10 6 -21 8 -15 17 27 43 22 14 40 29 41 35 0 5 2 20 5 33 4 20 2 22

-19 12 -20 -10 -20 -9 2 7 14 10 34 26 45 36 17 14 18 16 4 11 -26 -9 -23 28

4 52 l22 19 -18 -28 -17 -28 27 18 c26 17 28 17 21 0 -3 -9 -2 -17 3 -17 17 0

20 18 5 30 -22 18 -19 28 17 50 17 10 37 33 44 50 13 29 12 30 -8 19 -20 -11

-20 -11 -2 14 12 16 23 22 29 16 15 -15 25 -10 25 12 0 16 4 19 23 14 21 -7

21 -6 3 7 -21 17 -14 40 9 31 11 -4 13 -1 9 11 -4 12 -10 13 -24 6 -31 -17

-32 -11 -3 15 17 15 21 23 11 19 -10 -3 -18 -10 -18 -15 0 -5 -5 -9 -10 -9 -6

0 -8 12 -6 26 4 21 3 24 -9 14 -8 -7 -13 -16 -10 -20 3 -5 1 -11 -5 -15 -6 -4

-7 -12 -3 -18 4 -7 0 -6 -10 2 -21 17 -22 3 -1 -20 10 -11 12 -19 4 -24 -6 -4

-9 -1 -8 7 2 7 -4 11 -12 10 -42 -10 -50 -10 -45 -1 4 5 10 7 15 4 8 -5 20 18

20 38 -1 8 -5 6 -13 -3 -7 -8 -19 -15 -27 -15 -8 0 -14 -4 -13 -10 0 -5 -5

-16 -13 -23 -11 -10 -14 -10 -14 0 0 6 -7 3 -15 -8 -12 -16 -14 -16 -15 -3 0

9 12 25 28 35 64 42 150 123 136 128 -9 4 -12 14 -8 34 4 17 1 32 -5 36 -6 4

-11 1 -11 -8 0 -9 -7 -13 -20 -11 -24 5 -37 -13 -16 -21 9 -3 14 -10 11 -14

-3 -4 7 -11 21 -14 l27 -7 -34 -25 c-36 -26 -44 -29 -34 -14 3 6 2 10 -3 10

-5 0 -8 11 -7 25 4 28 -4 32 -24 13 -11 -11 -12 -9 -6 11 4 15 3 21 -3 17 -5

-3 -12 3 -15 14 -5 20 -47 29 -47 11 0 -20 -40 3 -49 28 -5 14 -10 19 -10 10

-1 -23 -31 -79 -42 -79 -8 0 -13 15 -10 33 1 5 -3 6 -9 2 -20 -12 -10 14 13

32 12 10 20 17 18 16 -2 -2 -11 3 -19 10 -13 9 -14 9 -8 0 4 -8 -2 -22 -15

-35 -17 -18 -20 -19 -16 -5 4 9 3 17 -1 17 -12 0 -33 -40 -26 -51 4 -8 9 -7

15 2 6 10 9 10 9 2 0 -8 7 -10 18 -6 15 6 15 4 -2 -16 -15 -16 -21 -18 -28 -9

-6 10 -8 9 -8 -2 -1 -11 -4 -10 -15 4 -13 17 -15 17 -15 3 0 -9 8 -21 18 -26

9 -6 12 -11 5 -11 -6 0 -19 10 -27 22 -17 24 -22 17 -7 -11 8 -14 4 -19 -20

-28 -16 -6 -29 -7 -29 -2 0 4 -8 6 -17 2 -16 -5 -16 -4 1 9 17 13 17 16 2 30

-17 17 -23 53 -7 43 5 -3 13 0 17 6 4 7 3 9 -4 6 -7 -5 -8 7 -5 35 4 29 3 39

-5 34 -7 -4 -12 -2 -12 5 0 6 -8 9 -20 6 -11 -3 -20 -1 -20 4 0 5 6 9 13 9 8

0 7 3 -3 9 -18 12 -27 6 -25 -16 4 -30 16 -53 26 -47 5 3 6 11 3 17 -4 8 -2 7

7 -1 12 -11 12 -14 -1 -22 -8 -5 -18 -6 -22 -4 -4 3 -8 3 -8 0 0 -3 12 -12 27

-19 l27 -14 -22 -12 c-12 -7 -22 -8 -21 -4 5 31 -3 36 -21 13 -21 -27 -35 -21

-35 16 -1 26 10 32 18 12 4 -10 8 -9 16 2 6 8 6 16 1 18 -4 2 -6 14 -4 28 5

27 -3 30 -28 10 -10 -7 -14 -17 -10 -22 4 -5 -2 -1 -14 9 -11 9 -24 14 -27 10

-4 -3 -7 -1 -7 5 0 6 5 14 11 17 6 4 8 13 5 20 -3 8 4 17 15 20 10 4 20 13 20

21 1 8 3 19 4 24 1 6 3 13 4 16 0 4 13 -1 27 -11 24 -16 25 -16 16 2 -6 10

-21 19 -34 20 -12 1 -24 7 -26 13 -2 5 -9 10 -14 10 -6 0 -9 -3 -5 -6 3 -4 -4

-15 -16 -25 l-22 -18 28 -1 c29 0 32 -6 17 -30 -8 -12 -12 -11 -30 8 l-22 23

23 34 c22 32 25 33 41 18 10 -9 18 -12 18 -6 0 5 7 10 15 10 9 0 11 -4 6 -11

-6 -8 4 -11 32 -12 23 -1 36 1 29 3 -6 3 -10 9 -6 14 3 5 1 9 -5 9 -5 0 -12

-6 -15 -12 -3 -7 -4 -4 -3 7 2 16 -4 20 -28 21 -52 1 -65 12 -65 55 0 31 4 39

18 39 14 0 15 -2 2 -10 -9 -6 -10 -10 -3 -10 6 0 14 4 17 8 7 12 -7 27 -24 27

-8 0 -14 6 -12 13 3 18 -17 54 -27 47 -16 -9 -20 37 -5 52 12 13 14 12 14 -7

0 -13 -4 -19 -12 -14 -7 4 -8 3 -4 -5 4 -6 11 -9 16 -6 5 3 11 1 15 -5 9 -15

54 -8 48 8 -4 9 -9 10 -16 3 -16 -16 -27 -13 -20 5 4 11 -2 23 -18 35 l-24 19

25 1 c17 1 20 3 8 6 -11 3 -18 14 -18 26 1 21 1 21 15 3 13 -18 14 -18 12 2 0

11 -5 18 -9 16 -4 -3 -8 2 -8 10 0 10 6 13 17 9 11 -4 14 -3 9 6 -5 7 -14 10

-21 7 -7 -2 -18 1 -24 7 -8 8 -11 8 -11 0 0 -7 5 -15 10 -18 15 -9 12 -25 -5

-25 -8 0 -15 9 -15 19 0 11 -6 22 -12 24 -10 4 -10 6 0 6 6 1 12 12 12 26 0

34 -28 32 -33 -2 l-4 -28 -2 28 -1 27 -275 0 -275 0 -1 -22z m1646 -1718 c3

-5 15 -10 26 -10 11 0 17 -4 14 -10 -3 -5 -18 -10 -33 -10 -15 0 -37 -10 -49

-22 -52 -54 -63 -69 -63 -88 0 -13 -9 -22 -25 -26 -14 -3 -35 -18 -46 -32 -17

-22 -22 -24 -29 -12 -23 37 -7 65 104 172 47 46 87 61 101 38z m36 -718 c-17

-27 -31 -54 -31 -59 0 -6 -7 -13 -15 -17 -8 -3 -21 -18 -28 -33 -6 -15 -15

-32 -20 -38 -57 -74 -247 -420 -247 -451 0 -8 -3 -14 -7 -14 -5 0 -17 -21 -28

-48 -12 -29 -21 -41 -23 -30 -4 23 100 240 181 376 35 59 79 134 97 167 19 33

36 62 39 65 4 3 19 25 35 50 33 53 67 92 74 85 3 -2 -10 -26 -27 -53z m-1291

-542 c0 -5 -21 -21 -47 -34 -34 -17 -52 -33 -60 -55 -6 -17 -7 -31 -2 -31 15

0 10 -30 -7 -37 -8 -3 -26 0 -40 7 -21 12 -26 11 -37 -2 -18 -24 -79 -58 -102

-58 l-20 1 20 11 c11 6 22 14 25 18 3 4 20 15 38 24 32 16 35 36 7 36 -8 0

-22 11 -31 25 -17 26 -13 55 7 55 6 0 9 -6 6 -14 -3 -8 0 -22 7 -32 12 -16 14

-16 33 3 11 11 42 28 69 38 27 10 56 24 65 32 9 7 18 10 22 7 3 -3 14 -1 24 5

23 13 23 13 23 1z m-135 -437 c-9 -94 -14 -110 -34 -116 -10 -2 -25 -17 -33

-33 -9 -16 -22 -42 -31 -57 -11 -20 -13 -37 -7 -58 5 -16 5 -31 0 -34 -12 -7

-30 28 -30 59 0 27 71 166 95 186 8 7 15 25 15 41 0 27 18 79 28 79 2 0 1 -30

-3 -67z m1445 -906 c0 -7 -5 -18 -12 -25 -9 -9 -6 -18 13 -38 13 -15 19 -24

13 -21 -15 9 -25 -18 -12 -31 6 -6 7 -20 2 -33 -4 -13 -7 -28 -6 -32 1 -4 -4

-10 -12 -13 -8 -3 -12 -13 -9 -24 4 -14 0 -19 -16 -17 -12 1 -21 6 -22 12 -1

5 -4 -1 -8 -15 -5 -14 -4 -32 0 -41 5 -10 2 -19 -9 -26 -15 -9 -17 -2 -18 73

-1 46 1 82 5 80 4 -3 12 4 19 15 7 10 8 19 3 19 -5 0 -11 -6 -14 -12 -2 -7 -8

-10 -12 -6 -4 4 -3 14 3 21 7 8 9 17 5 20 -3 4 -1 7 5 7 7 0 12 -4 12 -10 0

-5 7 -7 15 -4 8 4 15 10 15 15 0 4 -6 6 -14 3 -8 -3 -17 -1 -21 5 -3 6 -2 11

4 11 6 0 8 7 5 15 -4 8 -1 15 5 15 6 0 11 7 11 15 0 8 7 15 15 15 8 0 15 5 15

10 0 6 5 10 10 10 6 0 10 -6 10 -13z m-827 -302 c16 -25 33 -45 39 -45 10 0

53 -49 53 -60 0 -3 10 -19 22 -35 l22 -30 20 22 c12 13 17 25 11 28 -6 3 -10

11 -10 17 0 6 9 3 21 -8 l21 -19 -21 -16 c-12 -10 -21 -24 -21 -33 0 -22 -20

-20 -47 6 l-23 21 0 -21 c0 -22 20 -73 32 -82 4 -3 12 -18 18 -34 10 -27 9

-28 -7 -15 -10 7 -23 19 -30 27 -17 21 -34 5 -27 -25 5 -18 3 -24 -5 -19 -14

9 -15 56 -1 56 14 0 12 33 -2 49 -10 11 -10 14 0 18 16 6 16 43 -1 43 -23 0

-47 30 -100 130 -47 86 -16 108 36 25z"/>

<path d="M3041 5103 c-2 -32 17 -75 30 -68 6 4 9 -4 7 -22 -2 -23 0 -27 16

-25 18 3 18 3 2 -14 -14 -13 -15 -19 -4 -25 7 -5 13 -14 13 -21 0 -7 5 -13 12

-13 6 0 15 -3 19 -7 4 -5 0 -8 -9 -8 -23 0 -21 -17 3 -30 11 -6 20 -20 20 -31

0 -11 -5 -17 -10 -14 -6 4 -7 11 -4 17 4 6 -2 5 -15 -2 l-22 -11 21 -33 20

-33 -25 5 c-15 2 -25 0 -25 -7 0 -7 -4 -10 -9 -6 -5 3 -13 0 -17 -6 -4 -7 -3

-10 2 -6 5 3 17 -1 27 -8 15 -11 15 -14 3 -25 -9 -6 -21 -8 -27 -4 -8 4 -9 3

-5 -4 4 -7 3 -12 -1 -12 -5 0 -14 -10 -22 -22 -13 -22 -13 -22 4 -8 10 8 27

14 38 12 12 -2 17 1 13 7 -4 7 -1 9 8 5 12 -5 9 -11 -12 -30 -15 -13 -22 -24

-16 -24 7 0 14 -10 17 -22 5 -20 4 -21 -6 -7 -16 21 -36 13 -30 -12 3 -11 -2

-28 -11 -38 -9 -10 -16 -22 -15 -27 4 -21 -2 -25 -18 -13 -9 8 -18 13 -20 12

-1 -2 -8 -3 -15 -3 -9 0 -9 3 0 12 7 7 12 23 12 37 -1 23 -2 24 -11 8 -5 -9

-8 -20 -6 -25 2 -4 -4 -14 -13 -23 -14 -13 -20 -14 -35 -3 -16 12 -16 14 -1

29 17 18 21 35 7 35 -5 0 -11 -9 -14 -21 -3 -12 -10 -18 -16 -15 -6 4 -18 -5

-27 -19 -11 -17 -20 -22 -24 -15 -4 6 -28 12 -54 13 -44 1 -47 3 -43 24 2 12

1 20 -4 18 -4 -3 -11 0 -15 6 -4 8 -9 7 -16 -2 -7 -10 -8 -8 -4 7 4 11 -1 29

-9 40 -9 10 -14 13 -13 5 2 -7 -3 -16 -11 -19 -10 -3 -12 0 -7 13 5 14 4 16

-7 6 -11 -9 -17 -8 -27 4 -7 8 -18 15 -24 14 -7 0 -6 -2 2 -6 6 -2 12 -9 12

-15 0 -6 -8 -4 -18 5 -10 10 -22 14 -27 10 -4 -5 -6 -1 -3 7 4 11 -1 16 -19

18 -14 1 -30 5 -36 9 -6 4 -27 8 -47 10 -26 2 -31 1 -20 -7 8 -5 10 -10 4 -10

-6 0 -18 8 -25 17 -10 11 -10 14 -1 9 6 -4 12 -2 12 3 0 6 -4 11 -10 11 -5 0

-10 11 -10 25 0 14 -3 25 -8 25 -4 0 -15 12 -24 28 -10 15 -18 22 -18 15 0 -7

-6 -10 -14 -7 -8 3 -12 13 -9 22 4 13 3 14 -5 4 -7 -11 -10 -11 -16 3 -3 9

-10 14 -16 10 -14 -9 32 -53 52 -49 21 3 53 -52 36 -62 -7 -4 -8 -2 -4 4 3 6

-2 15 -11 21 -10 6 -13 11 -8 11 6 0 3 4 -4 9 -9 6 -22 6 -33 0 -14 -7 -16 -6

-12 6 4 8 1 15 -5 15 -6 0 -11 -4 -11 -9 0 -5 -9 -7 -20 -4 -14 4 -20 0 -20

-10 0 -19 -36 -41 -45 -28 -3 5 -1 12 5 16 5 3 10 12 10 18 0 7 -7 3 -15 -7

-8 -10 -12 -23 -9 -27 3 -5 -2 -9 -11 -9 -13 0 -15 7 -10 40 5 33 3 39 -10 34

-18 -7 -19 -16 -2 -33 10 -11 8 -11 -10 0 -12 7 -19 19 -15 27 4 11 1 13 -8 7

-9 -6 -11 -4 -5 5 6 10 4 12 -8 7 -11 -4 -14 -2 -11 8 5 12 10 12 32 -1 l27

-16 -24 21 c-12 11 -27 18 -32 15 -5 -3 -9 3 -10 13 0 17 -1 17 -8 -1 -7 -18

-8 -18 -25 -1 -13 13 -17 14 -16 4 4 -26 0 -39 -11 -36 -15 3 -17 -62 -2 -67

18 -7 23 5 12 26 -6 11 -8 23 -4 26 3 3 8 -4 12 -16 3 -12 9 -19 14 -16 5 3 9

0 9 -6 0 -6 5 -8 12 -4 7 4 8 3 4 -5 -4 -6 -11 -9 -16 -6 -5 3 -12 0 -16 -6

-4 -7 -3 -9 4 -5 6 3 13 2 17 -4 3 -5 0 -10 -8 -10 -16 0 -13 -35 3 -45 5 -3

6 4 3 14 -4 16 -1 19 19 14 12 -3 20 -2 16 2 -11 11 10 45 28 45 8 0 12 -5 9

-10 -4 -6 -10 -8 -15 -5 -4 3 -7 -6 -5 -20 1 -14 -1 -25 -5 -25 -4 0 -7 -7 -7

-15 0 -8 9 -15 19 -15 10 0 18 5 18 11 0 8 4 8 13 1 8 -7 18 -7 27 -2 8 5 17

7 20 5 5 -3 57 -11 144 -21 22 -3 45 -8 50 -12 6 -4 45 -18 86 -32 81 -28 245

-130 329 -206 27 -24 58 -44 69 -44 12 0 31 -14 45 -32 93 -128 134 -179 149

-184 21 -6 98 -92 98 -109 0 -6 9 -20 19 -29 11 -10 22 -30 26 -44 3 -15 20

-49 37 -77 45 -72 82 -99 72 -52 -2 12 -6 40 -9 63 -3 22 -9 54 -14 72 -7 21

-6 32 1 32 6 0 7 10 3 28 -5 15 -10 41 -12 57 -4 30 -4 43 0 218 1 53 0 97 -3

97 -3 0 -5 30 -4 67 1 38 -3 70 -7 73 -5 3 -2 18 6 33 7 15 11 27 7 27 -4 0

-7 18 -6 41 0 23 -5 43 -12 46 -8 3 -9 15 -4 39 5 19 4 37 -1 40 -5 3 -7 10

-4 15 4 5 0 9 -7 9 -10 0 -10 2 1 9 7 5 11 13 7 19 -3 6 0 13 6 15 10 4 10 8

-1 15 -8 6 -9 12 -3 16 13 7 -13 96 -31 108 -6 4 -9 8 -5 8 4 0 1 12 -7 27 -8

15 -11 31 -8 36 3 6 1 7 -5 3 -8 -5 -12 4 -12 28 l0 36 -90 0 c-89 0 -90 0

-90 -25 0 -16 6 -25 15 -25 8 0 15 -4 15 -10 0 -28 -47 8 -53 40 -4 23 -4 23

-6 3z"/>

<path d="M4230 5101 c0 -10 37 -82 82 -160 70 -121 86 -141 108 -142 16 -1 19

-3 8 -6 -10 -2 -18 -7 -18 -10 0 -8 57 -108 95 -168 17 -27 35 -58 38 -68 11

-30 -11 -68 -81 -136 -44 -43 -109 -129 -189 -250 -121 -183 -122 -185 -109

-216 39 -93 22 -231 -53 -438 -53 -144 -88 -209 -122 -227 -11 -6 -51 -44 -89

-83 -38 -40 -90 -88 -115 -107 -26 -19 -60 -46 -76 -60 l-30 -25 0 -122 c0

-71 6 -148 15 -185 8 -35 15 -97 15 -138 0 -41 5 -111 11 -155 6 -44 15 -109

20 -145 4 -36 18 -119 29 -186 12 -67 21 -132 21 -145 0 -58 19 -291 24 -296

3 -4 7 0 8 8 0 8 2 19 3 24 2 6 3 23 4 38 0 16 5 26 10 22 6 -3 13 16 17 42 3

27 10 55 15 64 4 9 11 31 14 50 3 19 10 45 15 59 13 36 87 289 96 330 10 46 9

42 21 70 8 20 98 303 118 370 7 26 30 85 36 95 4 6 19 42 34 80 16 39 33 73

39 77 6 4 8 8 3 8 -4 0 2 19 14 42 11 22 28 64 36 92 24 84 148 354 193 421

15 22 30 47 33 55 4 8 17 32 29 52 13 21 52 86 87 145 55 93 131 204 181 267

39 49 96 114 127 146 64 66 81 85 127 143 l46 58 0 340 0 341 -25 -6 c-57 -14

-78 -31 -212 -163 -269 -265 -273 -268 -273 -250 0 11 4 15 11 11 8 -5 10 1 7

19 -3 15 -1 24 3 21 5 -3 9 0 9 5 0 6 -5 11 -11 11 -6 0 -8 7 -5 16 3 8 2 12

-4 9 -6 -3 -10 -1 -10 4 0 6 7 11 16 11 10 0 14 6 11 15 -4 8 -2 17 4 21 6 3

8 13 4 21 -4 12 -3 13 8 5 8 -7 17 -9 20 -5 4 3 7 1 7 -6 0 -7 5 -9 11 -6 7 5

3 15 -11 30 l-22 23 21 7 21 6 -22 19 c-17 15 -19 19 -7 20 8 0 24 7 35 16 19

15 19 15 -3 11 -15 -3 -23 1 -26 13 -3 13 0 17 9 13 10 -4 12 0 7 13 -4 12 -3

15 5 10 7 -4 12 -12 12 -17 0 -6 6 -17 14 -24 12 -12 15 -12 19 0 3 7 1 15 -6

18 -6 2 -10 19 -9 40 2 26 -3 42 -18 57 -11 11 -20 29 -20 40 0 11 -4 20 -10

20 -5 0 -10 -14 -10 -31 0 -17 4 -28 10 -24 6 3 10 1 10 -5 0 -6 5 -8 11 -4 7

4 10 -1 7 -11 -1 -10 -9 -20 -16 -23 -7 -2 -10 2 -6 12 8 20 -4 21 -25 2 -10

-9 -22 -12 -29 -7 -17 10 -4 44 14 37 10 -4 14 3 14 24 0 30 -1 30 -55 30 -52

0 -55 -1 -55 -24 0 -14 -4 -27 -8 -30 -5 -3 -6 8 -4 25 2 16 0 29 -6 29 -15 0

-21 -59 -7 -70 7 -5 14 -7 17 -5 10 10 49 14 43 4 -4 -5 -10 -7 -15 -4 -4 3

-10 1 -12 -4 -1 -4 -14 -11 -28 -15 -19 -6 -21 -5 -10 3 13 10 8 15 -12 12 -9

-1 -11 12 -8 52 1 21 -3 27 -19 27 -14 0 -21 -8 -24 -27 l-4 -28 -2 28 c-1 20

-6 27 -22 27 -19 0 -21 -4 -16 -35 5 -31 4 -33 -9 -21 -8 8 -14 24 -14 35 0

20 -6 21 -80 21 -71 0 -80 -2 -80 -19z"/>

<path d="M221 4530 c-17 -18 -34 -44 -37 -58 -4 -15 -12 -34 -19 -42 -6 -8

-15 -22 -19 -30 -22 -48 -128 -210 -137 -210 -5 0 -9 -684 -9 -1529 l0 -1529

23 -6 c22 -5 100 -62 155 -113 36 -33 51 -101 57 -256 4 -127 16 -257 29 -327

3 -14 10 -77 15 -140 6 -63 14 -126 17 -140 18 -78 22 -107 17 -127 -4 -18 -1

-23 15 -23 11 0 22 8 24 18 5 20 2 235 -7 425 -3 73 -8 257 -10 409 -2 159 -9

286 -14 297 -6 10 -7 21 -4 25 3 3 2 6 -4 6 -17 0 -29 137 -22 255 0 6 -2 86

-5 179 -5 133 -2 183 10 235 17 72 17 69 10 316 -3 94 -5 179 -5 190 1 11 1

27 0 35 0 8 -2 125 -5 260 -3 135 -8 262 -11 283 -3 27 -1 36 7 31 8 -5 9 -1

4 12 -5 10 -9 39 -11 64 -2 25 -6 63 -10 84 -6 32 -5 37 6 31 12 -8 12 -6 1 8

-10 11 -12 38 -10 87 3 39 1 73 -4 76 -5 3 -5 11 0 17 11 15 15 138 14 457 -1

297 -2 291 1 362 1 32 0 58 -3 58 -3 0 -4 71 -2 158 3 131 1 160 -11 170 -12

10 -20 7 -46 -18z"/>

<path d="M3657 4362 c-27 -13 -28 -16 -22 -60 10 -67 12 -412 2 -412 -5 0 -6

-4 -3 -9 4 -5 -3 -30 -14 -55 -17 -40 -18 -48 -5 -53 21 -7 103 44 234 148

l110 87 -40 42 c-22 22 -44 51 -50 63 -16 38 -56 105 -78 133 -12 15 -21 32

-21 38 0 6 -19 29 -43 51 -40 39 -43 40 -70 27z"/>

<path d="M3958 3424 c-21 -7 -68 -31 -105 -53 -37 -22 -104 -52 -149 -67 -44

-14 -89 -33 -100 -41 -17 -13 -18 -16 -3 -41 17 -31 44 -35 102 -16 93 32 180

76 217 109 31 28 90 114 82 118 -4 3 -24 -1 -44 -9z"/>

<path d="M1697 3207 c-110 -118 -127 -139 -122 -148 4 -5 1 -9 -5 -9 -6 0 -8

-5 -4 -12 5 -8 2 -9 -9 -5 -10 3 -17 2 -17 -4 0 -6 -5 -7 -10 -4 -6 4 -8 10

-5 15 3 4 -2 11 -11 14 -23 9 -24 8 -24 -18 0 -13 -3 -26 -7 -28 -22 -9 -74

-83 -83 -119 -9 -32 -8 -50 4 -85 8 -25 11 -42 5 -39 -5 4 -9 -1 -9 -10 0 -12

-5 -15 -16 -11 -22 8 -57 -23 -45 -38 11 -13 -6 -39 -31 -48 -14 -6 -15 -11

-3 -45 11 -32 18 -38 42 -39 15 -1 35 -3 43 -5 10 -3 16 8 21 36 3 22 9 47 13

56 6 13 -1 18 -29 23 -30 6 -34 10 -25 22 17 19 47 18 59 -3 8 -15 12 -16 23

-4 9 10 10 12 1 7 -9 -5 -13 0 -13 12 0 24 78 124 91 116 5 -3 9 1 9 9 0 7 27

38 60 68 32 30 59 60 60 67 0 7 4 10 10 7 5 -3 26 5 46 18 36 25 32 47 -5 27

-26 -13 -34 -13 -25 2 4 6 -4 3 -18 -8 -14 -10 -25 -21 -23 -23 7 -6 -20 -28

-30 -25 -6 3 -19 -9 -28 -26 -10 -17 -23 -28 -28 -25 -5 4 -9 1 -9 -5 0 -7 -6

-5 -15 4 -20 20 -19 32 1 15 15 -12 16 -11 9 10 -4 15 -4 21 3 17 6 -3 13 0

15 6 4 10 8 9 16 -2 9 -13 11 -12 9 5 -3 41 3 62 22 83 11 12 25 33 30 47 5

14 16 26 25 26 8 1 21 2 28 3 7 1 11 11 9 25 -3 16 0 21 9 16 7 -5 10 -4 5 3

-6 10 7 31 42 67 6 8 12 16 12 19 0 15 -20 0 -73 -57z"/>

<path d="M3470 3186 c-42 -22 -89 -50 -104 -62 l-29 -21 26 -39 c28 -42 62

-155 96 -324 15 -72 -1 -95 -85 -121 -67 -21 -104 -49 -65 -49 29 0 19 -16

-15 -24 -65 -17 -124 -88 -124 -151 0 -22 4 -25 33 -25 30 1 31 2 13 15 -12 9

-16 20 -12 32 7 17 8 16 24 -4 42 -53 122 -19 122 52 0 39 9 44 33 17 24 -26

22 -87 -3 -112 -11 -11 -23 -20 -27 -21 -5 -1 -21 -2 -38 -4 -43 -4 -45 -4

-45 -14 0 -4 16 -7 35 -6 29 1 36 -3 44 -27 6 -15 15 -28 21 -28 6 0 8 -6 4

-12 -4 -7 -3 -10 1 -5 5 4 17 -1 28 -10 12 -11 17 -12 12 -4 -6 10 -4 12 4 7

8 -5 11 -21 8 -42 -4 -26 -2 -32 7 -25 9 8 11 1 8 -27 -3 -20 -8 -39 -12 -42

-8 -5 -21 -77 -22 -117 0 -13 -4 -23 -9 -23 -5 0 -9 -11 -9 -25 0 -14 -7 -28

-16 -32 -13 -5 -13 -7 -2 -14 10 -7 11 -9 0 -9 -7 0 -10 -4 -7 -10 3 -5 -1

-20 -9 -32 -9 -12 -16 -29 -16 -38 0 -8 -7 -28 -15 -44 -8 -15 -15 -33 -15

-40 -1 -22 -114 -231 -131 -242 -10 -6 -46 -82 -73 -155 -27 -71 -20 -90 39

-112 160 -59 270 -130 347 -221 66 -80 100 -149 147 -304 21 -72 44 -138 50

-148 10 -18 10 -18 11 2 0 12 3 37 6 55 4 26 3 31 -5 19 -9 -11 -10 -6 -6 25

20 157 46 376 55 464 13 131 13 430 0 518 -5 38 -19 131 -30 208 -27 181 -39

287 -45 410 -27 476 -23 436 -46 540 -21 96 -52 190 -76 227 -12 21 -23 40

-23 43 0 3 -12 23 -26 45 -40 60 -23 70 20 12 21 -29 42 -50 46 -47 5 3 11 1

15 -5 3 -5 10 -10 15 -10 9 0 2 38 -10 55 -12 16 -34 89 -32 102 5 24 -15 20

-88 -21z"/>

<path d="M3176 1648 c-11 -6 -33 -11 -49 -10 -17 0 -43 -6 -58 -14 -18 -9 -30

-10 -34 -4 -4 6 -11 8 -16 5 -5 -4 -9 -2 -9 4 0 7 -26 8 -72 5 -102 -7 -164

-7 -230 1 -58 8 -58 8 -58 -18 0 -21 4 -25 21 -22 11 2 31 0 45 -5 32 -13 54

-13 204 -1 69 6 155 12 192 13 48 3 73 9 85 21 22 22 6 40 -21 25z"/>

<path d="M4490 1541 c0 -12 -4 -30 -9 -40 -6 -10 -11 -28 -13 -42 -2 -13 -7

-29 -11 -36 -4 -6 -3 -22 2 -36 7 -17 5 -32 -5 -52 -17 -34 -18 -38 -1 -29 15

10 -10 -25 -32 -43 -10 -9 -11 -13 -3 -13 10 0 10 -5 2 -20 -8 -14 -7 -26 1

-42 10 -18 9 -20 -5 -15 -9 4 -16 3 -16 -1 0 -8 -38 -7 -130 4 -25 2 -54 6

-65 7 -11 1 -23 6 -27 11 -3 5 -21 11 -40 12 -39 3 -74 10 -88 19 -6 3 -10 1

-10 -6 0 -8 -7 -6 -19 5 -12 11 -28 15 -46 12 -18 -3 -32 0 -39 9 -6 8 -23 17

-38 21 -24 5 -28 3 -29 -17 -1 -18 -3 -19 -6 -6 -6 24 -23 11 -23 -19 0 -14

-4 -23 -8 -20 -5 3 -6 -9 -3 -27 3 -22 6 -26 9 -13 3 15 6 16 13 5 7 -12 9

-12 9 1 0 20 47 22 54 3 4 -8 13 -13 20 -10 8 3 17 -1 20 -9 3 -8 11 -14 18

-14 9 0 8 3 -2 10 -8 5 -11 10 -7 10 4 0 19 -7 32 -16 13 -9 28 -13 34 -10 5

3 11 -1 15 -9 3 -8 17 -15 31 -15 17 0 25 -6 26 -17 0 -11 3 -13 6 -5 6 15 24

16 21 0 -2 -6 8 -17 20 -24 13 -6 28 -16 34 -22 6 -6 17 -8 24 -5 8 3 14 0 14

-7 0 -7 6 -10 14 -7 20 8 50 -28 43 -53 -4 -16 -2 -19 7 -11 7 6 22 9 34 6 14

-2 27 4 37 18 8 12 12 23 7 25 -11 3 -7 55 6 78 9 16 11 13 18 -21 4 -22 7

-45 6 -52 -2 -6 2 -14 7 -18 6 -3 8 -12 5 -20 -8 -19 9 -46 22 -37 24 15 54

136 51 207 -2 64 3 109 19 175 4 14 9 56 11 94 4 51 2 71 -8 77 -8 5 -9 9 -4

9 6 0 10 11 10 25 -2 31 -15 46 -15 16z"/>

<path d="M5080 1303 c-90 -34 -158 -74 -180 -107 -14 -20 -28 -36 -31 -36 -4

0 -31 -24 -62 -53 -45 -43 -65 -74 -105 -163 -27 -60 -61 -140 -76 -179 -15

-38 -36 -89 -47 -112 -10 -24 -19 -51 -19 -60 -1 -68 -84 -226 -151 -286 -55

-50 -126 -109 -143 -119 -26 -15 -55 3 -62 37 -7 39 -1 153 10 176 6 13 -5 23

-51 45 -32 16 -69 29 -83 31 -41 3 -210 52 -225 65 -5 4 -18 8 -30 8 -11 0

-30 7 -42 15 -20 14 -22 14 -28 -5 -3 -11 -10 -20 -14 -20 -11 0 -31 -47 -31

-72 0 -11 13 -64 29 -117 17 -53 41 -141 56 -196 14 -55 30 -112 36 -127 l11

-28 114 0 c104 0 113 2 119 20 6 18 12 22 31 19 4 0 11 5 15 13 6 9 9 7 9 -9

0 -14 6 -23 15 -23 8 0 15 -6 15 -12 0 -10 3 -9 9 1 7 11 9 11 14 0 4 -12 7

-11 16 1 9 13 11 13 11 1 0 -12 3 -11 13 2 13 19 84 57 104 57 15 0 17 -26 3

-35 -5 -3 -10 -13 -10 -21 0 -12 32 -14 194 -14 177 0 195 2 200 18 7 19 76

100 76 88 0 -5 7 -3 15 4 18 15 18 16 0 -44 -8 -27 -15 -53 -15 -58 0 -4 74

-8 165 -8 l165 0 0 655 c0 683 1 663 -40 648z"/>

<path d="M1640 1153 c0 -12 -6 -23 -12 -25 -8 -3 3 -26 32 -64 24 -32 59 -88

77 -124 l33 -65 0 37 c0 39 -32 135 -59 178 -8 14 -28 38 -43 54 -26 28 -28

28 -28 9z"/>

<path d="M12 992 c-9 -3 -12 -114 -12 -498 l0 -494 79 0 78 0 -3 83 c-4 108

-13 160 -30 170 -14 8 -10 49 6 72 4 6 6 24 5 40 -2 17 -6 77 -9 134 -3 56 -8

106 -10 110 -2 3 -7 44 -10 91 -14 198 -17 211 -66 276 -8 11 -21 19 -28 16z"/>

<path d="M1680 954 c-6 -14 -10 -33 -10 -43 0 -9 -5 -22 -10 -27 -7 -7 -8 -19

-1 -37 7 -17 7 -27 1 -27 -6 0 -10 -5 -10 -11 0 -6 6 -9 14 -6 19 7 36 -12 36

-40 0 -23 14 -31 25 -14 3 5 0 13 -7 17 -7 5 -4 10 12 16 21 8 22 13 17 61 -5

45 -41 137 -53 137 -3 0 -9 -12 -14 -26z"/>

<path d="M4313 933 c-7 -2 -13 -11 -13 -19 0 -9 -5 -12 -12 -8 -7 4 -5 -2 5

-13 22 -25 5 -37 -28 -20 -11 5 -17 6 -13 2 4 -4 -2 -22 -12 -40 -19 -34 -19

-34 3 -37 l22 -3 -22 -22 c-14 -14 -29 -20 -39 -16 -15 5 -14 3 1 -21 14 -22

16 -29 6 -35 -7 -5 -13 -12 -14 -17 -1 -5 -9 -9 -18 -8 -9 1 -16 -5 -16 -13 0

-7 4 -10 9 -5 13 13 69 2 61 -12 -4 -6 1 -4 11 4 18 14 18 15 -5 21 -24 5 -24

5 -2 13 19 6 32 35 38 81 3 22 28 71 47 92 15 16 18 27 12 45 -4 12 -7 26 -6

31 1 4 1 7 0 6 -2 0 -9 -3 -15 -6z"/>

</g>

</svg>

