<?xml version="1.0" standalone="no"?>

<!DOCTYPE svg PUBLIC "-//W3C//DTD SVG 20010904//EN"

 "http://www.w3.org/TR/2001/REC-SVG-20010904/DTD/svg10.dtd">

<svg version="1.0" xmlns="http://www.w3.org/2000/svg"

 width="113.385827" height="69.266893" viewBox="0 0 113.385827 69.266893"

 preserveAspectRatio="xMidYMid meet">

<metadata>

Created by potrace 1.15, written by Peter Selinger 2001-2017

</metadata>

<g transform="translate(-16.068650,93.696072) scale(0.045264,-0.045264)"

fill="#000000" stroke="none">

<path d="M360 1840 l0 -230 35 0 35 0 2 188 3 187 487 3 488 2 0 -120 0 -120

-150 0 -150 0 0 -40 0 -40 190 0 190 0 0 200 0 200 -565 0 -565 0 0 -230z"/>

<path d="M1580 1870 l0 -200 345 0 c190 0 345 -3 345 -8 0 -4 -160 -167 -355

-362 l-355 -355 2 -200 3 -200 303 -3 302 -2 0 45 0 45 -260 0 -260 0 0 142 0

143 417 417 418 418 -408 0 -407 0 0 120 0 120 250 0 250 0 0 40 0 40 -295 0

-295 0 0 -200z"/>

<path d="M2260 2030 l0 -40 265 0 265 0 0 -138 0 -137 -420 -420 -420 -420

417 -5 418 -5 3 -118 3 -117 -266 0 -265 0 0 -40 0 -40 300 0 300 0 0 200 0

200 -362 0 -363 0 363 363 362 362 0 198 0 197 -300 0 -300 0 0 -40z"/>

<path d="M700 1585 l0 -165 258 -2 257 -3 0 -100 0 -100 -257 -3 -258 -2 0

-170 0 -170 355 0 355 0 0 -120 0 -120 -485 0 -485 0 -2 393 -3 392 -40 0 -40

0 0 -435 0 -435 570 0 570 0 3 202 2 203 -357 2 -358 3 -3 88 -3 87 261 0 260

0 0 185 0 185 -257 2 -258 3 0 80 0 80 93 3 92 3 0 39 0 40 -135 0 -135 0 0

-165z"/>

</g>

</svg>

